<?xml version="1.0" encoding="iso-8859-1"?>
<!-- Generator: Adobe Illustrator 16.0.0, SVG Export Plug-In . SVG Version: 6.00 Build 0)  -->
<!DOCTYPE svg PUBLIC "-//W3C//DTD SVG 1.1//EN" "http://www.w3.org/Graphics/SVG/1.1/DTD/svg11.dtd">
<svg version="1.1" id="Capa_1" xmlns="http://www.w3.org/2000/svg" xmlns:xlink="http://www.w3.org/1999/xlink" x="0px" y="0px"
	 width="460.517px" height="460.518px" viewBox="0 0 460.517 460.518" style="enable-background:new 0 0 460.517 460.518;"
	 xml:space="preserve">
<g>
	<path d="M460.517,270.846c0,9.194-7.459,16.647-16.654,16.647c-7.83,0-14.357-5.431-16.136-12.726l-98.791-14.236
		c-2.533,9.231-6.405,17.884-11.466,25.732l49.207,31.164c5.48-6.101,13.408-9.962,22.262-9.962
		c16.538,0,29.959,13.421,29.959,29.965c0,16.545-13.415,29.965-29.959,29.965c-16.551,0-29.971-13.408-29.971-29.965
		c0-4.109,0.828-8.025,2.332-11.588l-49.657-31.443c-12.337,15.271-29.423,26.487-48.987,31.596l8.859,54.797
		c11.588,0.401,20.874,9.87,20.874,21.556c0,11.952-9.694,21.641-21.641,21.641c-11.947,0-21.641-9.688-21.641-21.641
		c0-8.708,5.182-16.173,12.604-19.607l-8.842-54.754c-4.506,0.658-9.073,1.12-13.749,1.12c-12.659,0-24.707-2.575-35.707-7.148
		L163.79,429.469c2.408,2.271,3.93,5.479,3.93,9.048c0,6.894-5.586,12.489-12.486,12.489c-6.896,0-12.482-5.584-12.482-12.489
		c0-6.601,5.139-11.946,11.624-12.397l39.987-108.484c-8.095-4.444-15.457-10.047-21.863-16.599l-61.58,44.975
		c-0.137,8.146-6.765,14.724-14.952,14.724c-8.272,0-14.976-6.704-14.976-14.979s6.704-14.979,14.976-14.979
		c4.622,0,8.705,2.144,11.448,5.432l58.501-42.728c-8.973-11.387-15.372-24.881-18.252-39.658l-91.252,8.549
		c-1.583,14.127-13.563,25.111-28.11,25.111C12.672,287.481,0,274.816,0,259.191c0-15.637,12.672-28.309,28.303-28.309
		c13.283,0,24.399,9.171,27.444,21.513l90.555-8.506c-0.226-2.643-0.405-5.304-0.405-8.002c0-18.438,5.422-35.575,14.656-50.043
		l-20.134-15.178c-4.725,4.284-10.936,6.96-17.813,6.96c-14.708,0-26.631-11.922-26.631-26.631
		c0-14.708,11.923-26.631,26.631-26.631c14.717,0,26.637,11.923,26.637,26.631c0,4.214-1.072,8.147-2.81,11.697l19.921,15.007
		c12.65-15.798,30.342-27.328,50.637-32.285L198.345,39.215c-7.082-1.185-12.489-7.308-12.489-14.727
		c0-8.275,6.704-14.977,14.976-14.977c8.275,0,14.979,6.701,14.979,14.977c0,5.586-3.093,10.4-7.633,12.981l18.624,106.113
		c4.037-0.536,8.129-0.911,12.306-0.911c10.534,0,20.637,1.784,30.068,5.017l21.312-59.421c-2.412-2.277-3.934-5.48-3.934-9.055
		c0-6.896,5.59-12.488,12.482-12.488c6.899,0,12.482,5.587,12.482,12.488c0,6.604-5.139,11.947-11.618,12.398l-21.445,59.82
		c14.419,6.765,26.853,17.092,36.12,29.886l66.408-37.954c-0.748-2.326-1.26-4.771-1.26-7.347c0-13.359,10.82-24.186,24.186-24.186
		c13.366,0,24.187,10.826,24.187,24.186c0,13.357-10.82,24.184-24.187,24.184c-7.179,0-13.561-3.188-17.993-8.157l-65.902,37.662
		c7.794,13.624,12.318,29.368,12.318,46.183c0,5.072-0.512,10.005-1.291,14.864l97.347,14.017c2.442-6.174,8.434-10.57,15.473-10.57
		C453.051,254.198,460.517,261.651,460.517,270.846z"/>
</g>
<g>
</g>
<g>
</g>
<g>
</g>
<g>
</g>
<g>
</g>
<g>
</g>
<g>
</g>
<g>
</g>
<g>
</g>
<g>
</g>
<g>
</g>
<g>
</g>
<g>
</g>
<g>
</g>
<g>
</g>
</svg>
