<?xml version="1.0" encoding="iso-8859-1"?>
<!-- Generator: Adobe Illustrator 19.0.0, SVG Export Plug-In . SVG Version: 6.00 Build 0)  -->
<svg version="1.1" id="Layer_1" xmlns="http://www.w3.org/2000/svg" xmlns:xlink="http://www.w3.org/1999/xlink" x="0px" y="0px"
	 viewBox="0 0 512 512" style="enable-background:new 0 0 512 512;" xml:space="preserve">
<g id="Others">
</g>
<g id="Design">
	<g id="lamp">
		
			<radialGradient id="SVGID_1_" cx="256" cy="258" r="256" gradientTransform="matrix(1 0 0 -1 0 514)" gradientUnits="userSpaceOnUse">
			<stop  offset="0" style="stop-color:#2A93D8"/>
			<stop  offset="1" style="stop-color:#227FBB"/>
		</radialGradient>
		<circle style="fill:url(#SVGID_1_);" cx="256" cy="256" r="256"/>
		<g>
			<path style="fill:#94A5A6;" d="M238.5,414.76c-7.541,0-13.5-6.114-13.5-13.656v-49.278l-128.818-99.69
				c-2.928-2.268-4.824-5.627-5.229-9.309s0.696-7.369,3.062-10.218L212.568,89.896c4.818-5.802,13.428-6.598,19.23-1.778
				c5.802,4.819,6.597,13.431,1.776,19.232L124.053,239.188l122.779,95.138c3.341,2.587,5.168,6.574,5.168,10.8v55.978
				C252,408.646,246.043,414.76,238.5,414.76z"/>
		</g>
		<path style="fill:#7E8C8D;" d="M202.916,144.255l30.658-36.905c4.82-5.802,4.023-14.413-1.777-19.232
			c-5.803-4.819-14.413-4.023-19.232,1.778L184.35,123.86L202.916,144.255z"/>
		<path style="fill:#7E8C8D;" d="M146.498,256.563l-22.445-17.375l19.326-23.265c-5.771-7.384-14.284-12.519-23.998-13.857
			l-25.372,30.542c-2.366,2.849-3.475,6.536-3.069,10.218c0.404,3.682,2.286,7.041,5.215,9.309l28.291,21.899
			C133.887,271.333,141.787,264.962,146.498,256.563z"/>
		<path style="fill:#7E8C8D;" d="M246.832,334.326l-28.277-21.938c-8.041,4.725-14.078,12.406-16.732,21.543L225,351.825v27.134
			c4,1.364,7.825,2.114,12.135,2.114c5.348,0,10.865-1.154,14.865-3.212v-32.735C252,340.9,250.173,336.913,246.832,334.326z"/>
		<path style="fill:#D9521E;" d="M298.43,164.896l-71.14,75.002c0,0,38.949-22.211,81.44-64.702
			c42.812-42.812,64.701-81.44,64.701-81.44L298.43,164.896z"/>
		<path style="opacity:0.4;fill:#ECF0F1;enable-background:new    ;" d="M501.105,330.062L312.803,126.984l-48.254,39.173
			L364.701,452h55.963C458.222,420.413,486.566,378.236,501.105,330.062z"/>
		<circle style="fill:#ECF0F1;" cx="297.142" cy="163.287" r="32.094"/>
		<path style="fill:#EC7C2D;" d="M297.395,95.162c-4.994,0.364-12.109-2.097-15.813-5.468l-55.284-50.325
			c-3.703-3.372-9.629-3.232-13.17,0.308l-39.596,39.594c-3.539,3.541-3.68,9.468-0.308,13.171l50.325,55.285
			c3.372,3.703,5.834,10.818,5.469,15.812l-5.252,72.107c-0.363,4.994,2.236,6.184,5.777,2.643L372.145,95.688
			c3.541-3.541,2.352-6.141-2.643-5.776L297.395,95.162z"/>
		<circle style="fill:#BDC3C7;" cx="114.322" cy="238.584" r="32.322"/>
		<circle style="fill:#ECF0F1;" cx="114.321" cy="238.584" r="21.015"/>
		<circle style="fill:#BDC3C7;" cx="237.235" cy="344.199" r="32.322"/>
		<circle style="fill:#ECF0F1;" cx="237.234" cy="344.199" r="21.016"/>
		<g>
			<g>
				<path style="fill:#2A3E4F;" d="M275,434.99c0,0.006-0.004,0.01-0.01,0.01h-70.98c-0.006,0-0.01-0.004-0.01-0.01v-28.98
					c0-0.006,0.004-0.01,0.01-0.01h70.98c0.006,0,0.01,0.004,0.01,0.01V434.99z"/>
			</g>
			<g>
				<path style="fill:#32495D;" d="M332.826,442.986c0.004,0.003,0.004,0.014-0.002,0.014H145.287c-0.006,0-0.006-0.011-0.002-0.014
					l27.299-22.865c0.004-0.003,0.012-0.121,0.012-0.121H305.51c0.006,0,0.014,0.118,0.018,0.121L332.826,442.986z"/>
			</g>
			<g>
				<path style="fill:#2A3E4F;" d="M342,452.99c0,0.006-0.004,0.01-0.01,0.01H136.01c-0.006,0-0.01-0.004-0.01-0.01v-14.98
					c0-0.006,0.004-0.01,0.01-0.01h205.98c0.006,0,0.01,0.004,0.01,0.01V452.99z"/>
			</g>
		</g>
	</g>
</g>
<g id="SEO_x2F__Web">
</g>
<g id="Finance__x2F__Money">
</g>
<g id="E-Commerce__x2F__Shopping">
</g>
<g id="Strategy">
</g>
<g>
</g>
<g>
</g>
<g>
</g>
<g>
</g>
<g>
</g>
<g>
</g>
<g>
</g>
<g>
</g>
<g>
</g>
<g>
</g>
<g>
</g>
<g>
</g>
<g>
</g>
<g>
</g>
<g>
</g>
</svg>
