<?xml version="1.0" encoding="iso-8859-1"?>
<!-- Generator: Adobe Illustrator 19.0.0, SVG Export Plug-In . SVG Version: 6.00 Build 0)  -->
<svg version="1.1" id="Layer_1" xmlns="http://www.w3.org/2000/svg" xmlns:xlink="http://www.w3.org/1999/xlink" x="0px" y="0px"
	 viewBox="0 0 496.158 496.158" style="enable-background:new 0 0 496.158 496.158;" xml:space="preserve">
<path style="fill:#25B7D3;" d="M496.158,248.085c0-137.021-111.07-248.082-248.076-248.082C111.07,0.003,0,111.063,0,248.085
	c0,137.002,111.07,248.07,248.083,248.07C385.088,496.155,496.158,385.087,496.158,248.085z"/>
<g>
	<path style="fill:#FFFFFF;" d="M400.884,237.559l-141.185-86.691c-3.854-2.367-8.927-2.471-12.873-0.262
		c-4.018,2.248-6.513,6.504-6.513,11.106v172.7c0,4.596,2.487,8.848,6.493,11.097c1.899,1.068,4.056,1.63,6.234,1.63
		c2.338,0,4.627-0.642,6.621-1.855l141.184-86.01c3.758-2.289,6.098-6.445,6.105-10.846
		C406.958,244.026,404.634,239.86,400.884,237.559z"/>
	<path style="fill:#FFFFFF;" d="M335.583,221.572H101.256c-6.655,0-12.048,5.396-12.048,12.048v28.916
		c0,6.654,5.393,12.047,12.048,12.047h234.328c6.654,0,12.047-5.393,12.047-12.047V233.62
		C347.631,226.968,342.237,221.572,335.583,221.572z"/>
</g>
<g>
</g>
<g>
</g>
<g>
</g>
<g>
</g>
<g>
</g>
<g>
</g>
<g>
</g>
<g>
</g>
<g>
</g>
<g>
</g>
<g>
</g>
<g>
</g>
<g>
</g>
<g>
</g>
<g>
</g>
</svg>
