<?xml version="1.0" encoding="iso-8859-1"?>
<!-- Generator: Adobe Illustrator 19.0.0, SVG Export Plug-In . SVG Version: 6.00 Build 0)  -->
<svg version="1.1" id="Layer_1" xmlns="http://www.w3.org/2000/svg" xmlns:xlink="http://www.w3.org/1999/xlink" x="0px" y="0px"
	 viewBox="0 0 511.999 511.999" style="enable-background:new 0 0 511.999 511.999;" xml:space="preserve">
<g>
	<path style="fill:#ADA7A4;" d="M77.494,308.902c-20.956,0-38.005-17.049-38.005-38.005c0-6.999-5.674-12.672-12.672-12.672
		s-12.672,5.673-12.672,12.672c0,34.93,28.419,63.348,63.348,63.348h26.452v-25.343L77.494,308.902L77.494,308.902z"/>
	<path style="fill:#ADA7A4;" d="M481.521,274.688h-43.052c-10.052-25.393-28.036-47.853-51.571-65.401
		c-0.399-51.083-6.4-82.887-20.735-82.887c-10.549,0-42.381,18.355-65.515,46.696c-12.314-2.117-25.076-3.239-38.158-3.239
		c-102.171,0-184.997,67.925-184.997,151.714c0,44.775,23.657,85.014,61.273,112.784l-12.216,69.28l47.421,8.362l9.391-53.26
		c23.991,9.325,50.814,14.548,79.127,14.548s55.136-5.225,79.127-14.548l9.391,53.26l47.421-8.362l-12.216-69.28
		c23.868-17.621,42.107-40.263,52.256-65.899h43.052c9.02,0,16.331-7.312,16.331-16.331v-61.108
		C497.853,282,490.541,274.688,481.521,274.688z"/>
</g>
<path style="fill:#7A7674;" d="M484.09,296.729c-6.997,0-12.672,5.673-12.672,12.672s5.674,12.672,12.672,12.672h13.763v-25.343
	H484.09z"/>
<circle style="fill:#FFB14D;" cx="262.494" cy="55.122" r="55.122"/>
<path style="fill:#3D3D3B;" d="M308.23,237.185c-1.272,0-2.564-0.193-3.84-0.598c-13.345-4.239-27.442-6.389-41.898-6.389
	c-14.456,0-28.553,2.149-41.899,6.389c-6.672,2.12-13.794-1.571-15.914-8.24c-2.119-6.67,1.571-13.794,8.242-15.913
	c15.831-5.028,32.509-7.578,49.572-7.578c17.064,0,33.741,2.55,49.57,7.578c6.67,2.119,10.36,9.243,8.24,15.913
	C318.589,233.74,313.601,237.185,308.23,237.185z"/>
<g>
</g>
<g>
</g>
<g>
</g>
<g>
</g>
<g>
</g>
<g>
</g>
<g>
</g>
<g>
</g>
<g>
</g>
<g>
</g>
<g>
</g>
<g>
</g>
<g>
</g>
<g>
</g>
<g>
</g>
</svg>
