<svg height="511pt" viewBox="0 1 511 511.99896" width="511pt" xmlns="http://www.w3.org/2000/svg"><path d="m50.984375 27.722656h396.160156v484.277344h-396.160156zm0 0" fill="#49c3e0"/><path d="m447.144531 0h-396.160156c-7.289063 0-13.199219 5.910156-13.199219 13.203125v29.042969c0 7.292968 5.910156 13.203125 13.199219 13.203125h396.160156c7.292969 0 13.203125-5.910157 13.203125-13.203125v-29.042969c0-7.292969-5.910156-13.203125-13.203125-13.203125zm0 0" fill="#00a5c6"/><path d="m162.066406 116.113281c-4.265625 0-7.726562-3.457031-7.726562-7.726562v-15.742188c0-4.269531 3.460937-7.726562 7.726562-7.726562 4.269532 0 7.726563 3.457031 7.726563 7.726562v15.742188c0 4.269531-3.457031 7.726562-7.726563 7.726562zm0 0" fill="#3a484a"/><path d="m336.066406 116.113281c-4.269531 0-7.726562-3.457031-7.726562-7.726562v-15.742188c0-4.269531 3.457031-7.726562 7.726562-7.726562 4.265625 0 7.722656 3.457031 7.722656 7.726562v15.742188c0 4.269531-3.457031 7.726562-7.722656 7.726562zm0 0" fill="#3a484a"/><path d="m249.066406 124.519531c-10.597656 0-20.542968-4.425781-27.289062-12.140625-2.808594-3.214844-2.480469-8.09375.730468-10.902344 3.214844-2.8125 8.09375-2.480468 10.902344.730469 3.808594 4.359375 9.515625 6.859375 15.65625 6.859375 6.136719 0 11.84375-2.5 15.652344-6.859375 2.808594-3.214843 7.691406-3.542969 10.902344-.734375 3.214844 2.808594 3.542968 7.691406.734375 10.902344-6.746094 7.71875-16.691407 12.144531-27.289063 12.144531zm0 0" fill="#3a484a"/><g fill="#ffcd38"><path d="m184.925781 231.300781h-66.75c-6.382812 0-11.558593 5.175781-11.558593 11.558594v66.75c0 6.382813 5.175781 11.558594 11.558593 11.558594h66.75c6.386719 0 11.558594-5.175781 11.558594-11.558594v-66.75c0-6.382813-5.171875-11.558594-11.558594-11.558594zm0 0"/><path d="m313.203125 231.300781h66.753906c6.382813 0 11.558594 5.175781 11.558594 11.558594v66.75c0 6.382813-5.175781 11.558594-11.558594 11.558594h-66.753906c-6.382813 0-11.554687-5.175781-11.554687-11.558594v-66.75c0-6.382813 5.171874-11.558594 11.554687-11.558594zm0 0"/><path d="m184.925781 368.332031h-66.75c-6.382812 0-11.558593 5.171875-11.558593 11.554688v66.753906c0 6.382813 5.175781 11.554687 11.558593 11.554687h66.75c6.386719 0 11.558594-5.171874 11.558594-11.554687v-66.753906c0-6.382813-5.171875-11.554688-11.558594-11.554688zm0 0"/><path d="m313.203125 368.332031h66.753906c6.382813 0 11.558594 5.171875 11.558594 11.554688v66.753906c0 6.382813-5.175781 11.554687-11.558594 11.554687h-66.753906c-6.382813 0-11.554687-5.171874-11.554687-11.554687v-66.753906c0-6.382813 5.171874-11.554688 11.554687-11.554688zm0 0"/></g><path d="m130.027344 154.371094c-4.332032 0-8.410156 1.09375-11.972656 3.015625.015624-.445313.035156-.890625.035156-1.34375 0-24.949219-20.222656-45.171875-45.171875-45.171875-21.183594 0-38.957031 14.585937-43.835938 34.261718-15.898437.679688-28.582031 13.777344-28.582031 29.84375 0 16.5 13.375 29.875 29.875 29.875h99.652344c13.941406 0 25.242187-11.300781 25.242187-25.238281-.003906-13.941406-11.304687-25.242187-25.242187-25.242187zm0 0" fill="#efedee"/><path d="m31.40625 174.976562c0-16.066406 12.679688-29.167968 28.578125-29.84375 3.632813-14.636718 14.398437-26.449218 28.394531-31.542968-4.824218-1.757813-10.03125-2.71875-15.460937-2.71875-21.183594 0-38.957031 14.585937-43.835938 34.261718-15.898437.679688-28.582031 13.777344-28.582031 29.84375 0 16.5 13.375 29.875 29.875 29.875h30.90625c-16.5 0-29.875-13.375-29.875-29.875zm0 0" fill="#d4d2d3"/><path d="m479.953125 201.5c-4.902344 0-9.539063 1.128906-13.671875 3.140625-6.390625-15.964844-21.992188-27.246094-40.238281-27.246094-15.835938 0-29.683594 8.496094-37.242188 21.175781-5.441406-23.804687-26.726562-41.570312-52.179687-41.570312-26.492188 0-48.476563 19.25-52.765625 44.519531-.257813-.007812-.511719-.019531-.769531-.019531-17.28125 0-31.289063 14.007812-31.289063 31.285156 0 17.28125 14.007813 31.289063 31.289063 31.289063h196.871093c17.277344 0 31.285157-14.007813 31.285157-31.289063 0-17.277344-14.007813-31.285156-31.289063-31.285156zm0 0" fill="#efedee"/><path d="m282.699219 232.789062c0-17.28125 14.011719-31.289062 31.289062-31.289062.257813 0 .515625.015625.773438.019531 3.417969-20.144531 18.089843-36.453125 37.320312-42.242187-4.898437-1.476563-10.082031-2.277344-15.460937-2.277344-26.492188 0-48.476563 19.25-52.765625 44.519531-.257813-.007812-.511719-.019531-.773438-.019531-17.277343 0-31.285156 14.007812-31.285156 31.285156 0 17.28125 14.007813 31.289063 31.285156 31.289063h30.90625c-17.277343 0-31.289062-14.007813-31.289062-31.285157zm0 0" fill="#d4d2d3"/></svg>