<?xml version="1.0" encoding="iso-8859-1"?>
<!-- Generator: Adobe Illustrator 19.0.0, SVG Export Plug-In . SVG Version: 6.00 Build 0)  -->
<svg version="1.1" id="Layer_1" xmlns="http://www.w3.org/2000/svg" xmlns:xlink="http://www.w3.org/1999/xlink" x="0px" y="0px"
	 viewBox="0 0 512 512" style="enable-background:new 0 0 512 512;" xml:space="preserve">
<polygon style="fill:#E6E2E0;" points="72.796,0 72.796,512 354.275,512 378.54,451.337 439.204,427.071 439.204,0 "/>
<polygon style="fill:#CCC4C1;" points="354.275,427.071 354.275,512 439.204,427.071 "/>
<g>
	<path style="fill:#EE3840;" d="M155.299,335.555c-2.725,0-5.386-0.918-7.543-2.629l-21.839-17.332
		c-5.247-4.166-6.127-11.798-1.961-17.046c4.165-5.25,11.795-6.127,17.046-1.961l12.242,9.716l31.302-40.247
		c4.115-5.29,11.738-6.239,17.026-2.128c5.289,4.114,6.242,11.737,2.128,17.026l-38.825,49.918
		c-1.989,2.555-4.916,4.211-8.131,4.597C156.262,335.527,155.779,335.555,155.299,335.555z"/>
	<path style="fill:#EE3840;" d="M155.299,250.626c-2.725,0-5.386-0.918-7.543-2.629l-21.839-17.332
		c-5.247-4.166-6.127-11.798-1.961-17.046c4.165-5.249,11.795-6.128,17.046-1.961l12.242,9.716l31.302-40.247
		c4.115-5.289,11.738-6.24,17.026-2.128c5.289,4.114,6.242,11.737,2.128,17.026l-38.825,49.918
		c-1.989,2.555-4.916,4.211-8.131,4.597C156.262,250.599,155.779,250.626,155.299,250.626z"/>
	<path style="fill:#EE3840;" d="M155.299,165.698c-2.725,0-5.386-0.918-7.543-2.629l-21.839-17.332
		c-5.247-4.166-6.127-11.798-1.961-17.046c4.165-5.249,11.795-6.127,17.046-1.961l12.242,9.716l31.302-40.247
		c4.115-5.29,11.738-6.239,17.026-2.128c5.289,4.114,6.242,11.737,2.128,17.026l-38.825,49.918
		c-1.989,2.555-4.916,4.211-8.131,4.597C156.262,165.67,155.779,165.698,155.299,165.698z"/>
</g>
<g>
	<path style="fill:#7A7674;" d="M366.408,140.739H230.521c-6.7,0-12.133-5.433-12.133-12.133c0-6.7,5.433-12.133,12.133-12.133
		h135.886c6.7,0,12.133,5.433,12.133,12.133C378.54,135.306,373.107,140.739,366.408,140.739z"/>
	<path style="fill:#7A7674;" d="M366.408,225.668H230.521c-6.7,0-12.133-5.433-12.133-12.133s5.433-12.133,12.133-12.133h135.886
		c6.7,0,12.133,5.433,12.133,12.133S373.107,225.668,366.408,225.668z"/>
	<path style="fill:#7A7674;" d="M366.408,310.597H230.521c-6.7,0-12.133-5.433-12.133-12.133c0-6.7,5.433-12.133,12.133-12.133
		h135.886c6.7,0,12.133,5.433,12.133,12.133C378.54,305.164,373.107,310.597,366.408,310.597z"/>
</g>
<g>
</g>
<g>
</g>
<g>
</g>
<g>
</g>
<g>
</g>
<g>
</g>
<g>
</g>
<g>
</g>
<g>
</g>
<g>
</g>
<g>
</g>
<g>
</g>
<g>
</g>
<g>
</g>
<g>
</g>
</svg>
