<?xml version="1.0" encoding="iso-8859-1"?>
<!-- Generator: Adobe Illustrator 19.0.0, SVG Export Plug-In . SVG Version: 6.00 Build 0)  -->
<svg version="1.1" id="Layer_1" xmlns="http://www.w3.org/2000/svg" xmlns:xlink="http://www.w3.org/1999/xlink" x="0px" y="0px"
	 viewBox="0 0 512.001 512.001" style="enable-background:new 0 0 512.001 512.001;" xml:space="preserve">
<path style="fill:#C6C5CA;" d="M479.304,182.632c-2.183-1.38-4.92-1.54-7.247-0.433l-21.629,10.294l-40.266-28.475
	c-1.73-1.223-3.899-1.659-5.964-1.203l-35.343,7.805l-26.727-36.43c-1.922-2.621-5.316-3.707-8.405-2.699
	c-3.091,1.013-5.181,3.896-5.181,7.148v293.287c0,4.155,3.366,7.521,7.521,7.521H475.29c4.154,0,7.521-3.366,7.521-7.521V188.991
	C482.809,186.41,481.486,184.01,479.304,182.632z"/>
<path style="fill:#ACACAD;" d="M479.304,182.632c-2.183-1.38-4.92-1.54-7.247-0.433l-21.629,10.294l-5.224-3.694v250.647h30.084
	c4.154,0,7.521-3.366,7.521-7.521V188.991C482.809,186.41,481.486,184.01,479.304,182.632z"/>
<g>
	<path style="fill:#848484;" d="M405.676,396.919c-4.155,0-7.521-3.366-7.521-7.521v-164.67c0-4.155,3.366-7.521,7.521-7.521
		c4.155,0,7.521,3.366,7.521,7.521v164.67C413.197,393.552,409.831,396.919,405.676,396.919z"/>
	<path style="fill:#848484;" d="M372.389,396.919c-4.155,0-7.521-3.366-7.521-7.521v-164.67c0-4.155,3.366-7.521,7.521-7.521
		c4.155,0,7.521,3.366,7.521,7.521v164.67C379.91,393.552,376.543,396.919,372.389,396.919z"/>
	<path style="fill:#848484;" d="M438.963,396.919c-4.155,0-7.521-3.366-7.521-7.521v-164.67c0-4.155,3.366-7.521,7.521-7.521
		s7.521,3.366,7.521,7.521v164.67C446.484,393.552,443.117,396.919,438.963,396.919z"/>
</g>
<path style="fill:#C6C5CA;" d="M212.874,49.194H73.407c-4.155,0-7.521,3.366-7.521,7.521v375.09c0,4.155,3.366,7.521,7.521,7.521
	h139.466c4.155,0,7.521-3.366,7.521-7.521V56.715C220.395,52.56,217.027,49.194,212.874,49.194z"/>
<path style="fill:#ACACAD;" d="M212.874,49.194h-30.085v390.132h30.085c4.155,0,7.521-3.366,7.521-7.521V56.715
	C220.395,52.56,217.027,49.194,212.874,49.194z"/>
<g>
	<path style="fill:#848484;" d="M143.019,396.919c-4.155,0-7.521-3.366-7.521-7.521V95.271c0-4.155,3.366-7.521,7.521-7.521
		s7.521,3.366,7.521,7.521v294.127C150.54,393.552,147.173,396.919,143.019,396.919z"/>
	<path style="fill:#848484;" d="M109.733,396.919c-4.155,0-7.521-3.366-7.521-7.521V95.271c0-4.155,3.366-7.521,7.521-7.521
		c4.155,0,7.521,3.366,7.521,7.521v294.127C117.254,393.552,113.887,396.919,109.733,396.919z"/>
	<path style="fill:#848484;" d="M176.307,396.919c-4.155,0-7.521-3.366-7.521-7.521V95.271c0-4.155,3.366-7.521,7.521-7.521
		c4.155,0,7.521,3.366,7.521,7.521v294.127C183.828,393.552,180.461,396.919,176.307,396.919z"/>
</g>
<path style="fill:#ACACAD;" d="M247.507,466.83l-27.451-37.93H65.984l-27.451,37.93c-1.656,2.289-1.89,5.314-0.605,7.831
	c1.286,2.517,3.873,4.1,6.699,4.1h196.787c2.825,0,5.413-1.583,6.699-4.1C249.396,472.144,249.162,469.121,247.507,466.83z"/>
<path style="fill:#9E9E9E;" d="M247.507,466.83l-27.451-37.93h-37.36l27.451,37.93c1.656,2.289,1.89,5.314,0.606,7.831
	c-1.286,2.517-3.873,4.1-6.699,4.1h37.36c2.825,0,5.413-1.583,6.699-4.1C249.396,472.144,249.162,469.121,247.507,466.83z"/>
<path style="fill:#E0E0E2;" d="M241.37,463.72H44.668c-4.155,0-7.521,3.366-7.521,7.521v33.238c0,4.155,3.366,7.521,7.521,7.521
	h196.701c4.154,0,7.521-3.366,7.521-7.521v-33.238C248.892,467.086,245.524,463.72,241.37,463.72z"/>
<path style="fill:#C6C5CA;" d="M248.892,504.479v-33.238c0-4.155-3.367-7.521-7.521-7.521h-33.325V512h33.325
	C245.524,512,248.892,508.634,248.892,504.479z"/>
<path style="fill:#E0E0E2;" d="M278.01,0H8.255C4.1,0,0.734,3.367,0.734,7.521v49.188c0,22.106,17.984,40.09,40.09,40.09
	c19.535,0,35.851-14.046,39.381-32.569H206.06c3.53,18.523,19.847,32.569,39.381,32.569c22.106,0,40.09-17.984,40.09-40.09V7.521
	C285.531,3.367,282.164,0,278.01,0z"/>
<path style="fill:#C6C5CA;" d="M278.01,0h-37.718c4.155,0,7.521,3.367,7.521,7.521v49.188c0,15.292-8.608,28.606-21.232,35.365
	c5.625,3.012,12.045,4.725,18.859,4.725c22.106,0,40.09-17.984,40.09-40.09V7.521C285.531,3.367,282.164,0,278.01,0z"/>
<path style="fill:#ACACAD;" d="M236.957,26.205c-17.427,0-31.606,14.179-31.606,31.607v6.418h0.707
	c1.819,9.543,7.037,17.89,14.335,23.749V57.812c0-9.134,7.43-16.564,16.563-16.564c6.477,0,11.747,5.27,11.747,11.747
	c0,1.182-0.358,2.069-1.095,2.713c-0.768,0.67-1.619,0.824-1.907,0.804c-3.886-1.317-8.124,0.723-9.504,4.601
	c-1.393,3.914,0.651,8.215,4.565,9.608c4.795,1.705,10.636,0.746,15.244-2.506c4.919-3.471,7.74-9.017,7.74-15.22
	C263.746,38.222,251.729,26.205,236.957,26.205z"/>
<path style="fill:#C6C5CA;" d="M49.082,26.205c-14.771,0-26.789,12.017-26.789,26.789c0,6.202,2.821,11.749,7.74,15.22
	c4.609,3.252,10.447,4.211,15.244,2.506c3.913-1.393,5.957-5.694,4.565-9.608c-1.38-3.879-5.619-5.918-9.504-4.601
	c-0.278,0.021-1.142-0.134-1.907-0.804c-0.736-0.644-1.095-1.53-1.095-2.713c0-6.477,5.27-11.747,11.747-11.747
	c9.133,0,16.564,7.431,16.564,16.564v30.347c7.417-5.866,12.723-14.288,14.561-23.929h0.481v-6.418
	C80.687,40.384,66.508,26.205,49.082,26.205z"/>
<path style="fill:#ACACAD;" d="M482.397,428.9H328.991l-27.446,37.991c-1.654,2.289-1.886,5.313-0.601,7.828
	s3.872,4.097,6.697,4.097h196.105c2.824,0,5.411-1.582,6.697-4.097s1.054-5.538-0.601-7.828L482.397,428.9z"/>
<path style="fill:#9E9E9E;" d="M509.842,466.892L482.397,428.9h-37.055l27.445,37.991c1.654,2.289,1.886,5.313,0.601,7.828
	c-1.286,2.515-3.872,4.097-6.697,4.097h37.055c2.824,0,5.411-1.582,6.697-4.097S511.497,469.181,509.842,466.892z"/>
<path style="fill:#E0E0E2;" d="M503.703,463.775H307.684c-4.155,0-7.521,3.366-7.521,7.521v33.184c0,4.155,3.366,7.521,7.521,7.521
	h196.018c4.155,0,7.521-3.366,7.521-7.521v-33.184C511.224,467.141,507.857,463.775,503.703,463.775z"/>
<path style="fill:#C6C5CA;" d="M511.224,504.479v-33.184c0-4.155-3.366-7.521-7.521-7.521h-33.045V512h33.045
	C507.857,512,511.224,508.634,511.224,504.479z"/>
<g>
</g>
<g>
</g>
<g>
</g>
<g>
</g>
<g>
</g>
<g>
</g>
<g>
</g>
<g>
</g>
<g>
</g>
<g>
</g>
<g>
</g>
<g>
</g>
<g>
</g>
<g>
</g>
<g>
</g>
</svg>
