<?xml version="1.0" encoding="iso-8859-1"?>
<!-- Generator: Adobe Illustrator 19.0.0, SVG Export Plug-In . SVG Version: 6.00 Build 0)  -->
<svg version="1.1" id="Layer_1" xmlns="http://www.w3.org/2000/svg" xmlns:xlink="http://www.w3.org/1999/xlink" x="0px" y="0px"
	 viewBox="0 0 511.999 511.999" style="enable-background:new 0 0 511.999 511.999;" xml:space="preserve">
<g>
	
		<rect x="243.7" y="302.411" transform="matrix(-1 -0.0058 0.0058 -1 509.6859 682.9915)" style="fill:#3D3D3B;" width="24.266" height="76.692"/>
	<path style="fill:#3D3D3B;" d="M413.362,175.518v93.243H98.637v-93.243H74.372v105.376c0,6.7,5.432,12.133,12.133,12.133h338.99
		c6.701,0,12.133-5.433,12.133-12.133V175.518H413.362z"/>
</g>
<g>
	<path style="fill:#7A7674;" d="M255.999,0c-53.718,0-97.264,43.547-97.264,97.264v45.02c0,53.718,27.317,73.258,97.264,73.258
		s97.264-19.541,97.264-73.258v-45.02C353.264,43.547,309.717,0,255.999,0z"/>
	<path style="fill:#7A7674;" d="M378.272,280.894c0,18.578-15.06,33.637-33.637,33.637H167.364
		c-18.578,0-33.637-15.06-33.637-33.637s15.06-33.637,33.637-33.637h177.27C363.211,247.257,378.272,262.316,378.272,280.894z"/>
</g>
<g>
	<path style="fill:#181818;" d="M99.338,149.813H73.67c-7.952,0-14.398,6.446-14.398,14.398v23.438h54.464v-23.438
		C113.736,156.26,107.29,149.813,99.338,149.813z"/>
	<path style="fill:#181818;" d="M438.328,149.813H412.66c-7.952,0-14.398,6.446-14.398,14.398v23.438h54.464v-23.438
		C452.726,156.26,446.28,149.813,438.328,149.813z"/>
	<rect x="237.169" y="366.954" style="fill:#181818;" width="37.66" height="64.801"/>
</g>
<path style="fill:#3D3D3B;" d="M371.841,419.633H140.158c-6.701,0-12.133,5.433-12.133,12.133v45.368
	c0,6.7,5.432,12.133,12.133,12.133s12.133-5.433,12.133-12.133v-33.235h91.576v33.235h24.265v-33.235h91.576v33.235
	c0,6.7,5.432,12.133,12.133,12.133c6.701,0,12.133-5.433,12.133-12.133v-45.368C383.974,425.066,378.541,419.633,371.841,419.633z"
	/>
<g>
	<path style="fill:#524E4D;" d="M307.824,109.397H203.813c-6.701,0-12.133-5.433-12.133-12.133c0-6.7,5.432-12.133,12.133-12.133
		h104.011c6.701,0,12.133,5.433,12.133,12.133C319.957,103.964,314.525,109.397,307.824,109.397z"/>
	<path style="fill:#524E4D;" d="M307.824,168.535H203.813c-6.701,0-12.133-5.433-12.133-12.133s5.432-12.133,12.133-12.133h104.011
		c6.701,0,12.133,5.433,12.133,12.133S314.525,168.535,307.824,168.535z"/>
</g>
<g>
	<circle style="fill:#181818;" cx="140.156" cy="488.499" r="23.5"/>
	<circle style="fill:#181818;" cx="371.842" cy="488.499" r="23.5"/>
	<circle style="fill:#181818;" cx="255.999" cy="488.499" r="23.5"/>
</g>
<g>
</g>
<g>
</g>
<g>
</g>
<g>
</g>
<g>
</g>
<g>
</g>
<g>
</g>
<g>
</g>
<g>
</g>
<g>
</g>
<g>
</g>
<g>
</g>
<g>
</g>
<g>
</g>
<g>
</g>
</svg>
