<svg height="511pt" viewBox="-18 1 511 511.99998" width="511pt" xmlns="http://www.w3.org/2000/svg"><path d="m117.117188 0h-68.992188c-7.714844 0-13.96875 6.25-13.96875 13.953125v484.089844c0 7.703125 6.253906 13.957031 13.96875 13.957031h68.992188l40.769531-241.164062zm0 0" fill="#00a5c6"/><path d="m460.480469 154.050781-15.257813-22.472656-30.449218 22.472656v116.785157h45.703124c8.390626 0 15.195313-6.800782 15.195313-15.191407v-86.398437c0-8.390625-6.804687-15.195313-15.191406-15.195313zm0 0" fill="#ffcd38"/><path d="m460.480469 37.269531h-45.703125v116.78125h45.703125c8.390625 0 15.191406-6.800781 15.191406-15.191406v-86.398437c0-8.390626-6.804687-15.191407-15.191406-15.191407zm0 0" fill="#da5b65"/><path d="m436.992188 37.265625v437.46875c0 20.582031-16.683594 37.265625-37.265626 37.265625h-282.609374v-512h282.609374c20.582032 0 37.265626 16.683594 37.265626 37.265625zm0 0" fill="#49c3e0"/><g fill="#3a484a"><path d="m48.761719 56.4375h-29.207031c-10.523438 0-19.054688 8.53125-19.054688 19.054688 0 10.523437 8.53125 19.050781 19.054688 19.050781h29.207031c10.523437 0 19.054687-8.527344 19.054687-19.050781 0-10.523438-8.53125-19.054688-19.054687-19.054688zm0 0"/><path d="m48.761719 146.691406h-29.207031c-10.523438 0-19.054688 8.53125-19.054688 19.054688 0 10.523437 8.53125 19.054687 19.054688 19.054687h29.207031c10.523437 0 19.054687-8.53125 19.054687-19.054687 0-10.523438-8.53125-19.054688-19.054687-19.054688zm0 0"/><path d="m48.761719 236.945312h-29.207031c-10.523438 0-19.054688 8.53125-19.054688 19.054688s8.53125 19.054688 19.054688 19.054688h29.207031c10.523437 0 19.054687-8.53125 19.054687-19.054688s-8.53125-19.054688-19.054687-19.054688zm0 0"/><path d="m48.761719 327.199219h-29.207031c-10.523438 0-19.054688 8.53125-19.054688 19.054687 0 10.523438 8.53125 19.054688 19.054688 19.054688h29.207031c10.523437 0 19.054687-8.53125 19.054687-19.054688 0-10.523437-8.53125-19.054687-19.054687-19.054687zm0 0"/><path d="m48.761719 417.457031h-29.207031c-10.523438 0-19.054688 8.527344-19.054688 19.050781 0 10.523438 8.53125 19.054688 19.054688 19.054688h29.207031c10.523437 0 19.054687-8.53125 19.054687-19.054688 0-10.523437-8.53125-19.050781-19.054687-19.050781zm0 0"/></g><path d="m363.726562 75.492188h-173.34375c-10.433593 0-18.890624 8.457031-18.890624 18.890624v118.3125c0 10.433594 8.457031 18.890626 18.890624 18.890626h173.34375c10.433594 0 18.890626-8.457032 18.890626-18.890626v-118.3125c0-10.433593-8.457032-18.890624-18.890626-18.890624zm0 0" fill="#efedee"/><path d="m192.09375 212.695312v-118.3125c0-10.433593 8.460938-18.890624 18.894531-18.890624h-20.605469c-10.433593 0-18.890624 8.457031-18.890624 18.890624v118.3125c0 10.433594 8.457031 18.890626 18.890624 18.890626h20.605469c-10.433593 0-18.894531-8.457032-18.894531-18.890626zm0 0" fill="#d4d2d3"/><path d="m208.992188 164.136719c-4.265626 0-7.726563-3.460938-7.726563-7.726563v-12.316406c0-4.269531 3.460937-7.726562 7.726563-7.726562 4.269531 0 7.726562 3.457031 7.726562 7.726562v12.316406c0 4.265625-3.457031 7.726563-7.726562 7.726563zm0 0" fill="#3a484a"/><path d="m345.117188 164.136719c-4.269532 0-7.726563-3.460938-7.726563-7.726563v-12.316406c0-4.269531 3.457031-7.726562 7.726563-7.726562 4.265624 0 7.726562 3.457031 7.726562 7.726562v12.316406c0 4.265625-3.460938 7.726563-7.726562 7.726563zm0 0" fill="#3a484a"/><path d="m277.054688 170.710938c-8.777344 0-17.019532-3.671876-22.613282-10.074219-2.8125-3.210938-2.484375-8.09375.730469-10.902344 3.210937-2.808594 8.09375-2.480469 10.902344.734375 2.660156 3.042969 6.664062 4.789062 10.980469 4.789062 4.316406 0 8.320312-1.746093 10.980468-4.789062 2.808594-3.214844 7.691406-3.542969 10.902344-.734375 3.214844 2.808594 3.542969 7.691406.734375 10.902344-5.597656 6.402343-13.839844 10.074219-22.617187 10.074219zm0 0" fill="#3a484a"/><path d="m460.480469 37.269531h-23.488281v31.71875h38.679687v-16.527343c0-8.390626-6.804687-15.191407-15.191406-15.191407zm0 0" fill="#c0344a"/><path d="m460.480469 153.753906h-23.488281v31.722656h38.679687v-16.527343c0-8.390625-6.804687-15.195313-15.191406-15.195313zm0 0" fill="#e7b835"/></svg>