<?xml version="1.0" encoding="iso-8859-1"?>
<!-- Generator: Adobe Illustrator 19.0.0, SVG Export Plug-In . SVG Version: 6.00 Build 0)  -->
<svg version="1.1" id="Layer_1" xmlns="http://www.w3.org/2000/svg" xmlns:xlink="http://www.w3.org/1999/xlink" x="0px" y="0px"
	 viewBox="0 0 512 512" style="enable-background:new 0 0 512 512;" xml:space="preserve">
<g>
	<g>
		<path d="M141.846,0C63.632,0,0,63.633,0,141.846s63.632,141.846,141.846,141.846s141.846-63.632,141.846-141.846
			C283.693,63.633,220.061,0,141.846,0z M141.846,263.294c-66.967,0-121.448-54.481-121.448-121.448S74.88,20.398,141.846,20.398
			S263.294,74.88,263.294,141.846S208.813,263.294,141.846,263.294z"/>
	</g>
</g>
<g>
	<g>
		<path d="M148.003,127.353V86.255c14.172,1.012,19.436,7.491,24.294,7.491c6.074,0,8.908-7.694,8.908-11.54
			c0-9.921-19.436-14.172-33.202-14.577v-5.466c0-2.43-3.037-4.656-6.074-4.656c-3.442,0-5.871,2.227-5.871,4.656v5.872
			c-19.233,2.024-38.466,12.147-38.466,37.656c0,25.914,20.245,33.203,38.466,39.681v47.577
			c-20.65-1.62-26.117-15.791-32.798-15.791c-5.061,0-9.313,6.682-9.313,11.539c0,9.921,17.006,23.485,42.112,23.89v6.277
			c0,2.43,2.429,4.656,5.871,4.656c3.035,0,6.073-2.226,6.073-4.656v-6.883c21.865-3.037,36.847-16.804,36.847-41.707
			C184.849,142.74,165.617,133.832,148.003,127.353z M137.272,123.507c-10.731-4.05-19.436-8.301-19.436-19.841
			c0-10.528,8.098-15.589,19.436-17.007V123.507z M146.788,192.543v-42.717c9.921,4.252,17.816,9.921,17.816,22.675
			C164.604,184.039,157.721,190.519,146.788,192.543z"/>
	</g>
</g>
<g>
	<g>
		<path d="M370.154,228.307c-78.215,0-141.846,63.633-141.846,141.846S291.939,512,370.154,512S512,448.367,512,370.154
			S448.368,228.307,370.154,228.307z M370.154,491.602c-66.967,0-121.448-54.481-121.448-121.448s54.481-121.448,121.448-121.448
			s121.448,54.481,121.448,121.448S437.121,491.602,370.154,491.602z"/>
	</g>
</g>
<g>
	<g>
		<path d="M405.164,397.207c-7.24,0-10.659,1.81-10.659,6.638c-0.201,12.067-6.839,22.726-23.531,22.726
			c-18.301,0-24.134-12.871-24.134-23.933v-5.833h24.536c3.62,0,7.24-3.217,7.24-7.642c0-4.424-3.62-7.843-7.24-7.843H346.84V365.23
			h24.536c3.62,0,7.24-3.218,7.24-7.642c0-4.425-3.62-7.843-7.24-7.843H346.84v-7.642c-0.001-17.702,8.647-25.948,23.932-25.948
			c17.296,0,23.733,11.061,23.733,21.519c0,4.626,3.218,6.638,10.659,6.638c7.24,0,10.659-2.011,10.659-9.854
			c0-22.727-18.905-37.207-45.654-37.207c-24.939,0-44.648,12.268-44.648,44.85v7.642h-10.659c-4.023,0-6.839,3.419-6.839,8.045
			c0,4.424,2.816,7.441,6.839,7.441h10.659v16.088h-10.659c-4.023,0-6.839,3.42-6.839,8.045c0,4.425,2.816,7.441,6.839,7.441h10.659
			v5.833c0,26.95,16.894,42.839,44.648,42.839c26.748,0,45.654-15.085,45.654-38.213
			C415.824,399.218,412.606,397.207,405.164,397.207z"/>
	</g>
</g>
<g>
	<g>
		<path d="M459.549,183.386c-1.147-3.268-2.395-6.554-3.704-9.768c-2.128-5.215-8.077-7.718-13.296-5.592
			c-5.216,2.128-7.72,8.08-5.592,13.296c1.184,2.904,2.31,5.873,3.347,8.825c1.474,4.196,5.414,6.821,9.623,6.821
			c1.122,0,2.262-0.187,3.38-0.579C458.62,194.522,461.416,188.701,459.549,183.386z"/>
	</g>
</g>
<g>
	<g>
		<path d="M433.036,131.832c-24.373-34.75-59.211-61.845-98.68-76.916l20.507-11.462c4.917-2.749,6.675-8.962,3.927-13.879
			c-2.748-4.917-8.962-6.673-13.879-3.928l-43.758,24.457c-2.361,1.32-4.101,3.524-4.838,6.127
			c-0.736,2.603-0.409,5.391,0.911,7.753l24.459,43.759c1.868,3.342,5.337,5.225,8.912,5.225c1.684,0,3.392-0.418,4.967-1.297
			c4.917-2.749,6.674-8.962,3.927-13.879l-13.554-24.25c36.163,13.534,68.113,38.229,90.4,70.003
			c1.985,2.829,5.146,4.344,8.359,4.344c2.022,0,4.065-0.601,5.847-1.849C435.153,142.804,436.27,136.444,433.036,131.832z"/>
	</g>
</g>
<g>
	<g>
		<path d="M216.056,442.033l-24.458-43.757c-2.748-4.917-8.962-6.676-13.879-3.927c-4.917,2.748-6.675,8.962-3.927,13.878
			l13.906,24.879c-51.972-20.623-93.332-63.804-111.44-116.842c-1.821-5.33-7.619-8.174-12.948-6.356
			c-5.331,1.821-8.177,7.618-6.357,12.948c10.327,30.244,27.741,58.287,50.36,81.099c20.21,20.38,44.642,36.629,71.13,47.416
			l-20.024,11.192c-4.917,2.749-6.675,8.962-3.927,13.879c1.868,3.342,5.337,5.225,8.912,5.225c1.684,0,3.392-0.418,4.967-1.297
			l43.758-24.457c2.361-1.32,4.101-3.524,4.837-6.127C217.703,447.183,217.376,444.396,216.056,442.033z"/>
	</g>
</g>
<g>
</g>
<g>
</g>
<g>
</g>
<g>
</g>
<g>
</g>
<g>
</g>
<g>
</g>
<g>
</g>
<g>
</g>
<g>
</g>
<g>
</g>
<g>
</g>
<g>
</g>
<g>
</g>
<g>
</g>
</svg>
