<svg height="512pt" viewBox="0 0 512.00186 512" width="512pt" xmlns="http://www.w3.org/2000/svg"><path d="m274.46875 423.648438h-181.808594v-78.085938h23.695313l-53.179688-79.371094-53.175781 79.371094h23.695312v94.140625c0 22.882813 18.550782 41.4375 41.433594 41.4375h242.488282" fill="#49e298"/><path d="m386.699219 502c-63.578125 0-115.300781-51.722656-115.300781-115.300781s51.722656-115.300781 115.300781-115.300781 115.300781 51.722656 115.300781 115.300781-51.722656 115.300781-115.300781 115.300781zm0 0" fill="#ffd36c"/><path d="m461.007812 386.699219c0 41.039062-33.269531 74.3125-74.308593 74.3125-41.039063 0-74.308594-33.273438-74.308594-74.3125 0-41.039063 33.269531-74.308594 74.308594-74.308594 41.039062 0 74.308593 33.269531 74.308593 74.308594zm0 0" fill="#f4b74a"/><path d="m386.699219 471.011719c-46.488281 0-84.3125-37.824219-84.3125-84.3125s37.824219-84.308594 84.3125-84.308594 84.308593 37.820313 84.308593 84.308594-37.820312 84.3125-84.308593 84.3125zm0-148.621094c-35.460938 0-64.3125 28.847656-64.3125 64.308594 0 35.460937 28.851562 64.3125 64.3125 64.3125 35.460937 0 64.308593-28.851563 64.308593-64.3125 0-35.460938-28.847656-64.308594-64.308593-64.308594zm0 0"/><path d="m385.140625 421.480469c-12-.398438-21.800781-6.597657-21.800781-13 0-3.398438 3-8.398438 6.800781-8.398438 4.199219 0 7.601563 5.898438 15 7.199219v-16.199219c-9.199219-3.5-20-7.800781-20-20.601562 0-12.703125 9.398437-18.800781 20-20.300781v-2.804688c0-1.398438 1.601563-2.699219 3.800781-2.699219 1.898438 0 3.800782 1.300781 3.800782 2.699219v2.5c6.199218.203125 17.902343 1.804688 17.902343 8.703125 0 2.699219-1.800781 8.199219-6.199219 8.199219-3.304687 0-5.203124-3.199219-11.703124-3.699219v14.601563c9.101562 3.398437 19.703124 8.101562 19.703124 21.601562 0 12.398438-8 19.902344-19.703124 21.800781v2.898438c0 1.402343-1.898438 2.703125-3.800782 2.703125-2.199218 0-3.800781-1.300782-3.800781-2.703125zm1-46.199219v-11.902344c-4.5.898438-6.398437 3.199219-6.398437 5.601563 0 2.898437 2.597656 4.699219 6.398437 6.300781zm5.601563 18.5v13.398438c3.398437-.796876 6.101562-2.699219 6.101562-6.296876 0-3.300781-2.5-5.402343-6.101562-7.101562zm0 0"/><path d="m236.53125 88.351562h182.8125v78.085938h-23.695312l53.175781 79.371094 53.175781-79.371094h-23.695312v-94.136719c0-22.886719-18.550782-41.4375-41.433594-41.4375h-243.488282" fill="#f26a5b"/><path d="m125.300781 240.605469c-63.578125 0-115.300781-51.726563-115.300781-115.304688s51.722656-115.300781 115.300781-115.300781 115.300781 51.726562 115.300781 115.300781c0 63.578125-51.722656 115.304688-115.300781 115.304688zm0 0" fill="#f4b74a"/><path d="m199.613281 125.300781c0 41.042969-33.273437 74.3125-74.3125 74.3125-41.039062 0-74.308593-33.269531-74.308593-74.3125 0-41.039062 33.269531-74.308593 74.308593-74.308593 41.039063 0 74.3125 33.269531 74.3125 74.308593zm0 0" fill="#ffd36c"/><path d="m125.300781 209.613281c-46.488281 0-84.308593-37.824219-84.308593-84.3125s37.820312-84.308593 84.308593-84.308593 84.3125 37.820312 84.3125 84.308593-37.824219 84.3125-84.3125 84.3125zm0-148.621093c-35.460937 0-64.308593 28.851562-64.308593 64.308593 0 35.460938 28.847656 64.3125 64.308593 64.3125 35.460938 0 64.3125-28.851562 64.3125-64.3125 0-35.457031-28.851562-64.308593-64.3125-64.308593zm0 0"/><path d="m150.457031 149.925781c0 3.402344-1.5 6.800781-4.5 6.800781h-42.40625c-3 0-4.5-3.398437-4.5-6.800781 0-3.398437 1.5-6.800781 4.5-6.800781h5.003907l3.199218-23h-4.699218c-2.503907 0-3.800782-2.699219-3.800782-5.5 0-2.699219 1.296875-5.5 3.800782-5.5h6.296874l1-6.902344c1.902344-13.199218 13.902344-22.300781 26.902344-22.300781h4.203125c3.199219 0 5 3.402344 5 6.699219 0 3.300781-1.800781 6.800781-5 6.800781h-4.703125c-7.097656 0-10.199218 3.703125-10.898437 8.800781l-1 6.902344h10.699219c2.5 0 3.800781 2.800781 3.800781 5.5 0 2.800781-1.300781 5.5-3.800781 5.5h-12.300782l-3.300781 23h22.003906c3 0 4.5 3.402344 4.5 6.800781zm0 0"/><path d="m415.742188 70.539062c-.652344 0-1.300782-.066406-1.953126-.199218-.636718-.128906-1.269531-.320313-1.867187-.570313-.601563-.25-1.179687-.558593-1.730469-.917969-.539062-.359374-1.0625-.78125-1.519531-1.242187-.460937-.457031-.882813-.96875-1.242187-1.519531-.359376-.539063-.667969-1.128906-.917969-1.730469-.25-.597656-.441407-1.226563-.570313-1.867187-.132812-.640626-.199218-1.300782-.199218-1.949219 0-.660157.066406-1.3125.199218-1.960938.128906-.640625.320313-1.269531.570313-1.871093.25-.601563.558593-1.179688.917969-1.730469.359374-.539063.78125-1.058594 1.242187-1.519531.457031-.460938.980469-.867188 1.519531-1.238282.550782-.359375 1.128906-.671875 1.730469-.921875.597656-.25 1.230469-.4375 1.867187-.570312 3.25-.648438 6.703126.410156 9.03125 2.730469.460938.460937.871094.980468 1.238282 1.519531.363281.550781.671875 1.132812.921875 1.730469.25.601562.441406 1.230468.570312 1.871093.128907.648438.191407 1.300781.191407 1.960938 0 .648437-.0625 1.308593-.191407 1.949219-.128906.640624-.320312 1.269531-.570312 1.867187-.25.601563-.558594 1.191406-.921875 1.730469-.367188.550781-.777344 1.0625-1.238282 1.519531-.46875.460937-.980468.882813-1.519531 1.242187-.550781.359376-1.128906.667969-1.730469.917969-.601562.25-1.230468.441407-1.871093.570313-.648438.132812-1.296875.199218-1.957031.199218zm0 0"/><path d="m96.261719 461.472656c-2.640625 0-5.210938-1.070312-7.082031-2.941406-1.859376-1.859375-2.917969-4.429688-2.917969-7.070312 0-.648438.058593-1.308594.1875-1.949219.132812-.640625.320312-1.269531.570312-1.871094.25-.609375.5625-1.1875.921875-1.726563.367188-.550781.777344-1.0625 1.238282-1.523437.472656-.457031.980468-.878906 1.519531-1.238281.550781-.359375 1.132812-.671875 1.730469-.921875.601562-.25 1.230468-.4375 1.871093-.566407 3.25-.660156 6.699219.40625 9.03125 2.726563.457031.460937.878907.972656 1.238281 1.523437.359376.539063.671876 1.117188.921876 1.726563.25.601563.4375 1.230469.566406 1.871094.132812.640625.203125 1.300781.203125 1.949219 0 2.640624-1.070313 5.210937-2.929688 7.070312-1.863281 1.867188-4.441406 2.941406-7.070312 2.941406zm0 0"/><path d="m386.699219 261.398438c-69.089844 0-125.300781 56.210937-125.300781 125.300781 0 9.25 1.007812 18.265625 2.917968 26.949219h-161.65625v-58.085938h13.695313c3.691406 0 7.082031-2.03125 8.820312-5.289062 1.738281-3.257813 1.542969-7.207032-.515625-10.277344l-53.175781-79.371094c-1.855469-2.769531-4.972656-4.433594-8.308594-4.433594-3.335937 0-6.449219 1.664063-8.308593 4.433594l-53.175782 79.371094c-2.054687 3.066406-2.253906 7.019531-.515625 10.277344 1.742188 3.253906 5.132813 5.289062 8.824219 5.289062h13.695312v84.136719c0 28.363281 23.070313 51.441406 51.433594 51.441406h242.40625c19.835938 13.175781 43.621094 20.859375 69.164063 20.859375 69.089843 0 125.300781-56.210938 125.300781-125.300781 0-69.089844-56.210938-125.300781-125.300781-125.300781zm-343.003907 178.300781v-84.136719h12.640626c5.523437 0 10-4.476562 10-10s-4.476563-10-10-10h-27.597657l34.4375-51.40625 34.441407 51.40625h-4.957032c-5.523437 0-10 4.476562-10 10v78.085938c0 5.523437 4.476563 10 10 10h177.863282c1.078124 2.652343 2.238281 5.257812 3.488281 7.816406h-137.871094c-5.523437 0-10 4.476562-10 10 0 5.519531 4.476563 10 10 10h149.878906c.0625 0 .125 0 .183594-.003906 2.507813 3.359374 5.175781 6.589843 7.996094 9.675781h-219.070313c-17.332031.003906-31.433594-14.101563-31.433594-31.4375zm343.003907 52.300781c-58.0625 0-105.300781-47.238281-105.300781-105.300781s47.238281-105.300781 105.300781-105.300781 105.300781 47.238281 105.300781 105.300781-47.238281 105.300781-105.300781 105.300781zm0 0"/><path d="m125.300781 250.605469c69.089844 0 125.300781-56.210938 125.300781-125.300781 0-9.25-1.007812-18.269532-2.917968-26.949219h161.65625v58.082031h-13.695313c-3.691406 0-7.082031 2.035156-8.820312 5.292969-1.738281 3.257812-1.539063 7.207031.515625 10.273437l53.175781 79.371094c1.859375 2.773438 4.972656 4.433594 8.308594 4.433594 3.335937 0 6.453125-1.660156 8.308593-4.433594l53.175782-79.371094c2.054687-3.066406 2.253906-7.015625.515625-10.273437-1.738281-3.257813-5.128907-5.292969-8.820313-5.292969h-13.695312v-84.136719c0-13.738281-5.351563-26.65625-15.066406-36.371093-9.714844-9.714844-22.628907-15.066407-36.371094-15.066407h-242.40625c-19.835938-13.179687-43.617188-20.863281-69.164063-20.863281-69.089843 0-125.300781 56.210938-125.300781 125.304688 0 69.089843 56.210938 125.300781 125.300781 125.300781zm333.796875-200.535157c5.941406 5.9375 9.207032 13.832032 9.207032 22.230469v84.136719h-12.640626c-5.523437 0-10 4.476562-10 10s4.476563 10 10 10h27.597657l-34.4375 51.40625-34.441407-51.40625h4.957032c5.523437 0 10-4.476562 10-10v-78.082031c0-5.523438-4.476563-10-10-10h-177.863282c-1.074218-2.652344-2.238281-5.257813-3.488281-7.816407h137.875c5.519531 0 10-4.480468 10-10 0-5.523437-4.480469-10-10-10h-149.882812c-.0625 0-.121094 0-.183594 0-2.507813-3.359374-5.175781-6.585937-7.996094-9.675781h219.070313c8.394531 0 16.292968 3.269531 22.226562 9.207031zm-333.796875-30.070312c58.0625 0 105.300781 47.238281 105.300781 105.304688 0 58.0625-47.238281 105.300781-105.300781 105.300781s-105.300781-47.238281-105.300781-105.300781c0-58.066407 47.238281-105.304688 105.300781-105.304688zm0 0"/></svg>