<?xml version="1.0" encoding="iso-8859-1"?>
<!-- Generator: Adobe Illustrator 19.0.0, SVG Export Plug-In . SVG Version: 6.00 Build 0)  -->
<svg version="1.1" id="Layer_1" xmlns="http://www.w3.org/2000/svg" xmlns:xlink="http://www.w3.org/1999/xlink" x="0px" y="0px"
	 viewBox="0 0 512 512" style="enable-background:new 0 0 512 512;" xml:space="preserve">
<circle style="fill:#EBF4F6;" cx="158.856" cy="167.333" r="112.785"/>
<path style="fill:#BCDFEC;" d="M271.65,167.332c0-62.292-50.498-112.79-112.79-112.79s-112.79,50.498-112.79,112.79
	s50.498,112.79,112.79,112.79S271.65,229.625,271.65,167.332z M158.86,258.209c-50.109,0-90.877-40.767-90.877-90.877
	c0-24.274,9.453-47.095,26.617-64.259s39.985-26.617,64.259-26.617s47.095,9.452,64.259,26.617
	c17.164,17.164,26.617,39.985,26.617,64.259C249.736,217.442,208.969,258.209,158.86,258.209z"/>
<path style="fill:#F7B081;" d="M504.503,301.964h-26.152l-11.431-12.377c-11.92-12.908-28.833-20.311-46.404-20.311H317.74
	c-0.155-0.005-0.311-0.004-0.466,0.001c-1.878,0.021-3.611,0.738-4.929,1.923l-5.318,3.544c-0.411,0.274-0.795,0.588-1.145,0.938
	l-39.55,39.55l-1.876-1.876c-1.406-1.406-3.313-2.196-5.302-2.196h-93.532c-16.361,0-29.672,13.311-29.672,29.672
	c-0.001,7.926,3.086,15.378,8.691,20.982c5.604,5.604,13.056,8.691,20.982,8.691h120.031c8.094,0,14.679,6.584,14.679,14.678
	s-6.585,14.678-14.679,14.678c-4.14,0-7.497,3.357-7.497,7.497s3.357,7.497,7.497,7.497c8.094,0,14.679,6.584,14.679,14.679
	c0,7.927-6.202,14.367-14.119,14.662c-4.071,0.151-7.276,3.527-7.217,7.601c0.059,4.073,3.361,7.354,7.435,7.388
	c8.026,0.066,14.556,6.648,14.556,14.674c0,7.61-5.703,13.889-13.266,14.608c-3.984,0.378-6.969,3.82-6.779,7.818
	c0.189,3.998,3.486,7.142,7.488,7.142h44.71c0.266,0,0.53-0.015,0.793-0.043h72.088c19.35,0,38.291-6.705,53.332-18.881
	l18.371-14.872h26.779c4.141,0,7.497-3.357,7.497-7.497V309.461C512,305.32,508.644,301.964,504.503,301.964z"/>
<path style="fill:#E29E79;" d="M321.673,451.407c5.926-5.429,9.649-13.225,9.649-21.875c0-8.812-3.866-16.736-9.986-22.176
	c6.121-5.44,9.986-13.363,9.986-22.175c0-10.594-5.585-19.903-13.96-25.154v-4.518v-12.319H136.055
	c0.55,7.036,3.547,13.579,8.591,18.623c5.604,5.604,13.056,8.691,20.982,8.691h120.031c8.094,0,14.679,6.584,14.679,14.678
	c0,8.094-6.585,14.678-14.679,14.678c-4.14,0-7.497,3.357-7.497,7.497s3.357,7.497,7.497,7.497c8.094,0,14.679,6.584,14.679,14.679
	c0,7.927-6.202,14.367-14.119,14.662c-4.071,0.151-7.276,3.527-7.217,7.601c0.059,4.073,3.361,7.354,7.435,7.388
	c8.026,0.066,14.556,6.648,14.556,14.674c0,7.61-5.703,13.889-13.266,14.608c-3.984,0.378-6.969,3.82-6.779,7.818
	c0.189,3.998,3.486,7.142,7.488,7.142h28l5.678-7.497c6.052-5.436,9.867-13.316,9.867-22.072
	C331.975,464.893,327.976,456.852,321.673,451.407z"/>
<path style="fill:#594333;" d="M243.917,82.279c-0.665-0.666-1.337-1.318-2.015-1.964c-2.934-2.801-7.563-2.76-10.448,0.091
	c-8.2,8.106-14.142,14.729-16.654,17.598l-35.343,12.993c-0.553,0.204-1.08,0.471-1.569,0.798l-40.943,27.275l-40.923,21.636
	c-3.35,1.77-4.851,5.762-3.5,9.301l15.835,41.488c0.961,2.518,3.201,4.327,5.866,4.737l76.678,11.781
	c0.377,0.058,0.758,0.087,1.139,0.087c0.353,0,0.706-0.025,1.056-0.075l71.048-10.105c2.626-0.374,4.858-2.106,5.873-4.557
	C288.678,168.249,278.434,116.795,243.917,82.279z"/>
<path style="fill:#3F2F25;" d="M259.349,218.602c7.864-15.383,12.3-32.808,12.3-51.269c0-34.796-15.761-65.907-40.528-86.596
	c-6.942,6.88-12.23,12.658-15.135,15.924c2.468,2.003,4.853,4.135,7.131,6.414c17.164,17.164,26.617,39.985,26.617,64.259
	c0,20.798-7.028,39.982-18.826,55.314L259.349,218.602z"/>
<path style="fill:#594333;" d="M455.028,160.91l-48.897-60.252c-0.588-0.725-1.305-1.332-2.116-1.793
	c-2.9-1.648-71.474-40.318-108.197-38.747c-6.694,0.291-14.059,2.233-21.89,5.774c-2.111,0.955-3.664,2.832-4.202,5.086
	c-0.54,2.254-0.006,4.63,1.444,6.437c27.831,34.67,38.051,81.242,27.337,124.582c-0.598,2.419,0.046,4.977,1.716,6.826
	c1.671,1.849,4.157,2.745,6.618,2.395l2.574-0.367l34.088,15.324c0.928,0.416,1.929,0.641,2.945,0.658
	c25.483,0.438,42.995,0.597,55.075,0.597c24.688,0,26.686-0.666,27.632-0.981c3.816-1.271,6.32-3.263,17.309-31.758
	c5.095-13.21,9.767-26.43,9.813-26.562C457.145,165.67,456.671,162.935,455.028,160.91z"/>
<path style="fill:#3F2F25;" d="M455.028,160.91l-48.897-60.252c-0.588-0.725-1.305-1.332-2.116-1.793
	c-2.9-1.648-71.474-40.318-108.197-38.747c-4.689,0.204-9.713,1.236-14.99,3.042c36.621,8.95,81.712,34.375,84.052,35.706
	c0.812,0.461,1.528,1.07,2.116,1.793l48.897,60.252c1.644,2.025,2.117,4.76,1.249,7.22c-0.047,0.132-4.719,13.353-9.813,26.562
	c-10.989,28.495-13.493,30.486-17.309,31.758c-0.675,0.225-1.892,0.628-11.508,0.841c9.297,0.098,16.863,0.14,23.011,0.14
	c24.688,0,26.686-0.666,27.632-0.981c3.816-1.271,6.32-3.263,17.309-31.758c5.095-13.21,9.767-26.43,9.813-26.562
	C457.145,165.67,456.671,162.935,455.028,160.91z"/>
<path style="fill:#FFCA10;" d="M158.86,8.472C71.264,8.472,0,79.737,0,167.332s71.264,158.86,158.86,158.86
	s158.86-71.264,158.86-158.86S246.456,8.472,158.86,8.472z M158.86,280.122c-62.292,0-112.79-50.498-112.79-112.79
	s50.498-112.79,112.79-112.79s112.79,50.498,112.79,112.79S221.152,280.122,158.86,280.122z"/>
<g>
	<path style="fill:#E29E79;" d="M452.288,409.505c-12.31,0-54.043-1.998-74.237-27.703c-2.558-3.256-1.992-7.969,1.264-10.527
		c3.256-2.557,7.969-1.991,10.526,1.265c12.741,16.217,41.602,21.972,62.447,21.972c4.14,0,7.497,3.357,7.497,7.497
		C459.785,406.148,456.428,409.505,452.288,409.505z"/>
	<path style="fill:#E29E79;" d="M382.117,326.397h-38.311c-4.141,0-7.497-3.357-7.497-7.497c0-4.14,3.356-7.497,7.497-7.497h38.311
		c4.141,0,7.497,3.357,7.497,7.497C389.614,323.04,386.257,326.397,382.117,326.397z"/>
</g>
<path style="fill:#3E3D42;" d="M382.889,347.379l-69.05-69.051c-2.929-2.928-7.675-2.929-10.603,0l-33.38,33.379
	c-1.405,1.405-2.195,3.313-2.195,5.301s0.79,3.895,2.195,5.301l69.051,69.05c5.874,5.874,13.684,9.109,21.99,9.109
	c8.308,0,16.118-3.235,21.991-9.109C395.014,379.235,395.014,359.506,382.889,347.379z"/>
<path style="fill:#FFA304;" d="M322.662,269.505l-24.993-24.993c12.764-22.865,20.052-49.184,20.052-77.178
	c0-87.596-71.264-158.86-158.86-158.86c-6.24,0-12.393,0.374-18.447,1.078c78.936,9.17,140.414,76.426,140.414,157.783
	S219.35,315.946,140.414,325.116c6.054,0.704,12.207,1.077,18.447,1.077c27.994,0,54.314-7.288,77.179-20.052l24.993,24.993
	c1.464,1.463,3.384,2.196,5.302,2.196s3.837-0.732,5.302-2.196l51.027-51.027C325.59,277.18,325.59,272.432,322.662,269.505z"/>
<path style="fill:#FFC89F;" d="M285.655,355.508h-44.276c-16.361,0-29.672,13.311-29.672,29.672
	c0,16.361,13.311,29.672,29.672,29.672h44.276c16.361,0,29.673-13.311,29.673-29.672
	C315.328,368.82,302.017,355.508,285.655,355.508z"/>
<path style="fill:#F7B081;" d="M315.328,385.18H211.706c0,16.36,13.312,29.672,29.672,29.672h44.276
	C302.017,414.852,315.328,401.542,315.328,385.18z"/>
<path style="fill:#FFC89F;" d="M285.655,399.858h-31.39c-16.361,0-29.673,13.311-29.673,29.673
	c0,16.361,13.311,29.672,29.673,29.672h31.39c16.361,0,29.673-13.311,29.673-29.672C315.328,413.17,302.017,399.858,285.655,399.858
	z"/>
<path style="fill:#F7B081;" d="M224.592,429.531c0,16.361,13.311,29.672,29.673,29.672h31.39c16.361,0,29.673-13.311,29.673-29.672
	l0,0H224.592L224.592,429.531z"/>
<path style="fill:#FFC89F;" d="M286.309,444.184h-18.502c-16.361,0-29.672,13.311-29.672,29.672c0,7.926,3.087,15.377,8.691,20.982
	c5.605,5.605,13.056,8.691,20.982,8.691h18.502c16.361,0,29.673-13.311,29.673-29.673
	C315.981,457.494,302.671,444.184,286.309,444.184z"/>
<path style="fill:#F7B081;" d="M315.981,473.856h-77.846c0,7.926,3.087,15.377,8.691,20.982c5.605,5.605,13.056,8.691,20.982,8.691
	h18.502C302.671,503.529,315.981,490.217,315.981,473.856z"/>
<g>
</g>
<g>
</g>
<g>
</g>
<g>
</g>
<g>
</g>
<g>
</g>
<g>
</g>
<g>
</g>
<g>
</g>
<g>
</g>
<g>
</g>
<g>
</g>
<g>
</g>
<g>
</g>
<g>
</g>
</svg>
