<svg height="511pt" viewBox="-71 1 511 511.99998" width="511pt" xmlns="http://www.w3.org/2000/svg"><path d="m271.296875 137.964844c153.296875 158.402344 131.832031 374.035156-85.84375 374.035156s-239.136719-215.632812-85.84375-374.035156zm0 0" fill="#3ac7b4"/><path d="m130.515625 137.964844h-30.90625c-153.292969 158.402344-131.832031 374.035156 85.84375 374.035156 5.265625 0 10.414063-.128906 15.453125-.378906-203.15625-10.027344-219.976562-219.085938-70.390625-373.65625zm0 0" fill="#00ad94"/><path d="m185.453125 162.152344c-40.746094 0-76.960937-6.949219-96.875-18.585938-7.308594-4.273437-9.773437-13.660156-5.5-20.96875 4.273437-7.3125 13.660156-9.773437 20.96875-5.5 11.363281 6.640625 39.503906 14.394532 81.40625 14.394532 41.90625 0 70.046875-7.753907 81.410156-14.398438 7.308594-4.265625 16.695313-1.808594 20.96875 5.5 4.273438 7.308594 1.808594 16.699219-5.5 20.972656-19.910156 11.636719-56.125 18.585938-96.878906 18.585938zm0 0" fill="#e7b835"/><path d="m261.511719 112.414062v-24.953124c36.015625-40.109376 31.246093-77.582032 9.445312-74.175782s-19.074219-13.285156-39.855469-13.285156c-21.632812 0-25.890624 18.734375-45.136718 18.734375s-23.503906-18.734375-45.136719-18.734375c-20.78125 0-18.054687 16.691406-39.855469 13.285156-21.800781-3.40625-26.570312 34.066406 9.445313 74.171875v24.957031zm0 0" fill="#3ac7b4"/><path d="m141.324219 112.414062v-15.492187c-20.84375-33.105469-28.027344-64.953125-26.15625-84.96875-3.40625 1.574219-7.714844 2.347656-14.195313 1.332031-21.800781-3.40625-26.570312 34.066406 9.445313 74.175782v24.953124zm0 0" fill="#00ad94"/><g fill="#3a484a"><path d="m116.359375 227.332031c-4.265625 0-7.726563-3.457031-7.726563-7.726562v-12.503907c0-4.265624 3.460938-7.726562 7.726563-7.726562 4.269531 0 7.726563 3.460938 7.726563 7.726562v12.503907c0 4.269531-3.457032 7.726562-7.726563 7.726562zm0 0"/><path d="m254.546875 227.332031c-4.269531 0-7.726563-3.457031-7.726563-7.726562v-12.503907c0-4.265624 3.457032-7.726562 7.726563-7.726562s7.726563 3.460938 7.726563 7.726562v12.503907c0 4.269531-3.460938 7.726562-7.726563 7.726562zm0 0"/><path d="m185.453125 234.007812c-8.875 0-17.210937-3.714843-22.871094-10.1875-2.808593-3.210937-2.480469-8.09375.734375-10.902343 3.214844-2.808594 8.09375-2.480469 10.902344.734375 2.722656 3.113281 6.816406 4.902344 11.234375 4.902344s8.511719-1.789063 11.238281-4.90625c2.808594-3.210938 7.6875-3.539063 10.902344-.730469 3.210938 2.808593 3.539062 7.691406.730469 10.902343-5.660157 6.472657-13.996094 10.1875-22.871094 10.1875zm0 0"/></g><path d="m180.328125 420.964844c-22.371094-.746094-40.644531-12.304688-40.644531-24.234375 0-6.339844 5.59375-15.664063 12.679687-15.664063 7.828125 0 14.167969 11 27.964844 13.425782v-30.203126c-17.152344-6.523437-37.289063-14.542968-37.289063-38.40625 0-23.671874 17.527344-35.046874 37.289063-37.84375v-5.21875c0-2.609374 2.980469-5.03125 7.082031-5.03125 3.542969 0 7.085938 2.421876 7.085938 5.03125v4.660157c11.558594.375 33.371094 3.355469 33.371094 16.21875 0 5.035156-3.355469 15.285156-11.558594 15.285156-6.152344 0-9.695313-5.964844-21.8125-6.894531v27.214844c16.960937 6.339843 36.726562 15.101562 36.726562 40.269531 0 23.117187-14.914062 37.101562-36.726562 40.640625v5.40625c0 2.613281-3.542969 5.035156-7.085938 5.035156-4.101562 0-7.082031-2.421875-7.082031-5.035156zm1.863281-86.132813v-22.183593c-8.390625 1.679687-11.933594 5.964843-11.933594 10.441406 0 5.40625 4.851563 8.761718 11.933594 11.742187zm10.4375 34.488281v24.984376c6.339844-1.492188 11.375-5.035157 11.375-11.746094 0-6.152344-4.660156-10.066406-11.375-13.238282zm0 0" fill="#efedee"/><path d="m185.453125 132.511719c-37.558594 0-70.9375-6.945313-89.292969-18.582031-6.738281-4.273438-9.007812-13.660157-5.070312-20.96875 3.9375-7.3125 12.589844-9.773438 19.328125-5.5 10.472656 6.640624 36.410156 14.394531 75.035156 14.394531 38.628906 0 64.566406-7.757813 75.039063-14.398438 6.738281-4.269531 15.390624-1.808593 19.328124 5.5 3.9375 7.308594 1.667969 16.695313-5.066406 20.96875-18.355468 11.640625-51.738281 18.585938-89.300781 18.585938zm0 0" fill="#ffcd38"/></svg>