<svg height="511pt" viewBox="1 -6 511.99998 511" width="511pt" xmlns="http://www.w3.org/2000/svg"><path d="m256 83.226562 91.667969-31-91.667969-31zm0 0" fill="#da5b65"/><path d="m256 149.453125c-4.269531 0-7.726562-3.460937-7.726562-7.726563v-133.5c0-4.265624 3.457031-7.726562 7.726562-7.726562s7.726562 3.460938 7.726562 7.726562v133.5c0 4.265626-3.457031 7.726563-7.726562 7.726563zm0 0" fill="#3a484a"/><path d="m512 500.226562v-228.375l-28.257812-48.882812c-10.09375-17.460938-28.730469-28.214844-48.902344-28.214844-20 0-38.898438 10.898438-48.902344 28.214844l-18.085938 31.285156v108.828125zm0 0" fill="#c86d5c"/><path d="m0 500.226562v-178.375l28.257812-48.882812c10.09375-17.460938 28.730469-28.21875 48.902344-28.21875 20 0 38.898438 10.902344 48.902344 28.21875l3.652344 6.316406v126.378906zm0 0" fill="#c86d5c"/><path d="m512 441.929688-126.316406-218.519532-17.832032 30.84375v108.828125l144.148438 137.144531zm0 0" fill="#ad4f3d"/><path d="m399.191406 308.527344-42.523437-34.246094h-209.613281l-34.246094 34.246094-110.808594 191.699218h508zm0 0" fill="#c86d5c"/><path d="m2 500.226562h25.753906l110.8125-191.699218 19.792969-34.246094h-11.304687l-34.246094 34.246094-61.953125 107.179687zm0 0" fill="#ad4f3d"/><path d="m399.191406 308.527344c-3.25 1.148437-6.421875 2.648437-9.441406 4.480468-8.21875 4.980469-17.488281 7.46875-26.75 7.46875-9.257812 0-18.527344-2.488281-26.75-7.46875-8.21875-4.980468-17.488281-7.472656-26.75-7.472656-9.257812 0-18.527344 2.492188-26.75 7.472656-8.21875 4.980469-17.488281 7.46875-26.746094 7.46875-9.261718 0-18.53125-2.488281-26.75-7.46875-8.222656-4.980468-17.492187-7.472656-26.75-7.472656-9.261718 0-18.53125 2.492188-26.75 7.472656-8.222656 4.980469-17.492187 7.46875-26.75 7.46875-9.261718 0-18.53125-2.488281-26.75-7.46875-3.019531-1.832031-6.191406-3.332031-9.441406-4.480468l86.171875-149.070313c5.878906-10.179687 14.257813-18.410156 24.097656-24.089843 9.851563-5.679688 21.160157-8.8125 32.921875-8.8125 23.519532 0 45.25 12.542968 57.019532 32.902343zm0 0" fill="#efedee"/><path d="m198.980469 159.457031-86.171875 149.070313c3.25 1.148437 6.421875 2.648437 9.441406 4.480468 3.460938 2.097657 7.113281 3.726563 10.871094 4.9375l5.445312-9.417968 86.167969-149.070313c5.878906-10.179687 14.257813-18.410156 24.101563-24.089843 6.183593-3.566407 12.949218-6.128907 20.039062-7.539063-.945312-.1875-1.894531-.351563-2.851562-.496094-2.269532-.351562-4.746094-.597656-7.113282-.703125-6.191406-.269531-12.398437.324219-18.421875 1.785156-6.132812 1.484376-11.992187 3.832032-17.410156 6.953126-9.964844 5.746093-18.34375 14.125-24.097656 24.089843zm0 0" fill="#d4d2d3"/><g fill="#3a484a"><path d="m195.195312 260.519531c-4.265624 0-7.726562-3.460937-7.726562-7.726562v-11.007813c0-4.265625 3.460938-7.722656 7.726562-7.722656 4.269532 0 7.726563 3.457031 7.726563 7.722656v11.007813c0 4.265625-3.457031 7.726562-7.726563 7.726562zm0 0"/><path d="m316.804688 260.519531c-4.269532 0-7.726563-3.460937-7.726563-7.726562v-11.007813c0-4.265625 3.457031-7.722656 7.726563-7.722656 4.265624 0 7.726562 3.457031 7.726562 7.722656v11.007813c0 4.265625-3.460938 7.726562-7.726562 7.726562zm0 0"/><path d="m256 266.390625c-8.078125 0-15.667969-3.382813-20.824219-9.28125-2.808593-3.210937-2.480469-8.09375.734375-10.902344 3.210938-2.808593 8.089844-2.480469 10.902344.734375 2.21875 2.539063 5.566406 3.996094 9.1875 3.996094s6.96875-1.457031 9.1875-3.996094c2.8125-3.214844 7.691406-3.542968 10.902344-.734375 3.214844 2.808594 3.542968 7.691407.734375 10.902344-5.15625 5.898437-12.746094 9.28125-20.824219 9.28125zm0 0"/></g></svg>