<svg height="511pt" viewBox="-20 1 511 511.99998" width="511pt" xmlns="http://www.w3.org/2000/svg"><path d="m27.4375 31.394531h417.441406v449.210938h-417.441406zm0 0" fill="#efedee"/><path d="m.5 0v512l54.550781-30.691406.253907-30.691406v-389.234376l10.960937-30.691406zm0 0" fill="#ad4f3d"/><path d="m471.816406 0v512l-54.546875-30.691406-.257812-30.691406v-389.234376l-10.957031-30.691406zm0 0" fill="#ad4f3d"/><path d="m417.011719 61.382812h-361.707031l-54.804688-61.382812h471.316406zm0 0" fill="#c86d5c"/><path d="m192.75 363.015625s-55.394531 19.089844-55.394531 87.601563l25.363281 25.578124 30.03125-25.578124 17.832031-41.285157zm0 0" fill="#465059"/><path d="m279.566406 363.015625-17.832031 46.316406 17.832031 41.289063 27.699219 30.6875 27.695313-30.6875c0-68.515625-55.394532-87.605469-55.394532-87.605469zm0 0" fill="#465059"/><path d="m192.75 363.015625v87.601563l43.410156 30.691406 43.40625-30.691406v-87.601563zm0 0" fill="#efedee"/><path d="m417.011719 450.617188h-361.707031l-54.804688 61.382812h471.316406zm0 0" fill="#c86d5c"/><path d="m330.585938 120.101562c-5.8125-7.890624-15.703126-11.636718-25.292969-9.605468-13.15625 2.785156-35.65625 6.023437-69.132813 6.023437-38.351562 0-74.457031 14.207031-101.667968 40-27.496094 26.066407-42.636719 60.800781-42.636719 97.804688h288.605469c0-58.648438-32.449219-110.574219-49.875-134.222657zm0 0" fill="#465059"/><path d="m146.453125 249.175781c0-37.007812 15.144531-71.742187 42.640625-97.808593 17.90625-16.972657 39.667969-28.925782 63.382812-35.117188-5.121093.171875-10.554687.269531-16.316406.269531-38.351562 0-74.457031 14.207031-101.667968 40-27.496094 26.066407-42.636719 60.800781-42.636719 97.804688h288.605469c0-1.722657-.03125-3.4375-.085938-5.148438zm0 0" fill="#3c474d"/><path d="m387.613281 256.492188c0 14.71875-11.933593 26.648437-26.652343 26.648437s-26.648438-11.929687-26.648438-26.648437 11.929688-26.652344 26.648438-26.652344 26.652343 11.933594 26.652343 26.652344zm0 0" fill="#dfb297"/><path d="m254.667969 450.617188c0-18.277344-3.53125-37.328126-6.082031-48.710938l-12.425782-13.007812-12.429687 13.007812c-2.550781 11.382812-6.082031 30.433594-6.082031 48.714844h37.019531zm0 0" fill="#c0344a"/><path d="m215.992188 371.082031c.902343 5.746094.824218 16.730469 7.738281 30.824219h24.855469c6.914062-14.09375 6.835937-25.078125 7.738281-30.824219zm0 0" fill="#da5b65"/><path d="m347.324219 200.507812c-4.976563-9.214843-13.226563-16.25-23.152344-19.585937-59.265625-19.898437-114.339844 4.847656-168.394531-3.40625-8.488282-1.296875-16.96875 2.304687-22.058594 9.222656-14.097656 19.160157-22.363281 42.457031-22.363281 67.585938 0 65.335937 55.875 118.304687 124.804687 118.304687 68.925782 0 124.800782-52.96875 124.800782-118.304687 0-19.382813-4.917969-37.675781-13.636719-53.816407zm0 0" fill="#fbc4ac"/><path d="m136.078125 254.324219c0-25.128907 8.269531-48.425781 22.363281-67.585938 2.636719-3.582031 6.183594-6.265625 10.164063-7.847656-4.28125-.28125-8.558594-.726563-12.828125-1.375-8.488282-1.296875-16.96875 2.304687-22.058594 9.222656-9.414062 12.796875-16.210938 27.445313-19.699219 43.246094-.835937-.09375-1.722656-.144531-2.664062-.144531-14.71875 0-26.652344 11.933594-26.652344 26.652344s11.933594 26.648437 26.652344 26.648437c1.324219 0 2.542969-.097656 3.664062-.285156 13.46875 51.550781 62.589844 89.773437 121.140625 89.773437 4.171875 0 8.292969-.199218 12.359375-.578125-63.121093-5.882812-112.441406-56.34375-112.441406-117.726562zm0 0" fill="#dfb297"/><g fill="#3a484a"><path d="m301.351562 266.933594c-4.269531 0-7.726562-3.457032-7.726562-7.726563v-12.675781c0-4.265625 3.457031-7.726562 7.726562-7.726562 4.265626 0 7.726563 3.460937 7.726563 7.726562v12.675781c0 4.269531-3.460937 7.726563-7.726563 7.726563zm0 0"/><path d="m170.96875 266.933594c-4.269531 0-7.726562-3.457032-7.726562-7.726563v-12.675781c0-4.265625 3.457031-7.726562 7.726562-7.726562 4.265625 0 7.726562 3.460937 7.726562 7.726562v12.675781c0 4.269531-3.460937 7.726563-7.726562 7.726563zm0 0"/><path d="m236.160156 285.320312c-7.601562 0-14.746094-3.1875-19.601562-8.742187-2.808594-3.210937-2.476563-8.09375.734375-10.902344 3.210937-2.804687 8.09375-2.476562 10.902343.734375 1.917969 2.195313 4.824219 3.457032 7.964844 3.457032s6.042969-1.261719 7.964844-3.457032c2.808594-3.214844 7.6875-3.539062 10.902344-.734375 3.210937 2.808594 3.539062 7.691407.730468 10.902344-4.855468 5.554687-12 8.742187-19.597656 8.742187zm0 0"/></g><path d="m55.304688 61.382812h361.710937v31.007813h-361.710937zm0 0" fill="#d4d2d3"/></svg>