<?xml version="1.0" encoding="iso-8859-1"?>
<!-- Generator: Adobe Illustrator 19.0.0, SVG Export Plug-In . SVG Version: 6.00 Build 0)  -->
<svg version="1.1" id="Layer_1" xmlns="http://www.w3.org/2000/svg" xmlns:xlink="http://www.w3.org/1999/xlink" x="0px" y="0px"
	 viewBox="0 0 504.123 504.123" style="enable-background:new 0 0 504.123 504.123;" xml:space="preserve">
<circle style="fill:#FD8469;" cx="252.062" cy="252.062" r="252.062"/>
<polygon style="fill:#2B3B4E;" points="317.834,139.422 302.474,139.422 302.474,112.246 201.649,112.246 201.649,139.422 
	186.289,139.422 186.289,94.523 317.834,94.523 "/>
<path style="fill:#324A5E;" d="M384,387.938H120.123c-9.452,0-16.935-7.483-16.935-16.935v-235.52h297.354v235.52
	C400.935,380.062,393.058,387.938,384,387.938z"/>
<path style="fill:#CED5E0;" d="M367.065,237.883H137.058c-23.631,0-42.535-18.905-42.535-42.535v-59.865H409.6v59.471
	C409.6,218.585,390.695,237.883,367.065,237.883z"/>
<path style="fill:#FFFFFF;" d="M249.698,359.582v-8.271c-10.24-1.182-19.692-5.12-27.963-12.209l8.271-9.846
	c6.302,5.514,12.997,8.665,19.692,9.846V317.44c-8.665-1.969-14.966-4.726-18.905-7.877s-5.908-8.271-5.908-14.572
	c0-6.302,2.363-11.815,7.089-15.754c4.726-3.938,10.634-6.302,18.117-6.695v-5.514h7.483v5.514
	c8.271,0.788,16.148,3.545,23.631,8.271l-7.483,10.24c-5.12-3.545-10.634-5.514-16.148-6.302v20.874h0.394
	c8.665,1.969,14.966,4.726,19.298,8.271c3.938,3.545,6.302,8.271,6.302,14.966c0,6.695-2.363,11.815-7.089,15.754
	c-4.726,3.938-11.028,6.302-18.511,6.695v7.877h-8.271V359.582z M241.428,287.114c-1.969,1.575-2.757,3.938-2.757,6.302
	s0.788,4.332,2.363,5.908c1.575,1.575,4.332,2.757,8.665,4.332v-19.298C246.154,284.751,243.397,285.538,241.428,287.114z
	 M265.452,336.345c1.969-1.575,3.151-3.938,3.151-6.302c0-2.757-0.788-4.726-2.363-6.302c-1.575-1.575-4.726-3.151-9.452-4.332
	v20.086C260.332,339.102,263.483,337.92,265.452,336.345z"/>
<g>
	<path style="fill:#ACB3BA;" d="M154.782,303.655h-3.151c-7.877,0-14.178-6.302-14.178-14.178v-153.6h31.902v153.6
		C169.354,296.96,162.658,303.655,154.782,303.655z"/>
	<path style="fill:#ACB3BA;" d="M352.492,303.655h-3.151c-7.877,0-14.178-6.302-14.178-14.178v-153.6h31.902v153.6
		C366.671,296.96,360.369,303.655,352.492,303.655z"/>
</g>
<g>
</g>
<g>
</g>
<g>
</g>
<g>
</g>
<g>
</g>
<g>
</g>
<g>
</g>
<g>
</g>
<g>
</g>
<g>
</g>
<g>
</g>
<g>
</g>
<g>
</g>
<g>
</g>
<g>
</g>
</svg>
