<svg height="511pt" viewBox="0 0 511.99986 511" width="511pt" xmlns="http://www.w3.org/2000/svg"><path d="m421.992188 307.667969-165.988282-23.761719-165.988281 23.761719-51.195313 102.390625 217.179688 51.199218 217.1875-51.199218zm0 0" fill="#3ac7b4"/><path d="m69.726562 410.058594 51.195313-102.390625 150.535156-21.550781-15.453125-2.210938-165.988281 23.761719-51.195313 102.390625 217.179688 51.199218 15.453125-3.644531zm0 0" fill="#00ad94"/><path d="m319.601562 102.886719-63.597656-25.378907-63.59375 25.378907-51.199218 102.390625 114.789062 24.039062 114.796875-24.039062zm0 0" fill="#ff8c57"/><path d="m172.117188 205.277344 51.195312-102.390625 48.144531-19.210938-15.453125-6.167969-63.59375 25.378907-51.199218 102.390625 114.789062 24.039062 15.453125-3.238281zm0 0" fill="#ec6a34"/><path d="m319.601562 102.886719h-127.191406l45.640625-91.296875c7.394531-14.785156 28.503907-14.785156 35.898438 0zm0 0" fill="#da5b65"/><path d="m271.453125 7.730469c-8.839844-10.789063-26.71875-9.503907-33.402344 3.855469l-45.640625 91.300781h30.902344l45.644531-91.296875c.710938-1.425782 1.554688-2.710938 2.496094-3.859375zm0 0" fill="#c0344a"/><path d="m491.910156 512.453125h-471.820312c-14.917969 0-24.613282-15.707031-17.949219-29.042969l36.679687-73.351562h434.371094l36.667969 73.351562c6.660156 13.335938-3.03125 29.042969-17.949219 29.042969zm0 0" fill="#00a5c6"/><path d="m33.046875 483.410156 36.679687-73.351562h-30.90625l-36.679687 73.351562c-6.664063 13.335938 3.03125 29.042969 17.949219 29.042969h30.90625c-14.921875 0-24.613282-15.707031-17.949219-29.042969zm0 0" fill="#0095b3"/><path d="m421.992188 307.667969h-331.976563l51.195313-102.390625h229.585937zm0 0" fill="#ffcd38"/><path d="m141.210938 205.277344-51.195313 102.390625h30.90625l51.195313-102.390625zm0 0" fill="#e7b835"/><g fill="#3a484a"><path d="m174.550781 265.15625c-4.265625 0-7.722656-3.460938-7.722656-7.726562v-14.742188c0-4.265625 3.457031-7.726562 7.722656-7.726562 4.269531 0 7.726563 3.460937 7.726563 7.726562v14.742188c0 4.265624-3.457032 7.726562-7.726563 7.726562zm0 0"/><path d="m337.445312 265.15625c-4.265624 0-7.726562-3.460938-7.726562-7.726562v-14.742188c0-4.265625 3.460938-7.726562 7.726562-7.726562 4.269532 0 7.726563 3.460937 7.726563 7.726562v14.742188c0 4.265624-3.457031 7.726562-7.726563 7.726562zm0 0"/><path d="m256 273.023438c-10.066406 0-19.511719-4.203126-25.921875-11.535157-2.808594-3.214843-2.476563-8.09375.734375-10.902343 3.210938-2.808594 8.09375-2.480469 10.902344.734374 3.472656 3.972657 8.679687 6.25 14.285156 6.25s10.808594-2.277343 14.285156-6.25c2.804688-3.214843 7.6875-3.542968 10.902344-.734374 3.210938 2.808593 3.539062 7.6875.730469 10.902343-6.40625 7.332031-15.851563 11.535157-25.917969 11.535157zm0 0"/></g></svg>