<svg height="480pt" viewBox="0 0 480 480" width="480pt" xmlns="http://www.w3.org/2000/svg"><path d="m200 72v-32h-64l-32 48v112h176v-128zm0 0" fill="#f6bf9b"/><path d="m280 344v-32h64l32 48v112h-176v-128zm0 0" fill="#f6bf9b"/><path d="m8 88h96v112h-96zm0 0" fill="#238892"/><g fill="#d3843d"><path d="m192 96h88v16h-88zm0 0"/><path d="m192 128h88v16h-88zm0 0"/><path d="m192 160h88v16h-88zm0 0"/><path d="m144 64h56v16h-56zm0 0"/></g><path d="m472 472h-96v-112h96zm0 0" fill="#e97424"/><path d="m200 368h88v16h-88zm0 0" fill="#d3843d"/><path d="m200 400h88v16h-88zm0 0" fill="#d3843d"/><path d="m200 432h88v16h-88zm0 0" fill="#d3843d"/><path d="m280 336h56v16h-56zm0 0" fill="#d3843d"/><path d="m200 8v64h80v80h176v-144zm0 0" fill="#36afad"/><path d="m240 64h-16v-24c0-4.417969 3.582031-8 8-8h24v16h-16zm0 0" fill="#fdbd40"/><path d="m432 64h-16v-16h-16v-16h24c4.417969 0 8 3.582031 8 8zm0 0" fill="#fdbd40"/><path d="m424 128h-24v-16h16v-16h16v24c0 4.417969-3.582031 8-8 8zm0 0" fill="#fdbd40"/><path d="m352 56v-16h-16v-8h-16v8h-8c-4.417969 0-8 3.582031-8 8v32c0 4.417969 3.582031 8 8 8h24v16h-32v16h16v8h16v-8h8c4.417969 0 8-3.582031 8-8v-32c0-4.417969-3.582031-8-8-8h-24v-16zm0 0" fill="#fdbd40"/><path d="m280 344h-80v96h-32v-176h112zm0 0" fill="#e9686a"/><path d="m152 232h144v32h-144zm0 0" fill="#aabece"/><path d="m152 440h48v32h-48zm0 0" fill="#aabece"/><path d="m240 288h16v56h-16zm0 0" fill="#fdbd40"/><path d="m280 208c4.417969 0 8-3.582031 8-8v-40h168c4.417969 0 8-3.582031 8-8v-144c0-4.417969-3.582031-8-8-8h-256c-4.417969 0-8 3.582031-8 8v24h-56c-2.675781 0-5.171875 1.335938-6.65625 3.558594l-29.625 44.441406h-91.71875c-4.417969 0-8 3.582031-8 8v112c0 4.417969 3.582031 8 8 8zm-72-192h240v128h-160v-72c0-4.417969-3.582031-8-8-8h-40v-16h16v-16h-24c-4.417969 0-8 3.582031-8 8v24h-16zm-67.71875 32h51.71875v16h-48v16h128v16h-80v16h80v16h-80v16h80v16h-80v16h80v16h-160v-101.601562zm-124.28125 48h80v96h-80zm0 0"/><path d="m472 352h-91.71875l-29.601562-44.441406c-1.488282-2.230469-3.996094-3.566406-6.679688-3.558594h-56v-32h8c4.417969 0 8-3.582031 8-8v-32c0-4.417969-3.582031-8-8-8h-144c-4.417969 0-8 3.582031-8 8v32c0 4.417969 3.582031 8 8 8h8v160h-8c-4.417969 0-8 3.582031-8 8v32c0 4.417969 3.582031 8 8 8h320c4.417969 0 8-3.582031 8-8v-112c0-4.417969-3.582031-8-8-8zm-312-112h128v16h-128zm16 32h96v64h-16v-48h-16v48h-40c-4.417969 0-8 3.582031-8 8v88h-16zm-16 176h32v16h-32zm48 0h80v-16h-80v-16h80v-16h-80v-16h80v-16h-80v-16h128v-16h-48v-16h51.71875l28.28125 42.398438v101.601562h-160zm256 16h-80v-96h80zm0 0"/><path d="m416 64h16v-24c0-4.417969-3.582031-8-8-8h-24v16h16zm0 0"/><path d="m432 120v-24h-16v16h-16v16h24c4.417969 0 8-3.582031 8-8zm0 0"/><path d="m320 128h16v-8h8c4.417969 0 8-3.582031 8-8v-32c0-4.417969-3.582031-8-8-8h-24v-16h32v-16h-16v-8h-16v8h-8c-4.417969 0-8 3.582031-8 8v32c0 4.417969 3.582031 8 8 8h24v16h-32v16h16zm0 0"/></svg>