<?xml version="1.0" encoding="iso-8859-1"?>
<!-- Generator: Adobe Illustrator 21.0.0, SVG Export Plug-In . SVG Version: 6.00 Build 0)  -->
<svg xmlns="http://www.w3.org/2000/svg" xmlns:xlink="http://www.w3.org/1999/xlink" version="1.1" id="Capa_1" x="0px" y="0px" viewBox="0 0 512 512" style="enable-background:new 0 0 512 512;" xml:space="preserve" width="512" height="512">
<g>
	<path style="fill:#FFD659;" d="M282.785,496.547h-53.569c-2.276,0-4.121-1.845-4.121-4.121V256.515   c0-2.276,1.845-4.121,4.121-4.121h53.569c2.276,0,4.121,1.845,4.121,4.121v235.911   C286.905,494.702,285.061,496.547,282.785,496.547z"/>
	<path style="fill:#FFBD54;" d="M256,252.394v244.153h26.785c2.276,0,4.121-1.845,4.121-4.121V256.515   c0-2.276-1.845-4.121-4.121-4.121H256z"/>
	<path style="fill:#FF2C5C;" d="M151.952,496.547H98.382c-2.276,0-4.121-1.845-4.121-4.121V318.326c0-2.276,1.845-4.121,4.121-4.121   h53.569c2.276,0,4.121,1.845,4.121,4.121v174.101C156.072,494.702,154.228,496.547,151.952,496.547z"/>
	<path style="fill:#4FC6F5;" d="M413.618,496.547h-53.569c-2.276,0-4.121-1.845-4.121-4.121V189.582   c0-2.276,1.845-4.121,4.121-4.121h53.569c2.276,0,4.121,1.845,4.121,4.121v302.845   C417.738,494.702,415.894,496.547,413.618,496.547z"/>
	<path style="fill:#E62753;" d="M125.167,314.205v182.342h26.785c2.276,0,4.121-1.845,4.121-4.121V318.326   c0-2.276-1.845-4.121-4.121-4.121H125.167z"/>
	<path style="fill:#3BB3E3;" d="M386.833,185.461v311.086h26.785c2.276,0,4.121-1.845,4.121-4.121V189.582   c0-2.276-1.845-4.121-4.121-4.121H386.833z"/>
	<path style="fill:#B5FCFF;" d="M255.613,0h-139.33c-24.963,0-45.2,20.22-45.2,45.162v108.763c0,24.942,20.237,45.162,45.2,45.162   h139.33c24.963,0,45.2-20.22,45.2-45.162V45.162C300.813,20.22,280.576,0,255.613,0z"/>
	<g>
		<path style="fill:#71F6FC;" d="M255.613,0h-30.905c24.963,0,45.2,20.22,45.2,45.162v108.763c0,24.942-20.237,45.162-45.2,45.162    h30.905c24.963,0,45.2-20.22,45.2-45.162V45.162C300.813,20.22,280.576,0,255.613,0z"/>
	</g>
	<path style="fill:#FF2C5C;" d="M181.549,32.211l-37.034,37.014c-3.919,3.917-1.143,10.614,4.399,10.614h74.068   c5.542,0,8.318-6.697,4.399-10.614l-37.034-37.014C187.917,29.783,183.978,29.783,181.549,32.211z"/>
	<g>
		<circle style="fill:#FF2C5C;" cx="162.91" cy="112.573" r="7.726"/>
		<circle style="fill:#FF2C5C;" cx="208.985" cy="158.648" r="7.726"/>
		<path style="fill:#FF2C5C;" d="M214.647,106.91c-2.929-2.928-7.678-2.928-10.606,0l-46.793,46.793    c-2.929,2.93-2.929,7.678,0,10.607c1.464,1.464,3.384,2.196,5.303,2.196s3.839-0.732,5.303-2.196l46.793-46.793    C217.577,114.588,217.577,109.84,214.647,106.91z"/>
	</g>
	<path style="fill:#50536E;" d="M496.547,512H15.453C6.918,512,0,505.082,0,496.547v0c0-8.534,6.918-15.453,15.453-15.453h481.095   c8.534,0,15.453,6.918,15.453,15.453v0C512,505.082,505.082,512,496.547,512z"/>
	<path style="fill:#484B63;" d="M496.547,481.094h-30.905c8.534,0,15.453,6.918,15.453,15.453c0,8.534-6.918,15.453-15.453,15.453   h30.905c8.534,0,15.453-6.918,15.453-15.453C512,488.013,505.082,481.094,496.547,481.094z"/>
</g>















</svg>
