<svg height="511pt" viewBox="1 -49 511.99998 511" width="511pt" xmlns="http://www.w3.org/2000/svg"><path d="m133.734375 322.601562c48.601563 0 49.289063-27.152343 49.289063-58.054687s0-35.660156 0-35.660156l-60.503907-4.078125-34.664062 57.777344zm0 0" fill="#3a484a"/><path d="m146.308594 357.695312c-8.128906-9.890624-12.574219-22.292968-12.574219-35.09375v-45.300781l-35.515625-25.304687-23.109375 25.304687v95.6875c0 22.148438 17.957031 40.101563 40.105469 40.101563h23.367187c11.214844 0 20.304688-9.089844 20.304688-20.300782 0-12.804687-4.445313-25.207031-12.578125-35.09375zm0 0" fill="#d4d2d3"/><path d="m44.035156 103.648438c-24.320312 0-44.035156 19.714843-44.035156 44.035156v47.535156c0 24.316406 19.714844 44.03125 44.035156 44.03125h16.121094v-135.601562zm0 0" fill="#bab8b9"/><path d="m470.199219 213.253906c23.085937 0 41.800781-18.714844 41.800781-41.804687 0-23.085938-18.714844-41.800781-41.800781-41.800781l-18.695313 41.800781zm0 0" fill="#bab8b9"/><path d="m425.675781 19.507812s-75.449219 59.160157-266.453125 59.160157l-26.167968 90.707031 26.167968 94.859375c191.003906 0 266.453125 59.160156 266.453125 59.160156l25.828125-151.941406zm0 0" fill="#da5b65"/><path d="m425.675781 292.488281s-75.449219-59.160156-266.449219-59.160156l-21.8125-79.058594-4.359374 15.105469 26.171874 94.859375c191 0 266.449219 59.160156 266.449219 59.160156l25.828125-151.945312-2.625-15.453125zm0 0" fill="#c0344a"/><path d="m458.328125.5h-13.644531c-10.5 0-19.007813 8.507812-19.007813 19.007812v303.886719c0 10.496094 8.507813 19.003907 19.007813 19.003907h13.644531c10.496094 0 19.007813-8.507813 19.007813-19.003907v-303.886719c0-10.496093-8.511719-19.007812-19.007813-19.007812zm0 0" fill="#d4d2d3"/><path d="m458.328125 311.496094h-13.644531c-10.5 0-19.007813-8.511719-19.007813-19.007813v30.90625c0 10.496094 8.507813 19.003907 19.007813 19.003907h13.644531c10.496094 0 19.007813-8.507813 19.007813-19.003907v-30.90625c0 10.496094-8.511719 19.007813-19.007813 19.007813zm0 0" fill="#bab8b9"/><path d="m222.503906 178.019531c-4.269531 0-7.726562-3.460937-7.726562-7.726562v-13.152344c0-4.269531 3.457031-7.726563 7.726562-7.726563 4.265625 0 7.726563 3.457032 7.726563 7.726563v13.152344c0 4.265625-3.460938 7.726562-7.726563 7.726562zm0 0" fill="#3a484a"/><path d="m367.847656 178.019531c-4.269531 0-7.726562-3.460937-7.726562-7.726562v-13.152344c0-4.269531 3.457031-7.726563 7.726562-7.726563 4.265625 0 7.722656 3.457032 7.722656 7.726563v13.152344c0 4.265625-3.457031 7.726562-7.722656 7.726562zm0 0" fill="#3a484a"/><path d="m295.171875 185.039062c-9.21875 0-17.875-3.855468-23.753906-10.578124-2.804688-3.214844-2.480469-8.09375.734375-10.902344s8.09375-2.480469 10.902344.730468c2.941406 3.367188 7.359374 5.296876 12.117187 5.296876 4.761719 0 9.179687-1.929688 12.121094-5.296876 2.808593-3.210937 7.6875-3.539062 10.902343-.730468 3.214844 2.808594 3.539063 7.6875.730469 10.902344-5.875 6.722656-14.53125 10.578124-23.753906 10.578124zm0 0" fill="#3a484a"/><path d="m146.15625 65.597656h-85.675781c-7.21875 0-13.070313 5.851563-13.070313 13.070313v185.5625c0 7.21875 5.851563 13.070312 13.070313 13.070312h85.675781c7.21875 0 13.070312-5.851562 13.070312-13.070312v-185.5625c0-7.21875-5.851562-13.070313-13.070312-13.070313zm0 0" fill="#d4d2d3"/><path d="m146.15625 246.398438h-85.675781c-7.21875 0-13.070313-5.851563-13.070313-13.074219v30.90625c0 7.21875 5.851563 13.070312 13.070313 13.070312h85.675781c7.21875 0 13.070312-5.851562 13.070312-13.070312v-30.90625c0 7.222656-5.851562 13.074219-13.070312 13.074219zm0 0" fill="#bab8b9"/><g fill="#3a484a"><path d="m126.429688 220.46875h-46.222657c-4.265625 0-7.726562-3.457031-7.726562-7.726562 0-4.265626 3.460937-7.726563 7.726562-7.726563h46.222657c4.265624 0 7.726562 3.460937 7.726562 7.726563 0 4.269531-3.460938 7.726562-7.726562 7.726562zm0 0"/><path d="m126.429688 192.941406h-46.222657c-4.265625 0-7.726562-3.460937-7.726562-7.726562s3.460937-7.726563 7.726562-7.726563h46.222657c4.265624 0 7.726562 3.460938 7.726562 7.726563s-3.460938 7.726562-7.726562 7.726562zm0 0"/><path d="m126.429688 165.414062h-46.222657c-4.265625 0-7.726562-3.460937-7.726562-7.726562 0-4.269531 3.460937-7.726562 7.726562-7.726562h46.222657c4.265624 0 7.726562 3.457031 7.726562 7.726562 0 4.265625-3.460938 7.726562-7.726562 7.726562zm0 0"/><path d="m126.429688 137.882812h-46.222657c-4.265625 0-7.726562-3.457031-7.726562-7.726562 0-4.265625 3.460937-7.726562 7.726562-7.726562h46.222657c4.265624 0 7.726562 3.460937 7.726562 7.726562 0 4.269531-3.460938 7.726562-7.726562 7.726562zm0 0"/></g></svg>