<?xml version="1.0" encoding="iso-8859-1"?>
<!-- Generator: Adobe Illustrator 19.0.0, SVG Export Plug-In . SVG Version: 6.00 Build 0)  -->
<svg version="1.1" id="Layer_1" xmlns="http://www.w3.org/2000/svg" xmlns:xlink="http://www.w3.org/1999/xlink" x="0px" y="0px"
	 viewBox="0 0 512 512" style="enable-background:new 0 0 512 512;" xml:space="preserve">
<path style="fill:#B2B1B5;" d="M403.05,34.205c-0.018-3.594-2.58-6.671-6.111-7.339L255.773,0.131
	C255.313,0.044,254.844,0,254.376,0H142.728c-4.147,0-7.507,3.361-7.507,7.507v8.891L61.605,18.75
	c-4.051,0.129-7.268,3.45-7.268,7.503v20.814c0,4.146,3.36,7.507,7.507,7.507h89.022v162.927c0,4.146,3.361,7.507,7.507,7.507
	h79.765c4.146,0,7.507-3.361,7.507-7.507V69.704h150.034c1.997,0,3.913-0.796,5.321-2.212c1.408-1.415,2.195-3.334,2.186-5.332
	L403.05,34.205z"/>
<g>
	<path style="fill:#9D9D9E;" d="M208.027,217.503c0,4.146-3.36,7.507-7.507,7.507h37.62c4.146,0,7.507-3.361,7.507-7.507V69.704l0,0
		c-20.776,0-37.62,16.843-37.62,37.619V217.503z"/>
	<path style="fill:#9D9D9E;" d="M365.719,69.704h29.962c1.997,0,3.913-0.796,5.321-2.212c1.408-1.415,2.195-3.334,2.186-5.332
		l-0.139-27.955c-0.018-3.594-2.58-6.671-6.111-7.339l-31.221-5.913v48.752H365.719z"/>
</g>
<path style="fill:#B2B1B5;" d="M238.14,370.528h-7.584V265.582c0-4.146-3.36-7.507-7.507-7.507h-48.839
	c-4.147,0-7.507,3.361-7.507,7.507v104.945h-8.326c-4.146,0-7.507,3.361-7.507,7.507v126.457c0,4.146,3.361,7.507,7.507,7.507
	h79.765c4.146,0,7.507-3.361,7.507-7.507V378.035C245.647,373.889,242.286,370.528,238.14,370.528z"/>
<path style="fill:#9D9D9E;" d="M208.11,512h30.03c4.146,0,7.507-3.361,7.507-7.507V378.035c0-4.146-3.361-7.507-7.507-7.507h-7.584
	V265.582c0-4.146-3.36-7.507-7.507-7.507H208.11V512z"/>
<g>
	<path style="fill:#848484;" d="M150.867,449.939h31.472c4.147,0,7.507-3.361,7.507-7.507c0-4.146-3.36-7.507-7.507-7.507h-31.472
		V449.939z"/>
	<path style="fill:#848484;" d="M150.867,477.107h31.472c4.147,0,7.507-3.361,7.507-7.507c0-4.146-3.36-7.507-7.507-7.507h-31.472
		V477.107z"/>
	<path style="fill:#848484;" d="M150.867,420.911h31.472c4.147,0,7.507-3.361,7.507-7.507c0-4.146-3.36-7.507-7.507-7.507h-31.472
		V420.911z"/>
</g>
<path style="fill:#9D9D9E;" d="M141.966,312.224h-31.865v-19.686c0-4.146-3.36-7.507-7.507-7.507s-7.507,3.361-7.507,7.507v54.386
	c0,4.146,3.36,7.507,7.507,7.507s7.507-3.361,7.507-7.507v-19.686h31.865c4.146,0,7.507-3.361,7.507-7.507
	C149.474,315.585,146.113,312.224,141.966,312.224z"/>
<path style="fill:#503C2E;" d="M372.182,54.614c-47.135,0-85.482,38.348-85.482,85.482s38.347,85.482,85.482,85.482
	c47.134,0,85.482-38.348,85.482-85.482C457.663,92.96,419.316,54.614,372.182,54.614z"/>
<path style="fill:#423126;" d="M372.182,54.614c-6.128,0-12.103,0.662-17.87,1.893c38.584,8.24,67.612,42.582,67.612,83.589
	c0,41.006-29.03,75.348-67.612,83.589c5.767,1.231,11.741,1.893,17.87,1.893c47.134,0,85.482-38.348,85.482-85.482
	C457.663,92.96,419.316,54.614,372.182,54.614z"/>
<path style="fill:#957856;" d="M372.182,90.352c-27.429,0-49.744,22.315-49.744,49.744s22.315,49.744,49.744,49.744
	c27.428,0,49.743-22.315,49.743-49.744S399.61,90.352,372.182,90.352z"/>
<path style="fill:#806749;" d="M372.182,90.352c-6.627,0-12.949,1.313-18.735,3.675c18.167,7.415,31.008,25.266,31.008,46.068
	s-12.841,38.653-31.008,46.069c5.787,2.362,12.109,3.675,18.735,3.675c27.428,0,49.743-22.315,49.743-49.744
	C421.924,112.667,399.61,90.352,372.182,90.352z"/>
<path style="fill:#E0E0E2;" d="M401.003,210.773c-1.408-1.416-3.324-2.212-5.321-2.212H286.7H158.375h-7.507v7.507v7.622H61.845
	c-4.147,0-7.507,3.361-7.507,7.507v20.814c0,4.053,3.217,7.374,7.268,7.503l73.616,2.351v113.335c0,4.146,3.36,7.507,7.507,7.507
	h31.48c4.147,0,7.507-3.361,7.507-7.507V270.257h33.824v104.945c0,4.146,3.36,7.507,7.507,7.507h31.48
	c4.147,0,7.507-3.361,7.507-7.507V269.307l134.494-17.841c3.718-0.493,6.501-3.655,6.52-7.405l0.139-27.955
	C403.198,214.107,402.411,212.188,401.003,210.773z"/>
<path style="fill:#B2B1B5;" d="M395.682,208.56h-29.962v46.992l30.81-4.087c3.718-0.493,6.501-3.655,6.52-7.405l0.139-27.955
	c0.01-1.998-0.777-3.917-2.186-5.332C399.595,209.357,397.679,208.56,395.682,208.56z"/>
<g>
</g>
<g>
</g>
<g>
</g>
<g>
</g>
<g>
</g>
<g>
</g>
<g>
</g>
<g>
</g>
<g>
</g>
<g>
</g>
<g>
</g>
<g>
</g>
<g>
</g>
<g>
</g>
<g>
</g>
</svg>
