<svg height="480pt" viewBox="0 -8 480 480" width="480pt" xmlns="http://www.w3.org/2000/svg"><path d="m42.105469 256.714844c-4.265625-1.164063-8.664063 1.351562-9.824219 5.617187-1.164062 4.261719 1.351562 8.660157 5.613281 9.820313l68.578125 18.683594-20.96875 46.160156c-1.8125-.351563-3.65625-.539063-5.503906-.5625-15.808594-.207032-29.453125 11.027344-32.289062 26.578125-2.839844 15.550781 5.964843 30.878906 20.828124 36.265625 14.863282 5.386718 31.441407-.742188 39.226563-14.5 7.785156-13.757813 4.503906-31.128906-7.765625-41.09375l22.078125-48.5625 91.785156 25.03125c.699219.1875 1.414063.28125 2.136719.28125 3.21875 0 6.125-1.925782 7.375-4.894532l36.96875-87.800781 75.65625 20.375v.320313c-.078125 15.765625 11.335938 29.238281 26.898438 31.75 15.566406 2.515625 30.640624-6.683594 35.527343-21.671875 4.882813-14.988281-1.875-31.304688-15.929687-38.445313l18.128906-81.542968 41.3125-10.328126c4.191406-1.152343 6.695312-5.4375 5.644531-9.652343-1.050781-4.21875-5.277343-6.824219-9.519531-5.867188l-33.597656 8.390625 12.613281-56.746094c16.199219-.472656 29.515625-12.921874 31.078125-29.054687 1.5625-16.128906-9.121094-30.902344-24.929688-34.476563-15.808593-3.570312-31.804687 5.175782-37.328124 20.410157-5.527344 15.234375 1.144531 32.203125 15.566406 39.59375l-14.359375 64.617187-109.042969 27.265625c-2.445312.605469-4.460938 2.332031-5.4375 4.65625l-21.601562 51.316407-59.023438-15.894532c0-.113281 0-.207031 0-.320312.109375-14.949219-10.148438-27.984375-24.707031-31.390625-14.554688-3.410157-29.53125 3.71875-36.070313 17.164062-6.539062 13.445313-2.894531 29.625 8.777344 38.972657l-26.777344 58.917968zm37.894531 127.71875c-8.835938 0-16-7.164063-16-16 0-8.835938 7.164062-16 16-16s16 7.164062 16 16c0 8.835937-7.164062 16-16 16zm320-352c0-8.835938 7.164062-16 16-16s16 7.164062 16 16c0 8.835937-7.164062 16-16 16s-16-7.164063-16-16zm-16 216c0 8.835937-7.164062 16-16 16s-16-7.164063-16-16c0-8.835938 7.164062-16 16-16s16 7.164062 16 16zm-98.175781-81.207032 97.441406-24.390624-16.378906 73.6875c-11.0625.394531-21.125 6.507812-26.574219 16.144531l-73.703125-19.839844zm-125.824219 9.207032c8.835938 0 16 7.164062 16 16 0 8.835937-7.164062 16-16 16s-16-7.164063-16-16c0-8.835938 7.164062-16 16-16zm-5.511719 47.441406c1.816407.347656 3.660157.535156 5.511719.558594 11.484375-.039063 22.058594-6.246094 27.6875-16.253906l57.066406 15.359374-33.410156 79.335938-82.542969-22.511719zm0 0"/><path d="m472 448.433594h-464c-4.417969 0-8 3.582031-8 8 0 4.417968 3.582031 8 8 8h464c4.417969 0 8-3.582032 8-8 0-4.417969-3.582031-8-8-8zm0 0"/></svg>