<svg height="480pt" viewBox="0 0 480 480" width="480pt" xmlns="http://www.w3.org/2000/svg"><path d="m472 0h-80c-4.417969 0-8 3.582031-8 8v124.6875l-32 32v-28.6875c0-4.417969-3.582031-8-8-8h-80c-4.417969 0-8 3.582031-8 8v55.054688l-32-16v-103.054688c0-4.417969-3.582031-8-8-8h-80c-4.417969 0-8 3.582031-8 8v124.6875l-32 32v-28.6875c0-4.417969-3.582031-8-8-8h-80c-4.417969 0-8 3.582031-8 8v240c0 4.417969 3.582031 8 8 8h80c4.417969 0 8-3.582031 8-8v-188.6875l32-32v220.6875c0 4.417969 3.582031 8 8 8h80c4.417969 0 8-3.582031 8-8v-247.054688l32 16v231.054688c0 4.417969 3.582031 8 8 8h80c4.417969 0 8-3.582031 8-8v-252.6875l32-32v284.6875c0 4.417969 3.582031 8 8 8h80c4.417969 0 8-3.582031 8-8v-432c0-4.417969-3.582031-8-8-8zm-392 244.6875-27.910156 27.914062c-1.332032-.382812-2.707032-.582031-4.089844-.601562-8.835938 0-16 7.164062-16 16s7.164062 16 16 16 16-7.164062 16-16c-.019531-1.382812-.21875-2.757812-.601562-4.089844l16.601562-16.597656v164.6875h-64v-224h64zm128 187.3125h-64v-228.6875l27.910156-27.914062c1.332032.382812 2.707032.582031 4.089844.601562 3.132812.003906 6.191406-.921875 8.800781-2.65625l23.199219 11.601562zm0-264.945312-16.105469-8.046876c-.878906-8.328124-8.035156-14.566406-16.40625-14.308593-8.371093.261719-15.125 6.933593-15.488281 15.300781.019531 1.382812.21875 2.757812.601562 4.089844l-16.601562 16.597656v-100.6875h64zm128 264.945312h-64v-215.054688l16.105469 8.046876c.878906 8.328124 8.035156 14.566406 16.40625 14.308593 8.371093-.261719 15.125-6.933593 15.488281-15.300781-.019531-1.382812-.21875-2.757812-.601562-4.089844l16.601562-16.597656zm0-251.3125-27.910156 27.914062c-1.332032-.382812-2.707032-.582031-4.089844-.601562-3.132812-.003906-6.191406.921875-8.800781 2.65625l-23.199219-11.601562v-55.054688h64zm128 251.3125h-64v-292.6875l27.910156-27.914062c1.332032.382812 2.707032.582031 4.089844.601562 8.835938 0 16-7.164062 16-16s-7.164062-16-16-16-16 7.164062-16 16c.019531 1.382812.21875 2.757812.601562 4.089844l-16.601562 16.597656v-100.6875h64zm0 0"/><path d="m472 464h-464c-4.417969 0-8 3.582031-8 8s3.582031 8 8 8h464c4.417969 0 8-3.582031 8-8s-3.582031-8-8-8zm0 0"/></svg>