<svg height="480pt" viewBox="0 0 480 480" width="480pt" xmlns="http://www.w3.org/2000/svg"><path d="m472 232h-24v-224c0-4.417969-3.582031-8-8-8s-8 3.582031-8 8v224h-32v-192c0-4.417969-3.582031-8-8-8s-8 3.582031-8 8v192h-32v-136c0-4.417969-3.582031-8-8-8s-8 3.582031-8 8v136h-32v-88c0-4.417969-3.582031-8-8-8s-8 3.582031-8 8v88h-32v-40c0-4.417969-3.582031-8-8-8s-8 3.582031-8 8v40h-224v-224c0-4.417969-3.582031-8-8-8s-8 3.582031-8 8v464c0 4.417969 3.582031 8 8 8s8-3.582031 8-8v-224h32v208c0 4.417969 3.582031 8 8 8s8-3.582031 8-8v-208h32v152c0 4.417969 3.582031 8 8 8s8-3.582031 8-8v-152h32v104c0 4.417969 3.582031 8 8 8s8-3.582031 8-8v-104h32v56c0 4.417969 3.582031 8 8 8s8-3.582031 8-8v-56h264c4.417969 0 8-3.582031 8-8s-3.582031-8-8-8zm0 0"/></svg>