<svg height="480pt" viewBox="0 0 480 480.00108" width="480pt" xmlns="http://www.w3.org/2000/svg"><path d="m8 480h464c4.417969 0 8-3.582031 8-8s-3.582031-8-8-8h-8v-248c0-4.417969-3.582031-8-8-8h-64c-4.417969 0-8 3.582031-8 8v248h-32v-280c0-4.417969-3.582031-8-8-8h-64c-4.417969 0-8 3.582031-8 8v280h-32v-328c0-4.417969-3.582031-8-8-8h-64c-4.417969 0-8 3.582031-8 8v328h-32v-408c0-4.417969-3.582031-8-8-8h-64c-4.417969 0-8 3.582031-8 8v408h-32v-456c0-4.417969-3.582031-8-8-8s-8 3.582031-8 8v464c0 4.417969 3.582031 8 8 8zm392-256h48v240h-48zm-112-32h48v272h-48zm-112-48h48v320h-48zm-112-80h48v400h-48zm0 0"/><path d="m426.34375 157.65625c3.125 3.125 8.1875 3.125 11.3125 0l24-24c.1875-.253906.359375-.519531.511719-.800781.441406-.5.8125-1.0625 1.105469-1.664063.175781-.460937.304687-.941406.382812-1.429687.148438-.402344.261719-.820313.34375-1.242188 0-.085937 0-.167969 0-.253906-.015625-.574219-.09375-1.144531-.230469-1.703125-.050781-.464844-.140625-.921875-.265625-1.371094-.195312-.414062-.429687-.808594-.695312-1.183594-.265625-.515624-.589844-1-.960938-1.445312-.0625-.066406-.078125-.152344-.144531-.21875l-24-24c-3.136719-3.03125-8.128906-2.988281-11.214844.097656-3.085937 3.085938-3.128906 8.078125-.097656 11.214844l8.320313 8.320312c-89.597657-10.238281-199.4375-48.289062-260.757813-115.375-2.984375-3.261718-8.042969-3.488281-11.304687-.503906-3.261719 2.980469-3.484376 8.042969-.503907 11.304688 57.976563 63.480468 164.953125 110.023437 276.0625 121.078125l-11.863281 11.863281c-3.121094 3.125-3.121094 8.1875 0 11.3125zm0 0"/></svg>