<svg height="480pt" viewBox="0 0 480.15441 480" width="480pt" xmlns="http://www.w3.org/2000/svg"><path d="m320.15625 480.078125c4.417969 0 8-3.582031 8-8v-224c0-13.253906-10.746094-24-24-24-13.257812 0-24 10.746094-24 24v224c0 4.417969 3.578125 8 8 8zm-24-232c0-4.417969 3.578125-8 8-8 4.417969 0 8 3.582031 8 8v216h-16zm0 0"/><path d="m392.15625 472.078125v-256c0-13.253906-10.746094-24-24-24-13.257812 0-24 10.746094-24 24v256c0 4.417969 3.578125 8 8 8h32c4.417969 0 8-3.582031 8-8zm-16-8h-16v-248c0-4.417969 3.578125-8 8-8 4.417969 0 8 3.582031 8 8zm0 0"/><path d="m256.15625 480.078125c4.417969 0 8-3.582031 8-8v-272c0-13.253906-10.746094-24-24-24-13.257812 0-24 10.746094-24 24v272c0 4.417969 3.578125 8 8 8zm-24-280c0-4.417969 3.578125-8 8-8 4.417969 0 8 3.582031 8 8v264h-16zm0 0"/><path d="m64.15625 480.078125c4.417969 0 8-3.582031 8-8v-192c0-13.253906-10.746094-24-24-24-13.257812 0-24 10.746094-24 24v192c0 4.417969 3.578125 8 8 8zm-24-200c0-4.417969 3.578125-8 8-8 4.417969 0 8 3.582031 8 8v184h-16zm0 0"/><path d="m136.15625 472.078125v-240c0-13.253906-10.746094-24-24-24-13.257812 0-24 10.746094-24 24v240c0 4.417969 3.578125 8 8 8h32c4.417969 0 8-3.582031 8-8zm-16-8h-16v-232c0-4.417969 3.578125-8 8-8 4.417969 0 8 3.582031 8 8zm0 0"/><path d="m456.15625 472.078125v-352c0-13.253906-10.746094-24-24-24-13.257812 0-24 10.746094-24 24v352c0 4.417969 3.578125 8 8 8h32c4.417969 0 8-3.582031 8-8zm-16-8h-16v-344c0-4.417969 3.578125-8 8-8 4.417969 0 8 3.582031 8 8zm0 0"/><path d="m434.867188 34.078125-130.710938 115.351563-122.738281-107.375c-3.054688-2.667969-7.625-2.628907-10.632813.09375l-168 152c-2.203125 1.894531-3.207031 4.839843-2.621094 7.6875.589844 2.847656 2.675782 5.152343 5.453126 6.015624 2.773437.867188 5.800781.160157 7.90625-1.847656l162.71875-147.199218 122.648437 107.296874c3.019531 2.648438 7.53125 2.648438 10.550781 0l136-120c3.1875-2.949218 3.441406-7.902343.570313-11.164062-2.871094-3.257812-7.820313-3.628906-11.144531-.835938zm0 0"/><path d="m472.15625.078125h-48c-4.421875 0-8 3.582031-8 8s3.578125 8 8 8h40v40c0 4.417969 3.578125 8 8 8 4.417969 0 8-3.582031 8-8v-48c0-4.417969-3.582031-8-8-8zm0 0"/><path d="m192.15625 480.078125c4.417969 0 8-3.582031 8-8v-336c0-13.253906-10.746094-24-24-24-13.257812 0-24 10.746094-24 24v336c0 4.417969 3.578125 8 8 8zm-24-344c0-4.417969 3.578125-8 8-8 4.417969 0 8 3.582031 8 8v328h-16zm0 0"/></svg>