<svg height="480pt" viewBox="0 0 480 480" width="480pt" xmlns="http://www.w3.org/2000/svg"><path d="m472 464h-456v-456c0-4.417969-3.582031-8-8-8s-8 3.582031-8 8v464c0 4.417969 3.582031 8 8 8h464c4.417969 0 8-3.582031 8-8s-3.582031-8-8-8zm0 0"/><path d="m456 448c4.417969 0 8-3.582031 8-8v-320c.003906-3.546875-2.328125-6.667969-5.726562-7.675781-3.398438-1.007813-7.054688.339843-8.984376 3.316406l-118.464843 182.253906-84.847657-95.199219c-2.035156-2.300781-5.210937-3.234374-8.167968-2.398437l-107.71875 30.792969-84.707032-77.011719c-2.339843-2.128906-5.722656-2.679687-8.617187-1.398437-2.898437 1.28125-4.765625 4.152343-4.765625 7.320312v280c0 4.417969 3.582031 8 8 8zm-408-269.910156 74.617188 67.832031c2.054687 1.847656 4.910156 2.515625 7.574218 1.773437l107.199219-30.625 88.449219 99.296876c1.679687 1.835937 4.101562 2.8125 6.585937 2.65625 2.484375-.1875 4.742188-1.523438 6.101563-3.617188l109.472656-168.421875v285.015625h-400zm0 0"/></svg>