<svg height="480pt" viewBox="0 0 480 480.00756" width="480pt" xmlns="http://www.w3.org/2000/svg"><path d="m40.003906 416h64c4.417969 0 8-3.582031 8-8v-112c0-4.417969-3.582031-8-8-8h-64c-4.417968 0-8 3.582031-8 8v112c0 4.417969 3.582032 8 8 8zm8-112h48v96h-48zm0 0"/><path d="m472.003906 448h-41.472656c-3.339844-9.585938-12.378906-16.007812-22.527344-16.007812-10.148437 0-19.1875 6.421874-22.527344 16.007812h-66.945312c-3.339844-9.585938-12.378906-16.007812-22.527344-16.007812-10.148437 0-19.1875 6.421874-22.527344 16.007812h-66.945312c-3.339844-9.585938-12.378906-16.007812-22.527344-16.007812-10.148437 0-19.1875 6.421874-22.527344 16.007812h-66.945312c-3.339844-9.585938-12.378906-16.007812-22.527344-16.007812-10.148437 0-19.1875 6.421874-22.527344 16.007812h-41.472656c-4.417968 0-7.99999975 3.582031-7.99999975 8s3.58203175 8 7.99999975 8h41.472656c3.339844 9.585938 12.378907 16.007812 22.527344 16.007812 10.148438 0 19.1875-6.421874 22.527344-16.007812h66.945312c3.339844 9.585938 12.378907 16.007812 22.527344 16.007812 10.148438 0 19.1875-6.421874 22.527344-16.007812h66.945312c3.339844 9.585938 12.378907 16.007812 22.527344 16.007812 10.148438 0 19.1875-6.421874 22.527344-16.007812h66.945312c3.339844 9.585938 12.378907 16.007812 22.527344 16.007812 10.148438 0 19.1875-6.421874 22.527344-16.007812h41.472656c4.417969 0 8-3.582031 8-8s-3.582031-8-8-8zm-400 16c-4.417968 0-8-3.582031-8-8s3.582032-8 8-8c4.417969 0 8 3.582031 8 8s-3.582031 8-8 8zm112 0c-4.417968 0-8-3.582031-8-8s3.582032-8 8-8c4.417969 0 8 3.582031 8 8s-3.582031 8-8 8zm112 0c-4.417968 0-8-3.582031-8-8s3.582032-8 8-8c4.417969 0 8 3.582031 8 8s-3.582031 8-8 8zm112 0c-4.417968 0-8-3.582031-8-8s3.582032-8 8-8c4.417969 0 8 3.582031 8 8s-3.582031 8-8 8zm0 0"/><path d="m144.003906 104v304c0 4.417969 3.582032 8 8 8h64c4.417969 0 8-3.582031 8-8v-304c0-4.417969-3.582031-8-8-8h-64c-4.417968 0-8 3.582031-8 8zm16 8h48v288h-48zm0 0"/><path d="m264.003906 416h64c4.417969 0 8-3.582031 8-8v-400c0-4.417969-3.582031-8-8-8h-64c-4.417968 0-8 3.582031-8 8v400c0 4.417969 3.582032 8 8 8zm8-400h48v384h-48zm0 0"/><path d="m376.003906 416h64c4.417969 0 8-3.582031 8-8v-192c0-4.417969-3.582031-8-8-8h-64c-4.417968 0-8 3.582031-8 8v192c0 4.417969 3.582032 8 8 8zm8-192h48v176h-48zm0 0"/></svg>