<svg height="480pt" viewBox="0 0 480 480" width="480pt" xmlns="http://www.w3.org/2000/svg"><path d="m471.996094 176h-80v-32c0-4.417969-3.578125-8-8-8h-134.222656l-113.777344-53.097656v-34.902344h32c13.257812 0 24-10.746094 24-24s-10.742188-24-24-24h-80c-13.253906 0-24 10.746094-24 24s10.746094 24 24 24h32v34.902344l-115.382813 53.851562c-2.8125 1.3125-4.613281 4.140625-4.613281 7.246094s1.800781 5.933594 4.613281 7.246094l115.382813 53.851562v34.902344h-80c-4.417969 0-8 3.582031-8 8v48c0 4.417969 3.582031 8 8 8h80v33.136719c-14.113282 3.589843-23.992188 16.300781-23.992188 30.863281s9.878906 27.273438 23.992188 30.863281v33.136719h-32c-13.253906 0-24 10.746094-24 24s10.746094 24 24 24h80c13.257812 0 24-10.746094 24-24s-10.742188-24-24-24h-32v-33.136719c11.195312-2.925781 19.9375-11.667969 22.867187-22.863281h225.132813c4.421875 0 8-3.582031 8-8v-128h80c4.421875 0 8-3.582031 8-8v-48c0-4.417969-3.578125-8-8-8zm-384-144c-4.417969 0-8-3.582031-8-8s3.582031-8 8-8h80c4.421875 0 8 3.582031 8 8s-3.578125 8-8 8zm-61.078125 112 101.078125-47.199219 101.082031 47.199219-101.082031 47.199219zm21.078125 144v-32h160v32zm120 160c4.421875 0 8 3.582031 8 8s-3.578125 8-8 8h-80c-4.417969 0-8-3.582031-8-8s3.582031-8 8-8zm-40-64c-8.835938 0-16-7.164062-16-16s7.164062-16 16-16c8.839844 0 16 7.164062 16 16s-7.160156 16-16 16zm248-24h-217.132813c-2.929687-11.195312-11.671875-19.9375-22.867187-22.863281v-33.136719h80c4.421875 0 8-3.582031 8-8v-48c0-4.417969-3.578125-8-8-8h-80v-34.902344l113.777344-53.097656h126.222656v24h-80c-4.417969 0-8 3.582031-8 8v48c0 4.417969 3.582031 8 8 8h80zm88-136h-160v-32h160zm0 0"/></svg>