<svg height="480pt" viewBox="0 0 480 480" width="480pt" xmlns="http://www.w3.org/2000/svg"><path d="m472 464h-8v-408c0-4.417969-3.582031-8-8-8h-64c-4.417969 0-8 3.582031-8 8v408h-32v-328c0-4.417969-3.582031-8-8-8h-64c-4.417969 0-8 3.582031-8 8v328h-32v-280c0-4.417969-3.582031-8-8-8h-64c-4.417969 0-8 3.582031-8 8v280h-32v-248c0-4.417969-3.582031-8-8-8h-64c-4.417969 0-8 3.582031-8 8v248h-32v-456c0-4.417969-3.582031-8-8-8s-8 3.582031-8 8v464c0 4.417969 3.582031 8 8 8h464c4.417969 0 8-3.582031 8-8s-3.582031-8-8-8zm-360 0h-48v-80h48zm0-96h-48v-64h48zm0-80h-48v-64h48zm112 176h-48v-160h48zm0-176h-48v-48h48zm0-64h-48v-32h48zm112 240h-48v-144h48zm0-160h-48v-96h48zm0-112h-48v-48h48zm112 272h-48v-208h48zm0-224h-48v-112h48zm0-128h-48v-48h48zm0 0"/></svg>