<svg height="480pt" viewBox="0 0 480 480" width="480pt" xmlns="http://www.w3.org/2000/svg"><path d="m8 480h464c4.417969 0 8-3.582031 8-8s-3.582031-8-8-8h-24v-296c0-4.417969-3.582031-8-8-8h-32c-4.417969 0-8 3.582031-8 8v24h-16v-72c0-4.417969-3.582031-8-8-8h-32c-4.417969 0-8 3.582031-8 8v344h-32v-216c0-4.417969-3.582031-8-8-8h-24v-88c0-4.417969-3.582031-8-8-8h-32c-4.417969 0-8 3.582031-8 8v40h-24c-4.417969 0-8 3.582031-8 8v264h-32v-248c0-4.417969-3.582031-8-8-8h-24v-40c0-4.417969-3.582031-8-8-8h-32c-4.417969 0-8 3.582031-8 8v72h-24c-4.417969 0-8 3.582031-8 8v216h-32v-456c0-4.417969-3.582031-8-8-8s-8 3.582031-8 8v464c0 4.417969 3.582031 8 8 8zm408-280v-24h16v288h-16zm-32 8h16v256h-16zm-32-80h16v336h-16zm-80 128h16v208h-16zm-32-56v-40h16v304h-16zm-32 8h16v256h-16zm-80 16h16v240h-16zm-32 24v-72h16v288h-16zm-32 8h16v208h-16zm0 0"/><path d="m344 0h16v16h-16zm0 0"/><path d="m344 32h16v16h-16zm0 0"/><path d="m344 64h16v16h-16zm0 0"/><path d="m464 0h-80c-4.417969 0-8 3.582031-8 8s3.582031 8 8 8h80c4.417969 0 8-3.582031 8-8s-3.582031-8-8-8zm0 0"/><path d="m464 32h-80c-4.417969 0-8 3.582031-8 8s3.582031 8 8 8h80c4.417969 0 8-3.582031 8-8s-3.582031-8-8-8zm0 0"/><path d="m464 64h-80c-4.417969 0-8 3.582031-8 8s3.582031 8 8 8h80c4.417969 0 8-3.582031 8-8s-3.582031-8-8-8zm0 0"/></svg>