<svg height="479pt" viewBox="0 0 479 479.99938" width="479pt" xmlns="http://www.w3.org/2000/svg"><path d="m196.011719 478.625c2.199219 1.488281 4.996093 1.789062 7.464843.800781l80-32c3.03125-1.21875 5.023438-4.15625 5.023438-7.425781v-149.519531l190.597656-277.960938c1.679688-2.449219 1.863282-5.625.476563-8.25-1.382813-2.625-4.105469-4.269531-7.074219-4.269531h-464c-2.96875 0-5.691406 1.644531-7.078125 4.269531-1.3828125 2.625-1.199219 5.800781.476563 8.25l190.601562 277.960938v181.519531c0 2.652344 1.3125 5.136719 3.511719 6.625zm-117.234375-382.28125-55.078125-80.34375h433.601562l-55.082031 80.34375c-.558594-.179688-1.136719-.292969-1.71875-.34375h-320c-.585938.050781-1.164062.164062-1.722656.34375zm65.609375 95.65625-54.871094-80h301.96875l-54.875 80zm10.953125 16h170.320312l-51.761718 75.480469c-.910157 1.332031-1.398438 2.90625-1.398438 4.519531v146.585938l-64 25.597656v-172.183594c0-1.613281-.488281-3.1875-1.402344-4.519531zm0 0"/></svg>