<svg height="479pt" viewBox="0 0 479 479.98406" width="479pt" xmlns="http://www.w3.org/2000/svg"><path d="m240.476562 479.984375c-43.941406.027344-81.171874-32.363281-87.21875-75.886719-6.050781-43.523437 20.933594-84.835937 63.21875-96.792968v-43.320313h-43.320312c-11.976562 42.253906-53.277344 69.207031-96.78125 63.160156-43.5-6.046875-75.882812-43.242187-75.882812-87.160156 0-43.921875 32.382812-81.117187 75.882812-87.164063 43.503906-6.046874 84.804688 20.910157 96.78125 63.164063h43.320312v-43.320313c-42.253906-11.976562-69.210937-53.277343-63.164062-96.78125 6.046875-43.5 43.242188-75.882812 87.164062-75.882812 43.917969 0 81.113282 32.382812 87.160157 75.882812 6.046875 43.503907-20.90625 84.804688-63.160157 96.78125v43.320313h43.320313c11.976563-42.253906 53.277344-69.210937 96.777344-63.164063 43.503906 6.046876 75.886719 43.242188 75.886719 87.164063 0 43.917969-32.382813 81.113281-75.886719 87.160156-43.5 6.046875-84.800781-20.90625-96.777344-63.160156h-43.320313v43.320313c42.285157 11.957031 69.265626 53.269531 63.21875 96.792968-6.050781 43.523438-43.277343 75.914063-87.21875 75.886719zm-73.601562-232h57.601562c4.417969 0 8 3.582031 8 8v57.601563c.003907 3.804687-2.671874 7.085937-6.402343 7.847656-36.214844 7.390625-60.949219 41.003906-57.234375 77.78125 3.714844 36.773437 34.675781 64.761718 71.636718 64.761718 36.960938 0 67.917969-27.988281 71.636719-64.761718 3.714844-36.777344-21.023437-70.390625-57.238281-77.78125-3.726562-.761719-6.402344-4.042969-6.398438-7.847656v-57.601563c0-4.417969 3.582032-8 8-8h57.597657c3.804687 0 7.082031 2.675781 7.84375 6.398437 7.390625 36.214844 41.003906 60.953126 77.78125 57.238282 36.773437-3.714844 64.761719-34.675782 64.761719-71.636719s-27.988282-67.921875-64.761719-71.636719c-36.777344-3.714844-70.390625 21.019532-77.78125 57.238282-.761719 3.722656-4.039063 6.398437-7.84375 6.398437h-57.597657c-4.417968 0-8-3.582031-8-8v-57.601563c-.003906-3.804687 2.671876-7.085937 6.398438-7.847656 36.214844-7.390625 60.953125-41.007812 57.238281-77.78125-3.71875-36.773437-34.675781-64.761718-71.636719-64.761718-36.960937 0-67.921874 27.988281-71.636718 64.761718-3.714844 36.773438 21.019531 70.390625 57.234375 77.78125 3.730469.761719 6.40625 4.042969 6.402343 7.847656v57.601563c0 4.417969-3.582031 8-8 8h-57.601562c-3.800781 0-7.078125-2.675781-7.839844-6.398437-7.390625-36.21875-41.007812-60.953126-77.78125-57.238282-36.773437 3.714844-64.761718 34.675782-64.761718 71.636719s27.988281 67.921875 64.761718 71.636719c36.773438 3.714844 70.390625-21.023438 77.78125-57.238282.761719-3.722656 4.039063-6.398437 7.839844-6.398437zm0 0"/></svg>