<svg height="480pt" viewBox="0 0 480.13044 480" width="480pt" xmlns="http://www.w3.org/2000/svg"><path d="m120.066406 264.070312h78.496094c8.542969 14.847657 24.371094 24 41.503906 24 17.128906 0 32.957032-9.152343 41.503906-24h78.496094c66.273438 0 120-53.726562 120-120 0-66.273437-53.726562-120-120-120h-88c-.089844 0-.160156.046876-.242187.046876l-26.640625-22.199219c-2.382813-1.9882815-5.703125-2.414063-8.515625-1.097657-2.808594 1.320313-4.605469 4.144532-4.601563 7.25v16h-142.496094c-10.863281-18.816406-33.007812-27.988281-53.992187-22.363281-20.984375 5.621094-35.578125 24.636719-35.578125 46.363281 0 21.726563 14.59375 40.742188 35.578125 46.363282 20.984375 5.625 43.128906-3.550782 53.992187-22.363282h142.496094v16c.015625 3.089844 1.808594 5.890626 4.605469 7.199219 1.058594.515625 2.21875.789063 3.394531.800781 1.867188 0 3.679688-.652343 5.117188-1.847656l26.640625-22.199218c.082031 0 .152343.046874.242187.046874h88c39.761719 0 72 32.234376 72 72 0 39.765626-32.238281 72-72 72h-78.496094c-8.546874-14.847656-24.375-24-41.503906-24-17.132812 0-32.960937 9.152344-41.503906 24h-78.496094c-66.273437 0-119.9999998 53.726563-119.9999998 120 0 66.273438 53.7265628 120 119.9999998 120h64v16c0 3.101563 1.796875 5.925782 4.605469 7.238282 1.0625.503906 2.21875.761718 3.394531.761718 1.867188 0 3.679688-.652343 5.117188-1.847656l26.640625-22.199218c.082031 0 .152343.046874.242187.046874h166.496094c10.859375 18.8125 33.007812 27.988282 53.992188 22.363282 20.984374-5.621094 35.574218-24.636719 35.574218-46.363282 0-21.726562-14.589844-40.742187-35.574218-46.363281-20.984376-5.625-43.132813 3.546875-53.992188 22.363281h-166.496094c-.089844 0-.160156.046876-.242187.046876l-26.640625-22.199219c-2.382813-1.988281-5.703125-2.414063-8.515625-1.097657-2.808594 1.320313-4.605469 4.144532-4.601563 7.25v16h-64c-39.765625 0-72-32.234374-72-72 0-39.765624 32.234375-72 72-72zm-72-184c-17.675781 0-32-14.328124-32-32 0-17.671874 14.324219-32 32-32 17.671875 0 32 14.328126 32 32 0 17.671876-14.328125 32-32 32zm184-24h-136v-16h136zm16 14.917969v-45.839843l27.503906 22.921874zm39.277344 161.082031h72.722656c48.601563 0 88-39.398437 88-88 0-48.601562-39.398437-88-88-88h-69.105468l2.222656-1.847656c1.828125-1.519531 2.886718-3.773437 2.886718-6.152344 0-2.378906-1.058593-4.632812-2.886718-6.152343l-2.222656-1.847657h69.105468c57.4375 0 104 46.5625 104 104s-46.5625 104-104 104h-72.722656c.960938-5.289062.960938-10.710937 0-16zm-47.277344-24c17.671875 0 32 14.328126 32 32 0 17.671876-14.328125 32-32 32-17.675781 0-32-14.328124-32-32 0-17.671874 14.324219-32 32-32zm192 192c17.671875 0 32 14.328126 32 32 0 17.671876-14.328125 32-32 32-17.675781 0-32-14.328124-32-32 0-17.671874 14.324219-32 32-32zm-186.882812 25.847657-2.222656-1.847657h141.105468v16h-141.105468l2.222656-1.847656c1.828125-1.519531 2.886718-3.773437 2.886718-6.152344 0-2.378906-1.058593-4.632812-2.886718-6.152343zm-45.117188-16.769531 27.503906 22.921874-27.503906 22.917969zm-168-73.078126c.054688 48.578126 39.421875 87.941407 88 88h64v16h-64c-57.4375 0-104-46.5625-104-104s46.5625-104 104-104h72.71875c-.960937 5.289063-.960937 10.710938 0 16h-72.71875c-48.578125.058594-87.945312 39.421876-88 88zm0 0"/></svg>