<svg height="480pt" viewBox="0 -8 480 480" width="480pt" xmlns="http://www.w3.org/2000/svg"><path d="m472 368h-32v-32c0-4.417969-3.582031-8-8-8h-56v-24h40c4.417969 0 8-3.582031 8-8v-96c0-4.417969-3.582031-8-8-8h-40v-32c0-4.417969-3.582031-8-8-8h-120v-24h48c4.417969 0 8-3.582031 8-8v-112c0-4.417969-3.582031-8-8-8h-112c-4.417969 0-8 3.582031-8 8v112c0 4.417969 3.582031 8 8 8h48v24h-120c-4.417969 0-8 3.582031-8 8v32h-40c-4.417969 0-8 3.582031-8 8v96c0 4.417969 3.582031 8 8 8h40v24h-56c-4.417969 0-8 3.582031-8 8v32h-32c-4.417969 0-8 3.582031-8 8v80c0 4.417969 3.582031 8 8 8h80c4.417969 0 8-3.582031 8-8v-80c0-4.417969-3.582031-8-8-8h-32v-24h112v24h-32c-4.417969 0-8 3.582031-8 8v80c0 4.417969 3.582031 8 8 8h80c4.417969 0 8-3.582031 8-8v-80c0-4.417969-3.582031-8-8-8h-32v-32c0-4.417969-3.582031-8-8-8h-56v-24h40c4.417969 0 8-3.582031 8-8v-96c0-4.417969-3.582031-8-8-8h-40v-24h240v24h-40c-4.417969 0-8 3.582031-8 8v96c0 4.417969 3.582031 8 8 8h40v24h-56c-4.417969 0-8 3.582031-8 8v32h-32c-4.417969 0-8 3.582031-8 8v80c0 4.417969 3.582031 8 8 8h80c4.417969 0 8-3.582031 8-8v-80c0-4.417969-3.582031-8-8-8h-32v-24h112v24h-32c-4.417969 0-8 3.582031-8 8v80c0 4.417969 3.582031 8 8 8h80c4.417969 0 8-3.582031 8-8v-80c0-4.417969-3.582031-8-8-8zm-392 16v64h-64v-64zm128 0v64h-64v-64zm-56-176v80h-80v-80zm40-96v-96h96v96zm144 272v64h-64v-64zm-8-96v-80h80v80zm136 160h-64v-64h64zm0 0"/></svg>