<svg height="480pt" viewBox="0 0 480 480" width="480pt" xmlns="http://www.w3.org/2000/svg"><path d="m240 0c-132.546875 0-240 107.453125-240 240s107.453125 240 240 240 240-107.453125 240-240-107.453125-240-240-240zm-4.207031 16.105469 26.605469 39.894531-26.8125 40.222656c-72.132813 2.269532-131.472657 57.527344-138.867188 129.3125l-36.277344-24.191406c-2.691406-1.792969-6.191406-1.792969-8.882812 0l-34.972656 23.320312c8.082031-115.773437 103.171874-206.246093 219.207031-208.558593zm4.207031 95.894531c70.691406 0 128 57.308594 128 128s-57.308594 128-128 128-128-57.308594-128-128c.082031-70.65625 57.34375-127.917969 128-128zm-223.894531 132.214844 39.894531-26.613282 40.207031 26.804688c2.261719 72.144531 57.535157 131.488281 129.335938 138.859375l-24.199219 36.292969c-1.792969 2.691406-1.792969 6.191406 0 8.882812l23.320312 34.972656c-115.769531-8.082031-206.242187-103.167968-208.558593-219.199218zm228.101562 219.679687-26.605469-39.894531 26.8125-40.222656c72.136719-2.261719 131.476563-57.527344 138.851563-129.320313l36.292969 24.199219c2.691406 1.792969 6.191406 1.792969 8.882812 0l34.972656-23.320312c-8.082031 115.773437-103.171874 206.246093-219.207031 208.558593zm179.792969-201.496093-40.222656-26.8125c-2.261719-72.136719-57.527344-131.476563-129.320313-138.851563l24.199219-36.292969c1.792969-2.691406 1.792969-6.191406 0-8.882812l-23.320312-34.972656c115.769531 8.082031 206.242187 103.167968 208.558593 219.199218zm0 0"/></svg>