<svg height="480pt" viewBox="0 -8 480.13125 480" width="480pt" xmlns="http://www.w3.org/2000/svg"><path d="m424.066406 176.480469c-27.8125.035156-51.386718 20.472656-55.359375 48h-33.050781c-2.644531-31.308594-20.449219-59.34375-47.664062-75.054688l19.273437-40.945312c27.363281 11.03125 58.597656-.953125 71.558594-27.457031 12.964843-26.5 3.246093-58.515626-22.261719-73.339844-25.507812-14.824219-58.136719-7.425782-74.746094 16.957031-16.613281 24.378906-11.566406 57.453125 11.5625 75.769531l-19.882812 42.238282c-21.546875-8.167969-45.34375-8.167969-66.894532 0l-19.878906-42.238282c22.964844-18.246094 27.9375-51.136718 11.390625-75.355468-16.550781-24.21875-48.996093-31.539063-74.34375-16.773438-25.34375 14.765625-34.980469 46.601562-22.074219 72.941406 12.90625 26.34375 43.96875 38.238282 71.171876 27.257813l19.285156 40.984375c-27.207032 15.699218-45.015625 43.714844-47.679688 75.015625h-33.046875c-4.195312-29.070313-30.140625-49.957031-59.4375-47.855469-29.296875 2.105469-51.988281 26.484375-51.988281 55.855469 0 29.375 22.691406 53.753906 51.988281 55.859375 29.296875 2.101562 55.242188-18.789063 59.4375-47.859375h33.046875c2.648438 31.3125 20.449219 59.347656 47.664063 75.058593l-19.269531 40.984376c-27.363282-11.03125-58.601563.953124-71.5625 27.453124-12.960938 26.503907-3.242188 58.519532 22.265624 73.34375 25.507813 14.824219 58.132813 7.421876 74.746094-16.957031 16.613282-24.378906 11.566406-57.453125-11.5625-75.769531l19.878906-42.238281c21.550782 8.167969 45.347657 8.167969 66.898438 0l19.878906 42.238281c-22.96875 18.246094-27.941406 51.136719-11.390625 75.355469 16.546875 24.21875 48.996094 31.539062 74.339844 16.773437 25.347656-14.765625 34.980469-46.601562 22.074219-72.941406-12.90625-26.34375-43.96875-38.238281-71.167969-27.257812l-19.289063-40.984376c27.222657-15.707031 45.03125-43.742187 47.679688-75.058593h33.050781c4.269531 29.589843 31.03125 50.609375 60.789063 47.742187 29.757812-2.863281 52.019531-28.597656 50.570312-58.460937-1.453125-29.859375-26.105468-53.316407-56-53.28125zm-136-120c0-22.089844 17.90625-40 40-40 22.089844 0 40 17.910156 40 40 0 22.09375-17.910156 40-40 40-22.082031-.023438-39.972656-17.917969-40-40zm-136 40c-22.09375 0-40-17.90625-40-40 0-22.089844 17.90625-40 40-40 22.089844 0 40 17.910156 40 40-.027344 22.082031-17.921875 39.976562-40 40zm-96 176c-22.09375 0-40-17.90625-40-40 0-22.089844 17.90625-40 40-40 22.089844 0 40 17.910156 40 40-.027344 22.082031-17.921875 39.976562-40 40zm136 136c0 22.09375-17.910156 40-40 40-22.09375 0-40-17.90625-40-40 0-22.089844 17.90625-40 40-40 22.078125.027343 39.972656 17.921875 40 40zm136-40c22.089844 0 40 17.910156 40 40 0 22.09375-17.910156 40-40 40-22.09375 0-40-17.90625-40-40 .027344-22.078125 17.917969-39.972657 40-40zm-88-56c-44.183594 0-80-35.816407-80-80 0-44.179688 35.816406-80 80-80s80 35.820312 80 80c-.050781 44.164062-35.839844 79.953125-80 80zm184-40c-22.09375 0-40-17.90625-40-40 0-22.089844 17.90625-40 40-40 22.089844 0 40 17.910156 40 40-.027344 22.082031-17.921875 39.976562-40 40zm0 0"/></svg>