<svg height="480pt" viewBox="0 0 480 480.2959" width="480pt" xmlns="http://www.w3.org/2000/svg"><path d="m144.160156 480.296875c35.472656-.015625 69.679688-13.191406 96-36.976563 44.25 39.773438 108.421875 48.195313 161.441406 21.191407 53.019532-27.003907 83.941407-83.859375 77.792969-143.039063-6.148437-59.183594-48.09375-108.46875-105.53125-124 24.039063-60.109375 5.011719-128.871094-46.511719-168.074218-51.519531-39.199219-122.867187-39.199219-174.386718 0-51.519532 39.203124-70.550782 107.964843-46.507813 168.074218-69.664062 18.855469-114.582031 86.394532-105.046875 157.929688s70.582032 124.941406 142.75 124.894531zm64-144c-.019531-17.128906 3.417969-34.082031 10.109375-49.847656 14.488281 2.460937 29.289063 2.460937 43.777344 0 19.171875 45.21875 10.65625 97.433593-21.886719 134.222656-20.609375-23.273437-31.992187-53.285156-32-84.375zm46.175782-64.800781c-9.417969 1.109375-18.933594 1.109375-28.351563 0 4.097656-6.957032 8.84375-13.511719 14.175781-19.578125 5.328125 6.066406 10.074219 12.621093 14.175782 19.578125zm-2.878907-30.871094c26.925781-24.179688 62.925781-35.660156 98.878907-31.527344-17.4375 29.550782-45.984376 50.882813-79.265626 59.238282-5.421874-9.988282-12.007812-19.300782-19.613281-27.742188zm-42.210937 27.773438c-33.289063-8.367188-61.839844-29.726563-79.261719-59.300782 35.941406-4.148437 71.941406 7.304688 98.878906 31.460938-7.613281 8.464844-14.195312 17.800781-19.617187 27.808594zm254.914062 67.898437c.085938 50.363281-29.421875 96.082031-75.351562 116.75-45.933594 20.667969-99.71875 12.425781-137.351563-21.046875 36.480469-40.527344 46.722657-98.28125 26.398438-148.878906 38.191406-10.417969 70.4375-36.046875 89.207031-70.898438 56.972656 14.222656 96.984375 65.351563 97.097656 124.074219zm-224-320c42.914063 0 82.972656 21.507813 106.683594 57.277344 23.707031 35.769531 27.917969 81.042969 11.203125 120.570312-42.601563-6.976562-86.050781 5.972657-117.886719 35.128907-31.835937-29.15625-75.285156-42.105469-117.890625-35.128907-16.710937-39.527343-12.503906-84.800781 11.207031-120.570312 23.710938-35.769531 63.769532-57.277344 106.683594-57.277344zm-126.914062 195.925781c18.773437 34.851563 51.019531 60.480469 89.210937 70.898438-20.328125 50.597656-10.085937 108.351562 26.398438 148.878906-39.738281 35.234375-97.121094 42.238281-144.164063 17.589844-47.046875-24.644532-73.957031-75.804688-67.613281-128.535156 6.34375-52.730469 44.621094-96.046876 96.167969-108.832032zm0 0"/></svg>