<svg height="479pt" viewBox="0 0 479 479.99999" width="479pt" xmlns="http://www.w3.org/2000/svg"><path d="m456.371094 80c13.253906 0 24-10.746094 24-24s-10.746094-24-24-24-24 10.746094-24 24c0 .625.136718 1.214844.183594 1.824219l-102.816407 45.703125c-7.757812-8.359375-20.34375-10.0625-30.042969-4.066406-9.703124 5.996093-13.808593 18.011718-9.804687 28.691406l-88.503906 72.886718c-7.046875-5.804687-15.882813-9-25.015625-9.039062-.582032 0-1.136719.144531-1.710938.175781l-17.046875-68.175781c10.285157-7.546875 12.867188-21.828125 5.875-32.5-6.992187-10.671875-21.109375-14.011719-32.140625-7.597656l-68.253906-52.527344c.8125-2.375 1.246094-4.863281 1.277344-7.375 0-13.253906-10.746094-24-24-24s-24 10.746094-24 24 10.746094 24 24 24c4.628906-.003906 9.15625-1.359375 13.023437-3.894531l68.257813 52.519531c-2.371094 6.886719-1.421875 14.484375 2.574218 20.578125 3.992188 6.089844 10.578126 9.992187 17.839844 10.566406l17.082032 68.285157c-11.285157 5.375-19.414063 15.710937-21.976563 27.945312h-74.273437c-3.894532-11.019531-15.164063-17.632812-26.683594-15.65625-11.519532 1.976562-19.941406 11.96875-19.941406 23.65625s8.421874 21.679688 19.941406 23.65625c11.519531 1.976562 22.789062-4.636719 26.683594-15.65625h74.273437c1.480469 7.023438 4.832031 13.519531 9.703125 18.792969l-115.679688 158.3125c-9.894531-2.914063-20.542968.839843-26.421874 9.3125-5.882813 8.472656-5.675782 19.761719.515624 28.011719 6.1875 8.25 16.96875 11.609374 26.75 8.332031 9.777344-3.273438 16.359376-12.449219 16.332032-22.761719 0-4.832031-1.460938-9.546875-4.199219-13.527344l115.59375-158.191406c5.199219 2.429688 10.867187 3.695312 16.605469 3.71875.296875 0 .570312-.078125.863281-.089844l26.335937 115.867188c-9.929687 6.210937-13.941406 18.675781-9.492187 29.515625 4.445313 10.835937 16.054687 16.894531 27.484375 14.339843 11.433594-2.550781 19.367188-12.96875 18.78125-24.671874-.585938-11.699219-9.515625-21.273438-21.148438-22.671876l-26.351562-115.9375c6.875-3.113281 12.730469-8.105468 16.894531-14.398437l102.730469 41.09375c0 .320313-.097656.625-.097656.945313 0 13.253906 10.746094 24 24 24 2.417968-.03125 4.8125-.4375 7.105468-1.199219l92.933594 123.917969c-6.09375 9.167968-5.171875 21.300781 2.238282 29.441406 7.40625 8.140625 19.402343 10.199218 29.097656 4.996094 9.699218-5.207032 14.613281-16.339844 11.925781-27.011719-2.691406-10.671875-12.292969-18.148438-23.300781-18.136719-2.417969.03125-4.816406.4375-7.109375 1.199219l-92.890625-123.910157c7.078125-10.488281 4.773437-24.667968-5.265625-32.371093-10.035157-7.703125-24.332031-6.261719-32.628907 3.289062l-102.824218-41.109375c.222656-1.433594.371094-2.875.441406-4.320312l179.023438-23.875c5.375 10.289062 17.375 15.214844 28.429687 11.671875 11.054687-3.546875 17.949219-14.535157 16.335937-26.03125-1.613281-11.496094-11.265624-20.164063-22.871093-20.53125-11.601563-.367188-21.785157 7.671875-24.121094 19.042969l-178.917969 23.855468c-.660156-1.898437-1.460937-3.746094-2.402344-5.527344l88.511719-72.886718c3.699219 2.269531 7.949219 3.480468 12.289063 3.503906 13.253906 0 24-10.746094 24-24 0-.625-.136719-1.214844-.183594-1.824219l102.816406-45.703125c4.503906 4.796875 10.789063 7.519532 17.367188 7.527344zm0-32c4.417968 0 8 3.582031 8 8s-3.582032 8-8 8c-4.417969 0-8-3.582031-8-8s3.582031-8 8-8zm-416-16c-4.417969 0-8-3.582031-8-8s3.582031-8 8-8c4.417968 0 8 3.582031 8 8s-3.582032 8-8 8zm104 80c-4.417969 0-8-3.582031-8-8s3.582031-8 8-8c4.417968 0 8 3.582031 8 8s-3.582032 8-8 8zm-104 128c-4.417969 0-8-3.582031-8-8s3.582031-8 8-8c4.417968 0 8 3.582031 8 8s-3.582032 8-8 8zm-16 208c-4.417969 0-8-3.582031-8-8s3.582031-8 8-8c4.417968 0 8 3.582031 8 8s-3.582032 8-8 8zm192-48c4.417968 0 8 3.582031 8 8s-3.582032 8-8 8c-4.417969 0-8-3.582031-8-8s3.582031-8 8-8zm-40-144c-13.253906 0-24-10.746094-24-24s10.746094-24 24-24 24 10.746094 24 24-10.746094 24-24 24zm280 192c4.417968 0 8 3.582031 8 8s-3.582032 8-8 8c-4.417969 0-8-3.582031-8-8s3.582031-8 8-8zm-120-160c4.417968 0 8 3.582031 8 8s-3.582032 8-8 8c-4.417969 0-8-3.582031-8-8s3.582031-8 8-8zm80-96c4.417968 0 8 3.582031 8 8s-3.582032 8-8 8c-4.417969 0-8-3.582031-8-8s3.582031-8 8-8zm-104-64c-4.417969 0-8-3.582031-8-8s3.582031-8 8-8c4.417968 0 8 3.582031 8 8s-3.582032 8-8 8zm0 0"/></svg>