<svg height="480.16pt" viewBox="0 0 480.16 480.16" width="480.16pt" xmlns="http://www.w3.org/2000/svg"><path d="m240.15625 0c-108.671875-.0351562-203.816406 72.933594-231.964844 177.898438-28.144531 104.964843 17.726563 215.746093 111.835938 270.089843s212.988281 38.691407 289.824218-38.15625c76.839844-76.847656 92.476563-195.730469 38.121094-289.832031-43-74.113281-122.132812-119.808594-207.816406-120zm-224 240c.046875-120.578125 95.5-219.503906 216-223.855469v219.199219l-189.847656 109.640625c-17.167969-32.332031-26.148438-68.378906-26.152344-104.984375zm224 224c-77.125-.167969-148.777344-39.863281-189.824219-105.160156l189.824219-109.601563 189.824219 109.601563c-41.046875 65.296875-112.699219 104.992187-189.824219 105.160156zm197.847656-119.015625-189.847656-109.609375v-219.230469c77.128906 2.742188 147.410156 45.003907 185.996094 111.839844 38.585937 66.839844 40.042968 148.835937 3.851562 217zm0 0"/></svg>