<svg height="480pt" viewBox="0 0 480 480" width="480pt" xmlns="http://www.w3.org/2000/svg"><path d="m240 0c-132.546875 0-240 107.453125-240 240s107.453125 240 240 240 240-107.453125 240-240c-.148438-132.484375-107.515625-239.851562-240-240zm160 240c0 88.367188-71.632812 160-160 160s-160-71.632812-160-160 71.632812-160 160-160c88.324219.101562 159.898438 71.675781 160 160zm-160 224c-121.617188-.742188-220.425781-98.394531-222.597656-219.996094-2.175782-121.601562 93.082031-222.71875 214.597656-227.804687v48c-95.03125 4.316406-169.4375 83.363281-168 178.480469 1.441406 95.121093 78.199219 171.878906 173.320312 173.320312 95.117188 1.4375 174.164063-72.96875 178.480469-168h48c-4.429687 120.445312-103.273437 215.84375-223.800781 216zm175.800781-232c-4.242187-90.859375-76.941406-163.558594-167.800781-167.800781v-48c117.34375 4.328125 211.472656 98.457031 215.800781 215.800781zm0 0"/><path d="m240 368c70.691406 0 128-57.308594 128-128s-57.308594-128-128-128-128 57.308594-128 128c.082031 70.65625 57.34375 127.917969 128 128zm0-240c61.855469 0 112 50.144531 112 112s-50.144531 112-112 112-112-50.144531-112-112c.066406-61.828125 50.171875-111.933594 112-112zm0 0"/></svg>