<svg height="480pt" viewBox="0 0 480 480" width="480pt" xmlns="http://www.w3.org/2000/svg"><path d="m128 216c0 4.417969 3.582031 8 8 8h208c4.417969 0 8-3.582031 8-8v-64c0-4.417969-3.582031-8-8-8h-208c-4.417969 0-8 3.582031-8 8zm16-56h192v48h-192zm0 0"/><path d="m136 112h176c4.417969 0 8-3.582031 8-8v-64c0-4.417969-3.582031-8-8-8h-176c-4.417969 0-8 3.582031-8 8v64c0 4.417969 3.582031 8 8 8zm8-64h160v48h-160zm0 0"/><path d="m128 328c0 4.417969 3.582031 8 8 8h256c4.417969 0 8-3.582031 8-8v-64c0-4.417969-3.582031-8-8-8h-256c-4.417969 0-8 3.582031-8 8zm16-56h240v48h-240zm0 0"/><path d="m472 368h-336c-4.417969 0-8 3.582031-8 8v64c0 4.417969 3.582031 8 8 8h336c4.417969 0 8-3.582031 8-8v-64c0-4.417969-3.582031-8-8-8zm-8 64h-320v-48h320zm0 0"/><path d="m104 0c-4.417969 0-8 3.582031-8 8v464c0 4.417969 3.582031 8 8 8s8-3.582031 8-8v-464c0-4.417969-3.582031-8-8-8zm0 0"/><path d="m40 368c-22.089844 0-40 17.910156-40 40s17.910156 40 40 40 40-17.910156 40-40c-.027344-22.082031-17.917969-39.972656-40-40zm0 64c-13.253906 0-24-10.746094-24-24s10.746094-24 24-24 24 10.746094 24 24-10.746094 24-24 24zm0 0"/><path d="m40 256c-22.089844 0-40 17.910156-40 40s17.910156 40 40 40 40-17.910156 40-40c-.027344-22.082031-17.917969-39.972656-40-40zm0 64c-13.253906 0-24-10.746094-24-24s10.746094-24 24-24 24 10.746094 24 24-10.746094 24-24 24zm0 0"/><path d="m40 144c-22.089844 0-40 17.910156-40 40s17.910156 40 40 40 40-17.910156 40-40c-.027344-22.082031-17.917969-39.972656-40-40zm0 64c-13.253906 0-24-10.746094-24-24s10.746094-24 24-24 24 10.746094 24 24-10.746094 24-24 24zm0 0"/><path d="m40 32c-22.089844 0-40 17.910156-40 40s17.910156 40 40 40 40-17.910156 40-40c-.027344-22.082031-17.917969-39.972656-40-40zm0 64c-13.253906 0-24-10.746094-24-24s10.746094-24 24-24 24 10.746094 24 24-10.746094 24-24 24zm0 0"/></svg>