<svg height="480pt" viewBox="0 -8 480 480" width="480pt" xmlns="http://www.w3.org/2000/svg"><path d="m472 0h-192c-4.417969 0-8 3.582031-8 8v48.71875c-23.066406 3.921875-39.957031 23.882812-40 47.28125v120h-24v-56c0-4.417969-3.582031-8-8-8h-192c-4.417969 0-8 3.582031-8 8v128c0 4.417969 3.582031 8 8 8h192c4.417969 0 8-3.582031 8-8v-56h24v128c.042969 23.398438 16.933594 43.359375 40 47.28125v40.71875c0 4.417969 3.582031 8 8 8h192c4.417969 0 8-3.582031 8-8v-128c0-4.417969-3.582031-8-8-8h-192c-4.417969 0-8 3.582031-8 8v70.863281c-14.085938-3.636719-23.945312-16.316406-24-30.863281v-128h24v56c0 4.417969 3.582031 8 8 8h192c4.417969 0 8-3.582031 8-8v-128c0-4.417969-3.582031-8-8-8h-192c-4.417969 0-8 3.582031-8 8v56h-24v-120c.054688-14.546875 9.914062-27.226562 24-30.863281v62.863281c0 4.417969 3.582031 8 8 8h192c4.417969 0 8-3.582031 8-8v-128c0-4.417969-3.582031-8-8-8zm-280 288h-176v-112h176zm96 48h176v112h-176zm0-160h176v112h-176zm176-48h-176v-112h176zm0 0"/></svg>