<svg height="480pt" viewBox="0 0 480 480.0004" width="480pt" xmlns="http://www.w3.org/2000/svg"><path d="m152 448h304c2.464844 0 4.789062-1.136719 6.308594-3.078125 1.515625-1.941406 2.050781-4.476563 1.453125-6.867187l-80-320c-.894531-3.558594-4.09375-6.054688-7.761719-6.054688s-6.867188 2.496094-7.761719 6.054688l-33.109375 132.433593-63.382812-244.496093c-.917969-3.527344-4.101563-5.992188-7.746094-5.992188s-6.828125 2.464844-7.742188 5.992188l-64.402343 248.410156-48.109375-184.417969c-.917969-3.527344-4.101563-5.992187-7.746094-5.992187s-6.828125 2.464843-7.742188 5.992187l-96 368c-.625 2.398437-.105468 4.949219 1.410157 6.910156 1.515625 1.960938 3.855469 3.105469 6.332031 3.105469zm191.519531-165.078125 32.480469-129.9375 69.753906 279.015625h-139.503906zm-79.519531-243.050781 63.015625 243.066406-37.261719 149.0625h-127.417968zm-128 63.816406 47.609375 182.519531-37.800781 145.792969h-95.457032zm0 0"/><path d="m472 464h-456v-456c0-4.417969-3.582031-8-8-8s-8 3.582031-8 8v464c0 4.417969 3.582031 8 8 8h464c4.417969 0 8-3.582031 8-8s-3.582031-8-8-8zm0 0"/></svg>