<?xml version="1.0" encoding="iso-8859-1"?>
<!-- Generator: Adobe Illustrator 19.0.0, SVG Export Plug-In . SVG Version: 6.00 Build 0)  -->
<svg version="1.1" id="Layer_1" xmlns="http://www.w3.org/2000/svg" xmlns:xlink="http://www.w3.org/1999/xlink" x="0px" y="0px"
	 viewBox="0 0 498.4 498.4" style="enable-background:new 0 0 498.4 498.4;" xml:space="preserve">
<path style="fill:#A35D17;" d="M98.4,432c-11.2,11.2-28.8,11.2-39.2,0l0,0c-11.2-11.2-11.2-28.8,0-39.2l200-200
	c11.2-11.2,28.8-11.2,39.2,0l0,0c11.2,11.2,11.2,28.8,0,39.2L98.4,432z"/>
<path style="fill:#6B400C;" d="M298.4,192.8L298.4,192.8c11.2,11.2,11.2,28.8,0,39.2l-200,200c-11.2,11.2-28.8,11.2-39.2,0l0,0"/>
<path style="fill:#F4AD31;" d="M92.8,481.6c-12.8,12.8-32.8,12.8-45.6,0L9.6,444c-12.8-12.8-12.8-32.8,0-45.6l0,0
	c12.8-12.8,32.8-12.8,45.6,0L92.8,436C105.6,448.8,105.6,468.8,92.8,481.6L92.8,481.6z"/>
<path style="fill:#DD820A;" d="M55.2,398.4L92.8,436c12.8,12.8,12.8,32.8,0,45.6l0,0c-12.8,12.8-32.8,12.8-45.6,0"/>
<path style="fill:#F4AD31;" d="M427.2,267.2c-33.6,33.6-69.6,15.2-103.2-18.4l-82.4-82.4c-33.6-33.6-51.2-69.6-18.4-103.2l14.4-14.4
	c33.6-33.6,69.6-15.2,103.2,18.4l82.4,82.4c33.6,33.6,51.2,69.6,18.4,103.2L427.2,267.2z"/>
<g>
	<path style="fill:#DD820A;" d="M340.8,68l82.4,82.4c33.6,33.6,51.2,69.6,18.4,103.2L427.2,268c-33.6,33.6-69.6,15.2-103.2-18.4"/>
</g>
<path style="fill:#F4AD31;" d="M205.6,121.6c-6.4,6.4-16.8,6.4-23.2,0l0,0c-6.4-6.4-6.4-16.8,0-23.2L272,8c6.4-6.4,16.8-6.4,23.2,0
	l0,0c6.4,6.4,6.4,16.8,0,23.2L205.6,121.6z"/>
<path style="fill:#DD820A;" d="M295.2,8L295.2,8c6.4,6.4,6.4,16.8,0,23.2l-89.6,90.4c-6.4,6.4-16.8,6.4-23.2,0l0,0"/>
<path style="fill:#F4AD31;" d="M392.8,308.8c-6.4,6.4-16.8,6.4-23.2,0l0,0c-6.4-6.4-6.4-16.8,0-23.2l89.6-89.6
	c6.4-6.4,16.8-6.4,23.2,0l0,0c6.4,6.4,6.4,16.8,0,23.2L392.8,308.8z"/>
<g>
	<path style="fill:#DD820A;" d="M483.2,196L483.2,196c6.4,6.4,6.4,16.8,0,23.2l-90.4,89.6c-6.4,6.4-16.8,6.4-23.2,0l0,0"/>
	<path style="fill:#DD820A;" d="M309.6,253.6c-5.6,5.6-15.2,5.6-20.8,0l-50.4-50.4c-5.6-5.6-5.6-15.2,0-20.8l0,0
		c5.6-5.6,15.2-5.6,20.8,0l50.4,50.4C315.2,238.4,315.2,248,309.6,253.6L309.6,253.6z"/>
</g>
<rect x="321.6" y="407.2" style="fill:#D32A0F;" width="168" height="72"/>
<g>
	<polyline style="fill:#AF1909;" points="321.6,407.2 489.6,407.2 489.6,479.2 	"/>
	<path style="fill:#AF1909;" d="M497.6,488.8c0,3.2-2.4,6.4-6.4,6.4H320c-3.2,0-6.4-2.4-6.4-6.4v-4c0-3.2,2.4-6.4,6.4-6.4h172
		c3.2,0,6.4,2.4,6.4,6.4v4H497.6z"/>
	<path style="fill:#AF1909;" d="M497.6,400.8c0,3.2-2.4,6.4-6.4,6.4H320c-3.2,0-6.4-2.4-6.4-6.4v-4c0-3.2,2.4-6.4,6.4-6.4h172
		c3.2,0,6.4,2.4,6.4,6.4v4H497.6z"/>
</g>
<g>
</g>
<g>
</g>
<g>
</g>
<g>
</g>
<g>
</g>
<g>
</g>
<g>
</g>
<g>
</g>
<g>
</g>
<g>
</g>
<g>
</g>
<g>
</g>
<g>
</g>
<g>
</g>
<g>
</g>
</svg>
