<?xml version="1.0" encoding="iso-8859-1"?>
<!-- Generator: Adobe Illustrator 19.0.0, SVG Export Plug-In . SVG Version: 6.00 Build 0)  -->
<svg version="1.1" id="Layer_1" xmlns="http://www.w3.org/2000/svg" xmlns:xlink="http://www.w3.org/1999/xlink" x="0px" y="0px"
	 viewBox="0 0 512.001 512.001" style="enable-background:new 0 0 512.001 512.001;" xml:space="preserve">
<path style="fill:#E0E0E2;" d="M188.122,412.477v-311.41c25.912-1.73,46.462-23.363,46.462-49.705
	c0-27.47-22.348-49.818-49.817-49.818c-14.598,0-28.169,6.32-37.506,17.021c-9.337-10.702-22.908-17.021-37.507-17.021
	c-27.469,0-49.817,22.348-49.817,49.818c0,26.342,20.55,47.976,46.462,49.705v311.41c-25.912,1.73-46.462,23.363-46.462,49.706
	c0,27.469,22.348,49.817,49.817,49.817c14.599,0,28.169-6.32,37.506-17.021C156.598,505.68,170.168,512,184.766,512
	c27.469,0,49.817-22.348,49.817-49.817C234.584,435.84,214.034,414.208,188.122,412.477z"/>
<path style="fill:#C6C5CA;" d="M188.122,412.477v-311.41c25.912-1.73,46.462-23.363,46.462-49.705
	c0-27.47-22.348-49.818-49.817-49.818c-6.569,0-12.924,1.289-18.785,3.672c18.205,7.422,31.075,25.304,31.075,46.145
	c0,26.342-20.55,47.976-46.462,49.705v311.41c25.912,1.73,46.462,23.363,46.462,49.706c0,20.841-12.87,38.724-31.075,46.145
	c5.86,2.382,12.216,3.672,18.785,3.672c27.469,0,49.817-22.348,49.817-49.817C234.584,435.84,214.034,414.208,188.122,412.477z"/>
<path style="fill:#FFCA10;" d="M444.59,0H315.172c-4.127,0-7.473,3.346-7.473,7.473v496.192c0,4.127,3.346,7.473,7.473,7.473
	h129.419c4.127,0,7.473-3.346,7.473-7.473V7.473C452.062,3.346,448.717,0,444.59,0z"/>
<path style="fill:#FFA304;" d="M444.59,0h-28.894v511.137h28.894c4.127,0,7.473-3.346,7.473-7.473V7.473
	C452.062,3.346,448.717,0,444.59,0z"/>
<path style="fill:#848484;" d="M159.793,200.516c-3.081-2.745-7.804-2.473-10.55,0.609l-16.61,18.645
	c-1.22,1.369-1.893,3.137-1.893,4.971v27.994L106.4,301.57v33.503l38.5-77.246c0.516-1.035,0.785-2.177,0.785-3.334v-26.908
	l14.717-16.52C163.148,207.985,162.875,203.261,159.793,200.516z"/>
<g>
	<path style="fill:#E28805;" d="M355.316,457.445h-47.617v14.945h47.617c4.127,0,7.473-3.346,7.473-7.473
		C362.789,460.789,359.443,457.445,355.316,457.445z"/>
	<path style="fill:#E28805;" d="M355.316,427.577h-47.617v14.945h47.617c4.127,0,7.473-3.346,7.473-7.473
		C362.789,430.923,359.443,427.577,355.316,427.577z"/>
	<path style="fill:#E28805;" d="M355.316,397.711h-47.617v14.945h47.617c4.127,0,7.473-3.346,7.473-7.473
		C362.789,401.057,359.443,397.711,355.316,397.711z"/>
	<path style="fill:#E28805;" d="M374.183,367.845h-66.483v14.945h66.483c4.127,0,7.473-3.346,7.473-7.473
		C381.655,371.191,378.31,367.845,374.183,367.845z"/>
	<path style="fill:#E28805;" d="M362.789,345.452c0-4.127-3.346-7.473-7.473-7.473h-47.617v14.945h47.617
		C359.443,352.924,362.789,349.578,362.789,345.452z"/>
	<path style="fill:#E28805;" d="M362.789,315.585c0-4.127-3.346-7.473-7.473-7.473h-47.617v14.945h47.617
		C359.443,323.058,362.789,319.712,362.789,315.585z"/>
	<path style="fill:#E28805;" d="M362.789,285.719c0-4.127-3.346-7.473-7.473-7.473h-47.617v14.945h47.617
		C359.443,293.192,362.789,289.846,362.789,285.719z"/>
	<path style="fill:#E28805;" d="M374.183,248.38h-66.483v14.945h66.483c4.127,0,7.473-3.346,7.473-7.473
		C381.655,251.725,378.31,248.38,374.183,248.38z"/>
	<path style="fill:#E28805;" d="M362.789,225.986c0-4.127-3.346-7.473-7.473-7.473h-47.617v14.945h47.617
		C359.443,233.458,362.789,230.113,362.789,225.986z"/>
	<path style="fill:#E28805;" d="M362.789,196.12c0-4.127-3.346-7.473-7.473-7.473h-47.617v14.945h47.617
		C359.443,203.592,362.789,200.247,362.789,196.12z"/>
	<path style="fill:#E28805;" d="M362.789,166.254c0-4.127-3.346-7.473-7.473-7.473h-47.617v14.945h47.617
		C359.443,173.726,362.789,170.38,362.789,166.254z"/>
	<path style="fill:#E28805;" d="M381.655,136.386c0-4.127-3.346-7.473-7.473-7.473h-66.483v14.945h66.483
		C378.31,143.859,381.655,140.513,381.655,136.386z"/>
	<path style="fill:#E28805;" d="M362.789,106.52c0-4.127-3.346-7.473-7.473-7.473h-47.617v14.945h47.617
		C359.443,113.993,362.789,110.647,362.789,106.52z"/>
	<path style="fill:#E28805;" d="M362.789,76.654c0-4.127-3.346-7.473-7.473-7.473h-47.617v14.945h47.617
		C359.443,84.127,362.789,80.781,362.789,76.654z"/>
	<path style="fill:#E28805;" d="M362.789,46.788c0-4.127-3.346-7.473-7.473-7.473h-47.617V54.26h47.617
		C359.443,54.26,362.789,50.915,362.789,46.788z"/>
</g>
<g>
</g>
<g>
</g>
<g>
</g>
<g>
</g>
<g>
</g>
<g>
</g>
<g>
</g>
<g>
</g>
<g>
</g>
<g>
</g>
<g>
</g>
<g>
</g>
<g>
</g>
<g>
</g>
<g>
</g>
</svg>
