<svg height="511pt" viewBox="-69 1 511 511.99998" width="511pt" xmlns="http://www.w3.org/2000/svg"><path d="m149.949219 457.339844v29.734375c0 13.765625 11.15625 24.925781 24.921875 24.925781h24.878906c13.761719 0 24.921875-11.160156 24.921875-24.925781v-29.734375zm0 0" fill="#d4d2d3"/><path d="m260.710938 430.703125-71.933594-22.3125-74.867188 22.3125c-12.324218 0-22.316406 9.988281-22.316406 22.3125s9.992188 22.316406 22.316406 22.316406h146.800782c12.324218 0 22.316406-9.992187 22.316406-22.316406s-9.992188-22.3125-22.316406-22.3125zm0 0" fill="#bab8b9"/><path d="m122.5 453.015625c0-12.324219 9.992188-22.3125 22.316406-22.3125l59.105469-17.617187-15.144531-4.699219-74.867188 22.316406c-12.324218 0-22.316406 9.988281-22.316406 22.3125s9.992188 22.3125 22.316406 22.3125h30.902344c-12.320312 0-22.3125-9.988281-22.3125-22.3125zm0 0" fill="#a6a4a5"/><path d="m187.3125 0c-103.175781 0-186.8125 83.636719-186.8125 186.808594 0 43.515625 18.589844 80.105468 40.402344 115.699218 19.847656 32.382813 42.359375 48.371094 55.972656 83.566407l91.898438 22.316406 88.972656-22.316406c13.613281-35.195313 36.125-51.183594 55.972656-83.566407 21.8125-35.59375 40.402344-72.183593 40.402344-115.699218 0-103.171875-83.636719-186.808594-186.808594-186.808594zm0 0" fill="#ffcd38"/><path d="m127.78125 386.074219c-13.613281-35.195313-36.125-51.183594-55.972656-83.566407-21.8125-35.59375-40.402344-72.183593-40.402344-115.699218 0-97.96875 75.417969-178.3125 171.359375-186.167969-5.097656-.417969-10.25-.640625-15.453125-.640625-103.175781 0-186.8125 83.636719-186.8125 186.808594 0 43.515625 18.589844 80.105468 40.402344 115.699218 19.847656 32.382813 42.359375 48.371094 55.972656 83.566407l91.898438 22.316406 15.203124-3.8125zm0 0" fill="#e7b835"/><path d="m277.746094 386.074219h-177.941406c-12.320313 0-22.3125 9.992187-22.3125 22.316406 0 12.320313 9.988281 22.3125 22.3125 22.3125h177.941406c12.324218 0 22.3125-9.988281 22.3125-22.3125s-9.988282-22.316406-22.3125-22.316406zm0 0" fill="#d4d2d3"/><path d="m108.398438 408.390625c0-12.324219 9.992187-22.316406 22.3125-22.316406h-30.902344c-12.324219 0-22.316406 9.992187-22.316406 22.316406 0 12.320313 9.992187 22.3125 22.316406 22.3125h30.902344c-12.320313 0-22.3125-9.992187-22.3125-22.3125zm0 0" fill="#bab8b9"/><g fill="#3a484a"><path d="m98.058594 213.90625c-4.269532 0-7.726563-3.457031-7.726563-7.726562v-16.152344c0-4.265625 3.457031-7.726563 7.726563-7.726563 4.265625 0 7.726562 3.460938 7.726562 7.726563v16.152344c0 4.269531-3.460937 7.726562-7.726562 7.726562zm0 0"/><path d="m276.566406 213.90625c-4.269531 0-7.726562-3.457031-7.726562-7.726562v-16.152344c0-4.265625 3.457031-7.726563 7.726562-7.726563 4.265625 0 7.726563 3.460938 7.726563 7.726563v16.152344c0 4.269531-3.460938 7.726562-7.726563 7.726562zm0 0"/><path d="m187.3125 222.53125c-10.816406 0-20.964844-4.515625-27.847656-12.390625-2.808594-3.210937-2.480469-8.089844.730468-10.902344 3.214844-2.804687 8.09375-2.480469 10.902344.734375 3.949219 4.515625 9.855469 7.105469 16.214844 7.105469 6.355469 0 12.261719-2.589844 16.210938-7.105469 2.808593-3.214844 7.6875-3.542968 10.902343-.734375 3.210938 2.8125 3.539063 7.691407.730469 10.902344-6.878906 7.875-17.03125 12.390625-27.84375 12.390625zm0 0"/></g></svg>