<?xml version="1.0" encoding="iso-8859-1"?>
<!-- Generator: Adobe Illustrator 19.0.0, SVG Export Plug-In . SVG Version: 6.00 Build 0)  -->
<svg version="1.1" id="Layer_1" xmlns="http://www.w3.org/2000/svg" xmlns:xlink="http://www.w3.org/1999/xlink" x="0px" y="0px"
	 viewBox="0 0 512 512" style="enable-background:new 0 0 512 512;" xml:space="preserve">
<path style="fill:#3D3D3B;" d="M394.542,512c26.504,0,48.188-21.685,48.188-48.188V48.188C442.73,21.685,421.045,0,394.542,0
	H117.458C90.955,0,69.27,21.685,69.27,48.188v415.623c0,26.504,21.685,48.188,48.188,48.188H394.542z"/>
<g>
	<rect x="129.506" y="398.759" style="fill:#ADA7A4;" width="53.007" height="53.007"/>
	<rect x="229.496" y="398.759" style="fill:#ADA7A4;" width="53.007" height="53.007"/>
</g>
<rect x="329.487" y="298.768" style="fill:#7A7674;" width="53.007" height="152.998"/>
<g>
	<rect x="129.506" y="298.768" style="fill:#ADA7A4;" width="53.007" height="53.007"/>
	<rect x="229.496" y="298.768" style="fill:#ADA7A4;" width="53.007" height="53.007"/>
	<rect x="129.506" y="198.777" style="fill:#ADA7A4;" width="53.007" height="53.007"/>
	<rect x="229.496" y="198.777" style="fill:#ADA7A4;" width="53.007" height="53.007"/>
</g>
<rect x="329.487" y="198.777" style="fill:#EE3840;" width="53.007" height="53.007"/>
<g>
	<polygon style="fill:#95A53B;" points="129.506,60.235 129.506,150.589 168.23,150.589 258.583,105.412 258.583,60.235 	"/>
	<polygon style="fill:#95A53B;" points="382.494,60.235 343.769,60.235 253.416,105.412 253.416,150.589 382.494,150.589 	"/>
</g>
<polygon style="fill:#FFFFFF;" points="258.583,60.235 168.23,150.589 253.416,150.589 343.769,60.235 "/>
<g>
</g>
<g>
</g>
<g>
</g>
<g>
</g>
<g>
</g>
<g>
</g>
<g>
</g>
<g>
</g>
<g>
</g>
<g>
</g>
<g>
</g>
<g>
</g>
<g>
</g>
<g>
</g>
<g>
</g>
</svg>
