<svg height="511pt" viewBox="1 -9 511.99998 511" width="511pt" xmlns="http://www.w3.org/2000/svg"><path d="m52.246094 208.441406c-17.246094-20.765625-27.625-47.445312-27.625-76.550781v-11.5c0-66.214844 53.679687-119.890625 119.890625-119.890625h62.007812c66.210938 0 119.890625 53.675781 119.890625 119.890625v11.5c0 66.210937-53.679687 119.886719-119.890625 119.886719h-206.519531zm0 0" fill="#ffcd38"/><path d="m318.878906 173.78125h-43.855468c-59.621094 0-112.109376 31.136719-142.058594 77.996094h73.554687c51.476563 0 95.367188-32.441406 112.359375-77.996094zm0 0" fill="#e7b835"/><path d="m452.046875 443.296875c19.792969-23.828125 31.699219-54.445313 31.699219-87.84375v-13.195313c0-75.976562-61.59375-137.570312-137.570313-137.570312h-71.152343c-75.980469 0-137.570313 61.59375-137.570313 137.570312v13.195313c0 75.980469 61.589844 137.570313 137.570313 137.570313h236.976562zm0 0" fill="#3ac7b4"/><g fill="#3a484a"><path d="m226.050781 369.890625c-4.269531 0-7.726562-3.460937-7.726562-7.726563v-15.304687c0-4.265625 3.457031-7.722656 7.726562-7.722656 4.265625 0 7.726563 3.457031 7.726563 7.722656v15.304687c0 4.265626-3.460938 7.726563-7.726563 7.726563zm0 0"/><path d="m395.148438 369.890625c-4.265626 0-7.726563-3.460937-7.726563-7.726563v-15.304687c0-4.265625 3.460937-7.722656 7.726563-7.722656 4.269531 0 7.726562 3.457031 7.726562 7.722656v15.304687c0 4.265626-3.457031 7.726563-7.726562 7.726563zm0 0"/><path d="m310.597656 378.058594c-10.363281 0-20.085937-4.328125-26.683594-11.875-2.808593-3.214844-2.480468-8.09375.734376-10.902344 3.210937-2.808594 8.09375-2.480469 10.898437.730469 3.664063 4.191406 9.148437 6.59375 15.050781 6.59375 5.90625 0 11.390625-2.402344 15.054688-6.59375 2.804687-3.210938 7.6875-3.539063 10.898437-.730469 3.214844 2.808594 3.542969 7.6875.734375 10.902344-6.597656 7.546875-16.320312 11.875-26.6875 11.875zm0 0"/><path d="m249.199219 145.460938c-4.269531 0-7.726563-3.457032-7.726563-7.726563v-13.335937c0-4.265626 3.457032-7.726563 7.726563-7.726563 4.265625 0 7.726562 3.460937 7.726562 7.726563v13.335937c0 4.269531-3.460937 7.726563-7.726562 7.726563zm0 0"/><path d="m101.832031 145.460938c-4.265625 0-7.726562-3.457032-7.726562-7.726563v-13.335937c0-4.265626 3.460937-7.726563 7.726562-7.726563 4.269531 0 7.726563 3.460937 7.726563 7.726563v13.335937c0 4.269531-3.457032 7.726563-7.726563 7.726563zm0 0"/><path d="m175.515625 152.582031c-9.316406 0-18.066406-3.898437-24.003906-10.6875-2.808594-3.214843-2.480469-8.09375.734375-10.902343 3.210937-2.808594 8.09375-2.480469 10.902344.730468 3 3.433594 7.507812 5.40625 12.367187 5.40625s9.367187-1.972656 12.371094-5.40625c2.804687-3.210937 7.6875-3.539062 10.898437-.730468 3.214844 2.808593 3.542969 7.6875.734375 10.902343-5.9375 6.789063-14.683593 10.6875-24.003906 10.6875zm0 0"/></g></svg>