<svg height="511pt" viewBox="1 -79 511.99998 511" width="511pt" xmlns="http://www.w3.org/2000/svg"><path d="m89.796875 186.421875c40.585937-30.65625 30.753906-110.179687 30.753906-110.179687s52.757813 50.550781 103.523438 47.421874v62.757813l-113.148438 11.738281zm0 0" fill="#e7b835"/><path d="m422.203125 186.421875c-40.585937-30.65625-30.753906-110.179687-30.753906-110.179687s-52.757813 50.550781-103.523438 47.421874v62.757813l113.148438 11.738281zm0 0" fill="#e7b835"/><path d="m97.574219 314.390625c-14.800781-79.527344-77.261719-148.625-77.261719-148.625l34.742188-18.78125c31.886718 34.929687 76.601562 49.664063 120.792968 16.78125 37.015625-27.550781 61.054688-62.34375 59.496094-107.007813h41.316406c-1.5625 44.664063 22.476563 79.457032 59.492188 107.007813 44.191406 32.882813 88.90625 18.148437 120.792968-16.78125l34.742188 18.78125s-62.460938 69.097656-77.257812 148.625zm0 0" fill="#ffcd38"/><path d="m414.425781 314.390625c-.964843 5.164063-1.726562 10.363281-2.253906 15.605469-1.507813 14.929687-15.292969 25.503906-30.160156 23.390625-22.703125-3.222657-61.445313-6.394531-126.011719-6.394531s-103.308594 3.171874-126.015625 6.394531c-14.863281 2.113281-28.648437-8.460938-30.160156-23.390625-.523438-5.242188-1.285157-10.441406-2.253907-15.605469 34.121094-13.84375 84.59375-25.148437 158.425782-25.148437 73.835937 0 124.308594 11.304687 158.429687 25.148437zm0 0" fill="#e7b835"/><path d="m174.519531 242.691406c-4.269531 0-7.726562-3.457031-7.726562-7.726562v-14.746094c0-4.265625 3.457031-7.726562 7.726562-7.726562 4.265625 0 7.726563 3.460937 7.726563 7.726562v14.746094c0 4.269531-3.460938 7.726562-7.726563 7.726562zm0 0" fill="#3a484a"/><path d="m337.480469 242.691406c-4.265625 0-7.726563-3.457031-7.726563-7.726562v-14.746094c0-4.265625 3.460938-7.726562 7.726563-7.726562 4.269531 0 7.726562 3.460937 7.726562 7.726562v14.746094c0 4.269531-3.457031 7.726562-7.726562 7.726562zm0 0" fill="#3a484a"/><path d="m256 250.5625c-10.066406 0-19.519531-4.203125-25.925781-11.539062-2.8125-3.210938-2.484375-8.089844.730469-10.902344 3.210937-2.808594 8.09375-2.480469 10.902343.734375 3.476563 3.972656 8.683594 6.253906 14.292969 6.253906s10.816406-2.277344 14.292969-6.253906c2.808593-3.214844 7.691406-3.542969 10.902343-.734375 3.214844 2.808594 3.542969 7.691406.730469 10.902344-6.40625 7.335937-15.859375 11.539062-25.925781 11.539062zm0 0" fill="#3a484a"/><path d="m147.546875 76.242188c0 14.910156-12.085937 26.996093-26.996094 26.996093-14.910156 0-26.996093-12.085937-26.996093-26.996093 0-14.910157 12.085937-26.996094 26.996093-26.996094 14.910157 0 26.996094 12.085937 26.996094 26.996094zm0 0" fill="#d9ad32"/><path d="m418.445312 76.242188c0 14.910156-12.085937 26.996093-26.996093 26.996093-14.910157 0-26.996094-12.085937-26.996094-26.996093 0-14.910157 12.085937-26.996094 26.996094-26.996094 14.910156 0 26.996093 12.085937 26.996093 26.996094zm0 0" fill="#d9ad32"/><g fill="#e7b835"><path d="m287.925781 32.425781c0 17.632813-14.292969 31.925781-31.925781 31.925781s-31.925781-14.292968-31.925781-31.925781c0-17.632812 14.292969-31.925781 31.925781-31.925781s31.925781 14.292969 31.925781 31.925781zm0 0"/><path d="m512 144.304688c0 17.632812-14.292969 31.925781-31.925781 31.925781-17.632813 0-31.925781-14.292969-31.925781-31.925781 0-17.632813 14.292968-31.925782 31.925781-31.925782 17.632812 0 31.925781 14.292969 31.925781 31.925782zm0 0"/><path d="m63.851562 144.304688c0 17.632812-14.292968 31.925781-31.925781 31.925781-17.632812 0-31.925781-14.292969-31.925781-31.925781 0-17.632813 14.292969-31.925782 31.925781-31.925782 17.632813 0 31.925781 14.292969 31.925781 31.925782zm0 0"/></g></svg>