<?xml version="1.0" encoding="iso-8859-1"?>
<!-- Generator: Adobe Illustrator 19.0.0, SVG Export Plug-In . SVG Version: 6.00 Build 0)  -->
<svg version="1.1" id="Layer_1" xmlns="http://www.w3.org/2000/svg" xmlns:xlink="http://www.w3.org/1999/xlink" x="0px" y="0px"
	 viewBox="0 0 512 512" style="enable-background:new 0 0 512 512;" xml:space="preserve">
<g transform="translate(1 1)">
	<polygon style="fill:#D0E8F9;" points="24.6,408.6 101.4,331.8 152.6,400.067 212.333,272.067 263.533,340.333 357.4,195.267 
		408.6,263.533 502.467,118.467 502.467,485.4 24.6,485.4 	"/>
	<g>
		<path style="fill:#0096E6;" d="M511,493.933H16.067v-88.747L102.253,319l48.64,64.853l59.733-128l52.053,69.973l93.867-145.067
			l51.2,68.267L511,89.453V493.933z M33.133,476.867h460.8V147.48l-84.48,131.413l-51.2-68.267l-93.867,145.067l-50.347-66.56
			l-59.733,128l-53.76-71.68l-67.413,66.56V476.867z"/>
		<path style="fill:#0096E6;" d="M459.8,220.867c0,5.12-3.413,8.533-8.533,8.533s-8.533-3.413-8.533-8.533
			c0-5.12,3.413-8.533,8.533-8.533S459.8,215.747,459.8,220.867"/>
		<path style="fill:#0096E6;" d="M485.4,195.267c0,5.12-3.413,8.533-8.533,8.533c-5.12,0-8.533-3.413-8.533-8.533
			c0-5.12,3.413-8.533,8.533-8.533C481.987,186.733,485.4,190.147,485.4,195.267"/>
		<path style="fill:#0096E6;" d="M485.4,246.467c0,5.12-3.413,8.533-8.533,8.533c-5.12,0-8.533-3.413-8.533-8.533
			c0-5.12,3.413-8.533,8.533-8.533C481.987,237.933,485.4,241.347,485.4,246.467"/>
		<path style="fill:#0096E6;" d="M459.8,272.067c0,5.12-3.413,8.533-8.533,8.533s-8.533-3.413-8.533-8.533s3.413-8.533,8.533-8.533
			S459.8,266.947,459.8,272.067"/>
		<path style="fill:#0096E6;" d="M408.6,272.067c0,5.12-3.413,8.533-8.533,8.533s-8.533-3.413-8.533-8.533s3.413-8.533,8.533-8.533
			S408.6,266.947,408.6,272.067"/>
		<path style="fill:#0096E6;" d="M357.4,272.067c0,5.12-3.413,8.533-8.533,8.533c-5.12,0-8.533-3.413-8.533-8.533
			s3.413-8.533,8.533-8.533C353.987,263.533,357.4,266.947,357.4,272.067"/>
		<path style="fill:#0096E6;" d="M383,246.467c0,5.12-3.413,8.533-8.533,8.533c-5.12,0-8.533-3.413-8.533-8.533
			c0-5.12,3.413-8.533,8.533-8.533C379.587,237.933,383,241.347,383,246.467"/>
		<path style="fill:#0096E6;" d="M229.4,348.867c0,5.12-3.413,8.533-8.533,8.533c-5.12,0-8.533-3.413-8.533-8.533
			c0-5.12,3.413-8.533,8.533-8.533C225.987,340.333,229.4,343.747,229.4,348.867"/>
		<path style="fill:#0096E6;" d="M459.8,323.267c0,5.12-3.413,8.533-8.533,8.533s-8.533-3.413-8.533-8.533
			c0-5.12,3.413-8.533,8.533-8.533S459.8,318.147,459.8,323.267"/>
		<path style="fill:#0096E6;" d="M485.4,297.667c0,5.12-3.413,8.533-8.533,8.533c-5.12,0-8.533-3.413-8.533-8.533
			s3.413-8.533,8.533-8.533C481.987,289.133,485.4,292.547,485.4,297.667"/>
		<path style="fill:#0096E6;" d="M485.4,348.867c0,5.12-3.413,8.533-8.533,8.533c-5.12,0-8.533-3.413-8.533-8.533
			c0-5.12,3.413-8.533,8.533-8.533C481.987,340.333,485.4,343.747,485.4,348.867"/>
		<path style="fill:#0096E6;" d="M408.6,323.267c0,5.12-3.413,8.533-8.533,8.533s-8.533-3.413-8.533-8.533
			c0-5.12,3.413-8.533,8.533-8.533S408.6,318.147,408.6,323.267"/>
		<path style="fill:#0096E6;" d="M434.2,297.667c0,5.12-3.413,8.533-8.533,8.533s-8.533-3.413-8.533-8.533s3.413-8.533,8.533-8.533
			S434.2,292.547,434.2,297.667"/>
		<path style="fill:#0096E6;" d="M434.2,348.867c0,5.12-3.413,8.533-8.533,8.533s-8.533-3.413-8.533-8.533
			c0-5.12,3.413-8.533,8.533-8.533S434.2,343.747,434.2,348.867"/>
		<path style="fill:#0096E6;" d="M280.6,348.867c0,5.12-3.413,8.533-8.533,8.533s-8.533-3.413-8.533-8.533
			c0-5.12,3.413-8.533,8.533-8.533S280.6,343.747,280.6,348.867"/>
		<path style="fill:#0096E6;" d="M306.2,323.267c0,5.12-3.413,8.533-8.533,8.533s-8.533-3.413-8.533-8.533
			c0-5.12,3.413-8.533,8.533-8.533S306.2,318.147,306.2,323.267"/>
		<path style="fill:#0096E6;" d="M357.4,323.267c0,5.12-3.413,8.533-8.533,8.533c-5.12,0-8.533-3.413-8.533-8.533
			c0-5.12,3.413-8.533,8.533-8.533C353.987,314.733,357.4,318.147,357.4,323.267"/>
		<path style="fill:#0096E6;" d="M203.8,374.467c0,5.12-3.413,8.533-8.533,8.533c-5.12,0-8.533-3.413-8.533-8.533
			c0-5.12,3.413-8.533,8.533-8.533C200.387,365.933,203.8,369.347,203.8,374.467"/>
		<path style="fill:#0096E6;" d="M255,374.467c0,5.12-3.413,8.533-8.533,8.533c-5.12,0-8.533-3.413-8.533-8.533
			c0-5.12,3.413-8.533,8.533-8.533C251.587,365.933,255,369.347,255,374.467"/>
		<path style="fill:#0096E6;" d="M101.4,374.467c0,5.12-3.413,8.533-8.533,8.533s-8.533-3.413-8.533-8.533
			c0-5.12,3.413-8.533,8.533-8.533S101.4,369.347,101.4,374.467"/>
		<path style="fill:#0096E6;" d="M459.8,374.467c0,5.12-3.413,8.533-8.533,8.533s-8.533-3.413-8.533-8.533
			c0-5.12,3.413-8.533,8.533-8.533S459.8,369.347,459.8,374.467"/>
		<path style="fill:#0096E6;" d="M408.6,374.467c0,5.12-3.413,8.533-8.533,8.533s-8.533-3.413-8.533-8.533
			c0-5.12,3.413-8.533,8.533-8.533S408.6,369.347,408.6,374.467"/>
		<path style="fill:#0096E6;" d="M306.2,374.467c0,5.12-3.413,8.533-8.533,8.533s-8.533-3.413-8.533-8.533
			c0-5.12,3.413-8.533,8.533-8.533S306.2,369.347,306.2,374.467"/>
		<path style="fill:#0096E6;" d="M357.4,374.467c0,5.12-3.413,8.533-8.533,8.533c-5.12,0-8.533-3.413-8.533-8.533
			c0-5.12,3.413-8.533,8.533-8.533C353.987,365.933,357.4,369.347,357.4,374.467"/>
		<path style="fill:#0096E6;" d="M331.8,297.667c0,5.12-3.413,8.533-8.533,8.533c-5.12,0-8.533-3.413-8.533-8.533
			s3.413-8.533,8.533-8.533C328.387,289.133,331.8,292.547,331.8,297.667"/>
		<path style="fill:#0096E6;" d="M383,297.667c0,5.12-3.413,8.533-8.533,8.533c-5.12,0-8.533-3.413-8.533-8.533
			s3.413-8.533,8.533-8.533C379.587,289.133,383,292.547,383,297.667"/>
		<path style="fill:#0096E6;" d="M331.8,348.867c0,5.12-3.413,8.533-8.533,8.533c-5.12,0-8.533-3.413-8.533-8.533
			c0-5.12,3.413-8.533,8.533-8.533C328.387,340.333,331.8,343.747,331.8,348.867"/>
		<path style="fill:#0096E6;" d="M383,348.867c0,5.12-3.413,8.533-8.533,8.533c-5.12,0-8.533-3.413-8.533-8.533
			c0-5.12,3.413-8.533,8.533-8.533C379.587,340.333,383,343.747,383,348.867"/>
		<path style="fill:#0096E6;" d="M203.8,425.667c0,5.12-3.413,8.533-8.533,8.533c-5.12,0-8.533-3.413-8.533-8.533
			s3.413-8.533,8.533-8.533C200.387,417.133,203.8,420.547,203.8,425.667"/>
		<path style="fill:#0096E6;" d="M229.4,400.067c0,5.12-3.413,8.533-8.533,8.533c-5.12,0-8.533-3.413-8.533-8.533
			s3.413-8.533,8.533-8.533C225.987,391.533,229.4,394.947,229.4,400.067"/>
		<path style="fill:#0096E6;" d="M229.4,451.267c0,5.12-3.413,8.533-8.533,8.533c-5.12,0-8.533-3.413-8.533-8.533
			s3.413-8.533,8.533-8.533C225.987,442.733,229.4,446.147,229.4,451.267"/>
		<path style="fill:#0096E6;" d="M255,425.667c0,5.12-3.413,8.533-8.533,8.533c-5.12,0-8.533-3.413-8.533-8.533
			s3.413-8.533,8.533-8.533C251.587,417.133,255,420.547,255,425.667"/>
		<path style="fill:#0096E6;" d="M152.6,425.667c0,5.12-3.413,8.533-8.533,8.533c-5.12,0-8.533-3.413-8.533-8.533
			s3.413-8.533,8.533-8.533C149.187,417.133,152.6,420.547,152.6,425.667"/>
		<path style="fill:#0096E6;" d="M178.2,400.067c0,5.12-3.413,8.533-8.533,8.533c-5.12,0-8.533-3.413-8.533-8.533
			s3.413-8.533,8.533-8.533C174.787,391.533,178.2,394.947,178.2,400.067"/>
		<path style="fill:#0096E6;" d="M178.2,451.267c0,5.12-3.413,8.533-8.533,8.533c-5.12,0-8.533-3.413-8.533-8.533
			s3.413-8.533,8.533-8.533C174.787,442.733,178.2,446.147,178.2,451.267"/>
		<path style="fill:#0096E6;" d="M50.2,425.667c0,5.12-3.413,8.533-8.533,8.533s-8.533-3.413-8.533-8.533s3.413-8.533,8.533-8.533
			S50.2,420.547,50.2,425.667"/>
		<path style="fill:#0096E6;" d="M101.4,425.667c0,5.12-3.413,8.533-8.533,8.533s-8.533-3.413-8.533-8.533s3.413-8.533,8.533-8.533
			S101.4,420.547,101.4,425.667"/>
		<path style="fill:#0096E6;" d="M75.8,400.067c0,5.12-3.413,8.533-8.533,8.533s-8.533-3.413-8.533-8.533s3.413-8.533,8.533-8.533
			S75.8,394.947,75.8,400.067"/>
		<path style="fill:#0096E6;" d="M127,400.067c0,5.12-3.413,8.533-8.533,8.533s-8.533-3.413-8.533-8.533s3.413-8.533,8.533-8.533
			S127,394.947,127,400.067"/>
		<path style="fill:#0096E6;" d="M75.8,451.267c0,5.12-3.413,8.533-8.533,8.533s-8.533-3.413-8.533-8.533s3.413-8.533,8.533-8.533
			S75.8,446.147,75.8,451.267"/>
		<path style="fill:#0096E6;" d="M127,451.267c0,5.12-3.413,8.533-8.533,8.533s-8.533-3.413-8.533-8.533s3.413-8.533,8.533-8.533
			S127,446.147,127,451.267"/>
		<path style="fill:#0096E6;" d="M459.8,425.667c0,5.12-3.413,8.533-8.533,8.533s-8.533-3.413-8.533-8.533s3.413-8.533,8.533-8.533
			S459.8,420.547,459.8,425.667"/>
		<path style="fill:#0096E6;" d="M485.4,400.067c0,5.12-3.413,8.533-8.533,8.533c-5.12,0-8.533-3.413-8.533-8.533
			s3.413-8.533,8.533-8.533C481.987,391.533,485.4,394.947,485.4,400.067"/>
		<path style="fill:#0096E6;" d="M485.4,451.267c0,5.12-3.413,8.533-8.533,8.533c-5.12,0-8.533-3.413-8.533-8.533
			s3.413-8.533,8.533-8.533C481.987,442.733,485.4,446.147,485.4,451.267"/>
		<path style="fill:#0096E6;" d="M408.6,425.667c0,5.12-3.413,8.533-8.533,8.533s-8.533-3.413-8.533-8.533s3.413-8.533,8.533-8.533
			S408.6,420.547,408.6,425.667"/>
		<path style="fill:#0096E6;" d="M434.2,400.067c0,5.12-3.413,8.533-8.533,8.533s-8.533-3.413-8.533-8.533s3.413-8.533,8.533-8.533
			S434.2,394.947,434.2,400.067"/>
		<path style="fill:#0096E6;" d="M434.2,451.267c0,5.12-3.413,8.533-8.533,8.533s-8.533-3.413-8.533-8.533s3.413-8.533,8.533-8.533
			S434.2,446.147,434.2,451.267"/>
		<path style="fill:#0096E6;" d="M280.6,400.067c0,5.12-3.413,8.533-8.533,8.533s-8.533-3.413-8.533-8.533s3.413-8.533,8.533-8.533
			S280.6,394.947,280.6,400.067"/>
		<path style="fill:#0096E6;" d="M280.6,451.267c0,5.12-3.413,8.533-8.533,8.533s-8.533-3.413-8.533-8.533s3.413-8.533,8.533-8.533
			S280.6,446.147,280.6,451.267"/>
		<path style="fill:#0096E6;" d="M306.2,425.667c0,5.12-3.413,8.533-8.533,8.533s-8.533-3.413-8.533-8.533s3.413-8.533,8.533-8.533
			S306.2,420.547,306.2,425.667"/>
		<path style="fill:#0096E6;" d="M357.4,425.667c0,5.12-3.413,8.533-8.533,8.533c-5.12,0-8.533-3.413-8.533-8.533
			s3.413-8.533,8.533-8.533C353.987,417.133,357.4,420.547,357.4,425.667"/>
		<path style="fill:#0096E6;" d="M203.8,476.867c0,5.12-3.413,8.533-8.533,8.533c-5.12,0-8.533-3.413-8.533-8.533
			c0-5.12,3.413-8.533,8.533-8.533C200.387,468.333,203.8,471.747,203.8,476.867"/>
		<path style="fill:#0096E6;" d="M255,476.867c0,5.12-3.413,8.533-8.533,8.533c-5.12,0-8.533-3.413-8.533-8.533
			c0-5.12,3.413-8.533,8.533-8.533C251.587,468.333,255,471.747,255,476.867"/>
		<path style="fill:#0096E6;" d="M152.6,476.867c0,5.12-3.413,8.533-8.533,8.533c-5.12,0-8.533-3.413-8.533-8.533
			c0-5.12,3.413-8.533,8.533-8.533C149.187,468.333,152.6,471.747,152.6,476.867"/>
		<path style="fill:#0096E6;" d="M50.2,476.867c0,5.12-3.413,8.533-8.533,8.533s-8.533-3.413-8.533-8.533
			c0-5.12,3.413-8.533,8.533-8.533S50.2,471.747,50.2,476.867"/>
		<path style="fill:#0096E6;" d="M101.4,476.867c0,5.12-3.413,8.533-8.533,8.533s-8.533-3.413-8.533-8.533
			c0-5.12,3.413-8.533,8.533-8.533S101.4,471.747,101.4,476.867"/>
		<path style="fill:#0096E6;" d="M459.8,476.867c0,5.12-3.413,8.533-8.533,8.533s-8.533-3.413-8.533-8.533
			c0-5.12,3.413-8.533,8.533-8.533S459.8,471.747,459.8,476.867"/>
		<path style="fill:#0096E6;" d="M408.6,476.867c0,5.12-3.413,8.533-8.533,8.533s-8.533-3.413-8.533-8.533
			c0-5.12,3.413-8.533,8.533-8.533S408.6,471.747,408.6,476.867"/>
		<path style="fill:#0096E6;" d="M306.2,476.867c0,5.12-3.413,8.533-8.533,8.533s-8.533-3.413-8.533-8.533
			c0-5.12,3.413-8.533,8.533-8.533S306.2,471.747,306.2,476.867"/>
		<path style="fill:#0096E6;" d="M357.4,476.867c0,5.12-3.413,8.533-8.533,8.533c-5.12,0-8.533-3.413-8.533-8.533
			c0-5.12,3.413-8.533,8.533-8.533C353.987,468.333,357.4,471.747,357.4,476.867"/>
		<path style="fill:#0096E6;" d="M331.8,400.067c0,5.12-3.413,8.533-8.533,8.533c-5.12,0-8.533-3.413-8.533-8.533
			s3.413-8.533,8.533-8.533C328.387,391.533,331.8,394.947,331.8,400.067"/>
		<path style="fill:#0096E6;" d="M383,400.067c0,5.12-3.413,8.533-8.533,8.533c-5.12,0-8.533-3.413-8.533-8.533
			s3.413-8.533,8.533-8.533C379.587,391.533,383,394.947,383,400.067"/>
		<path style="fill:#0096E6;" d="M331.8,451.267c0,5.12-3.413,8.533-8.533,8.533c-5.12,0-8.533-3.413-8.533-8.533
			s3.413-8.533,8.533-8.533C328.387,442.733,331.8,446.147,331.8,451.267"/>
		<path style="fill:#0096E6;" d="M383,451.267c0,5.12-3.413,8.533-8.533,8.533c-5.12,0-8.533-3.413-8.533-8.533
			s3.413-8.533,8.533-8.533C379.587,442.733,383,446.147,383,451.267"/>
		<path style="fill:#0096E6;" d="M24.6,511c-5.12,0-8.533-3.413-8.533-8.533v-8.533H7.533C2.413,493.933-1,490.52-1,485.4
			s3.413-8.533,8.533-8.533h8.533V7.533C16.067,2.413,19.48-1,24.6-1s8.533,3.413,8.533,8.533v469.333h469.333
			c5.12,0,8.533,3.413,8.533,8.533s-3.413,8.533-8.533,8.533H33.133v8.533C33.133,507.587,29.72,511,24.6,511z M75.8,246.467H58.733
			c-5.12,0-8.533-3.413-8.533-8.533c0-5.12,3.413-8.533,8.533-8.533H75.8c5.12,0,8.533,3.413,8.533,8.533
			C84.333,243.053,80.92,246.467,75.8,246.467z M75.8,212.333H58.733c-5.12,0-8.533-3.413-8.533-8.533
			c0-5.12,3.413-8.533,8.533-8.533H75.8c5.12,0,8.533,3.413,8.533,8.533C84.333,208.92,80.92,212.333,75.8,212.333z M75.8,178.2
			H58.733c-5.12,0-8.533-3.413-8.533-8.533c0-5.12,3.413-8.533,8.533-8.533H75.8c5.12,0,8.533,3.413,8.533,8.533
			C84.333,174.787,80.92,178.2,75.8,178.2z M75.8,144.067H58.733c-5.12,0-8.533-3.413-8.533-8.533S53.613,127,58.733,127H75.8
			c5.12,0,8.533,3.413,8.533,8.533S80.92,144.067,75.8,144.067z M75.8,109.933H58.733c-5.12,0-8.533-3.413-8.533-8.533
			c0-5.12,3.413-8.533,8.533-8.533H75.8c5.12,0,8.533,3.413,8.533,8.533C84.333,106.52,80.92,109.933,75.8,109.933z M75.8,75.8
			H58.733c-5.12,0-8.533-3.413-8.533-8.533s3.413-8.533,8.533-8.533H75.8c5.12,0,8.533,3.413,8.533,8.533S80.92,75.8,75.8,75.8z
			 M75.8,41.667H58.733c-5.12,0-8.533-3.413-8.533-8.533s3.413-8.533,8.533-8.533H75.8c5.12,0,8.533,3.413,8.533,8.533
			S80.92,41.667,75.8,41.667z"/>
	</g>
</g>
<g>
</g>
<g>
</g>
<g>
</g>
<g>
</g>
<g>
</g>
<g>
</g>
<g>
</g>
<g>
</g>
<g>
</g>
<g>
</g>
<g>
</g>
<g>
</g>
<g>
</g>
<g>
</g>
<g>
</g>
</svg>
