<svg height="512pt" viewBox="-15 0 512 512.00008" width="512pt" xmlns="http://www.w3.org/2000/svg"><path d="m212.308594 49.152344c-72.566406-87.144532-167.398438-50.136719-126.757813 46.230468l40.980469 23.550782 98.445312-23.550782zm0 0" fill="#49c3e0"/><path d="m269.257812 49.152344c72.566407-87.144532 167.398438-50.136719 126.757813 46.230468l-40.980469 23.550782-98.445312-23.550782zm0 0" fill="#49c3e0"/><path d="m240.785156 39.90625c-26.796875 0-48.515625 21.71875-48.515625 48.515625v50.808594h97.027344v-50.808594c0-26.796875-21.71875-48.515625-48.511719-48.515625zm0 0" fill="#00a5c6"/><path d="m294.601562 149.777344-53.816406-10.546875-53.820312 10.546875-31.980469 191.371094 31.980469 170.851562h107.636718l30.851563-166.027344zm0 0" fill="#00a5c6"/><path d="m17.003906 183.089844v284.535156c0 24.507812 19.867188 44.375 44.375 44.375h125.585938v-362.222656zm0 0" fill="#ff9ac8"/><path d="m58.210938 467.625v-284.535156l128.753906-25.238282v-8.078124l-169.960938 33.316406v284.535156c0 24.507812 19.867188 44.375 44.375 44.375h41.207032c-24.507813 0-44.375-19.867188-44.375-44.375zm0 0" fill="#e86fa8"/><path d="m294.601562 149.777344v362.222656h125.585938c24.511719 0 44.375-19.867188 44.375-44.375v-284.535156zm0 0" fill="#ff9ac8"/><g fill="#3a484a"><path d="m126.53125 354.449219c-4.265625 0-7.726562-3.460938-7.726562-7.726563v-20.679687c0-4.265625 3.460937-7.726563 7.726562-7.726563 4.269531 0 7.726562 3.460938 7.726562 7.726563v20.679687c0 4.265625-3.457031 7.726563-7.726562 7.726563zm0 0"/><path d="m355.035156 354.449219c-4.269531 0-7.726562-3.460938-7.726562-7.726563v-20.679687c0-4.265625 3.457031-7.726563 7.726562-7.726563 4.265625 0 7.726563 3.460938 7.726563 7.726563v20.679687c0 4.265625-3.460938 7.726563-7.726563 7.726563zm0 0"/><path d="m240.785156 364.792969c-12.003906 0-23.265625-5.003907-30.898437-13.734375-2.808594-3.214844-2.480469-8.09375.734375-10.902344 3.210937-2.808594 8.09375-2.480469 10.902344.730469 4.695312 5.375 11.714843 8.453125 19.261718 8.453125 7.542969 0 14.5625-3.078125 19.257813-8.453125 2.808593-3.210938 7.691406-3.539063 10.902343-.730469 3.214844 2.808594 3.542969 7.6875.734376 10.902344-7.632813 8.730468-18.894532 13.734375-30.894532 13.734375zm0 0"/></g><path d="m294.601562 95.382812h-107.636718l-31.980469 43.855469 31.980469 43.851563h107.636718l26.914063-28.03125zm0 0" fill="#49c3e0"/><path d="m186.964844 95.382812v87.707032h-169.960938c-9.394531 0-17.003906-7.609375-17.003906-17v-53.707032c0-9.390624 7.609375-17 17.003906-17zm0 0" fill="#ffcd38"/><path d="m41.207031 166.089844v-53.707032c0-9.390624 7.609375-17 17.003907-17h-41.207032c-9.394531 0-17.003906 7.609376-17.003906 17v53.707032c0 9.390625 7.609375 17 17.003906 17h41.207032c-9.394532 0-17.003907-7.609375-17.003907-17zm0 0" fill="#e7b835"/><path d="m481.566406 112.382812v53.707032c0 9.390625-7.609375 17-17.003906 17h-169.960938v-87.707032h169.960938c9.394531 0 17.003906 7.609376 17.003906 17zm0 0" fill="#ffcd38"/></svg>