<?xml version="1.0" encoding="iso-8859-1"?>
<!-- Generator: Adobe Illustrator 19.0.0, SVG Export Plug-In . SVG Version: 6.00 Build 0)  -->
<svg version="1.1" id="Layer_1" xmlns="http://www.w3.org/2000/svg" xmlns:xlink="http://www.w3.org/1999/xlink" x="0px" y="0px"
	 viewBox="0 0 512 512" style="enable-background:new 0 0 512 512;" xml:space="preserve">
<path style="fill:#EE8700;" d="M462.111,409.247c-0.247-0.554-24.418-56.953-6.728-188.655c0.914-6.802,1.476-13.716,1.673-20.549
	c0.096-3.331-2.031-6.321-5.21-7.325l-26.124-8.244l24.865-14.718c2.699-1.597,4.109-4.713,3.53-7.794
	c-6.699-35.63-25.019-68.825-52.978-95.996c-24.428-23.741-55.34-42.436-89.397-54.066c-2.921-0.997-6.157-0.092-8.135,2.28
	L287.17,33.883l-3.591-24.614c-0.464-3.18-2.913-5.704-6.076-6.265C266.262,1.01,255.339,0,245.033,0
	c-21.042,0-44.585,1.913-69.975,5.688c-3.03,0.45-5.475,2.708-6.167,5.691l-5.82,25.104l-15.222-21.672
	c-1.699-2.421-4.671-3.609-7.568-3.025C92.01,21.47,54.71,33.85,54.339,33.973c-2.056,0.687-3.713,2.235-4.536,4.242
	c-0.823,2.005-0.732,4.271,0.249,6.204l47.539,93.697c1.116,2.2,3.258,3.694,5.703,4.011c2.45,0.315,4.901-0.609,6.538-2.454
	c0.096-0.108,9.819-10.9,30.019-20.721c18.664-9.074,50.38-19.15,95.464-15.669c34.196,2.645,81.599,14.149,113.23,53.936
	c28.278,35.569,37.725,85.921,28.078,149.658c-0.01,0.062-0.018,0.125-0.026,0.188c-0.315,2.511-7.377,61.919,21.736,97.572
	c1.029,1.261,2.443,2.149,4.024,2.533l51.197,12.375c0.578,0.14,1.162,0.208,1.74,0.208c2.184,0,4.295-0.968,5.733-2.693
	C462.848,414.88,463.264,411.843,462.111,409.247z"/>
<path style="fill:#BA6500;" d="M462.111,409.247c-0.247-0.554-24.418-56.953-6.728-188.655c0.914-6.802,1.476-13.716,1.673-20.549
	c0.096-3.331-2.031-6.321-5.21-7.325l-26.124-8.244l24.865-14.718c2.699-1.597,4.109-4.713,3.53-7.794
	c-6.699-35.63-25.019-68.825-52.978-95.996c-24.428-23.741-55.34-42.436-89.397-54.066c-2.921-0.997-6.157-0.092-8.135,2.28
	l-6.934,8.311c23.732,11.21,45.286,25.965,63.303,43.476c27.959,27.171,46.277,60.366,52.977,95.996
	c0.579,3.082-0.831,6.197-3.53,7.794l-24.864,14.718l26.124,8.244c3.179,1.003,5.305,3.993,5.209,7.325
	c-0.196,6.833-0.758,13.746-1.672,20.549c-17.69,131.702,6.481,188.1,6.728,188.655c0.366,0.824,0.556,1.693,0.611,2.565
	l31.995,7.734c0.578,0.14,1.162,0.208,1.74,0.208c2.184,0,4.295-0.968,5.733-2.693C462.848,414.88,463.264,411.843,462.111,409.247z
	"/>
<g>
	<path style="fill:#874600;" d="M414.104,291.936c-4.062-0.705-7.918,2.014-8.622,6.071c-0.704,4.057,2.014,7.917,6.071,8.621
		l37.37,6.486c-0.024-4.84,0.019-9.877,0.137-15.112L414.104,291.936z"/>
	<path style="fill:#874600;" d="M207.037,1.828L197.005,47.08c-0.891,4.021,1.645,8.002,5.665,8.893
		c0.544,0.12,1.086,0.179,1.621,0.179c3.419,0,6.501-2.369,7.273-5.844l11.003-49.632C217.5,0.967,212.325,1.349,207.037,1.828z"/>
	<path style="fill:#874600;" d="M404.11,147.189l37.874-23.637c-2.044-4.532-4.291-8.993-6.732-13.376l-39.038,24.363
		c-3.494,2.179-4.558,6.779-2.379,10.273c1.414,2.267,3.845,3.51,6.333,3.51C401.517,148.321,402.882,147.956,404.11,147.189z"/>
	<path style="fill:#874600;" d="M360.219,147.94c-27.682-34.821-70.476-55.403-123.752-59.523
		c-34.244-2.649-65.454,1.571-92.776,12.542c-3.61,1.449-5.498,5.43-4.338,9.144l19.064,61.004c0.63,2.013,2.083,3.667,4,4.55
		c1.916,0.88,4.118,0.91,6.057,0.079c20.472-8.785,37.761-8.56,37.911-8.545c0.442,0.006,0.906-0.02,1.351-0.089
		c0.529-0.084,53.397-7.973,88.283,21.864c20.907,17.882,31.507,45.952,31.507,83.434c0,21.462,1.4,42.648,4.162,62.969
		c0.287,2.112,1.464,4.001,3.235,5.188c1.24,0.832,2.689,1.264,4.154,1.264c0.626,0,1.256-0.079,1.874-0.24l44.058-11.444
		c3.249-0.843,5.533-3.754,5.581-7.109c0.115-7.942,0.717-13.337,0.798-14.033C401.65,241.048,391.164,186.863,360.219,147.94z"/>
</g>
<path style="fill:#CC7400;" d="M367.379,252.816c-6.518-55.636-29.074-95.66-65.23-115.748
	C262.572,115.081,224.282,115.65,199.13,120c-27.217,4.706-45.052,14.574-45.798,14.991c-3.076,1.723-4.525,5.365-3.474,8.73
	l8.558,27.384c0.63,2.013,2.083,3.667,4,4.55c1.918,0.882,4.119,0.91,6.057,0.079c20.468-8.785,37.762-8.548,37.929-8.545
	c0.441,0.007,0.894-0.021,1.332-0.089c0.529-0.084,53.397-7.973,88.282,21.864c20.907,17.882,31.507,45.952,31.507,83.434
	c0,21.462,1.4,42.648,4.162,62.969c0.287,2.112,1.464,4.001,3.235,5.188c1.24,0.832,2.689,1.264,4.153,1.264
	c0.627,0,1.256-0.079,1.874-0.24l20.032-5.203c2.863-0.743,5.015-3.109,5.487-6.028
	C366.704,328.886,372.204,293.998,367.379,252.816z"/>
<path style="fill:#FFCA10;" d="M394.571,469.218c-0.521-0.663-52.134-67.745-52.134-196.817c0-42.092-12.387-74.002-36.816-94.844
	c-38.4-32.759-92.684-26.264-99.577-25.281c-4.656,0.006-30.285,0.804-57.232,16.744c-17.132,10.133-31.252,24.291-41.968,42.079
	c-13.191,21.898-21.177,49.335-23.733,81.548c-3.625,45.679-2.337,99.622,0.81,129.3c0.254,2.397,1.65,4.522,3.75,5.707
	c2.098,1.185,4.641,1.281,6.824,0.261l19.373-9.06c2.146-1.004,3.688-2.968,4.153-5.292l0.573-2.891
	c4.442-22.481,16.244-82.198,47.883-88.79c13.081-2.727,25.366,1.137,36.515,11.477c3.779,3.505,6.82,7.218,9.074,10.337
	l-58.543,19.619c-2.318,0.776-4.108,2.641-4.791,4.988l-38.997,134.171c-0.919,3.164,0.355,6.547,3.122,8.336
	c1.235,0.798,2.641,1.19,4.041,1.19c1.736,0,3.467-0.604,4.854-1.787c0.192-0.164,19.722-16.536,61.923-28.248
	c70.831-19.658,149.82-11.294,203.613-0.817c3.059,0.598,6.165-0.773,7.79-3.432C396.7,475.054,396.499,471.666,394.571,469.218z"/>
<path style="fill:#FFA304;" d="M394.571,469.218c-0.521-0.663-52.134-67.745-52.134-196.817c0-42.092-12.387-74.002-36.816-94.844
	c-38.056-32.466-91.705-26.378-99.373-25.31c19.259,2.335,42.491,8.892,61.736,25.31c24.429,20.841,36.816,52.752,36.816,94.844
	c0,129.073,51.613,196.154,52.134,196.817c0.724,0.921,3.843,4.116,7.366,7.886c8.059,1.268,15.756,2.636,22.985,4.043
	c3.059,0.598,6.165-0.773,7.79-3.432C396.7,475.054,396.499,471.666,394.571,469.218z"/>
<path style="fill:#FFEB99;" d="M342.437,272.4c0-42.092-12.387-74.002-36.816-94.844c-38.4-32.759-92.684-26.264-99.577-25.281
	c-4.656,0.006-30.285,0.804-57.232,16.744c-17.132,10.133-31.252,24.291-41.968,42.079c-13.146,21.823-21.118,49.149-23.703,81.219
	c0.753-0.182,1.491-0.471,2.182-0.901c0.806-0.489,31.029-18.632,77.885-28.617c27.295-5.814,54.811-7.734,81.784-5.703
	c33.527,2.526,66.351,11.204,97.566,25.793C342.483,279.437,342.437,275.946,342.437,272.4z"/>
<path style="fill:#E8D68B;" d="M342.437,272.4c0-42.092-12.387-74.002-36.816-94.844c-38.056-32.466-91.704-26.378-99.372-25.31
	c19.259,2.335,42.491,8.892,61.736,25.31c23.642,20.169,36.005,50.708,36.776,90.809c12.813,3.909,25.433,8.745,37.797,14.523l0,0
	C342.483,279.437,342.437,275.946,342.437,272.4z"/>
<g>
</g>
<g>
</g>
<g>
</g>
<g>
</g>
<g>
</g>
<g>
</g>
<g>
</g>
<g>
</g>
<g>
</g>
<g>
</g>
<g>
</g>
<g>
</g>
<g>
</g>
<g>
</g>
<g>
</g>
</svg>
