<?xml version="1.0" encoding="iso-8859-1"?>
<!-- Generator: Adobe Illustrator 19.0.0, SVG Export Plug-In . SVG Version: 6.00 Build 0)  -->
<svg version="1.1" id="Layer_1" xmlns="http://www.w3.org/2000/svg" xmlns:xlink="http://www.w3.org/1999/xlink" x="0px" y="0px"
	 viewBox="0 0 512 512" style="enable-background:new 0 0 512 512;" xml:space="preserve">
<path style="fill:#F2F2F2;" d="M428.8,229.333L361.6,99.2c-3.2-6.4-9.6-9.6-17.067-8.533c-6.4,1.067-11.733,5.333-13.867,12.8
	L272,325.333l-24.533-150.4c-1.067-7.467-6.4-12.8-13.867-13.867c-7.467-1.067-13.867,2.133-17.067,9.6l-60.8,123.733
	l-36.267-56.533c-3.2-4.267-8.533-7.467-13.867-7.467H7.467C11.733,241.067,16,252.8,22.4,263.467H96l46.933,73.6
	c3.2,5.333,8.533,7.467,14.933,7.467s11.733-4.267,13.867-9.6l50.133-103.467l28.8,176c1.067,7.467,7.467,13.867,16,13.867
	c0,0,0,0,1.067,0c7.467,0,13.867-5.333,16-12.8L352,153.6l52.267,100.267c3.2,5.333,8.533,8.533,14.933,8.533h70.4
	c6.4-10.667,10.667-22.4,14.933-33.067L428.8,229.333L428.8,229.333z"/>
<path style="fill:#FF7058;" d="M22.4,262.4c-3.2-5.333-5.333-10.667-8.533-16C17.067,251.733,19.2,257.067,22.4,262.4z"/>
<path style="fill:#FFD15C;" d="M7.467,229.333H105.6c5.333,0,10.667,3.2,13.867,7.467l36.267,56.533l60.8-123.733
	c3.2-6.4,10.667-10.667,17.067-9.6c7.467,1.067,12.8,6.4,13.867,13.867L272,324.267l58.667-220.8
	c2.133-6.4,7.467-11.733,13.867-12.8c6.4-1.067,13.867,3.2,17.067,8.533l67.2,130.133h75.733c-2.133,5.333-4.267,10.667-6.4,16
	c8.533-19.2,13.867-38.4,13.867-56.533C512,96,443.733,21.333,360.533,21.333C320,21.333,282.667,38.4,256,67.2
	c-26.667-28.8-64-45.867-104.533-45.867C68.267,21.333,0,96,0,188.8c0,18.133,5.333,37.333,13.867,56.533
	C11.733,240,9.6,234.667,7.467,229.333z"/>
<g>
	<path style="fill:#FF7058;" d="M489.6,262.4c3.2-5.333,5.333-10.667,7.467-16C494.933,251.733,492.8,257.067,489.6,262.4z"/>
	<path style="fill:#FF7058;" d="M419.2,262.4c-6.4,0-11.733-3.2-14.933-8.533L352,153.6l-67.2,254.933
		c-2.133,7.467-8.533,12.8-16,12.8c0,0,0,0-1.067,0c-7.467,0-13.867-6.4-16-13.867l-28.8-176L172.8,334.933
		c-2.133,5.333-7.467,8.533-13.867,9.6c-6.4,0-11.733-2.133-14.933-7.467L96,262.4H22.4C85.333,375.467,256,490.667,256,490.667
		S427.733,376.533,489.6,262.4H419.2z"/>
</g>
<path style="opacity:0.1;fill:#231F20;enable-background:new    ;" d="M404.267,253.867L352,153.6l-67.2,254.933
	c-2.133,7.467-8.533,12.8-16,12.8c0,0,0,0-1.067,0c-7.467,0-13.867-6.4-16-13.867l-28.8-176L172.8,334.933
	c-2.133,5.333-7.467,8.533-13.867,9.6c-6.4,0-11.733-2.133-14.933-7.467L96,262.4H22.4c2.133,3.2,4.267,7.467,6.4,10.667h61.867
	l44.8,68.267c5.333,7.467,13.867,12.8,22.4,12.8c1.067,0,1.067,0,2.133,0c9.6-1.067,18.133-6.4,22.4-14.933l36.267-73.6
	l23.467,142.933c2.133,12.8,12.8,22.4,25.6,22.4h1.067c12.8,0,23.467-8.533,26.667-20.267L355.2,182.4l39.467,75.733
	c4.267,9.6,13.867,14.933,24.533,14.933h64c2.133-3.2,4.267-7.467,6.4-10.667h-70.4C412.8,262.4,407.467,259.2,404.267,253.867z"/>
<g>
</g>
<g>
</g>
<g>
</g>
<g>
</g>
<g>
</g>
<g>
</g>
<g>
</g>
<g>
</g>
<g>
</g>
<g>
</g>
<g>
</g>
<g>
</g>
<g>
</g>
<g>
</g>
<g>
</g>
</svg>
