<svg height="511pt" viewBox="1 -90 511.99895 511" width="511pt" xmlns="http://www.w3.org/2000/svg"><path d="m488.03125.5h-464.0625c-13.238281 0-23.96875 10.730469-23.96875 23.964844v283.535156c0 13.234375 10.730469 23.964844 23.96875 23.964844h464.0625c13.238281 0 23.96875-10.730469 23.96875-23.964844v-283.535156c0-13.234375-10.730469-23.964844-23.96875-23.964844zm0 0" fill="#00ad94"/><g fill="#3ac7b4"><path d="m55.367188 39.734375c0 8.910156-7.222657 16.132813-16.132813 16.132813s-16.132813-7.222657-16.132813-16.132813 7.222657-16.132813 16.132813-16.132813 16.132813 7.222657 16.132813 16.132813zm0 0"/><path d="m488.898438 39.734375c0 8.910156-7.222657 16.132813-16.132813 16.132813s-16.132813-7.222657-16.132813-16.132813 7.222657-16.132813 16.132813-16.132813 16.132813 7.222657 16.132813 16.132813zm0 0"/><path d="m55.367188 292.734375c0 8.910156-7.222657 16.132813-16.132813 16.132813s-16.132813-7.222657-16.132813-16.132813 7.222657-16.132813 16.132813-16.132813 16.132813 7.222657 16.132813 16.132813zm0 0"/><path d="m488.898438 292.734375c0 8.910156-7.222657 16.132813-16.132813 16.132813s-16.132813-7.222657-16.132813-16.132813 7.222657-16.132813 16.132813-16.132813 16.132813 7.222657 16.132813 16.132813zm0 0"/><path d="m472.765625 244.394531v-156.320312c-22.0625-8.695313-39.648437-26.277344-48.339844-48.339844h-336.851562c-8.691407 22.0625-26.277344 39.644531-48.339844 48.339844v156.320312c22.0625 8.691407 39.648437 26.277344 48.339844 48.339844h336.851562c8.691407-22.0625 26.277344-39.648437 48.339844-48.339844zm0 0"/></g><path d="m336.429688 166.234375c0 44.417969-36.011719 80.429687-80.429688 80.429687s-80.429688-36.011718-80.429688-80.429687c0-44.421875 36.011719-80.429687 80.429688-80.429687s80.429688 36.007812 80.429688 80.429687zm0 0" fill="#00ad94"/><path d="m205.785156 176.078125c-4.265625 0-7.726562-3.460937-7.726562-7.726563v-9.085937c0-4.269531 3.460937-7.726563 7.726562-7.726563 4.269532 0 7.726563 3.457032 7.726563 7.726563v9.085937c0 4.265626-3.457031 7.726563-7.726563 7.726563zm0 0" fill="#3a484a"/><path d="m306.214844 176.078125c-4.269532 0-7.726563-3.460937-7.726563-7.726563v-9.085937c0-4.269531 3.457031-7.726563 7.726563-7.726563 4.269531 0 7.726562 3.457032 7.726562 7.726563v9.085937c0 4.265626-3.460937 7.726563-7.726562 7.726563zm0 0" fill="#3a484a"/><path d="m256 180.929688c-7.0625 0-13.699219-2.964844-18.210938-8.125-2.808593-3.214844-2.480468-8.09375.734376-10.902344 3.210937-2.808594 8.089843-2.480469 10.902343.730468 1.574219 1.808594 3.972657 2.84375 6.574219 2.84375s5-1.039062 6.578125-2.84375c2.808594-3.210937 7.6875-3.539062 10.902344-.730468 3.210937 2.808594 3.539062 7.6875.730469 10.902344-4.511719 5.164062-11.152344 8.125-18.210938 8.125zm0 0" fill="#3a484a"/><path d="m129.144531 166.234375c0 11.734375-9.515625 21.25-21.25 21.25-11.738281 0-21.253906-9.515625-21.253906-21.25 0-11.738281 9.515625-21.253906 21.253906-21.253906 11.734375 0 21.25 9.515625 21.25 21.253906zm0 0" fill="#00ad94"/><path d="m425.359375 166.234375c0 11.734375-9.515625 21.25-21.253906 21.25-11.734375 0-21.25-9.515625-21.25-21.25 0-11.738281 9.515625-21.253906 21.25-21.253906 11.738281 0 21.253906 9.515625 21.253906 21.253906zm0 0" fill="#00ad94"/></svg>