<svg height="511pt" viewBox="1 0 511.99998 511" width="511pt" xmlns="http://www.w3.org/2000/svg"><g fill="#3ac7b4"><path d="m70.191406 278.085938c17.890625 8.335937 38.003906 6.050781 53.246094-4.253907-1.917969-18.300781-13.113281-35.164062-31.007812-43.5-17.890626-8.332031-38.003907-6.046875-53.246094 4.257813 1.917968 18.300781 13.113281 35.164062 31.007812 43.496094zm0 0"/><path d="m415.117188 132.222656c-17.773438 8.578125-28.738282 25.59375-30.40625 43.917969 15.382812 10.097656 35.527343 12.105469 53.300781 3.523437 17.777343-8.578124 28.738281-25.59375 30.410156-43.917968-15.382813-10.09375-35.523437-12.101563-53.304687-3.523438zm0 0"/><path d="m354.304688 132.222656c17.777343 8.578125 28.738281 25.59375 30.40625 43.917969-15.382813 10.097656-35.523438 12.105469-53.300782 3.523437-17.777344-8.578124-28.738281-25.59375-30.40625-43.917968 15.382813-10.09375 35.523438-12.101563 53.300782-3.523438zm0 0"/><path d="m436.914062 220.390625c-17.777343 8.578125-28.738281 25.597656-30.410156 43.921875 15.382813 10.09375 35.527344 12.101562 53.304688 3.523438 17.773437-8.578126 28.734375-25.597657 30.40625-43.921876-15.382813-10.09375-35.523438-12.101562-53.300782-3.523437zm0 0"/><path d="m376.097656 220.390625c17.777344 8.578125 28.738282 25.597656 30.40625 43.921875-15.382812 10.09375-35.523437 12.101562-53.300781 3.523438-17.777344-8.578126-28.738281-25.597657-30.40625-43.921876 15.382813-10.09375 35.523437-12.101562 53.300781-3.523437zm0 0"/></g><path d="m401.972656 209.167969c-8.230468-24.570313-16.082031-48.003907-9.816406-87.671875 3.863281-24.433594 5.875-49.136719 5.875-73.875 0-4.34375-3.589844-7.851563-7.964844-7.722656-4.230468.125-7.488281 3.816406-7.488281 8.046874v1.324219c0 23.28125-1.96875 46.511719-5.625 69.503907-6.9375 43.636718 1.835937 69.835937 10.371094 95.304687 9.539062 28.472656 18.550781 55.371094 3.078125 107.835937-1.160156 3.9375.773437 8.273438 4.621094 9.707032.898437.332031 1.8125.488281 2.707031.488281 3.335937 0 6.414062-2.175781 7.40625-5.535156 16.972656-57.316407 6.738281-87.863281-3.164063-117.40625zm0 0" fill="#00ad94"/><path d="m114.273438 343.242188c-.792969 0-1.597657-.125-2.394532-.382813-4.054687-1.320313-6.277344-5.679687-4.957031-9.738281 16.589844-51.015625 6.839844-78.113282-1.761719-102.019532-4.808594-13.367187-9.351562-25.996093-9.351562-41.199218v-46.472656c0-4.269532 3.457031-7.726563 7.722656-7.726563 4.269531 0 7.726562 3.457031 7.726562 7.726563v46.472656c0 12.507812 3.914063 23.378906 8.441407 35.96875 8.976562 24.941406 20.144531 55.984375 1.917969 112.03125-1.0625 3.265625-4.089844 5.339844-7.34375 5.339844zm0 0" fill="#00ad94"/><path d="m114.269531 335.511719-98.691406 28.378906c4.914063 15.523437 17.375 95.851563 22.742187 131.246094 1.460938 9.648437 9.757813 16.777343 19.515626 16.777343h112.871093c9.757813 0 18.050781-7.128906 19.515625-16.777343 5.363282-35.390625 17.828125-115.722657 22.738282-131.246094zm0 0" fill="#ff8c57"/><path d="m397.730469 335.511719-98.691407 28.382812c4.910157 15.519531 17.375 95.851563 22.738282 131.242188 1.464844 9.648437 9.757812 16.777343 19.515625 16.777343h112.871093c9.757813 0 18.054688-7.128906 19.515626-16.777343 5.367187-35.390625 17.828124-115.722657 22.742187-131.242188zm0 0" fill="#ff8c57"/><path d="m15.578125 363.890625c1.5625 4.933594 3.886719 16.410156 6.5 30.90625h184.382813c2.617187-14.496094 4.9375-25.972656 6.5-30.90625l-98.691407-28.378906zm0 0" fill="#ec6a34"/><path d="m212.960938 307.132812h-197.382813c-8.601563 0-15.578125 6.972657-15.578125 15.578126v25.601562c0 8.605469 6.976562 15.578125 15.578125 15.578125h197.382813c8.601562 0 15.578124-6.972656 15.578124-15.578125v-25.601562c0-8.605469-6.976562-15.578126-15.578124-15.578126zm0 0" fill="#ff8c57"/><path d="m299.039062 363.890625c1.5625 4.933594 3.882813 16.410156 6.5 30.90625h184.382813c2.617187-14.496094 4.9375-25.972656 6.5-30.90625l-98.691406-28.378906zm0 0" fill="#ec6a34"/><path d="m496.421875 307.132812h-197.382813c-8.601562 0-15.578124 6.976563-15.578124 15.578126v25.601562c0 8.605469 6.976562 15.582031 15.578124 15.582031h197.382813c8.601563 0 15.578125-6.976562 15.578125-15.582031v-25.601562c0-8.605469-6.976562-15.578126-15.578125-15.578126zm0 0" fill="#ff8c57"/><path d="m77.195312 143.429688c0 19.738281 10.5625 37.003906 26.335938 46.472656 15.777344-9.46875 26.339844-26.734375 26.339844-46.472656 0-19.738282-10.5625-37.007813-26.339844-46.472657-15.773438 9.464844-26.335938 26.730469-26.335938 46.472657zm0 0" fill="#3ac7b4"/><path d="m363.964844 46.972656c0 19.738282 10.5625 37.007813 26.339844 46.472656 15.777343-9.464843 26.339843-26.734374 26.339843-46.472656 0-19.738281-10.5625-37.007812-26.339843-46.472656-15.777344 9.464844-26.339844 26.734375-26.339844 46.472656zm0 0" fill="#3ac7b4"/></svg>