<?xml version="1.0" encoding="iso-8859-1"?>
<!-- Generator: Adobe Illustrator 19.0.0, SVG Export Plug-In . SVG Version: 6.00 Build 0)  -->
<svg version="1.1" id="Layer_1" xmlns="http://www.w3.org/2000/svg" xmlns:xlink="http://www.w3.org/1999/xlink" x="0px" y="0px"
	 viewBox="0 0 512 512" style="enable-background:new 0 0 512 512;" xml:space="preserve">
<g>
	<path style="fill:#CCC4C1;" d="M46.991,46.991c-4.738,4.738-4.738,12.42,0,17.159l26.247,26.247l17.158-17.159L64.149,46.991
		C59.411,42.255,51.729,42.255,46.991,46.991z"/>
	<path style="fill:#CCC4C1;" d="M46.991,447.85c-4.738,4.738-4.739,12.42,0,17.159c2.37,2.368,5.474,3.554,8.579,3.554
		c3.105,0,6.211-1.185,8.579-3.554l26.244-26.244l-17.158-17.159L46.991,447.85z"/>
	<path style="fill:#CCC4C1;" d="M438.762,421.603l-17.159,17.159l26.247,26.247c2.37,2.368,5.474,3.554,8.579,3.554
		c3.105,0,6.21-1.185,8.579-3.554c4.738-4.738,4.738-12.42,0-17.159L438.762,421.603z"/>
	<path style="fill:#CCC4C1;" d="M465.008,64.15c4.738-4.738,4.738-12.42,0-17.159c-4.739-4.737-12.419-4.737-17.159,0
		l-26.244,26.244l17.159,17.159L465.008,64.15z"/>
</g>
<path style="fill:#FFE1D6;" d="M512,256C512,114.615,397.385,0,256,0S0,114.615,0,256s114.615,256,256,256S512,397.385,512,256z
	 M256,404.019c-81.749,0-148.019-66.27-148.019-148.019S174.251,107.981,256,107.981S404.019,174.251,404.019,256
	S337.749,404.019,256,404.019z"/>
<g>
	<path style="fill:#EE3840;" d="M326.986,133.048c21.542,12.464,39.502,30.424,51.966,51.966l105.26-60.771
		c-23.135-39.983-56.455-73.335-96.438-96.47C387.747,27.808,326.986,133.048,326.986,133.048z"/>
	<path style="fill:#EE3840;" d="M133.048,326.986l-105.24,60.761c23.099,40.01,56.451,73.33,96.434,96.465l60.771-105.26
		C163.472,366.488,145.512,348.526,133.048,326.986z"/>
	<path style="fill:#EE3840;" d="M185.027,133.04l-60.77-105.26c-39.983,23.135-73.335,56.456-96.471,96.439
		c0.035,0.027,105.268,60.782,105.268,60.782C145.522,163.461,163.485,145.501,185.027,133.04z"/>
	<path style="fill:#EE3840;" d="M484.225,387.749l-105.266-60.775c-12.462,21.542-30.42,39.504-51.958,51.969l60.761,105.24
		C427.77,461.083,461.09,427.732,484.225,387.749z"/>
</g>
<g>
</g>
<g>
</g>
<g>
</g>
<g>
</g>
<g>
</g>
<g>
</g>
<g>
</g>
<g>
</g>
<g>
</g>
<g>
</g>
<g>
</g>
<g>
</g>
<g>
</g>
<g>
</g>
<g>
</g>
</svg>
