<?xml version="1.0" encoding="iso-8859-1"?>
<!-- Generator: Adobe Illustrator 19.0.0, SVG Export Plug-In . SVG Version: 6.00 Build 0)  -->
<svg version="1.1" id="Capa_1" xmlns="http://www.w3.org/2000/svg" xmlns:xlink="http://www.w3.org/1999/xlink" x="0px" y="0px"
	 viewBox="0 0 512 512" style="enable-background:new 0 0 512 512;" xml:space="preserve">
<g>
	<g>
		<path d="M448.435,183.656l-10.594,10.595c-13.547,13.547-29.55,24.451-46.991,32.317V106.166
			c0-41.309-33.608-74.917-74.917-74.917H300.95v14.983c0,24.785-20.165,44.95-44.95,44.95c-24.785,0-44.95-20.165-44.95-44.95
			V31.249h-14.983c-41.309,0-74.917,33.608-74.917,74.917v120.401c-17.441-7.866-33.444-18.77-46.991-32.317l-10.594-10.594
			L0,247.221l10.594,10.594c46.457,46.457,111.147,73.102,177.481,73.102h135.849c66.334,0,131.024-26.644,177.481-73.102
			L512,247.221L448.435,183.656z M151.116,106.166c0-20.246,13.456-37.408,31.893-43.016c7.69,33.188,37.498,58,72.991,58
			c35.493,0,65.301-24.812,72.991-58c18.437,5.608,31.893,22.771,31.893,43.016v74.917H151.116V106.166z M151.117,211.05h209.766
			v25.674c-12.038,2.818-24.44,4.292-36.943,4.292H188.06c-12.503,0-24.905-1.475-36.943-4.292V211.05z M323.926,300.951H188.076
			c-53.388,0-105.538-19.56-145.322-54.104l21.243-21.245c34.159,28.995,78.577,45.382,124.061,45.382h135.881
			c45.485,0,89.902-16.387,124.061-45.382l21.245,21.245C429.464,281.391,377.313,300.951,323.926,300.951z"/>
	</g>
</g>
<g>
	<g>
		<path d="M450.784,390.85v-29.967H270.983v29.967h-29.967v-29.967H61.216v29.967H31.249v29.967h35.109
			c12.369,34.881,45.69,59.934,84.758,59.934c39.068,0,72.389-25.052,84.758-59.934h40.251
			c12.369,34.881,45.69,59.934,84.758,59.934c39.068,0,72.389-25.052,84.758-59.934h35.109V390.85H450.784z M151.116,450.784
			c-33.047,0-59.933-26.986-59.933-60.033H211.05C211.05,423.798,184.164,450.784,151.116,450.784z M360.884,450.784
			c-33.047,0-59.934-26.886-59.934-59.934h119.867C420.817,423.898,393.931,450.784,360.884,450.784z"/>
	</g>
</g>
<g>
</g>
<g>
</g>
<g>
</g>
<g>
</g>
<g>
</g>
<g>
</g>
<g>
</g>
<g>
</g>
<g>
</g>
<g>
</g>
<g>
</g>
<g>
</g>
<g>
</g>
<g>
</g>
<g>
</g>
</svg>
