<?xml version="1.0" encoding="iso-8859-1"?>
<!-- Generator: Adobe Illustrator 18.1.1, SVG Export Plug-In . SVG Version: 6.00 Build 0)  -->
<svg version="1.1" id="Capa_1" xmlns="http://www.w3.org/2000/svg" xmlns:xlink="http://www.w3.org/1999/xlink" x="0px" y="0px"
	 viewBox="0 0 14.566 14.566" style="enable-background:new 0 0 14.566 14.566;" xml:space="preserve">
<g>
	<g>
		<rect x="0" y="0.196" style="fill:#030104;" width="4.955" height="2.486"/>
		<rect x="0" y="3.929" style="fill:#030104;" width="8.272" height="2.486"/>
		<rect x="0" y="7.907" style="fill:#030104;" width="10.871" height="2.485"/>
		<rect x="0" y="11.885" style="fill:#030104;" width="14.566" height="2.485"/>
		<path style="fill:#030104;" d="M9.362,4.062l2.415,2.35c0,0,0.16,0.187,0.327,0.019c0.23-0.229,2.355-2.425,2.355-2.425
			s0.294-0.292-0.096-0.292c-0.391,0-1.011,0-1.011,0s0-0.169,0-0.429c0-0.799,0-2.354,0-2.949c0,0,0.004-0.14-0.176-0.14
			c-0.181,0-2.233,0-2.486,0c-0.252,0-0.209,0.167-0.209,0.167c0,0.611,0,2.115,0,2.943c0,0.289,0,0.477,0,0.477s-0.774,0-1.095,0
			S9.362,4.062,9.362,4.062z"/>
	</g>
</g>
<g>
</g>
<g>
</g>
<g>
</g>
<g>
</g>
<g>
</g>
<g>
</g>
<g>
</g>
<g>
</g>
<g>
</g>
<g>
</g>
<g>
</g>
<g>
</g>
<g>
</g>
<g>
</g>
<g>
</g>
</svg>
