<?xml version="1.0" encoding="iso-8859-1"?>
<!-- Generator: Adobe Illustrator 19.0.0, SVG Export Plug-In . SVG Version: 6.00 Build 0)  -->
<svg version="1.1" id="Layer_1" xmlns="http://www.w3.org/2000/svg" xmlns:xlink="http://www.w3.org/1999/xlink" x="0px" y="0px"
	 viewBox="0 0 512 512" style="enable-background:new 0 0 512 512;" xml:space="preserve">
<g>
	<g>
		<circle cx="250.435" cy="256" r="16.696"/>
	</g>
</g>
<g>
	<g>
		<path d="M461.913,38.957H116.87c-27.618,0-50.087,22.469-50.087,50.087v16.696H16.696C7.475,105.739,0,113.214,0,122.435v100.174
			c0,9.22,7.475,16.696,16.696,16.696h50.087v33.391H16.696C7.475,272.696,0,280.171,0,289.391v100.174
			c0,9.22,7.475,16.696,16.696,16.696h50.087v16.696c0,27.618,22.469,50.087,50.087,50.087h345.043
			c27.618,0,50.087-22.469,50.087-50.087V89.044C512,61.426,489.531,38.957,461.913,38.957z M66.783,372.87H33.391v-66.783h33.391
			V372.87z M66.783,205.913H33.391V139.13h33.391V205.913z M478.609,422.957c0,9.206-7.49,16.696-16.696,16.696H116.87
			c-9.206,0-16.696-7.49-16.696-16.696c0-12.646,0-321.374,0-333.913c0-9.206,7.49-16.696,16.696-16.696h345.043
			c9.206,0,16.696,7.49,16.696,16.696V422.957z"/>
	</g>
</g>
<g>
	<g>
		<path d="M320.047,302.001c8.752-13.2,13.866-29.011,13.866-46.001s-5.114-32.801-13.866-46.002l42.367-42.367
			c6.52-6.519,6.52-17.091,0-23.61c-6.52-6.52-17.091-6.52-23.611,0l-42.367,42.367c-13.2-8.753-29.011-13.866-46.001-13.866
			s-32.801,5.113-46.001,13.866l-42.367-42.367c-6.519-6.519-17.091-6.519-23.611,0s-6.52,17.091,0,23.611l42.367,42.367
			c-8.752,13.2-13.866,29.011-13.866,46.001s5.114,32.801,13.866,46.002l-42.367,42.367c-6.52,6.519-6.52,17.091,0,23.611
			c3.26,3.261,7.532,4.891,11.805,4.891c4.272,0,8.546-1.631,11.805-4.891l42.367-42.367c13.201,8.752,29.013,13.865,46.002,13.865
			s32.801-5.113,46.001-13.866l42.367,42.367c3.26,3.26,7.533,4.891,11.806,4.891s8.546-1.631,11.805-4.891
			c6.52-6.519,6.52-17.091,0-23.611L320.047,302.001z M250.435,306.087c-27.618,0-50.087-22.469-50.087-50.087
			c0-27.618,22.469-50.087,50.087-50.087c27.618,0,50.087,22.469,50.087,50.087C300.522,283.618,278.053,306.087,250.435,306.087z"
			/>
	</g>
</g>
<g>
	<g>
		<path d="M428.522,172.522c-9.22,0-16.696,7.475-16.696,16.696v133.565c0,9.22,7.475,16.696,16.696,16.696
			s16.696-7.475,16.696-16.696V189.217C445.217,179.997,437.742,172.522,428.522,172.522z"/>
	</g>
</g>
<g>
</g>
<g>
</g>
<g>
</g>
<g>
</g>
<g>
</g>
<g>
</g>
<g>
</g>
<g>
</g>
<g>
</g>
<g>
</g>
<g>
</g>
<g>
</g>
<g>
</g>
<g>
</g>
<g>
</g>
</svg>
