<?xml version="1.0" encoding="iso-8859-1"?>
<!-- Generator: Adobe Illustrator 19.0.0, SVG Export Plug-In . SVG Version: 6.00 Build 0)  -->
<svg version="1.1" id="Layer_1" xmlns="http://www.w3.org/2000/svg" xmlns:xlink="http://www.w3.org/1999/xlink" x="0px" y="0px"
	 viewBox="0 0 512 512" style="enable-background:new 0 0 512 512;" xml:space="preserve">
<g>
	<g>
		<path d="M256,0C114.625,0,0,114.617,0,256c0,141.375,114.625,256,256,256s256-114.625,256-256C512,114.617,397.375,0,256,0z
			 M421.938,421.938c-21.562,21.562-46.656,38.469-74.594,50.297c-28.922,12.234-59.656,18.422-91.344,18.422
			s-62.422-6.188-91.344-18.422c-27.938-11.828-53.031-28.734-74.594-50.297s-38.469-46.656-50.297-74.594
			c-12.234-28.922-18.422-59.641-18.422-91.328c0,5.883,4.781,10.648,10.656,10.648c5.891,0,10.656-4.773,10.656-10.664
			S37.891,245.336,32,245.336c-5.875,0-10.656,4.766-10.656,10.648c0-31.688,6.188-62.406,18.422-91.32
			c11.828-27.945,28.734-53.039,50.297-74.602c21.562-21.555,46.656-38.477,74.594-50.297c28.922-12.234,59.656-18.43,91.344-18.43
			s62.422,6.195,91.344,18.43c27.938,11.82,53.031,28.742,74.594,50.297c21.562,21.562,38.469,46.656,50.281,74.602
			c12.25,28.914,18.438,59.648,18.438,91.336s-6.188,62.422-18.438,91.344C460.406,375.281,443.5,400.375,421.938,421.938z"/>
	</g>
</g>
<g>
	<g>
		<path d="M256,21.336c-5.891,0-10.656,4.773-10.656,10.664S250.11,42.664,256,42.664S266.656,37.891,266.656,32
			S261.891,21.336,256,21.336z"/>
	</g>
</g>
<g>
	<g>
		<path d="M256,469.344c-5.89,0-10.656,4.766-10.656,10.656s4.766,10.656,10.656,10.656s10.656-4.765,10.656-10.656
			S261.89,469.344,256,469.344z"/>
	</g>
</g>
<g>
	<g>
		<path d="M480,245.336c-5.906,0-10.656,4.773-10.656,10.664s4.75,10.664,10.656,10.664c5.875,0,10.656-4.773,10.656-10.664
			S485.875,245.336,480,245.336z"/>
	</g>
</g>
<g>
	<g>
		<path d="M455.313,358.764c-4.906-2.828-11.094-1.328-14.188,3.328c17.938-31.25,28.219-67.469,28.219-106.094
			s-10.281-74.852-28.219-106.102c3.094,4.659,9.281,6.174,14.187,3.346c5.125-2.953,6.844-9.477,3.906-14.578
			s-9.469-6.844-14.562-3.898c-4.969,2.859-6.75,9.102-4.125,14.141c-18.625-32.055-45.375-58.797-77.438-77.438
			c5.031,2.609,11.281,0.836,14.141-4.125c2.953-5.102,1.203-11.625-3.891-14.57c-5.109-2.945-11.641-1.195-14.578,3.906
			c-2.828,4.906-1.328,11.117,3.328,14.203C330.844,52.93,294.625,42.664,256,42.664s-74.859,10.273-106.109,28.227
			c4.672-3.094,6.172-9.305,3.344-14.211c-2.953-5.102-9.469-6.852-14.578-3.906c-5.094,2.945-6.844,9.469-3.906,14.57
			c2.875,4.961,9.125,6.742,14.156,4.117c-32.047,18.641-58.812,45.398-77.438,77.453c2.625-5.039,0.844-11.289-4.125-14.148
			c-5.094-2.945-11.625-1.203-14.562,3.898c-2.953,5.102-1.219,11.625,3.891,14.578c4.922,2.828,11.125,1.312,14.219-3.352
			C52.938,181.141,42.656,217.375,42.656,256s10.281,74.859,28.234,106.109c-3.094-4.672-9.297-6.172-14.203-3.344
			c-5.125,2.953-6.859,9.469-3.906,14.578c2.938,5.094,9.469,6.844,14.562,3.906c4.969-2.875,6.75-9.125,4.125-14.156
			c18.641,32.062,45.391,58.812,77.438,77.438c-5.031-2.625-11.281-0.844-14.156,4.125c-2.938,5.094-1.188,11.625,3.906,14.562
			c5.109,2.953,11.625,1.219,14.578-3.891c2.828-4.922,1.312-11.141-3.359-14.219c31.266,17.953,67.5,28.234,106.125,28.234
			s74.844-10.281,106.094-28.219c-4.656,3.094-6.156,9.281-3.344,14.188c2.969,5.125,9.484,6.859,14.594,3.906
			c5.094-2.938,6.844-9.469,3.891-14.562c-2.859-4.969-9.109-6.734-14.141-4.125c32.062-18.641,58.812-45.375,77.438-77.438
			c-2.625,5.031-0.844,11.281,4.125,14.156c5.094,2.938,11.625,1.188,14.562-3.906C462.188,368.233,460.438,361.717,455.313,358.764
			z M432.906,330.719c-9.656,22.875-23.5,43.406-41.141,61.047s-38.172,31.484-61.047,41.156C307.062,442.938,281.938,448,256,448
			s-51.062-5.062-74.719-15.078c-22.875-9.672-43.406-23.516-61.047-41.156s-31.484-38.172-41.156-61.047
			C69.062,307.062,64,281.938,64,256c0-25.93,5.062-51.07,15.078-74.727c9.672-22.859,23.516-43.398,41.156-61.039
			s38.172-31.484,61.047-41.156C204.938,69.07,230.062,64,256,64s51.062,5.07,74.719,15.078
			c22.875,9.672,43.406,23.516,61.047,41.156c17.641,17.64,31.484,38.18,41.141,61.039C442.938,204.93,448,230.07,448,256
			C448,281.938,442.938,307.062,432.906,330.719z"/>
	</g>
</g>
<g>
	<g>
		<path d="M390.656,321.438l-55.984-32.344c4.297-10.172,6.672-21.352,6.672-33.094s-2.375-22.922-6.672-33.102l55.984-32.32v-0.008
			c5.094-2.945,6.844-9.469,3.906-14.57s-9.469-6.852-14.562-3.906l-56.016,32.336c-13.547-17.844-33.969-30.188-57.328-33.102
			v-64.664C266.656,100.773,261.891,96,256,96s-10.656,4.773-10.656,10.664v64.664c-23.359,2.914-43.781,15.258-57.328,33.102
			L132,172.094c-5.094-2.945-11.625-1.195-14.562,3.906c-2.937,5.101-1.203,11.625,3.906,14.57l55.984,32.328
			c-4.297,10.18-6.672,21.359-6.672,33.102s2.375,22.922,6.672,33.094l-55.984,32.344c-5.109,2.938-6.844,9.469-3.906,14.562
			c2.938,5.093,9.469,6.844,14.562,3.906l56-32.344c13.562,17.844,33.984,30.188,57.344,33.109v64.672
			c0,5.875,4.766,10.656,10.656,10.656s10.656-4.781,10.656-10.656v-64.672c23.359-2.922,43.781-15.266,57.328-33.109l56,32.344
			c0.016,0,0.016,0,0.016,0c5.094,2.938,11.625,1.188,14.562-3.906S395.75,324.375,390.656,321.438z M256,320
			c-35.281,0-64-28.719-64-64c0-35.289,28.719-64,64-64s64,28.711,64,64C320,291.281,291.281,320,256,320z"/>
	</g>
</g>
<g>
	<g>
		<path d="M256,245.336c-5.891,0-10.656,4.773-10.656,10.664s4.766,10.664,10.656,10.664s10.656-4.773,10.656-10.664
			S261.891,245.336,256,245.336z"/>
	</g>
</g>
<g>
</g>
<g>
</g>
<g>
</g>
<g>
</g>
<g>
</g>
<g>
</g>
<g>
</g>
<g>
</g>
<g>
</g>
<g>
</g>
<g>
</g>
<g>
</g>
<g>
</g>
<g>
</g>
<g>
</g>
</svg>
