<?xml version="1.0" encoding="iso-8859-1"?>
<!-- Generator: Adobe Illustrator 19.0.0, SVG Export Plug-In . SVG Version: 6.00 Build 0)  -->
<svg version="1.1" id="Layer_1" xmlns="http://www.w3.org/2000/svg" xmlns:xlink="http://www.w3.org/1999/xlink" x="0px" y="0px"
	 viewBox="0 0 512 512" style="enable-background:new 0 0 512 512;" xml:space="preserve">
<circle id="background" style="fill:#334D5C;" cx="256" cy="256" r="256"/>
<path style="fill:#ECF0F0;" d="M390.578,186.999H123.067h-18.632v18.351v180.353v35.54c0,10.077,8.555,18.757,18.632,18.757h267.511
	c10.077,0,17.856-8.68,17.856-18.757v-35.54V205.35v-18.351L390.578,186.999L390.578,186.999z"/>
<rect x="104.435" y="186.999" style="fill:#D5D9D9;" width="304" height="9"/>
<path style="fill:#E24C3E;" d="M381.999,127.478H130.87c-14.54,0-26.435,12.369-26.435,27.484v2.29v2.291v27.484h26.435h251.129
	h26.436v-27.484v-2.291v-2.29C408.435,139.847,396.54,127.478,381.999,127.478z M190.01,148.347c0,6.176-5.005,11.184-11.178,11.184
	c-6.173,0-11.178-5.008-11.178-11.184c0-0.387,0.02-0.769,0.059-1.146c-0.039-0.376-0.059-0.758-0.059-1.145
	c0-6.176,5.004-11.183,11.178-11.183c6.173,0,11.178,5.007,11.178,11.183c0,0.387-0.02,0.77-0.058,1.145
	C189.99,147.578,190.01,147.96,190.01,148.347z M345.215,148.347c0,6.176-5.004,11.184-11.179,11.184
	c-6.172,0-11.176-5.008-11.176-11.184c0-0.387,0.02-0.769,0.059-1.146c-0.039-0.376-0.059-0.758-0.059-1.145
	c0-6.176,5.004-11.183,11.176-11.183c6.175,0,11.179,5.007,11.179,11.183c0,0.387-0.019,0.77-0.058,1.145
	C345.196,147.578,345.215,147.96,345.215,148.347z"/>
<path style="fill:#334D5C;" d="M244.63,309.643h-17.395v-35.267h59.176v115.173H244.63V309.643z"/>
<path style="fill:#334D5C;" d="M193.241,245.916l4.803-11.722c2.153,1.506,4.074,2.606,5.761,3.303
	c1.687,0.695,3.263,1.043,4.731,1.043c1.029,0,1.839-0.195,2.43-0.586c0.59-0.391,0.886-0.919,0.886-1.586
	c0-1.163-1.477-2.049-4.431-2.66c-0.954-0.209-1.697-0.37-2.23-0.485c-3.126-0.763-5.517-2.116-7.176-4.059
	c-1.659-1.944-2.488-4.365-2.488-7.261c0-4.498,1.611-8.157,4.832-10.979c3.221-2.82,7.442-4.23,12.665-4.23
	c2.401,0,4.765,0.315,7.09,0.943c2.325,0.63,4.669,1.583,7.032,2.859l-4.573,10.95c-1.449-1.067-2.902-1.883-4.361-2.445
	c-1.457-0.562-2.872-0.843-4.245-0.843c-1.048,0-1.858,0.176-2.43,0.529c-0.572,0.353-0.857,0.843-0.857,1.474
	c0,1.181,2.086,2.219,6.261,3.115c0.667,0.153,1.182,0.268,1.544,0.343c2.877,0.648,5.146,1.973,6.804,3.974
	c1.658,2.001,2.487,4.422,2.487,7.261c0,4.632-1.672,8.416-5.018,11.35c-3.344,2.937-7.695,4.404-13.051,4.404
	c-2.744,0-5.489-0.391-8.233-1.173C198.73,248.651,195.985,247.48,193.241,245.916z"/>
<path style="fill:#334D5C;" d="M232.35,230.335v-22.7h15.038v22.814c0,2.65,0.314,4.475,0.943,5.475
	c0.629,1.001,1.706,1.501,3.231,1.501c1.505,0,2.582-0.514,3.231-1.544c0.647-1.029,0.972-2.84,0.972-5.432v-22.814h15.038v22.7
	c0,2.974-0.195,5.422-0.586,7.348c-0.392,1.925-1.015,3.536-1.872,4.831c-1.678,2.611-3.965,4.612-6.861,6.003
	c-2.897,1.391-6.204,2.088-9.921,2.088c-3.736,0-7.053-0.697-9.949-2.088c-2.897-1.391-5.185-3.392-6.861-6.003
	c-0.84-1.277-1.449-2.868-1.831-4.774C232.541,235.834,232.35,233.365,232.35,230.335z"/>
<path style="fill:#334D5C;" d="M278.607,249.49v-41.855h14.752l13.009,21.9c-0.172-0.973-0.291-2.049-0.357-3.23
	c-0.067-1.183-0.101-2.727-0.101-4.632v-14.038h14.495v41.855h-14.867l-12.865-21.728c0.152,0.934,0.268,1.939,0.344,3.016
	c0.076,1.077,0.114,2.283,0.114,3.617v15.095L278.607,249.49L278.607,249.49z"/>
<rect x="104.435" y="173.999" style="fill:#B83E32;" width="304" height="13"/>
<path style="fill:#FF5646;" d="M382.016,127.478H131.15c-14.524,0-26.407,12.369-26.407,27.484v2.29v2.291v4.581
	c0-15.116,11.883-27.483,26.407-27.483h41.893c1.737-1.117,3.802-1.768,6.02-1.768c2.217,0,4.282,0.651,6.02,1.768h143.002
	c1.737-1.117,3.803-1.768,6.02-1.768c2.218,0,4.283,0.651,6.02,1.768h41.893c14.524,0,26.407,12.367,26.407,27.483v-4.581v-2.291
	v-2.29C408.423,139.847,396.54,127.478,382.016,127.478z"/>
<path style="fill:#B83E32;" d="M179.18,157.239c-5.789,0-10.552-4.399-11.125-10.038c-0.039,0.377-0.059,0.759-0.059,1.146
	c0,6.176,5.007,11.184,11.184,11.184c6.176,0,11.183-5.008,11.183-11.184c0-0.387-0.02-0.769-0.058-1.146
	C189.731,152.84,184.969,157.239,179.18,157.239z"/>
<path style="fill:#B83E32;" d="M334.465,157.239c-5.789,0-10.552-4.399-11.125-10.038c-0.038,0.377-0.058,0.759-0.058,1.146
	c0,6.176,5.007,11.184,11.183,11.184c6.177,0,11.184-5.008,11.184-11.184c0-0.387-0.019-0.769-0.058-1.146
	C345.018,152.84,340.255,157.239,334.465,157.239z"/>
<path style="fill:#ECF0F0;" d="M188.112,143.968c0-11.123,0-22.248,0-33.371c0-4.995-4.167-9.162-9.162-9.162
	c-4.994,0-9.162,4.167-9.162,9.162c0,11.123,0,22.248,0,33.371c0,4.994,4.168,9.162,9.162,9.162
	C183.945,153.13,188.112,148.962,188.112,143.968L188.112,143.968z"/>
<path style="fill:#ECF0F0;" d="M343.857,143.968c0-11.123,0-22.248,0-33.371c0-4.995-4.168-9.162-9.162-9.162
	s-9.161,4.167-9.161,9.162c0,11.123,0,22.248,0,33.371c0,4.994,4.167,9.162,9.161,9.162
	C339.688,153.13,343.857,148.962,343.857,143.968L343.857,143.968z"/>
<g>
</g>
<g>
</g>
<g>
</g>
<g>
</g>
<g>
</g>
<g>
</g>
<g>
</g>
<g>
</g>
<g>
</g>
<g>
</g>
<g>
</g>
<g>
</g>
<g>
</g>
<g>
</g>
<g>
</g>
</svg>
