<svg height="511pt" viewBox="-29 1 511 511.99998" width="511pt" xmlns="http://www.w3.org/2000/svg"><path d="m434.28125 51.613281c-131.046875 41.636719-262.09375-64.5-393.136719-7.363281l-20.324219 78.832031v116.320313l20.324219 104.757812c134.347657-58.574218 268.703125 54.457032 403.054688 3.925782 5.847656-2.199219 9.671875-7.851563 9.671875-14.101563 0-89.3125 0-178.625 0-267.933594 0-10.183593-9.886719-17.519531-19.589844-14.4375zm0 0" fill="#da5b65"/><g fill="#3a484a"><path d="m152.269531 211.203125c-4.269531 0-7.726562-3.457031-7.726562-7.726563v-17.234374c0-4.265626 3.457031-7.726563 7.726562-7.726563 4.265625 0 7.726563 3.460937 7.726563 7.726563v17.234374c0 4.269532-3.460938 7.726563-7.726563 7.726563zm0 0"/><path d="m342.746094 211.203125c-4.269532 0-7.726563-3.457031-7.726563-7.726563v-17.234374c0-4.265626 3.457031-7.726563 7.726563-7.726563 4.265625 0 7.726562 3.460937 7.726562 7.726563v17.234374c0 4.269532-3.460937 7.726563-7.726562 7.726563zm0 0"/><path d="m247.507812 220.40625c-11.394531 0-22.082031-4.753906-29.324218-13.042969-2.808594-3.214843-2.480469-8.09375.730468-10.902343 3.214844-2.808594 8.09375-2.480469 10.902344.730468 4.3125 4.933594 10.757813 7.761719 17.691406 7.761719 6.929688 0 13.375-2.828125 17.6875-7.761719 2.808594-3.210937 7.6875-3.539062 10.902344-.730468 3.210938 2.808593 3.542969 7.691406.730469 10.902343-7.242187 8.289063-17.929687 13.042969-29.320313 13.042969zm0 0"/></g><path d="m29.835938 0h-18.03125c-6.242188 0-11.304688 5.0625-11.304688 11.304688v500.695312h40.644531v-500.695312c0-6.242188-5.0625-11.304688-11.308593-11.304688zm0 0" fill="#465059"/><path d="m41.140625 114.457031c-13.207031-4.292969-27.433594-4.292969-40.640625 0 0-12.132812 0-24.265625 0-36.398437 13.207031-4.289063 27.433594-4.289063 40.640625 0zm0 0" fill="#c0344a"/><path d="m41.140625 302.003906c-13.207031-4.289062-27.433594-4.289062-40.640625 0 0-12.132812 0-24.261718 0-36.394531 13.207031-4.292969 27.433594-4.292969 40.640625 0zm0 0" fill="#c0344a"/></svg>