<?xml version="1.0" encoding="iso-8859-1"?>
<!-- Generator: Adobe Illustrator 19.0.0, SVG Export Plug-In . SVG Version: 6.00 Build 0)  -->
<svg version="1.1" id="Layer_1" xmlns="http://www.w3.org/2000/svg" xmlns:xlink="http://www.w3.org/1999/xlink" x="0px" y="0px"
	 viewBox="0 0 512 512" style="enable-background:new 0 0 512 512;" xml:space="preserve">
<g>
	<circle style="fill:#2C5871;" cx="256" cy="256" r="256"/>
	<path style="fill:#133142;" d="M511.324,273.684C510.699,273.679,390.2,153.539,390.2,152.54H140.692
		c0,10.752-8.714,19.466-19.466,19.466v18.79l-0.538-0.133l-29.138,80.973c1.198,0.43,2.314,0.983,3.369,1.613l-0.466,1.295
		c1.198,0.43,2.314,0.983,3.369,1.613l-0.466,1.295c1.198,0.43,2.314,0.983,3.369,1.613l-0.466,1.295
		c0.758,0.271,1.434,0.666,2.135,1.019c2.248,4.572,2.739,9.999,0.876,15.171c0,0,209.372,208.584,209.178,209.137
		C421.094,481.208,503.537,387.732,511.324,273.684z"/>
	<path style="fill:#D7ECED;" d="M103.281,296.54l234.767,84.475c3.64-10.117,14.792-15.365,24.909-11.725l29.138-80.973
		c-10.117-3.64-15.365-14.792-11.725-24.904l-234.772-84.475c-3.64,10.117-14.792,15.365-24.909,11.725l-29.138,80.973
		C101.673,275.272,106.921,286.423,103.281,296.54z M332.365,255.585l-4.925-1.772l1.771-4.925l4.925,1.772L332.365,255.585z
		 M328.822,265.436l-4.925-1.772l1.772-4.925l4.925,1.772L328.822,265.436z M325.274,275.292l-4.925-1.772l1.772-4.925l4.925,1.772
		L325.274,275.292z M321.731,285.143l-4.925-1.772l1.772-4.925l4.925,1.772L321.731,285.143z M290.217,357.258l4.925,1.772
		l-1.772,4.925l-4.925-1.772L290.217,357.258z M293.76,347.407l4.925,1.772l-1.772,4.925l-4.925-1.772L293.76,347.407z
		 M297.308,337.556l4.925,1.772l-1.772,4.925l-4.925-1.772L297.308,337.556z M300.851,327.706l4.925,1.772l-1.772,4.925
		l-4.925-1.772L300.851,327.706z M295.035,296.545c3.384-9.4,13.747-14.28,23.148-10.895c9.4,3.384,14.28,13.747,10.895,23.148
		c-3.016,8.381-11.576,13.128-20.06,11.668l-1.469,4.086l-4.925-1.772l1.434-3.983C295.936,314.767,291.891,305.28,295.035,296.545z
		"/>
	<path style="fill:#E64500;" d="M145.597,178.939l146.534,52.726l-42.317,117.601L103.281,296.54
		c3.64-10.117-1.608-21.268-11.725-24.909l29.138-80.973C130.806,194.299,141.957,189.051,145.597,178.939z"/>
	<path style="fill:#FFFFFF;" d="M121.226,172.006v86.057c10.752,0,19.466,8.714,19.466,19.466H390.2
		c0-10.752,8.714-19.466,19.466-19.466v-86.057c-10.752,0-19.466-8.714-19.466-19.466H140.692
		C140.692,163.292,131.978,172.006,121.226,172.006z M342.385,273.874h-5.238v-5.238h5.238V273.874z M342.385,263.404h-5.238v-5.233
		h5.238V263.404z M342.385,252.933h-5.238V247.7h5.238V252.933z M342.385,242.463h-5.238v-5.233h5.238V242.463z M337.147,153.462
		h5.238v5.233h-5.238V153.462z M337.147,163.932h5.238v5.233h-5.238V163.932z M337.147,174.403h5.238v5.238h-5.238V174.403z
		 M337.147,184.873h5.238v5.238h-5.238V184.873z M337.147,199.578v-4.234h5.238v4.342c8.474,1.5,14.925,8.863,14.925,17.772
		c0,9.989-8.1,18.089-18.089,18.089c-9.994,0-18.089-8.1-18.089-18.089C321.126,208.179,328.141,200.617,337.147,199.578z"/>
	<path style="fill:#FC611F;" d="M140.692,277.524h155.73V152.54h-155.73c0,10.752-8.714,19.466-19.466,19.466v86.057
		C131.978,258.063,140.692,266.778,140.692,277.524z"/>
</g>
<g>
</g>
<g>
</g>
<g>
</g>
<g>
</g>
<g>
</g>
<g>
</g>
<g>
</g>
<g>
</g>
<g>
</g>
<g>
</g>
<g>
</g>
<g>
</g>
<g>
</g>
<g>
</g>
<g>
</g>
</svg>
