<?xml version="1.0" encoding="iso-8859-1"?>
<!-- Generator: Adobe Illustrator 19.0.0, SVG Export Plug-In . SVG Version: 6.00 Build 0)  -->
<svg version="1.1" id="Capa_1" xmlns="http://www.w3.org/2000/svg" xmlns:xlink="http://www.w3.org/1999/xlink" x="0px" y="0px"
	 viewBox="0 0 511.999 511.999" style="enable-background:new 0 0 511.999 511.999;" xml:space="preserve">
<g>
	<g>
		<path d="M412.043,207.299C407.122,139.585,350.432,86,281.456,86c-69.016,0-125.732,53.657-130.597,121.425
			c-42.173,4.809-75.044,40.702-75.044,84.124c0,5.023,0.438,9.998,1.309,14.891H59.802C26.827,306.439,0,333.255,0,366.22
			c0,32.962,26.827,59.779,59.802,59.779l342.376-0.001l0.142,0.001c0.024,0,0.047,0,0.071,0
			c60.438,0,109.608-49.149,109.608-109.561C511.999,259.279,467.977,212.202,412.043,207.299z M402.423,405.999l-342.622-0.001
			C37.855,405.999,20,388.154,20,366.216c0-21.933,17.855-39.777,39.802-39.777h30.27c3.247,0,6.291-1.576,8.165-4.227
			c1.875-2.65,2.345-6.046,1.263-9.107c-2.444-6.912-3.684-14.165-3.684-21.557c0-35.66,29.027-64.671,64.706-64.671
			c5.523,0,10-4.477,10-10c0-61.138,49.765-110.878,110.934-110.878s110.935,49.74,110.935,110.878c0,5.523,4.477,10,10,10
			c49.41,0,89.608,40.177,89.608,89.562C491.999,365.811,451.817,405.98,402.423,405.999z"/>
	</g>
</g>
<g>
	<g>
		<path d="M263.588,129.217c-1.697-5.255-7.332-8.142-12.589-6.442c-20.129,6.501-37.984,19.617-50.277,36.929
			c-3.198,4.503-2.139,10.746,2.364,13.943c1.757,1.248,3.778,1.847,5.781,1.847c3.13,0,6.212-1.465,8.163-4.211
			c9.814-13.823,24.062-24.291,40.117-29.477C262.401,140.109,265.286,134.472,263.588,129.217z"/>
	</g>
</g>
<g>
	<g>
		<path d="M198.724,182.691c-5.308-1.524-10.847,1.541-12.372,6.849l-0.175,0.621c-1.465,5.325,1.665,10.83,6.989,12.294
			c0.888,0.244,1.78,0.361,2.658,0.361c4.389,0,8.415-2.913,9.636-7.35l0.114-0.402
			C207.098,189.756,204.032,184.217,198.724,182.691z"/>
	</g>
</g>
<g>
	<g>
		<path d="M308.317,294.332c9.527-7.939,15.226-19.837,15.226-32.452c0-23.247-18.88-42.159-42.087-42.159
			c-23.206,0-42.087,18.913-42.087,42.159c0,12.614,5.699,24.514,15.227,32.452l-7.09,46.439c-0.44,2.882,0.4,5.813,2.299,8.025
			c1.9,2.212,4.67,3.484,7.586,3.484h48.132c0.007,0,0.013,0,0.02,0c5.523,0,10-4.477,10-10c0-0.742-0.081-1.465-0.234-2.16
			L308.317,294.332z M292.484,281.085c-3.559,2.063-5.491,6.095-4.87,10.161l6.266,41.034h-24.846l6.265-41.034
			c0.621-4.066-1.312-8.098-4.87-10.161c-6.821-3.955-11.059-11.313-11.059-19.205c0-12.219,9.908-22.159,22.087-22.159
			s22.087,9.94,22.087,22.159C303.543,269.772,299.305,277.13,292.484,281.085z"/>
	</g>
</g>
<g>
</g>
<g>
</g>
<g>
</g>
<g>
</g>
<g>
</g>
<g>
</g>
<g>
</g>
<g>
</g>
<g>
</g>
<g>
</g>
<g>
</g>
<g>
</g>
<g>
</g>
<g>
</g>
<g>
</g>
</svg>
