<svg height="512pt" viewBox="-102 0 512 512.00195" width="512pt" xmlns="http://www.w3.org/2000/svg"><path d="m106.164062 369.851562 16.640626 130.785157c.828124 6.496093 6.351562 11.367187 12.902343 11.367187h36.976563c6.546875 0 12.074218-4.871094 12.898437-11.367187l16.640625-130.785157zm0 0" fill="#efedee"/><path d="m153.710938 500.636719-16.640626-130.785157h-30.90625l16.640626 130.785157c.828124 6.496093 6.351562 11.363281 12.902343 11.363281h30.902344c-6.546875 0-12.074219-4.867188-12.898437-11.363281zm0 0" fill="#d4d2d3"/><path d="m14.132812 268.003906s3.964844 115.273438 136.546876 115.273438c132.582031 0 143.574218-115.273438 143.574218-115.273438l-140.058594-27.574218zm0 0" fill="#d4d2d3"/><path d="m45.039062 268.003906 124.609376-24.53125-15.453126-3.042968-140.0625 27.574218s3.960938 115.273438 136.546876 115.273438c5.359374 0 10.5-.207032 15.46875-.570313-117.441407-8.582031-121.109376-114.703125-121.109376-114.703125zm0 0" fill="#bab8b9"/><g fill="#3a484a"><path d="m86.96875 328.609375c-4.269531 0-7.726562-3.457031-7.726562-7.722656v-12.167969c0-4.269531 3.457031-7.726562 7.726562-7.726562 4.265625 0 7.722656 3.457031 7.722656 7.726562v12.167969c0 4.265625-3.457031 7.722656-7.722656 7.722656zm0 0"/><path d="m221.421875 328.609375c-4.265625 0-7.726563-3.457031-7.726563-7.722656v-12.167969c0-4.269531 3.460938-7.726562 7.726563-7.726562s7.726563 3.457031 7.726563 7.726562v12.167969c0 4.265625-3.460938 7.722656-7.726563 7.722656zm0 0"/><path d="m154.195312 335.105469c-8.699218 0-16.867187-3.636719-22.410156-9.984375-2.808594-3.210938-2.480468-8.09375.730469-10.902344 3.214844-2.804688 8.09375-2.480469 10.902344.734375 2.613281 2.988281 6.539062 4.699219 10.777343 4.699219 4.234376 0 8.164063-1.710938 10.773438-4.699219 2.808594-3.214844 7.691406-3.539063 10.902344-.734375 3.214844 2.808594 3.542968 7.691406.734375 10.902344-5.546875 6.347656-13.714844 9.984375-22.410157 9.984375zm0 0"/></g><path d="m294.253906 212.851562s5.738282-68.875-58.496094-143.863281c-3.101562-3.617187-8.992187-2.085937-9.90625 2.585938-2.628906 13.367187-9.285156 35.355469-25.882812 51.5 0 0 0-37.859375-23.058594-66.769531-13.050781-16.363282-11.332031-35.480469-7.378906-48.992188 1.171875-4-2.167969-7.878906-6.285156-7.2421875-17.09375 2.6406255-53.132813 13.4257815-63.261719 57.4374995-6.855469 36.738282-39.234375 40.269532-44.96875-2.425781-.617187-4.570312-6.242187-6.402343-9.566406-3.210937-14.542969 13.972656-54.710938 45.796875-31.3125 160.980468l140.058593 27.578126zm0 0" fill="#ffcd38"/><path d="m227.355469 147.492188c-2.277344-2.152344-5.949219-1.570313-7.5 1.152343-4.800781 8.429688-17.222657 22.222657-42.945313 7.472657-26.46875-15.183594-28.582031-37.113282-28.019531-46.984376.167969-2.945312-2.289063-5.332031-5.230469-5.113281-32.886718 2.453125-20.378906 42.992188-47.289062 55.710938-19.765625 9.34375-30.023438-5.828125-34.433594-15.914063-1.5-3.425781-6.199219-3.875-8.355469-.816406-24.375 34.585938-2.640625 69.851562-2.640625 69.851562l103.253906 27.578126 88.28125-27.578126c15.152344-31.539062-5.109374-55.898437-15.121093-65.359374zm0 0" fill="#da5b65"/><path d="m294.253906 212.851562h-280.121094c-7.804687 0-14.132812 6.328126-14.132812 14.132813v26.886719c0 7.808594 6.328125 14.132812 14.132812 14.132812h280.121094c7.804688 0 14.132813-6.324218 14.132813-14.132812v-26.886719c0-7.804687-6.328125-14.132813-14.132813-14.132813zm0 0" fill="#efedee"/><path d="m30.90625 253.871094v-26.886719c0-7.804687 6.328125-14.132813 14.132812-14.132813h-30.90625c-7.804687 0-14.132812 6.328126-14.132812 14.132813v26.886719c0 7.808594 6.328125 14.132812 14.132812 14.132812h30.90625c-7.804687 0-14.132812-6.324218-14.132812-14.132812zm0 0" fill="#d4d2d3"/></svg>