<?xml version="1.0" encoding="iso-8859-1"?>
<!-- Generator: Adobe Illustrator 19.0.0, SVG Export Plug-In . SVG Version: 6.00 Build 0)  -->
<svg version="1.1" id="Capa_1" xmlns="http://www.w3.org/2000/svg" xmlns:xlink="http://www.w3.org/1999/xlink" x="0px" y="0px"
	 viewBox="0 0 512 512" style="enable-background:new 0 0 512 512;" xml:space="preserve">
<circle style="fill:#B8C8D9;" cx="250.435" cy="256" r="16.696"/>
<path style="fill:#3199FF;" d="M461.913,38.957H116.87c-27.618,0-50.087,22.469-50.087,50.087v16.696H16.696
	C7.475,105.739,0,113.214,0,122.435v100.174c0,9.22,7.475,16.696,16.696,16.696h50.087v33.391H16.696
	C7.475,272.696,0,280.171,0,289.391v100.174c0,9.22,7.475,16.696,16.696,16.696h50.087v16.696c0,27.618,22.469,50.087,50.087,50.087
	h345.043c27.618,0,50.087-22.469,50.087-50.087V89.043C512,61.426,489.531,38.957,461.913,38.957z M33.391,205.913V139.13h33.391
	v66.783H33.391z M33.391,372.87v-66.783h33.391v66.783H33.391z M478.609,422.957c0,9.206-7.49,16.696-16.696,16.696H116.87
	c-9.206,0-16.696-7.49-16.696-16.696v-33.391V289.391v-66.783V122.435V89.043c0-9.206,7.49-16.696,16.696-16.696h345.043
	c9.206,0,16.696,7.49,16.696,16.696V422.957z"/>
<g>
	<path style="fill:#B8C8D9;" d="M320.047,302.002c8.752-13.201,13.866-29.013,13.866-46.002s-5.114-32.801-13.866-46.002
		l42.367-42.367c6.52-6.519,6.52-17.091,0-23.611c-6.52-6.52-17.091-6.52-23.611,0l-42.367,42.367
		c-13.2-8.752-29.011-13.865-46.001-13.865s-32.801,5.113-46.001,13.866l-42.367-42.367c-6.519-6.519-17.091-6.519-23.611,0
		c-6.52,6.519-6.52,17.091,0,23.611l42.367,42.367c-8.752,13.2-13.866,29.011-13.866,46.001s5.114,32.801,13.866,46.002
		l-42.367,42.367c-6.52,6.519-6.52,17.091,0,23.611c3.26,3.261,7.532,4.891,11.805,4.891c4.272,0,8.546-1.631,11.805-4.891
		l42.367-42.367c13.201,8.752,29.013,13.865,46.002,13.865s32.801-5.113,46.001-13.866l42.367,42.367
		c3.26,3.26,7.533,4.891,11.806,4.891c4.273,0,8.546-1.631,11.805-4.891c6.52-6.519,6.52-17.091,0-23.611L320.047,302.002z
		 M200.348,256c0-27.618,22.469-50.087,50.087-50.087s50.087,22.469,50.087,50.087s-22.469,50.087-50.087,50.087
		S200.348,283.618,200.348,256z"/>
	<path style="fill:#B8C8D9;" d="M428.522,339.478c-9.22,0-16.696-7.475-16.696-16.696V189.217c0-9.22,7.475-16.696,16.696-16.696
		c9.22,0,16.696,7.475,16.696,16.696v133.565C445.217,332.003,437.742,339.478,428.522,339.478z"/>
</g>
<g>
</g>
<g>
</g>
<g>
</g>
<g>
</g>
<g>
</g>
<g>
</g>
<g>
</g>
<g>
</g>
<g>
</g>
<g>
</g>
<g>
</g>
<g>
</g>
<g>
</g>
<g>
</g>
<g>
</g>
</svg>
