<?xml version="1.0" encoding="iso-8859-1"?>
<!-- Generator: Adobe Illustrator 19.0.0, SVG Export Plug-In . SVG Version: 6.00 Build 0)  -->
<svg version="1.1" id="Layer_1" xmlns="http://www.w3.org/2000/svg" xmlns:xlink="http://www.w3.org/1999/xlink" x="0px" y="0px"
	 viewBox="0 0 512 512" style="enable-background:new 0 0 512 512;" xml:space="preserve">
<radialGradient id="SVGID_1_" cx="256" cy="258" r="256" gradientTransform="matrix(1 0 0 -1 0 514)" gradientUnits="userSpaceOnUse">
	<stop  offset="0" style="stop-color:#9C56B8"/>
	<stop  offset="1" style="stop-color:#8F3FAF"/>
</radialGradient>
<circle style="fill:url(#SVGID_1_);" cx="256" cy="256" r="256"/>
<g>
	<path style="fill:#BDC3C7;" d="M265,363c-4.971,0-9-4.029-9-9v-61.659L81.627,244.656c-3.913-1.07-6.627-4.625-6.627-8.682V150
		c0-4.971,4.529-9,9.5-9h343c4.971,0,9,4.029,9,9s-4.029,9-9,9H93v70.105l174.375,47.685c3.91,1.07,6.625,4.625,6.625,8.682V354
		C274,358.971,269.971,363,265,363z"/>
</g>
<rect x="98" y="141" style="fill:#94A5A6;" width="31" height="18"/>
<path style="fill:#F89B36;" d="M336.99,162.5c-27.75,0-27.75-20-55.5-20c-27.748,0-27.748,20-55.496,20s-27.748-20-55.497-20
	c-27.75,0-28,20-55.75,20c-2.759,0-4.747-0.205-7.747-0.561V164c0,16.5,14,30,30.5,30h258c16.5,0,29.5-13.5,29.5-30v-7.865
	c-9-5.855-15.448-13.635-32.758-13.635C364.491,142.5,364.741,162.5,336.99,162.5z"/>
<path style="fill:#F4C342;" d="M395.5,104h-258c-16.5,0-30.5,13.5-30.5,30v27.939c3,0.355,4.988,0.561,7.747,0.561
	c27.75,0,27.875-20,55.625-20c27.749,0,27.812,20,55.56,20s27.779-20,55.527-20c27.75,0,27.766,20,55.516,20
	c27.751,0,27.508-20,55.26-20c17.31,0,23.766,7.779,32.766,13.635V134C425,117.5,412,104,395.5,104z"/>
<rect x="256" y="304" style="fill:#94A5A6;" width="18" height="34"/>
<path style="fill:#32495D;" d="M276.5,317H266h-9.5c-5.5,0-10.5,4.5-10.5,10v113c0,5.5,5,10,10.5,10h9.5h10.5c5.5,0,9.5-4.5,9.5-10
	V327C286,321.5,282,317,276.5,317z"/>
<path style="fill:#2A3E4F;" d="M276.5,317H266v133h10.5c5.5,0,9.5-4.5,9.5-10V327C286,321.5,282,317,276.5,317z"/>
<g>
</g>
<g>
</g>
<g>
</g>
<g>
</g>
<g>
</g>
<g>
</g>
<g>
</g>
<g>
</g>
<g>
</g>
<g>
</g>
<g>
</g>
<g>
</g>
<g>
</g>
<g>
</g>
<g>
</g>
</svg>
