<?xml version="1.0" encoding="iso-8859-1"?>
<!-- Generator: Adobe Illustrator 19.0.0, SVG Export Plug-In . SVG Version: 6.00 Build 0)  -->
<svg version="1.1" id="Layer_1" xmlns="http://www.w3.org/2000/svg" xmlns:xlink="http://www.w3.org/1999/xlink" x="0px" y="0px"
	 viewBox="0 0 512.001 512.001" style="enable-background:new 0 0 512.001 512.001;" xml:space="preserve">
<path style="fill:#D1BE6F;" d="M461.474,0.541c-0.286-0.018-0.571-0.018-0.857,0c-28.333,1.621-50.526,25.138-50.526,53.579
	c0,4.144,3.359,7.502,7.502,7.502h86.905c4.065,0,7.375-3.233,7.499-7.269c0.003-0.093,0.005-0.188,0.005-0.275
	C512,25.679,489.806,2.162,461.474,0.541z"/>
<path style="fill:#FFEB99;" d="M426.077,48.974c0-23.093,15.598-42.531,36.83-48.387c-0.144-0.017-0.286-0.038-0.432-0.046
	c-1.131-0.065-2.147-0.097-3.107-0.097H109.29c-16.87,0-32.728,6.568-44.655,18.497c-11.928,11.93-18.494,27.788-18.49,44.658
	l0.012,52.381c0,2.654,1.404,5.11,3.691,6.459l26.34,15.535l-26.332,15.531c-2.288,1.349-3.691,3.808-3.69,6.463l0.006,31.292
	c0,2.655,1.404,5.111,3.691,6.46l26.325,15.526l-26.319,15.524c-2.288,1.349-3.691,3.807-3.69,6.462
	c0.006,40.578,0.011,81.883,0.012,119.518c-0.031,0.275-0.046,0.556-0.046,0.839v102.332c0,4.144,3.359,7.502,7.502,7.502h265.947
	c3.659,26.035,26.082,46.131,53.11,46.131h0.148c29.358,0,53.242-23.884,53.242-53.242V348.097c0-2.655-1.403-5.112-3.691-6.461
	l-26.353-15.543l26.353-15.543c2.287-1.349,3.691-3.807,3.691-6.461V54.078c0-0.749,0.028-1.491,0.07-2.229
	C426.11,50.896,426.077,49.939,426.077,48.974z"/>
<path style="fill:#E8D68B;" d="M462.907,0.587c-0.144-0.017-0.286-0.038-0.432-0.046c-1.131-0.065-2.147-0.097-3.107-0.097h-38.016
	c0.96,0,1.976,0.031,3.108,0.097c0.146,0.008,0.289,0.029,0.432,0.046c-21.232,5.855-36.83,25.294-36.83,48.387
	c0,0.965,0.034,1.921,0.087,2.874c-0.042,0.739-0.07,1.481-0.07,2.229v250.009c0,2.655-1.403,5.112-3.69,6.461l-26.353,15.543
	l26.353,15.543c2.287,1.349,3.69,3.807,3.69,6.461v110.218c0,22.708-14.295,42.131-34.355,49.769
	c5.903,2.241,12.3,3.473,18.98,3.473h0.148c29.358,0,53.242-23.884,53.242-53.242V348.097c0-2.655-1.403-5.112-3.691-6.461
	l-26.353-15.543l26.353-15.543c2.287-1.349,3.691-3.807,3.691-6.461V54.078c0-0.749,0.028-1.491,0.07-2.229
	c-0.054-0.951-0.087-1.908-0.087-2.874C426.077,25.881,441.676,6.442,462.907,0.587z"/>
<g>
	<path style="fill:#FFA304;" d="M186.285,143.66h-53.702c-4.143,0-7.502-3.358-7.502-7.502V82.457c0-4.144,3.359-7.502,7.502-7.502
		h53.702c4.143,0,7.502,3.358,7.502,7.502v53.701C193.787,140.302,190.428,143.66,186.285,143.66z M140.085,128.656h38.699V89.959
		h-38.699V128.656z"/>
	<path style="fill:#FFA304;" d="M234.637,432.1c-4.143,0-7.502-3.358-7.502-7.502V54.12c0-4.144,3.359-7.502,7.502-7.502
		s7.502,3.358,7.502,7.502V424.6C242.138,428.743,238.78,432.1,234.637,432.1z"/>
	<path style="fill:#FFA304;" d="M159.434,221.728c-21.749,0-39.444-17.694-39.444-39.444c0-4.144,3.359-7.502,7.502-7.502h63.883
		c4.143,0,7.502,3.358,7.502,7.502C198.877,204.034,181.183,221.728,159.434,221.728z M136.172,189.786
		c3.173,9.818,12.402,16.939,23.262,16.939s20.089-7.121,23.262-16.939H136.172z"/>
	<path style="fill:#FFA304;" d="M186.285,316.76h-26.851c-4.143,0-7.502-3.359-7.502-7.502v-26.851c0-4.144,3.359-7.502,7.502-7.502
		s7.502,3.358,7.502,7.502v19.349h11.848v-38.699h-38.699v46.2c0,4.143-3.359,7.502-7.502,7.502s-7.502-3.359-7.502-7.502v-53.702
		c0-4.144,3.359-7.502,7.502-7.502h53.702c4.143,0,7.502,3.358,7.502,7.502v53.702C193.787,313.401,190.428,316.76,186.285,316.76z"
		/>
	<path style="fill:#FFA304;" d="M175.405,398.045L175.405,398.045c-3.013,0-5.733-1.802-6.908-4.577l-9.063-21.404l-9.063,21.404
		c-1.174,2.775-3.895,4.577-6.908,4.577c-3.013,0-5.733-1.802-6.908-4.577l-15.971-37.72c-1.615-3.814,0.168-8.217,3.983-9.832
		c3.816-1.616,8.217,0.168,9.833,3.983l9.063,21.404l9.063-21.404c1.174-2.775,3.895-4.577,6.908-4.577s5.733,1.802,6.908,4.577
		l9.063,21.404l9.063-21.404c1.614-3.815,6.018-5.599,9.833-3.983c3.815,1.615,5.598,6.018,3.983,9.832l-15.971,37.72
		C181.138,396.243,178.416,398.045,175.405,398.045z"/>
	<path style="fill:#FFA304;" d="M334.673,406.037h-53.701c-4.143,0-7.502-3.358-7.502-7.502v-53.702
		c0-4.144,3.359-7.502,7.502-7.502h53.701c4.143,0,7.502,3.358,7.502,7.502v53.702C342.175,402.678,338.816,406.037,334.673,406.037
		z M288.474,391.033h38.698v-38.699h-38.698V391.033z"/>
	<path style="fill:#FFA304;" d="M339.764,304.61h-63.883c-4.143,0-7.502-3.359-7.502-7.502c0-21.749,17.694-39.444,39.444-39.444
		c21.749,0,39.444,17.694,39.444,39.444C347.266,301.253,343.907,304.61,339.764,304.61z M284.56,289.607h46.525
		c-3.173-9.817-12.402-16.939-23.262-16.939C296.963,272.668,287.733,279.79,284.56,289.607z"/>
	<path style="fill:#FFA304;" d="M334.673,227.207h-53.701c-4.143,0-7.502-3.358-7.502-7.502v-53.701
		c0-4.144,3.359-7.502,7.502-7.502h26.851c4.143,0,7.502,3.358,7.502,7.502v26.851c0,4.144-3.359,7.502-7.502,7.502
		s-7.502-3.358-7.502-7.502v-19.349h-11.848v38.698h38.698v-46.199c0-4.144,3.359-7.502,7.502-7.502s7.502,3.358,7.502,7.502v53.701
		C342.175,223.848,338.816,227.207,334.673,227.207z"/>
	<path style="fill:#FFA304;" d="M323.793,127.678c-3.013,0-5.733-1.802-6.908-4.577l-9.063-21.404l-9.063,21.404
		c-1.174,2.776-3.895,4.577-6.908,4.577s-5.733-1.802-6.908-4.577l-15.971-37.719c-1.615-3.814,0.167-8.217,3.983-9.832
		c3.814-1.615,8.218,0.167,9.833,3.983l9.063,21.404l9.063-21.404c1.174-2.775,3.895-4.577,6.908-4.577
		c3.013,0,5.733,1.802,6.908,4.577l9.063,21.404l9.063-21.404c1.615-3.815,6.018-5.598,9.832-3.983
		c3.816,1.615,5.598,6.018,3.983,9.832l-15.971,37.719C329.527,125.876,326.806,127.678,323.793,127.678z"/>
</g>
<path style="fill:#D1BE6F;" d="M324.547,461.356c0-3.757,0.426-7.412,1.208-10.933H7.502c-4.143,0-7.502,3.358-7.502,7.502
	c0,29.573,24.059,53.633,53.633,53.633h319.07c0.23,0,0.457-0.014,0.683-0.034C346.292,510.799,324.547,488.625,324.547,461.356z"/>
<g>
</g>
<g>
</g>
<g>
</g>
<g>
</g>
<g>
</g>
<g>
</g>
<g>
</g>
<g>
</g>
<g>
</g>
<g>
</g>
<g>
</g>
<g>
</g>
<g>
</g>
<g>
</g>
<g>
</g>
</svg>
