<svg height="511pt" viewBox="-27 1 511 511.99997" width="511pt" xmlns="http://www.w3.org/2000/svg"><path d="m91.84375 0h275.125v109.929688h-275.125zm0 0" fill="#c0344a"/><path d="m91.84375 0-81.976562 57.527344c-9.9492192 6.980468-12.355469 20.707031-5.371094 30.65625l175.808594 250.535156 99.992187-70.171875zm0 0" fill="#da5b65"/><path d="m137.230469 277.332031 65.273437 45.808594 77.792969-54.59375-69.769531-99.421875-74.617188 106.332031zm0 0" fill="#c0344a"/><path d="m448.945312 57.527344-81.976562-57.527344-188.453125 268.546875 99.992187 70.171875 175.808594-250.535156c6.980469-9.949219 4.578125-23.675782-5.371094-30.65625zm0 0" fill="#da5b65"/><path d="m375.867188 365.539062c0 80.886719-65.574219 146.460938-146.460938 146.460938s-146.460938-65.574219-146.460938-146.460938c0-80.886718 65.574219-146.460937 146.460938-146.460937s146.460938 65.574219 146.460938 146.460937zm0 0" fill="#ffcd38"/><path d="m333.589844 365.539062c0 57.539063-46.644532 104.183594-104.183594 104.183594s-104.183594-46.644531-104.183594-104.183594c0-57.539062 46.644532-104.183593 104.183594-104.183593s104.183594 46.644531 104.183594 104.183593zm0 0" fill="#e7b835"/><g fill="#3a484a"><path d="m291.964844 375.90625c-4.269532 0-7.726563-3.460938-7.726563-7.726562v-11.324219c0-4.265625 3.457031-7.726563 7.726563-7.726563 4.269531 0 7.726562 3.460938 7.726562 7.726563v11.324219c0 4.265624-3.460937 7.726562-7.726562 7.726562zm0 0"/><path d="m166.847656 375.90625c-4.269531 0-7.726562-3.460938-7.726562-7.726562v-11.324219c0-4.265625 3.457031-7.726563 7.726562-7.726563 4.269532 0 7.726563 3.460938 7.726563 7.726563v11.324219c0 4.265624-3.457031 7.726562-7.726563 7.726562zm0 0"/><path d="m229.40625 381.949219c-8.246094 0-15.996094-3.453125-21.257812-9.472657-2.808594-3.214843-2.480469-8.09375.730468-10.902343 3.210938-2.808594 8.09375-2.480469 10.902344.730469 2.328125 2.664062 5.835938 4.191406 9.625 4.191406s7.296875-1.527344 9.625-4.191406c2.804688-3.214844 7.6875-3.539063 10.898438-.730469 3.214843 2.808593 3.542968 7.6875.734374 10.902343-5.261718 6.019532-13.011718 9.472657-21.257812 9.472657zm0 0"/></g></svg>