<svg height="511.9993pt" viewBox="1 1 511.9993 511.9993" width="511.9993pt" xmlns="http://www.w3.org/2000/svg"><path d="m273.066406 102.398438c0 37.703124-30.5625 68.269531-68.265625 68.269531s-68.265625-30.566407-68.265625-68.269531c0-37.699219 30.5625-68.265626 68.265625-68.265626s68.265625 30.566407 68.265625 68.265626zm0 0" fill="#78b9eb"/><path d="m494.933594 315.734375h-375.46875c-4.710938 0-8.53125 3.820313-8.53125 8.53125v170.667969c0 4.710937 3.820312 8.535156 8.53125 8.535156h375.46875c4.710937 0 8.53125-3.824219 8.53125-8.535156v-170.667969c0-4.710937-3.820313-8.53125-8.53125-8.53125zm-187.734375 162.132813c-37.703125 0-68.265625-30.566407-68.265625-68.265626 0-37.703124 30.5625-68.269531 68.265625-68.269531s68.265625 30.566407 68.265625 68.269531c0 37.699219-30.5625 68.265626-68.265625 68.265626zm0 0" fill="#78b9eb"/><g fill="#1e81ce"><path d="m204.800781 76.800781c4.710938 0 8.53125 3.820313 8.53125 8.53125h17.066407c-.042969-10.808593-6.875-20.425781-17.066407-24.027343v-10.105469h-17.066406v10.105469c-13.300781 4.683593-20.289063 19.269531-15.601563 32.574218 3.605469 10.234375 13.285157 17.074219 24.136719 17.054688 4.714844 0 8.535157 3.820312 8.535157 8.53125 0 4.714844-3.820313 8.535156-8.535157 8.535156-4.710937 0-8.535156-3.820312-8.535156-8.535156h-17.066406c.046875 10.8125 6.875 20.429687 17.066406 24.03125v10.105468h17.066406v-10.105468c13.304688-4.6875 20.292969-19.269532 15.605469-32.574219-3.605469-10.234375-13.285156-17.074219-24.136719-17.054687-4.714843 0-8.535156-3.820313-8.535156-8.535157 0-4.710937 3.820313-8.53125 8.535156-8.53125zm0 0"/><path d="m204.800781 25.601562c-42.417969 0-76.800781 34.382813-76.800781 76.796876 0 42.417968 34.382812 76.800781 76.800781 76.800781 42.414063 0 76.800781-34.382813 76.800781-76.800781-.046874-42.394532-34.40625-76.75-76.800781-76.796876zm0 136.53125c-32.992187 0-59.734375-26.742187-59.734375-59.734374 0-32.988282 26.742188-59.730469 59.734375-59.730469 32.988281 0 59.734375 26.742187 59.734375 59.730469-.039062 32.976562-26.761718 59.699218-59.734375 59.734374zm0 0"/><path d="m238.933594 93.867188h17.066406v17.066406h-17.066406zm0 0"/><path d="m153.601562 93.867188h17.066407v17.066406h-17.066407zm0 0"/><path d="m392.535156 204.800781c9.425782 0 17.066406-7.640625 17.066406-17.066406v-170.667969c0-9.425781-7.640624-17.066406-17.066406-17.066406h-375.46875c-9.425781 0-17.066406 7.640625-17.066406 17.066406v170.667969c0 9.425781 7.640625 17.066406 17.066406 17.066406zm-375.46875-187.734375h375.464844v170.667969h-375.464844zm0 0"/><path d="m34.132812 42.667969v34.132812h17.066407v-25.601562h25.601562v-17.066407h-34.132812c-4.714844 0-8.535157 3.820313-8.535157 8.535157zm0 0"/><path d="m51.199219 128h-17.066407v34.132812c0 4.714844 3.820313 8.535157 8.535157 8.535157h34.132812v-17.066407h-25.601562zm0 0"/><path d="m366.933594 34.132812h-34.132813v17.066407h25.597657v25.601562h17.066406v-34.132812c0-4.714844-3.820313-8.535157-8.53125-8.535157zm0 0"/><path d="m358.398438 153.601562h-25.597657v17.066407h34.132813c4.710937 0 8.535156-3.824219 8.535156-8.535157v-34.132812h-17.066406v25.601562zm0 0"/><path d="m307.199219 384c4.714843 0 8.535156 3.820312 8.535156 8.535156h17.066406c-.046875-10.8125-6.875-20.429687-17.066406-24.03125v-10.105468h-17.066406v10.105468c-13.304688 4.6875-20.292969 19.269532-15.605469 32.574219 3.605469 10.234375 13.285156 17.074219 24.136719 17.054687 4.714843 0 8.535156 3.820313 8.535156 8.535157 0 4.710937-3.820313 8.53125-8.535156 8.53125-4.710938 0-8.53125-3.820313-8.53125-8.53125h-17.066407c.042969 10.808593 6.875 20.425781 17.066407 24.027343v10.105469h17.066406v-10.105469c13.304687-4.683593 20.289063-19.269531 15.605469-32.574218-3.605469-10.234375-13.289063-17.074219-24.140625-17.054688-4.710938 0-8.53125-3.820312-8.53125-8.53125 0-4.714844 3.820312-8.535156 8.53125-8.535156zm0 0"/><path d="m307.199219 332.800781c-42.414063 0-76.800781 34.382813-76.800781 76.800781 0 42.414063 34.386718 76.800782 76.800781 76.800782 42.417969 0 76.800781-34.386719 76.800781-76.800782-.046875-42.398437-34.402344-76.753906-76.800781-76.800781zm0 136.53125c-32.988281 0-59.734375-26.742187-59.734375-59.730469 0-32.992187 26.746094-59.734374 59.734375-59.734374 32.992187 0 59.734375 26.742187 59.734375 59.734374-.039063 32.972657-26.757813 59.695313-59.734375 59.730469zm0 0"/><path d="m341.332031 401.066406h17.066407v17.066406h-17.066407zm0 0"/><path d="m256 401.066406h17.066406v17.066406h-17.066406zm0 0"/><path d="m494.933594 307.199219h-375.46875c-9.425782 0-17.066406 7.640625-17.066406 17.066406v170.667969c0 9.425781 7.644531 17.066406 17.066406 17.066406h375.46875c9.425781 0 17.066406-7.640625 17.066406-17.066406v-170.667969c0-9.425781-7.640625-17.066406-17.066406-17.066406zm-375.46875 187.734375v-170.667969h375.46875v170.667969zm0 0"/><path d="m136.535156 349.867188v34.132812h17.066406v-25.601562h25.597657v-17.066407h-34.132813c-4.714844 0-8.53125 3.820313-8.53125 8.535157zm0 0"/><path d="m153.601562 435.199219h-17.066406v34.132812c0 4.714844 3.820313 8.535157 8.53125 8.535157h34.132813v-17.066407h-25.597657zm0 0"/><path d="m469.332031 341.332031h-34.132812v17.066407h25.601562v25.601562h17.066407v-34.132812c0-4.714844-3.820313-8.535157-8.535157-8.535157zm0 0"/><path d="m460.800781 460.800781h-25.601562v17.066407h34.132812c4.714844 0 8.535157-3.820313 8.535157-8.535157v-34.132812h-17.066407zm0 0"/><path d="m430.632812 213.761719-12.0625 12.066406 36.195313 36.207031c3.332031 3.328125 8.734375 3.328125 12.066406 0l36.199219-36.207031-12.066406-12.066406-21.632813 21.640625v-133.003906c0-4.710938-3.820312-8.53125-8.53125-8.53125h-34.132812v17.066406h25.597656v124.464844zm0 0"/><path d="m81.367188 298.238281 12.0625-12.066406-36.195313-36.207031c-3.386719-3.199219-8.683594-3.199219-12.066406 0l-36.199219 36.207031 12.066406 12.066406 21.632813-21.640625v133c0 4.714844 3.820312 8.535156 8.53125 8.535156h34.132812v-17.066406h-25.597656v-124.464844zm0 0"/></g></svg>