<?xml version="1.0" encoding="iso-8859-1"?>
<!-- Generator: Adobe Illustrator 19.0.0, SVG Export Plug-In . SVG Version: 6.00 Build 0)  -->
<svg version="1.1" id="Capa_1" xmlns="http://www.w3.org/2000/svg" xmlns:xlink="http://www.w3.org/1999/xlink" x="0px" y="0px"
	 viewBox="0 0 512 512" style="enable-background:new 0 0 512 512;" xml:space="preserve">
<linearGradient id="SVGID_1_" gradientUnits="userSpaceOnUse" x1="256" y1="513.8115" x2="256" y2="2.1905" gradientTransform="matrix(1 0 0 -1 0 514.001)">
	<stop  offset="0" style="stop-color:#2AF598"/>
	<stop  offset="1" style="stop-color:#009EFD"/>
</linearGradient>
<path style="fill:url(#SVGID_1_);" d="M297.954,174.331l-16.297-36.529c-6.528,2.912-13.496,4.389-20.711,4.389
	c-21.004,0-39.076-12.792-46.86-31H352v-20c0-50.055-40.707-90.801-90.817-91h-0.366v0C210.707,0.39,170,41.136,170,91.19
	c0,50.178,40.798,91,90.946,91C273.813,182.189,286.264,179.546,297.954,174.331z M261,40.19c21.024,0.073,39.102,12.844,46.9,31
	h-93.8C221.898,53.034,239.976,40.264,261,40.19z M512,142.189v40h-60v-182h40v142H512z M434,182.189h-60v-182h40v142h20V182.189z
	 M199,217.501V469.63l69.422-59.411l48.531,101.592l36.093-17.242l-48.015-100.511l100.814-10.216L199,217.501z M239,300.997
	l65.761,52.884l-36.328,3.682L239,382.75V300.997z M99.5,182.189H0v-40h99.5c8.547,0,15.5-6.953,15.5-15.5s-6.953-15.5-15.5-15.5
	h-44c-30.603,0-55.5-24.897-55.5-55.5s24.897-55.5,55.5-55.5H134v40H55.5c-8.547,0-15.5,6.953-15.5,15.5s6.953,15.5,15.5,15.5h44
	c30.603,0,55.5,24.897,55.5,55.5S130.103,182.189,99.5,182.189z M0,218.189h159v40H0V218.189z M260,218.189h252v40H310L260,218.189z
	"/>
<g>
</g>
<g>
</g>
<g>
</g>
<g>
</g>
<g>
</g>
<g>
</g>
<g>
</g>
<g>
</g>
<g>
</g>
<g>
</g>
<g>
</g>
<g>
</g>
<g>
</g>
<g>
</g>
<g>
</g>
</svg>
