<?xml version="1.0" encoding="iso-8859-1"?>
<!-- Generator: Adobe Illustrator 19.0.0, SVG Export Plug-In . SVG Version: 6.00 Build 0)  -->
<svg version="1.1" id="Layer_1" xmlns="http://www.w3.org/2000/svg" xmlns:xlink="http://www.w3.org/1999/xlink" x="0px" y="0px"
	 viewBox="0 0 512 512" style="enable-background:new 0 0 512 512;" xml:space="preserve">
<path style="fill:#904F15;" d="M168.898,401.733l-18.012-60.078c-0.884-2.948-3.477-5.06-6.544-5.327
	c-3.064-0.267-5.986,1.363-7.367,4.114l-17.553,34.967c-0.24,0.479-0.429,0.982-0.563,1.501l-4.724,18.386l-26.026,8.84
	c-29.25-19.132-64.214-52.99-71.634-107.9c-0.552-4.086-4.3-6.964-8.383-6.448l-1.453,0.183c-3.756,0.473-6.574,3.668-6.574,7.454
	v27.901c0,50.277,23.914,98.128,63.967,128.003c6.162,4.596,12.648,9.033,19.277,13.189c1.213,0.76,2.598,1.148,3.991,1.148
	c0.99,0,1.982-0.195,2.921-0.591l54.2-22.874c1.459-0.616,2.687-1.677,3.507-3.032l20.203-33.386
	C169.228,405.964,169.508,403.768,168.898,401.733z"/>
<path style="fill:#594333;" d="M168.898,401.733l-18.012-60.078c-0.884-2.948-3.477-5.06-6.544-5.327
	c-3.061-0.268-5.986,1.362-7.367,4.114l-17.553,34.967c-0.24,0.479-0.429,0.982-0.563,1.501l-4.724,18.386l-29.453,10.003
	c-3.047,1.035-5.097,3.896-5.097,7.114v47.611c0,2.585,1.331,4.991,3.521,6.365l0.217,0.138c1.21,0.753,2.587,1.137,3.974,1.137
	c0.99,0,1.983-0.195,2.921-0.591l54.2-22.874c1.459-0.616,2.687-1.677,3.507-3.032l20.203-33.386
	C169.228,405.964,169.508,403.768,168.898,401.733z"/>
<path style="fill:#904F15;" d="M504.423,227.272c-4.149,0-7.513,3.364-7.513,7.513c0,29.807-5.869,56.879-17.444,80.464
	c-10.643,21.687-26.438,41.091-46.947,57.671c-35.697,28.859-87.171,50.37-152.994,63.934c-44.604,9.192-92.822,6.797-135.769-6.742
	c-2.283-0.719-4.771-0.309-6.701,1.106c-1.93,1.415-3.07,3.665-3.07,6.058v49.249c0,3.165,1.983,5.991,4.961,7.066
	C172.772,505.807,209.454,512,247.972,512c96.195,0,166.3-42.808,208.17-78.72c35.456-30.411,55.793-74.676,55.793-121.447v-77.048
	C511.935,230.635,508.573,227.272,504.423,227.272z"/>
<path style="fill:#773F12;" d="M138.946,493.592C172.772,505.807,209.454,512,247.972,512c96.195,0,166.3-42.808,208.17-78.72
	c35.456-30.411,55.793-74.676,55.793-121.447v-77.048c0-4.149-3.364-7.513-7.513-7.513s-7.513,3.364-7.513,7.513
	c0,29.807-5.869,56.879-17.444,80.464c-10.643,21.687-26.438,41.091-46.947,57.671c-21.299,17.219-48.22,31.821-80.45,43.681
	c-49.617,30.294-119.604,55.17-218.085,69.924C133.985,489.691,135.968,492.517,138.946,493.592z"/>
<path style="fill:#F1B76D;" d="M495.472,126.068c-10.389-27.839-25.56-49.886-46.381-67.401
	c-37.98-31.947-89.031-44.472-153.999-53.448C194.757-8.641,122.546,5.04,74.334,47.047C24.357,90.595,0.063,165.278,0.063,275.365
	c0,58.795,29.489,109.725,83.036,143.409c1.916,1.205,4.273,1.484,6.417,0.754l33.302-11.31c2.401-0.815,4.229-2.788,4.86-5.244
	l5.535-21.543l8.71-17.351l11.625,38.775l-18.478,30.532c-1.193,1.972-1.415,4.383-0.602,6.54c0.813,2.158,2.572,3.822,4.771,4.515
	c27.23,8.585,56.459,12.928,85.662,12.927c19.431,0,38.851-1.923,57.658-5.799c68.196-14.053,121.829-36.583,159.408-66.966
	c46.428-37.536,69.969-87.942,69.969-149.819C511.935,191.316,506.55,155.755,495.472,126.068z"/>
<path style="fill:#CC975E;" d="M449.092,58.667c-31.314-26.341-71.523-39.473-121.081-48.303l0,0
	c0,0,135.725,58.783,141.073,158.061c4.476,83.094,2.331,214.627-195.695,284.852c3.069-0.525,6.129-1.081,9.17-1.707
	c68.196-14.053,121.829-36.583,159.408-66.966c46.428-37.536,69.969-87.942,69.969-149.819c0-43.468-5.385-79.03-16.463-108.716
	C485.085,98.229,469.913,76.182,449.092,58.667z"/>
<g>
	<path style="fill:#99704A;" d="M337.386,48.705c0.91,2.045,2.686,3.58,4.841,4.183l21.847,6.108l1.221,23.346
		c0.209,4.01,3.527,7.121,7.496,7.12c0.132,0,0.265-0.003,0.399-0.01c4.144-0.216,7.327-3.751,7.11-7.894l-1.503-28.735
		c-0.168-3.22-2.374-5.974-5.479-6.844l-23.639-6.61l-12.107-27.223c-5.823-1.136-11.778-2.204-17.873-3.213L337.386,48.705z"/>
	<path style="fill:#99704A;" d="M75.049,204.421l-18.534-13.087v-19.972c0-1.89-0.712-3.71-1.995-5.099l-33.819-36.6
		c-1.88,5.312-3.617,10.813-5.238,16.471L41.489,174.3v20.924c0,2.441,1.186,4.729,3.179,6.136l21.713,15.333
		c1.316,0.93,2.829,1.376,4.327,1.376c2.358,0,4.68-1.107,6.143-3.179C79.245,211.502,78.438,206.814,75.049,204.421z"/>
	<path style="fill:#99704A;" d="M511.759,222.005l-41.743,23.608c-1.315,0.743-2.375,1.866-3.042,3.221l-14.5,29.452l-22.762-7.182
		c-3.96-1.249-8.177,0.947-9.425,4.903c-1.248,3.957,0.947,8.177,4.904,9.425l28.913,9.124c0.749,0.236,1.51,0.35,2.261,0.35
		c2.798,0,5.448-1.571,6.741-4.196l16.326-33.16l32.452-18.354c0.027-1.467,0.053-2.933,0.053-4.412
		C511.935,230.439,511.867,226.195,511.759,222.005z"/>
</g>
<path style="fill:#904F15;" d="M380.443,209.635c-1.616-5.389-4.43-9.95-8.385-13.656c4.727-29.071-17.54-53.434-17.54-53.434
	c-13.557,15.706-19.099,30.636-21.2,41.935c-3.397,0.606-6.617,1.705-9.638,3.333c-19.852,10.693-24.229,40.117-26.333,54.258
	l-0.059,0.4c-0.876,5.884-4.617,13.043-9.124,19.839l9.525-61.124c5.54-35.557,0.868-61.838-13.888-78.117
	c-3.379-3.727-7.004-6.59-10.618-8.802c-2.373-56.95-26.181-73.919-26.181-73.919s-23.808,16.969-26.181,73.92
	c-3.615,2.212-7.239,5.075-10.618,8.801c-14.756,16.279-19.429,42.562-13.888,78.117l9.525,61.124
	c-4.508-6.796-8.247-13.955-9.124-19.839l-0.059-0.4c-2.104-14.141-6.481-43.565-26.334-54.259
	c-3.022-1.628-6.242-2.726-9.638-3.332c-2.101-11.299-7.642-26.23-21.2-41.936c0,0-22.267,24.364-17.54,53.435
	c-3.956,3.706-6.77,8.268-8.385,13.656c-8.105,27.026,17.092,67.829,35.489,97.622c5.967,9.662,11.12,18.009,13.151,22.842
	c9.501,22.606,29.408,39.507,40.429,47.571c16.641,12.176,33.643,19.74,44.372,19.74c10.727,0,27.73-7.564,44.372-19.74
	c11.021-8.064,30.928-24.966,40.429-47.571c2.031-4.833,7.184-13.178,13.151-22.841
	C363.351,277.464,388.548,236.662,380.443,209.635z"/>
<path style="fill:#773F12;" d="M380.443,209.635c-1.616-5.389-4.43-9.95-8.385-13.656c4.727-29.071-17.54-53.434-17.54-53.434
	c-11.219,12.996-16.939,25.454-19.773,35.771c0.955,5.552,1.174,11.501,0.172,17.664c3.956,3.706,6.77,8.267,8.385,13.656
	c8.105,27.026-17.092,67.83-35.49,97.623c-5.967,9.662-11.12,18.008-13.151,22.841c-9.501,22.606-29.408,39.507-40.429,47.571
	c-8.832,6.463-17.757,11.608-25.801,15.031c7.111,3.026,13.536,4.709,18.571,4.709c10.727,0,27.73-7.564,44.372-19.74
	c11.021-8.064,30.928-24.966,40.429-47.571c2.031-4.833,7.184-13.178,13.151-22.841
	C363.351,277.464,388.548,236.662,380.443,209.635z"/>
<g>
	<path style="fill:#594333;" d="M169.197,191.876c-0.904-13.094-5.804-33.134-24.025-54.241c-1.402-1.625-3.433-2.572-5.58-2.602
		c-2.184-0.021-4.204,0.858-5.653,2.442c-1.223,1.337-29.813,33.188-16.832,69.79c1.064,2.998,3.9,5.002,7.081,5.002h0.023
		c2.413,0,4.678-1.159,6.091-3.114c1.731-2.397,4.143-4.291,7.378-5.794c8.791-4.084,16.197-5.335,22.012-3.724
		c2.35,0.651,4.869,0.123,6.759-1.419C168.341,196.672,169.364,194.31,169.197,191.876z"/>
	<path style="fill:#594333;" d="M360.064,137.475c-1.448-1.584-3.468-2.454-5.652-2.442c-2.147,0.03-4.176,0.978-5.58,2.602
		c-18.222,21.109-23.122,41.148-24.025,54.242c-0.167,2.432,0.855,4.795,2.745,6.337c1.889,1.542,4.408,2.071,6.759,1.419
		c5.815-1.614,13.222-0.36,22.012,3.724c3.234,1.503,5.647,3.398,7.378,5.794c1.412,1.956,3.702,3.114,6.114,3.114
		c3.181,0,6.017-2.003,7.081-5.002C389.875,170.662,361.287,138.812,360.064,137.475z"/>
	<path style="fill:#594333;" d="M251.361,34.226c-2.608-1.858-6.11-1.858-8.719,0c-1.206,0.859-29.526,21.814-29.526,89.328
		c0,2.886,1.653,5.516,4.253,6.769c2.598,1.252,5.687,0.906,7.944-0.895c9.807-7.818,21.015-7.518,21.315-7.504
		c0.265,0.013,0.531,0.012,0.795-0.002c0.108-0.003,11.353-0.399,21.269,7.506c1.356,1.082,3.013,1.639,4.684,1.639
		c1.108,0,2.223-0.245,3.259-0.744c2.6-1.252,4.253-3.883,4.253-6.769C280.889,56.04,252.567,35.085,251.361,34.226z"/>
</g>
<g>
</g>
<g>
</g>
<g>
</g>
<g>
</g>
<g>
</g>
<g>
</g>
<g>
</g>
<g>
</g>
<g>
</g>
<g>
</g>
<g>
</g>
<g>
</g>
<g>
</g>
<g>
</g>
<g>
</g>
</svg>
