<?xml version="1.0" encoding="iso-8859-1"?>
<!-- Generator: Adobe Illustrator 19.0.0, SVG Export Plug-In . SVG Version: 6.00 Build 0)  -->
<svg version="1.1" id="Layer_1" xmlns="http://www.w3.org/2000/svg" xmlns:xlink="http://www.w3.org/1999/xlink" x="0px" y="0px"
	 viewBox="0 0 512 512" style="enable-background:new 0 0 512 512;" xml:space="preserve">
<g>
	<path style="fill:#957856;" d="M70.304,236.719c0-6.15,0.229-12.371,0.681-18.49c0.152-2.063-0.56-4.094-1.967-5.609
		c-1.407-1.514-3.381-2.376-5.449-2.376H50.954c-14.598,0-26.474,11.877-26.474,26.475c0,14.598,11.877,26.474,26.474,26.474h12.615
		c2.067,0,4.042-0.861,5.449-2.376c1.407-1.515,2.12-3.547,1.967-5.609C70.534,249.09,70.304,242.869,70.304,236.719z"/>
	<path style="fill:#957856;" d="M463.555,205.967H172.013c-4.108,0-7.437,3.33-7.437,7.437v46.63c0,4.107,3.329,7.437,7.437,7.437
		h291.543c16.957,0,30.752-13.796,30.752-30.752S480.512,205.967,463.555,205.967z"/>
</g>
<path style="fill:#806749;" d="M463.555,231.144H172.013c-4.108,0-7.437-3.33-7.437-7.437v36.327c0,4.107,3.329,7.437,7.437,7.437
	h291.543c16.957,0,30.752-13.796,30.752-30.752c0-6.79-2.216-13.07-5.957-18.163C482.748,226.182,473.722,231.144,463.555,231.144z"
	/>
<path style="fill:#594333;" d="M244.449,318.625l-23.396-34.108c-1.167-1.702-2.989-2.842-5.028-3.148
	c-2.045-0.306-4.117,0.249-5.731,1.533l-42.907,34.108c-2.734,2.174-3.588,5.955-2.051,9.092l21.475,43.854
	c1.05,2.144,3.065,3.654,5.417,4.059c0.42,0.072,0.843,0.108,1.261,0.108c1.928,0,3.8-0.75,5.201-2.121l44.828-43.854
	C246.1,325.622,246.492,321.605,244.449,318.625z"/>
<path style="fill:#3F2F25;" d="M244.449,318.625l-23.396-34.108c-1.167-1.702-2.989-2.842-5.028-3.148
	c-2.045-0.306-4.117,0.249-5.731,1.533l-12.407,9.862l17.739,25.862c2.044,2.979,1.651,6.997-0.932,9.523l-32.695,31.984
	l4.811,9.824c1.05,2.144,3.065,3.654,5.417,4.059c0.42,0.072,0.843,0.108,1.261,0.108c1.928,0,3.8-0.75,5.201-2.121l44.828-43.854
	C246.1,325.622,246.492,321.605,244.449,318.625z"/>
<path style="fill:#594333;" d="M372.053,115.874l-11.365-36.829c-0.626-2.024-2.084-3.687-4.01-4.568
	c-1.927-0.883-4.136-0.901-6.078-0.052l-63.955,27.985c-1.927,0.844-3.408,2.464-4.072,4.459l-16.184,48.507
	c-0.758,2.268-0.377,4.762,1.02,6.701c1.397,1.94,3.643,3.09,6.034,3.09h60.06c2.271,0,4.417-1.037,5.828-2.817l31.443-39.663
	C372.297,120.766,372.776,118.217,372.053,115.874z"/>
<path style="fill:#3F2F25;" d="M372.053,115.874l-11.365-36.829c-0.626-2.024-2.084-3.687-4.01-4.568
	c-1.927-0.883-4.136-0.901-6.078-0.052l-25.876,11.323l9.296,30.126c0.723,2.343,0.244,4.892-1.279,6.813l-31.443,39.663
	c-1.411,1.779-3.557,2.817-5.828,2.817h38.032c2.271,0,4.417-1.037,5.828-2.817l31.443-39.663
	C372.297,120.766,372.776,118.217,372.053,115.874z"/>
<path style="fill:#E0E0E2;" d="M123.306,282.187c-0.035-0.24,0.027-0.454,0.184-0.637c0.231-0.269,0.498-0.269,0.585-0.269h47.938
	c4.108,0,7.437-3.33,7.437-7.437v-74.252c0-4.107-3.329-7.437-7.437-7.437h-47.938c-0.087,0-0.353,0-0.585-0.268
	c-0.157-0.182-0.219-0.397-0.184-0.637c10.011-67.955,42.814-130.662,92.366-176.569c2.645-2.45,3.151-6.442,1.203-9.476
	c-1.947-3.033-5.791-4.232-9.117-2.845c-44.476,18.536-82.404,50.125-109.685,91.353C70.177,135.876,55.43,185.326,55.43,236.719
	c0,51.392,14.746,100.843,42.643,143.004c27.281,41.228,65.209,72.818,109.684,91.354c0.93,0.388,1.9,0.573,2.858,0.573
	c2.469,0,4.857-1.234,6.26-3.418c1.948-3.032,1.442-7.025-1.203-9.476C166.119,412.848,133.316,350.141,123.306,282.187z"/>
<g>
	<path style="fill:#C6C5CA;" d="M180.323,419.45c-32.683-18.844-60.769-45.326-82.249-77.789
		c-24.436-36.93-38.78-79.452-41.964-123.972c-0.451,6.308-0.679,12.654-0.679,19.032c0,51.392,14.746,100.843,42.643,143.004
		c27.281,41.228,65.209,72.818,109.684,91.354c0.93,0.388,1.9,0.573,2.858,0.573c2.469,0,4.857-1.234,6.26-3.418
		c1.948-3.032,1.442-7.025-1.203-9.476C202.701,446.739,190.89,433.561,180.323,419.45z"/>
	<path style="fill:#C6C5CA;" d="M179.45,273.845v-38.062c0,4.107-3.329,7.437-7.437,7.437h-47.938c-0.087,0-0.353,0-0.585,0.269
		c-0.157,0.182-0.219,0.397-0.184,0.637c1.854,12.591,4.496,25,7.877,37.157h40.83C176.12,281.282,179.45,277.952,179.45,273.845z"
		/>
</g>
<path style="fill:#594333;" d="M219.194,496.688l-115.78-81.286c-2.462-1.728-5.722-1.804-8.262-0.19l-67.225,42.723
	c-0.923,0.586-1.705,1.368-2.29,2.291L1.158,498.789c-1.454,2.291-1.546,5.191-0.238,7.568c1.306,2.377,3.805,3.854,6.517,3.854
	H214.92c3.243,0,6.114-2.103,7.091-5.196C222.99,501.922,221.848,498.552,219.194,496.688z"/>
<path style="fill:#3F2F25;" d="M219.194,496.688l-115.78-81.286c-2.462-1.728-5.722-1.804-8.262-0.19L76.194,427.26l98.89,69.428
	c2.655,1.864,3.796,5.234,2.818,8.327c-0.977,3.094-3.847,5.196-7.091,5.196h44.11c3.243,0,6.114-2.103,7.091-5.196
	C222.99,501.922,221.848,498.552,219.194,496.688z"/>
<path style="fill:#594333;" d="M511.635,500.474l-22.209-68.287c-0.184-0.565-0.435-1.107-0.748-1.612L442.41,355.8
	c-0.577-0.932-1.353-1.725-2.272-2.322l-74.03-48.12c-1.894-1.232-4.247-1.534-6.391-0.824l-101.791,33.723
	c-1.128,0.374-2.151,1.012-2.981,1.862l-45.344,46.411c-1.928,1.973-2.606,4.851-1.759,7.477l20.926,64.964v43.804
	c0,4.107,3.329,7.437,7.437,7.437h268.359c2.381,0,4.618-1.14,6.017-3.066C511.979,505.218,512.372,502.738,511.635,500.474z"/>
<path style="fill:#3F2F25;" d="M511.635,500.474l-22.209-68.287c-0.184-0.565-0.435-1.107-0.748-1.612L442.41,355.8
	c-0.577-0.932-1.353-1.725-2.272-2.322l-74.03-48.12c-1.894-1.232-4.247-1.534-6.391-0.824l-21.659,7.175l64.259,41.768
	c0.919,0.597,1.695,1.39,2.272,2.322l46.269,74.776c0.312,0.506,0.563,1.047,0.748,1.612l22.21,68.287
	c0.737,2.265,0.345,4.745-1.055,6.671c-1.399,1.926-3.636,3.066-6.017,3.066h37.822c2.381,0,4.618-1.14,6.017-3.066
	C511.979,505.218,512.372,502.738,511.635,500.474z"/>
<g>
</g>
<g>
</g>
<g>
</g>
<g>
</g>
<g>
</g>
<g>
</g>
<g>
</g>
<g>
</g>
<g>
</g>
<g>
</g>
<g>
</g>
<g>
</g>
<g>
</g>
<g>
</g>
<g>
</g>
</svg>
