<svg height="512pt" viewBox="0 -134 512.00101 512" width="512pt" xmlns="http://www.w3.org/2000/svg"><path d="m369.503906 135.960938 60.597656-21.179688 71.960938 21.179688v108.839843h-132.558594l-28.261718-70.078125zm0 0" fill="#da5b65"/><path d="m142.496094 104.648438-60.597656-21.179688-71.960938 21.179688v140.152343h132.558594l28.261718-70.078125zm0 0" fill="#ffcd38"/><path d="m9.9375 135.554688h145.023438l-12.464844-30.90625-60.597656-21.179688-71.960938 21.179688zm0 0" fill="#e7b835"/><path d="m163.792969 62.289062h-153.941407c-5.441406 0-9.851562 4.410157-9.851562 9.851563v22.65625c0 5.441406 4.410156 9.851563 9.851562 9.851563h153.945313v-42.359376zm0 0" fill="#efedee"/><path d="m369.503906 135.960938-22.535156 30.90625h155.09375v-30.90625l-71.960938-21.179688zm0 0" fill="#c0344a"/><path d="m348.207031 93.601562h153.941407c5.441406 0 9.851562 4.410157 9.851562 9.851563v22.65625c0 5.441406-4.410156 9.851563-9.851562 9.851563h-153.941407zm0 0" fill="#efedee"/><path d="m142.496094 21.179688h227.007812v223.621093h-227.007812zm0 0" fill="#49c3e0"/><g fill="#3a484a"><path d="m188.042969 118.523438c-4.269531 0-7.726563-3.457032-7.726563-7.726563v-12.296875c0-4.269531 3.457032-7.726562 7.726563-7.726562 4.265625 0 7.726562 3.457031 7.726562 7.726562v12.296875c0 4.269531-3.460937 7.726563-7.726562 7.726563zm0 0"/><path d="m323.957031 118.523438c-4.265625 0-7.726562-3.457032-7.726562-7.726563v-12.296875c0-4.269531 3.460937-7.726562 7.726562-7.726562 4.269531 0 7.726563 3.457031 7.726563 7.726562v12.296875c0 4.269531-3.457032 7.726563-7.726563 7.726563zm0 0"/><path d="m256 125.089844c-8.765625 0-17-3.667969-22.589844-10.0625-2.808594-3.210938-2.480468-8.09375.730469-10.902344 3.214844-2.808594 8.09375-2.480469 10.902344.734375 2.65625 3.035156 6.648437 4.777344 10.957031 4.777344s8.300781-1.742188 10.957031-4.777344c2.808594-3.214844 7.6875-3.542969 10.902344-.734375 3.210937 2.808594 3.539063 7.691406.730469 10.902344-5.589844 6.394531-13.824219 10.0625-22.589844 10.0625zm0 0"/><path d="m254.160156 177.910156-2.015625 1.25c-.625.414063-1.25.554688-1.734375.554688-2.015625 0-3.402344-2.152344-3.402344-4.304688 0-1.460937.625-2.847656 2.015626-3.679687l9.164062-5.554688c.554688-.347656 1.25-.488281 2.015625-.488281 2.222656 0 4.789063 1.320312 4.789063 3.402344v44.164062c0 2.222656-2.707032 3.332032-5.414063 3.332032-2.710937 0-5.417969-1.109376-5.417969-3.332032zm0 0"/><path d="m82.070312 165.828125c8.054688 0 16.179688 5.066406 16.179688 14.371094 0 15.070312-21.457031 20-21.457031 26.320312v.625h18.191406c1.738281 0 3.265625 2.152344 3.265625 4.652344s-1.527344 4.789063-3.265625 4.789063h-24.71875c-1.941406 0-4.722656-1.316407-4.722656-3.332032v-6.734375c0-10.902343 21.875-17.152343 21.875-25.972656 0-2.222656-1.390625-4.929687-5.277344-4.929687-2.777344 0-5.207031 1.390624-5.207031 5.207031 0 2.015625-2.152344 3.960937-5.695313 3.960937-2.777343 0-4.859375-1.25-4.859375-5.625 0-8.472656 7.777344-13.332031 15.691406-13.332031zm0 0"/></g><path d="m142.496094 73.265625h227.007812v-52.085937h-227.007812zm0 0" fill="#00a5c6"/><path d="m369.503906 0h-227.007812c-5.441406 0-9.851563 4.410156-9.851563 9.851562v22.660157c0 5.441406 4.410157 9.851562 9.851563 9.851562h227.007812c5.441406 0 9.851563-4.410156 9.851563-9.851562v-22.660157c0-5.441406-4.410157-9.851562-9.851563-9.851562zm0 0" fill="#efedee"/><path d="m442.039062 201.308594v-1.316406c0-4.652344-2.847656-5.554688-6.664062-5.554688-2.363281 0-3.125-2.085938-3.125-4.167969s.761719-4.167969 3.125-4.167969c2.636719 0 5.414062-.347656 5.414062-5.972656 0-4.023437-2.289062-4.996094-5.136718-4.996094-3.402344 0-5.140625.832032-5.140625 3.539063 0 2.363281-1.039063 3.960937-5.066407 3.960937-5 0-5.625-1.042968-5.625-4.378906 0-5.414062 3.886719-12.425781 15.832032-12.425781 8.816406 0 15.484375 3.191406 15.484375 12.566406 0 5.070313-1.875 9.792969-5.347657 11.390625 4.097657 1.523438 7.082032 4.582032 7.082032 10.207032v1.316406c0 11.390625-7.84375 15.695312-17.566406 15.695312-11.945313 0-16.527344-7.292968-16.527344-13.125 0-3.125 1.320312-3.957031 5.140625-3.957031 4.441406 0 5.554687.972656 5.554687 3.609375 0 3.265625 3.054688 4.027344 6.179688 4.027344 4.722656 0 6.386718-1.734375 6.386718-6.25zm0 0" fill="#3a484a"/></svg>