<?xml version="1.0" encoding="iso-8859-1"?>
<!-- Generator: Adobe Illustrator 19.0.0, SVG Export Plug-In . SVG Version: 6.00 Build 0)  -->
<svg version="1.1" id="Layer_1" xmlns="http://www.w3.org/2000/svg" xmlns:xlink="http://www.w3.org/1999/xlink" x="0px" y="0px"
	 viewBox="0 0 512 512" style="enable-background:new 0 0 512 512;" xml:space="preserve">
<g>
	<path style="fill:#4C5870;" d="M356.023,326.658c-1.68,0-3.387-0.367-5.002-1.142c-5.768-2.767-8.201-9.686-5.434-15.454
		l117.63-245.211c2.767-5.768,9.687-8.201,15.455-5.434c5.768,2.767,8.201,9.686,5.434,15.454l-117.631,245.21
		C364.483,324.234,360.339,326.658,356.023,326.658z"/>
	<path style="fill:#4C5870;" d="M358.032,322.465c-2.054,0-4.134-0.547-6.018-1.695l-114.133-69.576
		c-5.463-3.33-7.191-10.458-3.861-15.921c3.33-5.462,10.453-7.191,15.919-3.861l114.133,69.576
		c5.463,3.33,7.191,10.458,3.861,15.921C365.751,320.489,361.938,322.465,358.032,322.465z"/>
	<path style="fill:#4C5870;" d="M128.537,392.851c-2.594,0-5.202-0.868-7.36-2.646c-4.937-4.069-5.64-11.369-1.571-16.306
		l115.366-139.964c4.07-4.937,11.368-5.64,16.306-1.571c4.937,4.069,5.64,11.369,1.571,16.306L137.484,388.634
		C135.192,391.412,131.878,392.851,128.537,392.851z"/>
</g>
<g>
	<path style="fill:#E6E2E0;" d="M55.612,512c-6.397,0-11.584-5.186-11.584-11.584V11.584C44.029,5.186,49.216,0,55.612,0
		s11.584,5.186,11.584,11.584v488.833C67.196,506.814,62.009,512,55.612,512z"/>
	<path style="fill:#E6E2E0;" d="M500.416,467.971H11.584C5.187,467.971,0,462.785,0,456.388s5.187-11.584,11.584-11.584h488.833
		c6.397,0,11.584,5.186,11.584,11.584S506.813,467.971,500.416,467.971z"/>
</g>
<g>
	<circle style="fill:#269AF2;" cx="243.907" cy="241.3" r="28.959"/>
	<circle style="fill:#269AF2;" cx="129.772" cy="382.228" r="28.959"/>
	<circle style="fill:#269AF2;" cx="358.041" cy="310.884" r="28.959"/>
	<circle style="fill:#269AF2;" cx="472.175" cy="74.321" r="28.959"/>
</g>
<g>
</g>
<g>
</g>
<g>
</g>
<g>
</g>
<g>
</g>
<g>
</g>
<g>
</g>
<g>
</g>
<g>
</g>
<g>
</g>
<g>
</g>
<g>
</g>
<g>
</g>
<g>
</g>
<g>
</g>
</svg>
