<?xml version="1.0" encoding="iso-8859-1"?>
<!-- Generator: Adobe Illustrator 19.0.0, SVG Export Plug-In . SVG Version: 6.00 Build 0)  -->
<svg version="1.1" id="Layer_1" xmlns="http://www.w3.org/2000/svg" xmlns:xlink="http://www.w3.org/1999/xlink" x="0px" y="0px"
	 viewBox="0 0 512 512" style="enable-background:new 0 0 512 512;" xml:space="preserve">
<path style="fill:#3E3D42;" d="M463.794,210.826c-3.071-26.256-18.732-53.112-45.292-77.663
	c-23.857-22.052-55.274-33.948-84.032-31.825c-20.079,1.482-37.064,9.67-47.825,23.052c-19.088,23.737-16.295,61.082,7.11,95.172
	c25.81,40.292,18.739,85.262,12.501,124.944c-3.729,23.714-6.948,44.194-3.061,61.394c4.597,20.338,18.719,32.656,43.173,37.656
	c5.407,1.105,10.536,1.657,15.382,1.657c12.479-0.001,23.067-3.661,31.594-10.948c17.937-15.326,25.643-45.237,23.559-91.441
	c-1.68-37.245,22.407-65.28,27.253-70.522C459.513,255.688,466.487,233.856,463.794,210.826z"/>
<path style="fill:#2D2D30;" d="M463.794,210.826c-3.07-26.256-18.732-53.112-45.292-77.663
	c-23.857-22.052-55.274-33.948-84.032-31.825c-3.74,0.276-7.37,0.786-10.875,1.517c21.049,3.973,41.969,14.543,59.023,30.308
	c26.56,24.551,42.222,51.406,45.292,77.663c2.694,23.03-4.281,44.862-19.638,61.475c-4.845,5.242-28.932,33.278-27.253,70.522
	c2.084,46.203-5.622,76.114-23.559,91.441c-4.435,3.79-9.432,6.589-14.957,8.413c1.26,0.313,2.546,0.608,3.866,0.878
	c5.407,1.105,10.536,1.657,15.382,1.657c12.479,0,23.067-3.661,31.594-10.948c17.937-15.327,25.643-45.237,23.559-91.441
	c-1.68-37.245,22.407-65.28,27.253-70.522C459.513,255.688,466.487,233.856,463.794,210.826z"/>
<path style="fill:#3E3D42;" d="M334.83,47.566c-0.496-12.636-4.547-24.465-11.403-33.31c-7.434-9.587-17.257-14.642-27.664-14.232
	c-10.406,0.409-19.804,6.219-26.462,16.359c-6.142,9.355-9.252,21.466-8.755,34.102s4.547,24.465,11.404,33.31
	c7.154,9.227,16.523,14.255,26.493,14.255c0.389,0,0.779-0.007,1.17-0.023c10.406-0.409,19.804-6.219,26.462-16.359
	C332.217,72.312,335.326,60.201,334.83,47.566z"/>
<path style="fill:#2D2D30;" d="M334.83,47.565c-0.496-12.636-4.547-24.465-11.403-33.31c-7.434-9.587-17.257-14.643-27.664-14.232
	c-6.289,0.247-12.204,2.48-17.375,6.435c2.821,2.113,5.457,4.718,7.845,7.797c6.857,8.844,10.907,20.674,11.403,33.31
	s-2.613,24.747-8.755,34.102c-2.634,4.01-5.7,7.331-9.084,9.92c5.631,4.218,12.002,6.461,18.645,6.461
	c0.389,0,0.779-0.007,1.17-0.023c10.406-0.409,19.804-6.219,26.462-16.359C332.217,72.312,335.326,60.201,334.83,47.565z"/>
<path style="fill:#3E3D42;" d="M388.359,51.896c-0.316-8.053-2.923-15.623-7.337-21.317c-4.918-6.343-11.765-9.819-18.8-9.547
	c-13.954,0.548-24.336,14.964-23.634,32.82c0.316,8.053,2.923,15.623,7.337,21.317c4.737,6.109,11.267,9.562,18.022,9.562
	c0.259,0,0.519-0.005,0.778-0.015C378.68,84.167,389.062,69.751,388.359,51.896z"/>
<path style="fill:#2D2D30;" d="M388.359,51.896c-0.316-8.053-2.923-15.623-7.337-21.317c-4.918-6.343-11.765-9.818-18.8-9.547
	c-3.582,0.141-6.926,1.201-9.91,2.993c2.713,1.6,5.205,3.807,7.335,6.553c4.415,5.694,7.02,13.265,7.337,21.317
	c0.521,13.271-5.082,24.636-13.722,29.825c3.32,1.958,6.967,3.01,10.684,3.01c0.259,0,0.518-0.005,0.778-0.015
	C378.68,84.167,389.062,69.751,388.359,51.896z"/>
<path style="fill:#3E3D42;" d="M419.348,44.087c-13.737-2.495-27.007,9.32-30.201,26.9l0,0c-1.441,7.929-0.542,15.884,2.53,22.402
	c3.423,7.26,9.355,12.146,16.276,13.404c1.18,0.215,2.37,0.32,3.562,0.32c5.795,0,11.613-2.502,16.389-7.14
	c5.169-5.02,8.81-12.151,10.25-20.08C441.348,62.312,433.088,46.585,419.348,44.087z"/>
<path style="fill:#2D2D30;" d="M419.348,44.087c-5.396-0.98-10.717,0.256-15.386,3.175c8.879,5.944,13.543,18.703,11.011,32.632
	c-1.44,7.929-5.08,15.06-10.25,20.08c-1.437,1.396-2.971,2.595-4.568,3.594c2.372,1.609,5.002,2.719,7.798,3.227
	c1.18,0.215,2.37,0.32,3.562,0.32c5.795,0,11.613-2.502,16.389-7.14c5.169-5.02,8.81-12.151,10.25-20.08
	C441.348,62.312,433.088,46.585,419.348,44.087z"/>
<path style="fill:#3E3D42;" d="M481.671,102.681c-1.087-7.953-5.282-14.393-11.508-17.669c-12.358-6.501-28.557,0.793-36.877,16.606
	c-8.32,15.814-5.155,33.295,7.203,39.798c3.057,1.608,6.348,2.372,9.698,2.372c10.192,0,20.917-7.076,27.18-18.979
	C481.119,117.679,482.648,109.82,481.671,102.681z"/>
<path style="fill:#2D2D30;" d="M481.671,102.681c-1.087-7.953-5.282-14.392-11.508-17.669c-6.405-3.37-13.841-3.026-20.678,0.283
	c5.948,3.353,9.953,9.649,11.011,17.386c0.976,7.139-0.552,14.998-4.305,22.129c-4.009,7.62-9.849,13.247-16.205,16.321
	c0.168,0.094,0.332,0.195,0.503,0.285c3.057,1.608,6.348,2.372,9.698,2.372c10.192,0,20.917-7.076,27.18-18.979
	C481.119,117.679,482.648,109.82,481.671,102.681z"/>
<path style="fill:#3E3D42;" d="M501.849,137.625c-4.504-4.164-10.978-5.746-17.765-4.337c-5.965,1.236-11.784,4.659-16.385,9.636
	c-4.601,4.977-7.556,11.047-8.321,17.09c-0.87,6.875,1.214,13.207,5.717,17.369c3.558,3.289,8.109,4.878,12.952,4.878
	c7.197,0,15.038-3.513,21.197-10.177c4.601-4.977,7.556-11.046,8.321-17.091C508.436,148.118,506.351,141.788,501.849,137.625z"/>
<path style="fill:#2D2D30;" d="M501.849,137.625c-4.504-4.164-10.978-5.746-17.765-4.337c-1.747,0.362-3.477,0.933-5.172,1.654
	c1.385,0.721,2.671,1.615,3.825,2.683c4.504,4.163,6.587,10.493,5.717,17.369c-0.764,6.045-3.72,12.114-8.321,17.091
	c-3.35,3.624-7.196,6.307-11.165,8.009c2.761,1.445,5.851,2.167,9.08,2.167c7.197,0,15.038-3.513,21.197-10.176
	c4.601-4.977,7.556-11.046,8.321-17.091C508.436,148.118,506.351,141.788,501.849,137.625z"/>
<path style="fill:#3E3D42;" d="M225.394,191.177c-10.761-13.383-27.746-21.569-47.825-23.052
	c-28.763-2.123-60.175,9.774-84.032,31.825c-26.559,24.551-42.222,51.406-45.292,77.663c-2.694,23.03,4.281,44.862,19.638,61.474
	c4.845,5.242,28.932,33.278,27.253,70.523c-2.084,46.203,5.621,76.113,23.558,91.441c8.529,7.287,19.115,10.948,31.594,10.948
	c4.845,0,9.975-0.552,15.382-1.657c24.454-5,38.576-17.318,43.173-37.656c3.887-17.199,0.667-37.68-3.061-61.394
	c-6.238-39.681-13.31-84.652,12.501-124.944C241.69,252.259,244.482,214.914,225.394,191.177z"/>
<path style="fill:#2D2D30;" d="M225.394,191.177c-10.761-13.383-27.746-21.569-47.825-23.052c-8.6-0.635-17.437-0.007-26.238,1.761
	c14.845,3.315,27.339,10.654,35.892,21.29c19.089,23.737,16.295,61.082-7.11,95.171c-25.81,40.292-18.739,85.263-12.501,124.944
	c3.728,23.715,6.947,44.194,3.061,61.394c-4.263,18.859-16.721,30.816-38.008,36.443c5.366,1.907,11.245,2.87,17.623,2.87
	c4.845,0,9.975-0.552,15.382-1.657c24.454-5,38.576-17.318,43.173-37.656c3.887-17.199,0.667-37.68-3.061-61.394
	c-6.238-39.681-13.31-84.652,12.501-124.944C241.69,252.259,244.482,214.914,225.394,191.177z"/>
<path style="fill:#3E3D42;" d="M242.741,83.17c-6.657-10.14-16.055-15.949-26.461-16.359c-10.406-0.424-20.231,4.645-27.664,14.232
	c-6.857,8.845-10.907,20.674-11.404,33.31c-0.496,12.636,2.613,24.747,8.755,34.102c6.657,10.14,16.055,15.95,26.461,16.359
	c0.391,0.016,0.78,0.023,1.169,0.023c9.971,0,19.341-5.028,26.495-14.255c6.857-8.845,10.907-20.674,11.404-33.31
	C251.993,104.636,248.883,92.525,242.741,83.17z"/>
<path style="fill:#2D2D30;" d="M242.741,83.17c-6.657-10.14-16.055-15.949-26.461-16.359c-7.064-0.288-13.859,1.962-19.822,6.433
	c3.386,2.591,6.454,5.912,9.09,9.925c6.142,9.356,9.252,21.466,8.755,34.102c-0.497,12.636-4.547,24.465-11.404,33.31
	c-2.387,3.08-5.027,5.68-7.849,7.794c5.171,3.958,11.088,6.191,17.379,6.438c0.391,0.016,0.78,0.023,1.169,0.023
	c9.971,0,19.341-5.028,26.495-14.255c6.857-8.845,10.907-20.674,11.404-33.31C251.993,104.636,248.883,92.525,242.741,83.17z"/>
<path style="fill:#3E3D42;" d="M167.81,98.812c-4.405-6.709-10.963-10.716-17.993-10.992c-13.94-0.532-25.434,13.009-26.137,30.863
	c-0.701,17.856,9.68,32.272,23.635,32.82c0.273,0.011,0.544,0.016,0.815,0.016c13.583,0,24.633-13.375,25.321-30.879
	C173.769,112.587,171.764,104.836,167.81,98.812z"/>
<path style="fill:#2D2D30;" d="M167.81,98.812c-4.405-6.709-10.963-10.716-17.993-10.992c-3.932-0.15-7.668,0.82-11.023,2.69
	c3.347,1.885,6.336,4.699,8.703,8.303c3.955,6.023,5.959,13.776,5.642,21.827c-0.505,12.844-6.591,23.456-15.161,28.202
	c2.838,1.59,5.982,2.531,9.338,2.663c0.273,0.011,0.544,0.016,0.815,0.016c13.583,0,24.633-13.375,25.321-30.879
	C173.769,112.587,171.764,104.836,167.81,98.812z"/>
<path style="fill:#3E3D42;" d="M122.894,137.774c-3.195-17.581-16.457-29.401-30.201-26.899
	c-6.921,1.257-12.854,6.143-16.276,13.404c-3.073,6.518-3.971,14.474-2.53,22.403c2.909,16.006,14.163,27.233,26.525,27.233
	c1.216,0,2.444-0.109,3.676-0.332c6.921-1.258,12.854-6.143,16.276-13.404C123.437,153.658,124.335,145.703,122.894,137.774z"/>
<path style="fill:#2D2D30;" d="M122.894,137.774c-3.195-17.581-16.457-29.401-30.201-26.899c-2.457,0.447-4.787,1.359-6.927,2.665
	c7.618,4.358,13.638,13.149,15.652,24.235c1.441,7.929,0.543,15.884-2.53,22.403c-2.206,4.682-5.461,8.368-9.347,10.738
	c3.38,1.933,7.073,2.998,10.872,2.998c1.216,0,2.444-0.109,3.676-0.332c6.921-1.258,12.854-6.143,16.276-13.404
	C123.437,153.658,124.335,145.703,122.894,137.774z"/>
<path style="fill:#3E3D42;" d="M78.755,168.406c-8.32-15.814-24.52-23.109-36.877-16.605c-12.36,6.502-15.523,23.984-7.203,39.797
	c6.262,11.902,16.987,18.979,27.18,18.979c3.349-0.001,6.642-0.765,9.699-2.372c6.225-3.276,10.42-9.715,11.507-17.668
	C84.035,183.396,82.506,175.538,78.755,168.406z"/>
<path style="fill:#2D2D30;" d="M78.755,168.406c-8.31-15.795-24.481-23.09-36.833-16.627c6.598,3,12.691,8.758,16.831,16.627
	c3.752,7.131,5.28,14.99,4.304,22.131c-1.088,7.953-5.282,14.392-11.507,17.668c-0.009,0.005-0.018,0.008-0.027,0.013
	c3.377,1.532,6.882,2.36,10.33,2.359c3.349-0.001,6.642-0.765,9.699-2.372c6.225-3.276,10.42-9.715,11.507-17.668
	C84.035,183.396,82.506,175.538,78.755,168.406z"/>
<path style="fill:#3E3D42;" d="M52.625,226.779c-0.765-6.044-3.72-12.115-8.321-17.092c-4.601-4.978-10.42-8.4-16.386-9.637
	c-6.789-1.407-13.262,0.174-17.766,4.337c-4.504,4.164-6.588,10.495-5.718,17.371c0.765,6.045,3.721,12.115,8.322,17.092
	c6.161,6.664,14,10.177,21.199,10.177c4.843,0,9.396-1.589,12.953-4.878C51.411,239.987,53.495,233.655,52.625,226.779z"/>
<path style="fill:#2D2D30;" d="M52.625,226.779c-0.765-6.044-3.72-12.115-8.321-17.092c-4.601-4.978-10.42-8.4-16.386-9.637
	c-4.653-0.964-9.156-0.524-12.979,1.187c4.518,1.698,8.805,4.602,12.362,8.45c4.601,4.977,7.557,11.047,8.321,17.092
	c0.87,6.875-1.214,13.208-5.718,17.371c-1.455,1.345-3.085,2.391-4.825,3.176c2.962,1.12,5.97,1.702,8.876,1.702
	c4.843,0,9.396-1.589,12.953-4.878C51.411,239.987,53.495,233.655,52.625,226.779z"/>
<g>
</g>
<g>
</g>
<g>
</g>
<g>
</g>
<g>
</g>
<g>
</g>
<g>
</g>
<g>
</g>
<g>
</g>
<g>
</g>
<g>
</g>
<g>
</g>
<g>
</g>
<g>
</g>
<g>
</g>
</svg>
