<?xml version="1.0" encoding="iso-8859-1"?>
<!-- Generator: Adobe Illustrator 19.0.0, SVG Export Plug-In . SVG Version: 6.00 Build 0)  -->
<svg version="1.1" id="Layer_1" xmlns="http://www.w3.org/2000/svg" xmlns:xlink="http://www.w3.org/1999/xlink" x="0px" y="0px"
	 viewBox="0 0 512 512" style="enable-background:new 0 0 512 512;" xml:space="preserve">
<path style="fill:#FFB14D;" d="M512,203.076C512,94.424,397.379,6.342,255.999,6.342C114.609,6.342,0,94.424,0,203.076
	c0,96.971,91.295,177.533,211.44,193.735c6.314,38.418-5.336,79.216-34.966,108.847c63.578,0,116.063-47.434,124.033-108.841
	C420.67,380.631,512,300.06,512,203.076z"/>
<g>
	<path style="fill:#181818;" d="M344.922,149.616H167.078c-6.7,0-12.133-5.432-12.133-12.133s5.433-12.133,12.133-12.133h177.844
		c6.7,0,12.133,5.432,12.133,12.133S351.621,149.616,344.922,149.616z"/>
	<path style="fill:#181818;" d="M344.922,215.209H167.078c-6.7,0-12.133-5.432-12.133-12.133s5.433-12.133,12.133-12.133h177.844
		c6.7,0,12.133,5.432,12.133,12.133S351.621,215.209,344.922,215.209z"/>
	<path style="fill:#181818;" d="M344.922,280.779H167.078c-6.7,0-12.133-5.432-12.133-12.133c0-6.701,5.433-12.133,12.133-12.133
		h177.844c6.7,0,12.133,5.432,12.133,12.133C357.055,275.347,351.621,280.779,344.922,280.779z"/>
</g>
<g>
</g>
<g>
</g>
<g>
</g>
<g>
</g>
<g>
</g>
<g>
</g>
<g>
</g>
<g>
</g>
<g>
</g>
<g>
</g>
<g>
</g>
<g>
</g>
<g>
</g>
<g>
</g>
<g>
</g>
</svg>
