<?xml version="1.0" encoding="iso-8859-1"?>
<!-- Generator: Adobe Illustrator 19.0.0, SVG Export Plug-In . SVG Version: 6.00 Build 0)  -->
<svg version="1.1" id="Layer_1" xmlns="http://www.w3.org/2000/svg" xmlns:xlink="http://www.w3.org/1999/xlink" x="0px" y="0px"
	 viewBox="0 0 512 512" style="enable-background:new 0 0 512 512;" xml:space="preserve">
<g>
	<path style="fill:#957856;" d="M251.247,339.297c-4.138,0-7.492-3.354-7.492-7.492V295.76c0-4.137,3.353-7.492,7.492-7.492
		c4.138,0,7.492,3.354,7.492,7.492v36.046C258.739,335.943,255.384,339.297,251.247,339.297z"/>
	<path style="fill:#957856;" d="M251.247,56.58c-4.138,0-7.492-3.354-7.492-7.492V8.231c0-4.137,3.353-7.492,7.492-7.492
		c4.138,0,7.492,3.354,7.492,7.492v40.857C258.739,53.225,255.384,56.58,251.247,56.58z"/>
</g>
<path style="fill:#FFCA10;" d="M427.639,288.231c-28.961-0.745-56.092-13.085-76.398-34.745
	c-20.415-21.78-31.66-50.568-31.66-81.062v-0.001c0-30.494,11.244-59.283,31.66-81.062c20.305-21.661,47.437-34,76.398-34.745
	c4.06-0.104,7.299-3.466,7.299-7.529c0-4.137-3.353-7.492-7.492-7.492H396.96h-36.403H256.589h-48.164
	c-69.38,0-125.825,58.689-125.825,130.828c0,2.254,0.055,4.496,0.164,6.722c0.109,2.227,0.272,4.439,0.486,6.636
	c0.215,2.197,0.482,4.377,0.801,6.54c0.319,2.163,0.688,4.309,1.109,6.436c0.21,1.064,0.433,2.123,0.666,3.176
	C98.73,259.907,148.8,303.251,208.424,303.251h48.164c0.003,0,0.006-0.001,0.01-0.001h103.921c0.012,0,0.025,0.001,0.037,0.001
	h36.402h30.486c3.362,0,6.206-2.241,7.155-5.3c0.219-0.706,0.337-1.455,0.337-2.232
	C434.936,291.659,431.699,288.335,427.639,288.231z"/>
<path style="fill:#594333;" d="M508.82,298.069c-0.78-0.548-19.333-13.365-41.726-7.789c-16.549,4.119-30.373,16.91-41.085,38.016
	c-6.296,12.403-15.812,23.376-28.285,32.612c-2.892,2.143-3.852,6.037-2.287,9.279c2.928,6.061,4.411,12.577,4.411,19.366
	c0,24.597-20.011,44.608-44.607,44.608c-20.86,0-38.718-14.18-43.428-34.483c-0.87-3.748-4.444-6.23-8.251-5.738l-0.198,0.025
	c-0.588,0.076-1.176,0.151-1.755,0.222c-3.111,0.38-5.657,2.657-6.38,5.707c-4.789,20.176-22.625,34.268-43.375,34.268
	c-20.701,0-39-14.647-43.512-34.827c-0.694-3.108-3.278-5.437-6.442-5.806l-1.653-0.199c-3.835-0.47-7.397,2.058-8.225,5.831
	c-4.448,20.28-22.766,35.001-43.554,35.001c-24.596,0-44.607-20.011-44.607-44.608c0-7.887,2.097-15.648,6.063-22.443
	c1.703-2.919,1.242-6.618-1.127-9.028c-14.949-15.213-21.011-34.613-18.534-59.312c4.47-44.563-1.915-75.196-18.976-91.047
	c-9.474-8.803-22.322-12.554-35.249-10.287c-21.707,3.804-32.819,12.709-33.281,13.085c-2.293,1.871-3.269,4.917-2.493,7.772
	c0.777,2.855,3.162,4.986,6.088,5.437c26.953,4.156,39.802,17.325,38.189,39.14c-0.534,7.227-2.975,14.357-7.057,20.621
	c-22.708,34.849-35.225,68.319-37.201,99.479c-1.615,25.449,3.734,49.364,15.899,71.076c9.812,17.513,23.645,32.045,40.001,42.025
	c16.283,9.935,34.747,15.186,53.399,15.186h275.216c38.132,0,64.412-16.425,78.111-48.816
	c11.202-26.489,12.003-58.196,12.645-83.673c0.271-10.732,0.504-20.001,1.5-26.584c5.005-33.061,28.553-40.499,29.498-40.784
	c2.779-0.788,4.858-3.104,5.342-5.951C512.379,302.603,511.182,299.731,508.82,298.069z"/>
<path style="fill:#423126;" d="M508.82,298.069c-0.595-0.418-11.526-7.96-26.608-9.053c-55.868,41.515-32.294,52.177-47.275,136.643
	c-12.651,71.326-70.313,83.538-91.903,85.601h41.764c38.132,0,64.412-16.425,78.111-48.816
	c11.202-26.489,12.003-58.196,12.645-83.673c0.271-10.732,0.504-20.001,1.5-26.584c5.005-33.061,28.553-40.499,29.498-40.784
	c2.779-0.788,4.858-3.104,5.342-5.951C512.379,302.603,511.182,299.731,508.82,298.069z"/>
<path style="fill:#FFCA10;" d="M427.639,288.231c-28.961-0.745-56.092-13.085-76.398-34.745
	c-20.415-21.78-31.66-50.568-31.66-81.062v-0.001c0-30.494,11.244-59.283,31.66-81.062c20.305-21.661,47.437-34,76.398-34.745
	c4.06-0.104,7.299-3.466,7.299-7.529c0-4.137-3.353-7.492-7.492-7.492h-66.889c-69.38,0-125.825,58.689-125.825,130.828
	s56.445,130.828,125.825,130.828h66.888c4.138,0,7.492-3.394,7.492-7.532C434.936,291.659,431.699,288.335,427.639,288.231z"/>
<path style="fill:#FFA304;" d="M434.936,295.721c0-4.062-3.237-7.385-7.299-7.49c-28.961-0.745-56.092-13.085-76.398-34.745
	c-20.415-21.78-31.66-50.568-31.66-81.062v-0.001c0-30.494,11.244-59.283,31.66-81.062c20.305-21.661,47.437-34,76.398-34.745
	c4.06-0.104,7.299-3.466,7.299-7.529c0-4.137-3.353-7.492-7.492-7.492h-30.486c-69.38,0-125.825,58.689-125.825,130.828
	s56.445,130.828,125.825,130.828h30.486C431.583,303.252,434.936,299.858,434.936,295.721z"/>
<path style="fill:#F83C2B;" d="M237.96,201.934c-0.235-1.054-0.456-2.113-0.666-3.176c-0.42-2.128-0.79-4.273-1.109-6.436
	c-0.319-2.163-0.586-4.343-0.801-6.54c-0.216-2.197-0.378-4.408-0.486-6.636c-0.109-2.227-0.164-4.468-0.164-6.722
	c0-72.138,56.445-130.828,125.825-130.828h-55.441h-48.165c-69.38,0-125.825,58.689-125.825,130.828
	c0,2.254,0.055,4.496,0.164,6.722c0.109,2.227,0.272,4.439,0.486,6.636s0.482,4.377,0.801,6.54c0.319,2.163,0.688,4.309,1.109,6.436
	c0.21,1.064,0.433,2.123,0.666,3.176c12.904,57.974,62.974,101.318,122.598,101.318h48.164c0.003,0,0.006-0.001,0.01-0.001h55.388
	C300.909,303.231,250.859,259.894,237.96,201.934z"/>
<g>
	<path style="fill:#EE8700;" d="M148.466,329.963c-32.859,0-59.591,26.732-59.591,59.59c0,32.859,26.733,59.591,59.591,59.591
		s59.59-26.732,59.59-59.591C208.057,356.695,181.325,329.963,148.466,329.963z"/>
	<path style="fill:#EE8700;" d="M355.239,329.963c-32.858,0-59.59,26.732-59.59,59.59c0,32.859,26.732,59.591,59.59,59.591
		c32.859,0,59.59-26.732,59.59-59.591C414.829,356.695,388.098,329.963,355.239,329.963z"/>
</g>
<g>
	<path style="fill:#E0E0E2;" d="M148.466,358.135c-17.325,0-31.418,14.094-31.418,31.418s14.093,31.418,31.418,31.418
		s31.418-14.094,31.418-31.418S165.791,358.135,148.466,358.135z"/>
	<path style="fill:#E0E0E2;" d="M355.239,358.135c-17.325,0-31.418,14.094-31.418,31.418s14.093,31.418,31.418,31.418
		c17.325,0,31.418-14.094,31.418-31.418S372.563,358.135,355.239,358.135z"/>
</g>
<path style="fill:#FFCA10;" d="M251.852,329.963c-32.858,0-59.59,26.732-59.59,59.59c0,32.859,26.732,59.591,59.59,59.591
	s59.59-26.732,59.59-59.591C311.443,356.695,284.711,329.963,251.852,329.963z"/>
<path style="fill:#E0E0E2;" d="M251.852,358.135c-17.325,0-31.418,14.094-31.418,31.418s14.093,31.418,31.418,31.418
	s31.418-14.094,31.418-31.418S269.177,358.135,251.852,358.135z"/>
<g>
</g>
<g>
</g>
<g>
</g>
<g>
</g>
<g>
</g>
<g>
</g>
<g>
</g>
<g>
</g>
<g>
</g>
<g>
</g>
<g>
</g>
<g>
</g>
<g>
</g>
<g>
</g>
<g>
</g>
</svg>
