<?xml version="1.0" encoding="iso-8859-1"?>
<!-- Generator: Adobe Illustrator 19.0.0, SVG Export Plug-In . SVG Version: 6.00 Build 0)  -->
<svg version="1.1" id="Layer_1" xmlns="http://www.w3.org/2000/svg" xmlns:xlink="http://www.w3.org/1999/xlink" x="0px" y="0px"
	 viewBox="0 0 512 512" style="enable-background:new 0 0 512 512;" xml:space="preserve">
<path style="fill:#EE8700;" d="M366.146,382.013c-9.05-21.978-34.293-32.496-56.27-23.447c-21.978,9.05-32.496,34.291-23.447,56.27
	c4.384,10.646,12.651,18.948,23.279,23.377c5.343,2.226,10.959,3.339,16.579,3.339c5.558,0,11.118-1.09,16.412-3.27
	c10.646-4.384,18.948-12.651,23.378-23.278C370.505,404.376,370.53,392.659,366.146,382.013z"/>
<path style="fill:#BA6500;" d="M366.146,382.013c-9.05-21.978-34.293-32.496-56.27-23.447c-0.903,0.372-1.779,0.781-2.642,1.206
	c9.109,4.473,16.69,12.143,20.848,22.242c4.383,10.646,4.359,22.362-0.069,32.991c-4.058,9.738-11.374,17.484-20.76,22.087
	c0.805,0.395,1.62,0.775,2.454,1.123c5.343,2.226,10.959,3.339,16.579,3.339c5.558,0,11.118-1.09,16.412-3.27
	c10.646-4.384,18.948-12.651,23.378-23.278C370.505,404.376,370.53,392.659,366.146,382.013z"/>
<path style="fill:#FFCA10;" d="M417.02,327.777c-16.807-16.805-44.153-16.804-60.96,0.001c-16.806,16.807-16.806,44.152,0,60.959
	h0.001c8.403,8.402,19.44,12.604,30.478,12.604c11.039,0,22.078-4.201,30.48-12.604C433.826,371.93,433.826,344.584,417.02,327.777z
	"/>
<path style="fill:#FFA304;" d="M417.02,327.777c-13.372-13.371-33.412-16.09-49.511-8.184c4.134,2.031,8.013,4.751,11.447,8.184
	c16.807,16.807,16.807,44.153,0.001,60.96c-3.434,3.434-7.313,6.154-11.448,8.185c5.983,2.938,12.504,4.419,19.031,4.419
	c11.039,0,22.078-4.201,30.48-12.604C433.826,371.93,433.826,344.584,417.02,327.777z"/>
<path style="fill:#EE8700;" d="M442.96,259.108h-0.001c-10.624-4.439-22.339-4.474-32.99-0.1
	c-10.65,4.374-18.96,12.634-23.398,23.257c-4.439,10.623-4.474,22.339-0.101,32.991c4.374,10.65,12.634,18.96,23.256,23.398
	c5.354,2.236,10.983,3.355,16.615,3.355c5.546,0,11.093-1.085,16.376-3.254c10.65-4.374,18.96-12.634,23.398-23.257
	C475.278,293.566,464.891,268.27,442.96,259.108z"/>
<path style="fill:#BA6500;" d="M442.96,259.108L442.96,259.108c-10.625-4.439-22.34-4.474-32.991-0.1
	c-0.905,0.371-1.786,0.781-2.655,1.208c20.26,9.959,29.556,34.175,20.738,55.281c-4.061,9.722-11.371,17.454-20.744,22.05
	c0.793,0.389,1.596,0.764,2.417,1.107c5.354,2.236,10.983,3.354,16.615,3.354c5.546,0,11.093-1.085,16.376-3.254
	c10.65-4.374,18.96-12.634,23.398-23.257C475.278,293.566,464.891,268.27,442.96,259.108z"/>
<path style="fill:#FFCA10;" d="M440.612,184.612c-23.768,0-43.104,19.336-43.104,43.104s19.336,43.104,43.104,43.104
	c23.768,0,43.104-19.336,43.104-43.104S464.38,184.612,440.612,184.612z"/>
<path style="fill:#FFA304;" d="M440.612,184.612c-6.829,0-13.288,1.604-19.032,4.442c14.247,7.042,24.072,21.724,24.072,38.662
	s-9.825,31.62-24.072,38.662c5.744,2.839,12.203,4.442,19.032,4.442c23.768,0,43.104-19.336,43.104-43.104
	S464.38,184.612,440.612,184.612z"/>
<path style="fill:#EE8700;" d="M466.566,141.017c-9.05-21.978-34.293-32.497-56.27-23.446c-21.978,9.05-32.496,34.291-23.447,56.269
	c6.846,16.627,22.957,26.693,39.914,26.693c5.457,0,11.005-1.044,16.356-3.247C465.098,188.236,475.615,162.995,466.566,141.017z"/>
<path style="fill:#BA6500;" d="M466.566,141.017c-9.049-21.978-34.293-32.497-56.27-23.446c-0.903,0.372-1.779,0.78-2.641,1.205
	c9.108,4.473,16.69,12.143,20.848,22.241c8.678,21.076-0.647,45.146-20.81,55.066c5.888,2.892,12.413,4.45,19.071,4.45
	c5.457,0,11.005-1.044,16.356-3.247C465.098,188.236,475.615,162.995,466.566,141.017z"/>
<path style="fill:#FFCA10;" d="M417.02,66.696c-16.807-16.807-44.154-16.806-60.959,0c-0.001,0-0.001,0-0.001,0
	c-16.806,16.806-16.806,44.152,0.001,60.96c8.403,8.402,19.44,12.604,30.478,12.604c11.039,0,22.078-4.201,30.48-12.604
	C433.826,110.849,433.826,83.502,417.02,66.696z"/>
<path style="fill:#FFA304;" d="M417.02,66.696c-13.372-13.372-33.413-16.092-49.512-8.185c4.135,2.03,8.014,4.751,11.448,8.185
	c16.807,16.806,16.807,44.152,0.001,60.959c-3.434,3.434-7.313,6.154-11.448,8.185c5.983,2.938,12.504,4.419,19.031,4.419
	c11.039,0,22.078-4.201,30.48-12.604C433.826,110.849,433.826,83.502,417.02,66.696z"/>
<path style="fill:#EE8700;" d="M367.039,40.998c-4.374-10.65-12.634-18.96-23.257-23.398c-10.625-4.44-22.342-4.473-32.991-0.1
	c-10.65,4.374-18.96,12.633-23.398,23.257c-9.162,21.932,1.226,47.227,23.157,56.389c5.353,2.236,10.982,3.354,16.614,3.354
	c5.546,0,11.091-1.085,16.376-3.255c10.65-4.374,18.96-12.634,23.398-23.257C371.377,63.364,371.412,51.648,367.039,40.998z"/>
<path style="fill:#BA6500;" d="M367.039,40.998c-4.374-10.65-12.634-18.96-23.257-23.398c-10.625-4.44-22.342-4.473-32.991-0.1
	c-0.905,0.372-1.786,0.781-2.654,1.208c9.455,4.639,16.804,12.465,20.839,22.291c4.374,10.65,4.338,22.366-0.101,32.991
	c-4.061,9.722-11.371,17.453-20.743,22.05c0.792,0.389,1.594,0.764,2.418,1.108c5.353,2.236,10.982,3.355,16.614,3.355
	c5.546,0,11.092-1.085,16.376-3.255c10.65-4.374,18.96-12.634,23.398-23.257C371.377,63.364,371.412,51.648,367.039,40.998z"/>
<path style="fill:#FFCA10;" d="M255.999,0c-23.768,0-43.104,19.336-43.104,43.104s19.336,43.104,43.104,43.104
	c23.768,0,43.104-19.336,43.104-43.104C299.105,19.336,279.769,0,255.999,0z"/>
<path style="fill:#EE8700;" d="M225.571,40.597c-9.051-21.978-34.293-32.496-56.27-23.447
	c-10.646,4.384-18.948,12.651-23.378,23.278c-4.429,10.628-4.453,22.344-0.07,32.991c4.385,10.646,12.651,18.948,23.279,23.377
	c5.343,2.226,10.959,3.339,16.579,3.339c5.558,0,11.118-1.09,16.412-3.27c10.646-4.383,18.948-12.651,23.377-23.278
	C229.93,62.96,229.954,51.243,225.571,40.597z"/>
<path style="fill:#FFA304;" d="M255.999,0c-6.829,0-13.288,1.604-19.032,4.442c14.247,7.042,24.073,21.724,24.073,38.662
	s-9.826,31.62-24.073,38.662c5.744,2.839,12.203,4.442,19.032,4.442c23.768,0,43.104-19.336,43.104-43.104
	C299.105,19.336,279.769,0,255.999,0z"/>
<path style="fill:#EE8700;" d="M225.571,40.597c-9.051-21.978-34.293-32.496-56.27-23.447c-0.901,0.371-1.778,0.78-2.644,1.205
	c9.109,4.473,16.692,12.143,20.85,22.241c4.383,10.646,4.359,22.362-0.07,32.991c-4.057,9.738-11.373,17.484-20.759,22.086
	c0.805,0.395,1.62,0.775,2.454,1.123c5.343,2.226,10.96,3.339,16.579,3.339c5.558,0,11.118-1.09,16.412-3.27
	c10.646-4.383,18.948-12.651,23.377-23.278C229.93,62.96,229.954,51.243,225.571,40.597z"/>
<path style="fill:#BA6500;" d="M225.571,40.597c-9.051-21.978-34.293-32.496-56.27-23.447c-0.901,0.371-1.778,0.78-2.644,1.205
	c9.109,4.473,16.692,12.143,20.85,22.241c4.383,10.646,4.359,22.362-0.07,32.991c-4.057,9.738-11.373,17.484-20.759,22.086
	c0.805,0.395,1.62,0.775,2.454,1.123c5.343,2.226,10.96,3.339,16.579,3.339c5.558,0,11.118-1.09,16.412-3.27
	c10.646-4.383,18.948-12.651,23.377-23.278C229.93,62.96,229.954,51.243,225.571,40.597z"/>
<path style="fill:#FFCA10;" d="M155.94,66.696c-8.142-8.142-18.966-12.625-30.479-12.625s-22.338,4.484-30.478,12.625
	c-8.143,8.142-12.627,18.966-12.627,30.479c0,11.514,4.484,22.338,12.626,30.479c8.404,8.403,19.442,12.605,30.479,12.605
	c11.038,0,22.076-4.201,30.479-12.605C172.745,110.849,172.745,83.502,155.94,66.696z"/>
<path style="fill:#FFA304;" d="M155.94,66.696c-8.142-8.142-18.966-12.625-30.479-12.625c-6.711,0-13.184,1.534-19.032,4.417
	c4.185,2.063,8.052,4.812,11.448,8.208c16.806,16.806,16.806,44.152,0,60.959c-3.434,3.434-7.313,6.154-11.448,8.185
	c5.983,2.938,12.505,4.42,19.032,4.42c11.038,0,22.076-4.201,30.479-12.605C172.745,110.849,172.745,83.502,155.94,66.696z"/>
<path style="fill:#EE8700;" d="M102.273,116.778L102.273,116.778c-10.624-4.438-22.34-4.474-32.991-0.1s-18.96,12.634-23.398,23.257
	c-9.163,21.931,1.226,47.227,23.157,56.389c5.353,2.236,10.982,3.355,16.614,3.355c5.546,0,11.091-1.085,16.376-3.255
	c10.65-4.374,18.96-12.634,23.398-23.257C134.591,151.236,124.203,125.941,102.273,116.778z"/>
<path style="fill:#BA6500;" d="M102.273,116.778L102.273,116.778c-10.624-4.438-22.34-4.474-32.991-0.1
	c-0.905,0.371-1.786,0.781-2.655,1.208c20.26,9.959,29.556,34.175,20.738,55.281c-4.061,9.722-11.371,17.453-20.743,22.05
	c0.792,0.389,1.594,0.764,2.418,1.108c5.353,2.236,10.982,3.355,16.614,3.355c5.546,0,11.091-1.085,16.376-3.255
	c10.65-4.374,18.96-12.634,23.398-23.257C134.591,151.236,124.203,125.941,102.273,116.778z"/>
<path style="fill:#FFCA10;" d="M71.388,184.612c-23.768,0-43.104,19.336-43.104,43.104s19.336,43.104,43.104,43.104
	s43.104-19.336,43.104-43.104S95.156,184.612,71.388,184.612z"/>
<path style="fill:#FFA304;" d="M71.388,184.612c-6.829,0-13.289,1.604-19.032,4.442c14.247,7.042,24.072,21.724,24.072,38.662
	s-9.826,31.62-24.072,38.662c5.744,2.839,12.203,4.442,19.032,4.442c23.768,0,43.104-19.336,43.104-43.104
	S95.156,184.612,71.388,184.612z"/>
<path style="fill:#EE8700;" d="M125.151,281.593c-9.05-21.978-34.289-32.498-56.27-23.446c-21.978,9.049-32.496,34.29-23.447,56.269
	c6.846,16.627,22.957,26.695,39.914,26.694c5.458-0.001,11.005-1.044,16.356-3.247c10.646-4.384,18.948-12.651,23.378-23.279
	C129.51,303.956,129.534,292.238,125.151,281.593z"/>
<path style="fill:#BA6500;" d="M125.151,281.593c-9.05-21.978-34.289-32.498-56.27-23.446c-0.902,0.372-1.778,0.78-2.64,1.205
	c9.108,4.474,16.689,12.144,20.847,22.241c4.383,10.646,4.359,22.362-0.07,32.991c-4.055,9.731-11.364,17.473-20.74,22.077
	c5.888,2.891,12.412,4.45,19.07,4.45c5.458-0.001,11.004-1.044,16.356-3.247c10.646-4.384,18.948-12.651,23.378-23.279
	C129.51,303.956,129.534,292.238,125.151,281.593z"/>
<path style="fill:#FFCA10;" d="M155.94,327.777c-16.808-16.807-44.152-16.807-60.96,0h0.001
	c-8.143,8.141-12.627,18.966-12.627,30.479c0,11.513,4.484,22.338,12.626,30.479c8.404,8.403,19.442,12.605,30.479,12.605
	c11.038,0,22.076-4.201,30.479-12.605C172.745,371.93,172.745,344.584,155.94,327.777z"/>
<path style="fill:#FFA304;" d="M155.94,327.777c-13.373-13.373-33.413-16.092-49.512-8.185c4.135,2.031,8.014,4.751,11.448,8.185
	c16.806,16.807,16.806,44.152,0,60.959c-3.434,3.434-7.313,6.154-11.448,8.185c5.983,2.938,12.505,4.42,19.032,4.42
	c11.038,0,22.076-4.201,30.479-12.605C172.745,371.93,172.745,344.584,155.94,327.777z"/>
<path style="fill:#EE8700;" d="M201.452,358.287c-21.933-9.163-47.226,1.227-56.389,23.157
	c-9.162,21.931,1.227,47.227,23.157,56.389c5.414,2.261,11.029,3.331,16.559,3.331c16.874,0,32.929-9.971,39.83-26.487l0,0
	C233.771,392.745,223.382,367.449,201.452,358.287z"/>
<path style="fill:#BA6500;" d="M201.452,358.287c-11.926-4.983-24.842-4.173-35.622,1.12c20.244,9.966,29.531,34.171,20.716,55.269
	v0.001c-4.179,10.004-11.719,17.599-20.762,22.04c0.797,0.392,1.606,0.77,2.436,1.117c5.414,2.261,11.029,3.331,16.559,3.331
	c16.874,0,32.929-9.971,39.83-26.487v-0.001C233.771,392.745,223.382,367.449,201.452,358.287z"/>
<path style="fill:#503C2E;" d="M255.384,391.218c-33.3,0-60.391,27.091-60.391,60.391S222.084,512,255.384,512
	s60.391-27.091,60.391-60.391C315.775,418.309,288.683,391.218,255.384,391.218z"/>
<path style="fill:#423126;" d="M255.384,391.218c-6.977,0-13.676,1.204-19.915,3.39c23.541,8.249,40.476,30.678,40.476,57.001
	s-16.935,48.752-40.476,57.001c6.24,2.186,12.938,3.39,19.915,3.39c33.3,0,60.391-27.091,60.391-60.391
	S288.683,391.218,255.384,391.218z"/>
<path style="fill:#957856;" d="M255.384,424.476c-14.961,0-27.133,12.172-27.133,27.133c0,14.961,12.172,27.133,27.133,27.133
	c14.96,0,27.132-12.172,27.132-27.133C282.516,436.648,270.344,424.476,255.384,424.476z"/>
<g>
</g>
<g>
</g>
<g>
</g>
<g>
</g>
<g>
</g>
<g>
</g>
<g>
</g>
<g>
</g>
<g>
</g>
<g>
</g>
<g>
</g>
<g>
</g>
<g>
</g>
<g>
</g>
<g>
</g>
</svg>
