<svg height="512pt" viewBox="0 -5 512.00051 512" width="512pt" xmlns="http://www.w3.org/2000/svg"><path d="m256 502.585938c473.855469-248.367188 178.105469-532.679688 0-358.617188-178.105469-174.0625-473.855469 110.25 0 358.617188zm0 0" fill="#da5b65"/><path d="m154.5 91.773438c-157.625-21.578126-287.832031 206.746093 101.5 410.8125 7.039062-3.691407 13.902344-7.386719 20.605469-11.089844-330.914063-182.863282-254.941407-381.105469-122.105469-399.722656zm0 0" fill="#c0344a"/><g fill="#3a484a"><path d="m139.632812 320.109375c-4.269531 0-7.726562-3.457031-7.726562-7.726563v-21.058593c0-4.269531 3.457031-7.726563 7.726562-7.726563 4.269532 0 7.726563 3.457032 7.726563 7.726563v21.058593c0 4.269532-3.460937 7.726563-7.726563 7.726563zm0 0"/><path d="m372.367188 320.109375c-4.265626 0-7.726563-3.457031-7.726563-7.726563v-21.058593c0-4.269531 3.460937-7.726563 7.726563-7.726563 4.269531 0 7.726562 3.457032 7.726562 7.726563v21.058593c0 4.269532-3.457031 7.726563-7.726562 7.726563zm0 0"/><path d="m256 331.351562c-13.421875 0-26.011719-5.59375-34.539062-15.347656-2.808594-3.214844-2.480469-8.09375.734374-10.902344 3.210938-2.808593 8.09375-2.480468 10.902344.730469 5.589844 6.398438 13.9375 10.066407 22.902344 10.066407s17.3125-3.667969 22.902344-10.066407c2.808594-3.210937 7.691406-3.539062 10.90625-.730469 3.210937 2.808594 3.539062 7.6875.730468 10.902344-8.527343 9.753906-21.117187 15.347656-34.539062 15.347656zm0 0"/></g><path d="m461.457031 63.828125c4.273438 10.5625 13.359375 27.476563 32.097657 46.039063 1.511718 1.5 1.511718 3.949218 0 5.449218-18.738282 18.5625-27.828126 35.476563-32.097657 46.039063-1.292969 3.199219-5.8125 3.199219-7.105469 0-4.269531-10.5625-13.359374-27.476563-32.09375-46.039063-1.515624-1.5-1.515624-3.949218 0-5.449218 18.734376-18.5625 27.824219-35.476563 32.09375-46.039063 1.292969-3.199219 5.8125-3.199219 7.105469 0zm0 0" fill="#ffcd38"/><path d="m414.246094 1.570312c2.796875 6.90625 8.738281 17.972657 20.996094 30.113282.988281.980468.988281 2.582031 0 3.5625-12.257813 12.144531-18.199219 23.207031-20.996094 30.113281-.84375 2.09375-3.800782 2.09375-4.648438 0-2.792968-6.90625-8.734375-17.972656-20.992187-30.113281-.988281-.980469-.988281-2.582032 0-3.5625 12.253906-12.140625 18.199219-23.207032 20.992187-30.113282.847656-2.09375 3.804688-2.09375 4.648438 0zm0 0" fill="#e7b835"/></svg>