<?xml version="1.0" encoding="iso-8859-1"?>
<!-- Generator: Adobe Illustrator 19.0.0, SVG Export Plug-In . SVG Version: 6.00 Build 0)  -->
<svg version="1.1" id="Layer_1" xmlns="http://www.w3.org/2000/svg" xmlns:xlink="http://www.w3.org/1999/xlink" x="0px" y="0px"
	 viewBox="0 0 512 512" style="enable-background:new 0 0 512 512;" xml:space="preserve">
<path style="fill:#269AF2;" d="M476.209,354.275h-59.45v109.194h59.45c13.346,0,24.265-10.919,24.265-24.265V378.54
	C500.474,365.194,489.555,354.275,476.209,354.275z"/>
<path style="fill:#EE3840;" d="M476.209,201.403h-59.45v109.194h59.45c13.346,0,24.265-10.919,24.265-24.265v-60.663
	C500.474,212.322,489.555,201.403,476.209,201.403z"/>
<path style="fill:#C21B23;" d="M476.209,48.531h-59.45v109.194h59.45c13.346,0,24.265-10.919,24.265-24.265V72.796
	C500.474,59.45,489.555,48.531,476.209,48.531z"/>
<path style="fill:#181818;" d="M149.839,0v512H98.882c-26.692,0-48.531-21.839-48.531-48.531V48.531C50.351,21.839,72.19,0,98.882,0
	H149.839z"/>
<path style="fill:#4C5870;" d="M441.024,48.531v414.938c0,26.692-21.839,48.531-48.531,48.531H149.839V0h242.654
	C419.185,0,441.024,21.839,441.024,48.531z"/>
<g>
	<path style="fill:#BEC8D6;" d="M77.043,86.142H23.659c-6.7,0-12.133-5.432-12.133-12.133c0-6.701,5.433-12.133,12.133-12.133
		h53.384c6.7,0,12.133,5.432,12.133,12.133C89.175,80.71,83.742,86.142,77.043,86.142z"/>
	<path style="fill:#BEC8D6;" d="M77.043,207.469H23.659c-6.7,0-12.133-5.432-12.133-12.133s5.433-12.133,12.133-12.133h53.384
		c6.7,0,12.133,5.432,12.133,12.133S83.742,207.469,77.043,207.469z"/>
	<path style="fill:#BEC8D6;" d="M77.043,328.796H23.659c-6.7,0-12.133-5.432-12.133-12.133s5.433-12.133,12.133-12.133h53.384
		c6.7,0,12.133,5.432,12.133,12.133C89.175,323.364,83.742,328.796,77.043,328.796z"/>
	<path style="fill:#BEC8D6;" d="M77.043,450.123H23.659c-6.7,0-12.133-5.432-12.133-12.133s5.433-12.133,12.133-12.133h53.384
		c6.7,0,12.133,5.432,12.133,12.133S83.742,450.123,77.043,450.123z"/>
</g>
<g>
</g>
<g>
</g>
<g>
</g>
<g>
</g>
<g>
</g>
<g>
</g>
<g>
</g>
<g>
</g>
<g>
</g>
<g>
</g>
<g>
</g>
<g>
</g>
<g>
</g>
<g>
</g>
<g>
</g>
</svg>
