<?xml version="1.0" encoding="iso-8859-1"?>
<!-- Generator: Adobe Illustrator 19.0.0, SVG Export Plug-In . SVG Version: 6.00 Build 0)  -->
<svg version="1.1" id="Layer_1" xmlns="http://www.w3.org/2000/svg" xmlns:xlink="http://www.w3.org/1999/xlink" x="0px" y="0px"
	 viewBox="0 0 512 512" style="enable-background:new 0 0 512 512;" xml:space="preserve">
<circle style="fill:#E27C3E;" cx="256" cy="256" r="256"/>
<path style="fill:#ECF0F0;" d="M331.435,162.593V94h-76.547h-73.453v68.593c0,0-2.488,38.77,29.016,56.526
	C230.67,230.513,250.798,244,250.732,256h4.156h4.141c-0.066-12,21.615-25.487,41.835-36.881
	C332.366,201.362,331.435,162.593,331.435,162.593z"/>
<path style="fill:#D3D6D6;" d="M181.435,350.89V418h73.453h76.547v-67.11c0,0,0.939-39.514-30.565-57.268
	C280.649,282.225,258.979,268,259.045,256h-4.157h-4.143c0.07,12-20.068,26.225-40.285,37.622
	C178.956,311.375,181.435,350.89,181.435,350.89z"/>
<path style="fill:#334D5C;" d="M343.435,78.499c0,4.694-3.806,8.5-8.5,8.5h-157c-4.694,0-8.5-3.806-8.5-8.5l0,0
	c0-4.694,3.806-8.5,8.5-8.5h157C339.629,69.999,343.435,73.805,343.435,78.499L343.435,78.499z"/>
<path style="fill:#233540;" d="M335.962,90.5c0,2.188-2.53,3.5-5.62,3.5H179.435c-3.093,0-5.619-1.312-5.619-3.5
	s2.526-3.5,5.619-3.5h150.907C333.432,87,335.962,88.312,335.962,90.5z"/>
<path style="fill:#233540;" d="M335.962,421.5c0,2.186-2.53,3.5-5.62,3.5H179.435c-3.093,0-5.619-1.314-5.619-3.5
	s2.526-3.5,5.619-3.5h150.907C333.432,418,335.962,419.314,335.962,421.5z"/>
<path style="fill:#334D5C;" d="M343.435,433.5c0,4.694-3.806,8.5-8.5,8.5h-157c-4.694,0-8.5-3.806-8.5-8.5l0,0
	c0-4.694,3.806-8.5,8.5-8.5h157C339.629,425,343.435,428.805,343.435,433.5L343.435,433.5z"/>
<path style="fill:#D9B543;" d="M182.349,418c0,0,32.42-45.26,72.533-45.26S327.429,418,327.429,418H182.349z"/>
<path style="fill:#EFC84A;" d="M246.925,194.165c-25.64-9.062-45.156-12.15-59.47-12.553c3.083,11.294,9.847,25.051,24.69,33.418
	c21.096,11.888,36.742,22.345,42.736,32.645c5.996-10.299,21.642-20.755,42.74-32.645c9.63-5.427,15.853-13.162,19.887-21.021
	C301.465,201.234,278.059,205.17,246.925,194.165z"/>
<path style="fill:#EFC84A;" d="M253.175,242.555c0.287,43.982,0.574,87.965,0.86,131.947c0.013,2.201,3.427,2.202,3.413,0
	c-0.287-43.982-0.573-87.965-0.859-131.947C256.575,240.354,253.161,240.353,253.175,242.555L253.175,242.555z"/>
<path style="fill:#D9B543;" d="M257.448,374.13c-0.256-39.254-0.514-79.13-0.767-118.13h-1.794h-1.619
	c0.253,39,0.51,78.69,0.767,117.944C254.048,376.143,257.462,376.332,257.448,374.13z"/>
<path style="opacity:0.3;fill:#5D5D5D;enable-background:new    ;" d="M307.399,425.316l-6.827-6.631L192.546,310.302
	c-12.699,18.494-11.111,40.587-11.111,40.587V418h-2c-3.093,0-5.619,1.314-5.619,3.5s2.526,3.5,5.619,3.5h-2.312
	c-4.711,0-8.533,3.787-8.533,8.5c0,4.714,3.822,8.5,8.533,8.5h147.343L307.399,425.316z"/>
<path style="opacity:0.3;fill:#5D5D5D;enable-background:new    ;" d="M207.274,94.608l-6.826-7.186L183.382,70h-6.26
	c-4.711,0-8.533,3.787-8.533,8.5c0,4.714,3.822,8.5,8.533,8.5h2.312c-3.093,0-5.619,1.312-5.619,3.5s2.526,3.5,5.619,3.5h2v68.593
	c0,0-2.488,38.77,29.016,56.526C230.67,230.513,250.798,244,250.732,256h0.014h8.283c-0.066-12,21.26-25.487,41.48-36.881
	c7.196-4.057,12.666-9.046,16.846-14.615L207.274,94.608z"/>
<g>
</g>
<g>
</g>
<g>
</g>
<g>
</g>
<g>
</g>
<g>
</g>
<g>
</g>
<g>
</g>
<g>
</g>
<g>
</g>
<g>
</g>
<g>
</g>
<g>
</g>
<g>
</g>
<g>
</g>
</svg>
