<?xml version="1.0" encoding="iso-8859-1"?>
<!-- Generator: Adobe Illustrator 19.0.0, SVG Export Plug-In . SVG Version: 6.00 Build 0)  -->
<svg version="1.1" id="Layer_1" xmlns="http://www.w3.org/2000/svg" xmlns:xlink="http://www.w3.org/1999/xlink" x="0px" y="0px"
	 viewBox="0 0 512 512" style="enable-background:new 0 0 512 512;" xml:space="preserve">
<path style="fill:#B2B1B5;" d="M256,70.482c-4.142,0-7.499-3.358-7.499-7.499V36.626c0-4.142,3.358-7.499,7.499-7.499
	s7.499,3.358,7.499,7.499v26.357C263.5,67.124,260.142,70.482,256,70.482z"/>
<path style="fill:#C6C5CA;" d="M474.959,146.159L258.886,56.06c-1.848-0.771-3.926-0.771-5.773,0L37.041,146.159
	c-3.3,1.376-5.169,4.889-4.468,8.393c0.701,3.505,3.779,6.028,7.353,6.028h432.146c3.575,0,6.652-2.523,7.353-6.028
	C480.129,151.048,478.259,147.535,474.959,146.159z"/>
<path style="fill:#B2B1B5;" d="M474.959,146.159L258.886,56.06c-1.848-0.771-3.926-0.771-5.773,0l-21.855,9.113l228.803,95.406
	h12.012c3.575,0,6.652-2.523,7.353-6.028C480.129,151.048,478.259,147.535,474.959,146.159z"/>
<path style="fill:#C6C5CA;" d="M108.095,205.896c-0.194-3.996-3.491-7.134-7.49-7.134H65.116c-4,0-7.296,3.14-7.49,7.134
	l-7.919,162.752c-0.1,2.05,0.645,4.051,2.061,5.538c1.416,1.486,3.378,2.327,5.431,2.327h51.328c2.052,0,4.015-0.841,5.431-2.327
	c1.415-1.486,2.16-3.487,2.061-5.538L108.095,205.896z"/>
<path style="fill:#B2B1B5;" d="M88.891,376.512h19.633c2.052,0,4.015-0.841,5.431-2.327c1.415-1.486,2.16-3.487,2.061-5.538
	l-7.92-162.752c-0.194-3.996-3.491-7.134-7.49-7.134H80.241L88.891,376.512z"/>
<path style="fill:#C6C5CA;" d="M194.664,205.896c-0.194-3.996-3.491-7.134-7.49-7.134h-35.488c-4.001,0-7.296,3.14-7.49,7.134
	l-7.919,162.752c-0.1,2.05,0.645,4.051,2.06,5.538c1.416,1.486,3.379,2.327,5.431,2.327h51.328c2.052,0,4.015-0.841,5.431-2.327
	c1.415-1.486,2.16-3.487,2.061-5.538L194.664,205.896z"/>
<path style="fill:#B2B1B5;" d="M175.461,376.512h19.633c2.052,0,4.015-0.841,5.431-2.327c1.415-1.486,2.16-3.487,2.061-5.538
	l-7.92-162.752c-0.194-3.996-3.491-7.134-7.49-7.134h-20.363L175.461,376.512z"/>
<path style="fill:#C6C5CA;" d="M281.234,205.896c-0.194-3.996-3.491-7.134-7.49-7.134h-35.488c-4.001,0-7.296,3.14-7.49,7.134
	l-7.919,162.752c-0.1,2.05,0.645,4.051,2.061,5.538c1.416,1.486,3.379,2.327,5.431,2.327h51.328c2.052,0,4.015-0.841,5.431-2.327
	c1.416-1.486,2.16-3.487,2.061-5.538L281.234,205.896z"/>
<path style="fill:#B2B1B5;" d="M262.031,376.512h19.633c2.052,0,4.015-0.841,5.431-2.327c1.416-1.486,2.16-3.487,2.061-5.538
	l-7.92-162.752c-0.194-3.996-3.491-7.134-7.49-7.134h-20.363L262.031,376.512z"/>
<path style="fill:#C6C5CA;" d="M367.805,205.896c-0.194-3.996-3.491-7.134-7.49-7.134h-35.488c-4.001,0-7.296,3.14-7.49,7.134
	l-7.919,162.752c-0.1,2.05,0.645,4.051,2.061,5.538c1.416,1.486,3.379,2.327,5.431,2.327h51.328c2.052,0,4.015-0.841,5.431-2.327
	c1.415-1.486,2.16-3.487,2.061-5.538L367.805,205.896z"/>
<path style="fill:#B2B1B5;" d="M348.601,376.512h19.633c2.052,0,4.015-0.841,5.431-2.327c1.415-1.486,2.16-3.487,2.061-5.538
	l-7.919-162.752c-0.194-3.996-3.491-7.134-7.49-7.134h-20.363L348.601,376.512z"/>
<path style="fill:#C6C5CA;" d="M454.375,205.896c-0.194-3.996-3.491-7.134-7.49-7.134h-35.488c-4.001,0-7.296,3.14-7.49,7.134
	l-7.919,162.752c-0.1,2.05,0.645,4.051,2.061,5.538c1.416,1.486,3.378,2.327,5.431,2.327h51.328c2.052,0,4.015-0.841,5.431-2.327
	c1.415-1.486,2.16-3.487,2.061-5.538L454.375,205.896z"/>
<path style="fill:#B2B1B5;" d="M435.171,376.512h19.633c2.052,0,4.015-0.841,5.431-2.327c1.415-1.486,2.16-3.487,2.061-5.538
	l-7.92-162.752c-0.194-3.996-3.491-7.134-7.49-7.134h-20.363L435.171,376.512z"/>
<path style="fill:#E0E0E2;" d="M472.073,145.582H39.927c-4.142,0-7.499,3.358-7.499,7.499v53.18c0,4.142,3.358,7.499,7.499,7.499
	h432.146c4.142,0,7.499-3.358,7.499-7.499v-53.18C479.573,148.94,476.215,145.582,472.073,145.582z"/>
<path style="fill:#C6C5CA;" d="M472.073,145.582h-29.998v68.179h29.998c4.142,0,7.499-3.358,7.499-7.499v-53.18
	C479.573,148.94,476.215,145.582,472.073,145.582z"/>
<path style="fill:#E0E0E2;" d="M472.073,361.514H39.927c-4.142,0-7.499,3.358-7.499,7.499v53.181c0,4.142,3.358,7.499,7.499,7.499
	h432.146c4.142,0,7.499-3.358,7.499-7.499v-53.181C479.573,364.871,476.215,361.514,472.073,361.514z"/>
<g>
	<path style="fill:#C6C5CA;" d="M472.073,361.514h-27.998v68.18h27.998c4.142,0,7.499-3.358,7.499-7.499v-53.181
		C479.573,364.871,476.215,361.514,472.073,361.514z"/>
	<path style="fill:#C6C5CA;" d="M504.501,414.694H7.499c-4.142,0-7.499,3.358-7.499,7.499v53.181c0,4.142,3.358,7.499,7.499,7.499
		h497.001c4.142,0,7.499-3.358,7.499-7.499v-53.181C512,418.051,508.642,414.694,504.501,414.694z"/>
</g>
<path style="fill:#B2B1B5;" d="M504.501,414.694h-29.998v68.18h29.998c4.142,0,7.499-3.358,7.499-7.499v-53.181
	C512,418.051,508.642,414.694,504.501,414.694z"/>
<g>
</g>
<g>
</g>
<g>
</g>
<g>
</g>
<g>
</g>
<g>
</g>
<g>
</g>
<g>
</g>
<g>
</g>
<g>
</g>
<g>
</g>
<g>
</g>
<g>
</g>
<g>
</g>
<g>
</g>
</svg>
