<?xml version="1.0" encoding="iso-8859-1"?>
<!-- Generator: Adobe Illustrator 19.0.0, SVG Export Plug-In . SVG Version: 6.00 Build 0)  -->
<svg version="1.1" id="Layer_1" xmlns="http://www.w3.org/2000/svg" xmlns:xlink="http://www.w3.org/1999/xlink" x="0px" y="0px"
	 viewBox="0 0 512 512" style="enable-background:new 0 0 512 512;" xml:space="preserve">
<g>
	<rect x="123.833" y="54.772" style="fill:#181818;" width="23.814" height="71.442"/>
	<rect x="364.353" y="54.772" style="fill:#181818;" width="23.814" height="71.442"/>
</g>
<polygon style="fill:#ADA7A4;" points="64.298,190.908 64.298,512 307.2,512 351.851,488.186 396.502,512 447.702,512 
	447.702,190.908 "/>
<rect x="307.2" y="317.916" style="fill:#181818;" width="89.302" height="194.084"/>
<rect x="115.498" y="317.916" style="fill:#FFFFFF;" width="140.502" height="142.884"/>
<rect x="111.926" style="fill:#FFB14D;" width="288.149" height="66.679"/>
<g>
	<polygon style="fill:#EE3840;" points="64.298,114.307 28.577,190.908 104.385,214.722 180.192,190.908 209.675,152.608 
		192.099,114.307 	"/>
	<polygon style="fill:#EE3840;" points="447.702,114.307 483.423,190.908 407.615,214.722 331.808,190.908 302.325,152.608 
		319.901,114.307 	"/>
</g>
<path style="fill:#C21B23;" d="M28.577,190.908c0,41.869,33.94,75.808,75.808,75.808c41.867,0,75.808-33.94,75.808-75.808
	L28.577,190.908L28.577,190.908z"/>
<polygon style="fill:#FFE1D6;" points="319.901,114.307 192.099,114.307 180.192,190.908 256,214.722 331.808,190.908 "/>
<path style="fill:#FFB14D;" d="M180.192,190.908c0,41.869,33.941,75.808,75.808,75.808s75.808-33.94,75.808-75.808L180.192,190.908
	L180.192,190.908z"/>
<path style="fill:#C21B23;" d="M331.808,190.908c0,41.867,33.94,75.808,75.808,75.808s75.807-33.94,75.807-75.808H331.808z"/>
<g>
</g>
<g>
</g>
<g>
</g>
<g>
</g>
<g>
</g>
<g>
</g>
<g>
</g>
<g>
</g>
<g>
</g>
<g>
</g>
<g>
</g>
<g>
</g>
<g>
</g>
<g>
</g>
<g>
</g>
</svg>
