<svg height="512pt" viewBox="-28 0 512 512.00082" width="512pt" xmlns="http://www.w3.org/2000/svg"><path d="m162.386719 380.339844v131.660156h37.417969l27.820312-9.167969 27.820312 9.167969h37.421876v-131.660156zm0 0" fill="#efedee"/><path d="m292.867188 512 19.328124-77.503906-19.328124-54.15625h-130.480469l-17.082031 56.90625 17.082031 74.753906zm0 0" fill="#efedee"/><path d="m376.121094 512h-83.253906v-131.660156s83.253906 28.691406 83.253906 131.660156zm0 0" fill="#465059"/><path d="m162.386719 380.339844v131.660156h-83.253907c0-102.96875 83.253907-131.660156 83.253907-131.660156zm0 0" fill="#465059"/><path d="m162.386719 390.960938v-10.621094s-83.253907 28.691406-83.253907 131.660156h20.605469c0-69.566406 37.996094-105.222656 62.648438-121.039062zm0 0" fill="#3c474d"/><path d="m199.804688 512c0-42.996094 13.007812-88.878906 13.007812-88.878906l14.8125-17.53125 14.8125 17.53125s13.007812 45.882812 13.007812 88.878906zm0 0" fill="#c0344a"/><path d="m258.695312 388.058594s-.71875 14.105468-16.257812 35.0625h-29.625c-15.535156-20.953125-16.253906-35.0625-16.253906-35.0625zm0 0" fill="#da5b65"/><path d="m114.761719 512v-40.464844c0-4.269531 3.460937-7.726562 7.726562-7.726562s7.726563 3.457031 7.726563 7.726562v40.464844zm0 0" fill="#3c474d"/><path d="m325.039062 512v-40.464844c0-4.269531 3.457032-7.726562 7.726563-7.726562 4.265625 0 7.726563 3.457031 7.726563 7.726562v40.464844zm0 0" fill="#3c474d"/><path d="m369.542969 15.253906c-8.734375-11.855468-23.601563-17.488281-38.011719-14.4375-19.773438 4.1875-53.589844 9.058594-103.90625 9.058594-57.636719 0-111.898438 21.347656-152.792969 60.113281-41.324219 39.171875-64.085937 91.378907-64.085937 146.996094h433.757812c0-88.148437-48.773437-166.183594-74.960937-201.730469zm0 0" fill="#c86d5c"/><path d="m62.257812 206.679688c0-55.617188 22.757813-107.820313 64.082032-146.992188 23.675781-22.445312 51.835937-39.035156 82.535156-49.039062-50.578125 4.113281-97.617188 24.808593-134.042969 59.339843-41.324219 39.171875-64.085937 91.378907-64.085937 146.996094h433.757812c0-3.453125-.082031-6.886719-.226562-10.304687zm0 0" fill="#ad4f3d"/><path d="m455.25 220.238281c0 22.121094-17.929688 40.054688-40.050781 40.054688-22.125 0-40.054688-17.933594-40.054688-40.054688 0-22.121093 17.929688-40.054687 40.054688-40.054687 22.121093 0 40.050781 17.933594 40.050781 40.054687zm0 0" fill="#dfb297"/><path d="m394.699219 136.097656c-7.480469-13.847656-19.875-24.425781-34.792969-29.433594-89.070312-29.90625-171.847656 7.28125-253.089844-5.121093-12.757812-1.949219-25.503906 3.464843-33.152344 13.863281-21.183593 28.796875-33.609374 63.808594-33.609374 101.578125 0 98.195313 83.980468 177.800781 187.574218 177.800781 103.589844 0 187.570313-79.601562 187.570313-177.800781 0-29.132813-7.398438-56.625-20.5-80.886719zm0 0" fill="#fbc4ac"/><path d="m70.960938 216.984375c0-37.769531 12.425781-72.785156 33.609374-101.578125 4.1875-5.695312 9.914063-9.882812 16.324219-12.195312-4.695312-.410157-9.390625-.953126-14.078125-1.667969-12.757812-1.949219-25.503906 3.464843-33.152344 13.863281-14.152343 19.234375-24.386718 41.25-29.628906 65.003906-1.230468-.148437-2.550781-.222656-3.980468-.222656-22.121094 0-40.054688 17.929688-40.054688 40.050781 0 22.121094 17.933594 40.054688 40.054688 40.054688 2.039062 0 3.863281-.152344 5.5-.449219 20.234374 77.492188 94.070312 134.941406 182.070312 134.941406 5.207031 0 10.355469-.210937 15.453125-.605468-96.363281-7.449219-172.117187-83.933594-172.117187-177.195313zm0 0" fill="#dfb297"/><path d="m325.605469 232.050781c-4.269531 0-7.726563-3.460937-7.726563-7.726562v-19.050781c0-4.269532 3.457032-7.726563 7.726563-7.726563 4.265625 0 7.726562 3.457031 7.726562 7.726563v19.050781c0 4.265625-3.460937 7.726562-7.726562 7.726562zm0 0" fill="#3a484a"/><path d="m338.578125 260.050781h-25.949219c-4.265625 0-7.726562-3.460937-7.726562-7.726562s3.460937-7.726563 7.726562-7.726563h25.949219c4.269531 0 7.726563 3.460938 7.726563 7.726563s-3.457032 7.726562-7.726563 7.726562zm0 0" fill="#f98084"/><path d="m129.648438 232.050781c-4.269532 0-7.726563-3.460937-7.726563-7.726562v-19.050781c0-4.269532 3.457031-7.726563 7.726563-7.726563 4.265624 0 7.726562 3.457031 7.726562 7.726563v19.050781c0 4.265625-3.460938 7.726562-7.726562 7.726562zm0 0" fill="#3a484a"/><path d="m142.621094 260.050781h-25.949219c-4.265625 0-7.726563-3.460937-7.726563-7.726562s3.460938-7.726563 7.726563-7.726563h25.949219c4.265625 0 7.726562 3.460938 7.726562 7.726563s-3.460937 7.726562-7.726562 7.726562zm0 0" fill="#f98084"/><path d="m227.625 258.976562c-9.058594 0-17.566406-3.789062-23.339844-10.394531-2.808594-3.214843-2.480468-8.097656.730469-10.902343 3.214844-2.808594 8.09375-2.480469 10.902344.730468 2.839843 3.25 7.109375 5.109375 11.707031 5.109375 4.601562 0 8.867188-1.863281 11.707031-5.109375 2.808594-3.214844 7.691407-3.542968 10.902344-.734375 3.214844 2.808594 3.542969 7.691407.734375 10.902344-5.773438 6.609375-14.285156 10.398437-23.34375 10.398437zm0 0" fill="#3a484a"/></svg>