<svg height="511pt" viewBox="-24 1 511 511.99998" width="511pt" xmlns="http://www.w3.org/2000/svg"><path d="m9.316406 212.414062c0-57.0625 23.34375-110.613281 65.730469-150.792968 41.921875-39.738282 97.535156-61.621094 156.605469-61.621094 59.035156 0 114.628906 21.863281 156.542968 61.5625 42.378907 40.136719 65.742188 93.648438 65.789063 150.671875v.371094zm0 0" fill="#465059"/><path d="m67.007812 212.414062c0-57.0625 23.34375-110.613281 65.730469-150.792968 35.019531-33.195313 79.597657-53.917969 127.757813-59.847656-9.492188-1.167969-19.121094-1.773438-28.84375-1.773438-59.070313 0-114.683594 21.882812-156.605469 61.621094-42.386719 40.179687-65.730469 93.730468-65.730469 150.792968l444.667969.191407v-.023438zm0 0" fill="#3c474d"/><path d="m18.015625 259.769531c0 114.710938 100.964844 150.339844 100.964844 150.339844h53.554687v-75.167969l-101.066406-81.46875zm0 0" fill="#465059"/><path d="m59.222656 259.769531 17.5-2.0625-5.253906-4.234375-53.453125 6.296875c0 114.710938 100.964844 150.339844 100.964844 150.339844h41.207031s-100.964844-35.628906-100.964844-150.339844zm0 0" fill="#3c474d"/><path d="m445.285156 259.769531c0 114.710938-100.960937 150.339844-100.960937 150.339844h-53.558594v-75.167969l101.066406-81.46875zm0 0" fill="#465059"/><path d="m372.347656 454.449219c-22.425781-58.207031-74.445312-76.144531-74.445312-76.144531h-132.503906s-46.425782 15.996093-70.476563 66.847656c-1.414063 2.980468-2.742187 6.078125-3.976563 9.300781l58.257813 57.546875h164.894531zm0 0" fill="#b9a8ff"/><path d="m121.851562 454.453125c1.234376-3.222656 2.5625-6.320313 3.976563-9.300781 24.050781-50.855469 70.476563-66.847656 70.476563-66.847656h-30.90625s-46.425782 15.992187-70.476563 66.847656c-1.414063 2.980468-2.742187 6.078125-3.976563 9.300781zm0 0" fill="#a394e0"/><path d="m462.800781 226.339844c0 22.464844-18.210937 40.671875-40.671875 40.671875-22.464844 0-40.675781-18.207031-40.675781-40.671875s18.210937-40.675782 40.675781-40.675782c22.460938 0 40.671875 18.210938 40.671875 40.675782zm0 0" fill="#dfb297"/><path d="m276.636719 392.96875c0 24.84375-20.140625 44.984375-44.984375 44.984375s-44.984375-20.140625-44.984375-44.984375 20.140625-44.984375 44.984375-44.984375 44.984375 20.140625 44.984375 44.984375zm0 0" fill="#dfb297"/><path d="m422.128906 212.382812c-.003906-12.730468-1.402344-25.148437-4.050781-37.136718-109.136719 0-226.425781-94.5625-226.425781-94.5625-60.839844 85.601562-146.3125 94.550781-146.429688 94.5625-2.644531 11.984375-4.046875 24.402344-4.046875 37.132812v-.347656.382812.382813-.347656c.019531 99.703125 85.289063 180.519531 190.472657 180.519531 105.1875 0 190.460937-80.820312 190.476562-180.527344v.355469c0-.128906 0-.257813 0-.382813 0-.128906 0-.253906 0-.382812v.351562zm0 0" fill="#fbc4ac"/><path d="m72.082031 212.445312v.351563c0-.128906 0-.257813 0-.386719 0-.125 0-.253906 0-.382812v.351562c0-8.648437.648438-28.421875 1.890625-43.96875-17.351562 5.636719-28.707031 6.828125-28.75 6.835938-.761718 3.453125-1.410156 6.949218-1.960937 10.472656-.671875-.035156-1.367188-.054688-2.085938-.054688-22.464843 0-40.675781 18.207032-40.675781 40.671876 0 22.464843 18.210938 40.675781 40.675781 40.675781 3.351563 0 6.140625-.414063 8.476563-1.179688 24.03125 73.636719 96.421875 127.132813 182 127.132813 5.203125 0 10.355468-.203125 15.453125-.589844-97.960938-7.457031-175.003907-85.15625-175.023438-179.929688zm0 0" fill="#dfb297"/><path d="m331.148438 227.59375c-4.265626 0-7.726563-3.460938-7.726563-7.726562v-19.34375c0-4.269532 3.460937-7.726563 7.726563-7.726563 4.265624 0 7.726562 3.457031 7.726562 7.726563v19.34375c0 4.265624-3.460938 7.726562-7.726562 7.726562zm0 0" fill="#3a484a"/><path d="m344.320312 256.027344h-26.347656c-4.269531 0-7.726562-3.457032-7.726562-7.726563 0-4.265625 3.457031-7.726562 7.726562-7.726562h26.347656c4.269532 0 7.726563 3.460937 7.726563 7.726562 0 4.269531-3.457031 7.726563-7.726563 7.726563zm0 0" fill="#f98084"/><path d="m132.15625 227.59375c-4.269531 0-7.726562-3.460938-7.726562-7.726562v-19.34375c0-4.269532 3.457031-7.726563 7.726562-7.726563 4.265625 0 7.726562 3.457031 7.726562 7.726563v19.34375c0 4.265624-3.460937 7.726562-7.726562 7.726562zm0 0" fill="#3a484a"/><path d="m145.328125 256.027344h-26.347656c-4.265625 0-7.726563-3.457032-7.726563-7.726563 0-4.265625 3.460938-7.726562 7.726563-7.726562h26.347656c4.269531 0 7.726563 3.460937 7.726563 7.726562 0 4.269531-3.457032 7.726563-7.726563 7.726563zm0 0" fill="#f98084"/><path d="m231.652344 254.9375c-9.164063 0-17.773438-3.832031-23.613282-10.515625-2.808593-3.214844-2.480468-8.09375.730469-10.902344 3.214844-2.808593 8.09375-2.480469 10.902344.730469 2.90625 3.328125 7.273437 5.234375 11.980469 5.234375 4.703125 0 9.070312-1.90625 11.976562-5.234375 2.808594-3.210938 7.6875-3.539062 10.902344-.730469 3.214844 2.808594 3.539062 7.6875.734375 10.902344-5.84375 6.683594-14.449219 10.515625-23.613281 10.515625zm0 0" fill="#3a484a"/><path d="m91.816406 486.71875c-8.664062 0-15.691406-7.027344-15.691406-15.691406v-28.59375c0-8.667969 7.027344-15.695313 15.691406-15.695313 8.667969 0 15.691406 7.027344 15.691406 15.695313v28.59375c0 8.664062-7.023437 15.691406-15.691406 15.691406zm0 0" fill="#dfb297"/><path d="m107.421875 451.324219c-5.816406 0-11.371094 1.109375-16.476563 3.128906-22.402343 8.859375-33.882812 35.082031-25.304687 57.546875h83.566406c1.890625-4.957031 2.9375-10.335938 2.9375-15.953125 0-24.699219-20.023437-44.722656-44.722656-44.722656zm0 0" fill="#fbc4ac"/><path d="m371.484375 486.71875c8.667969 0 15.691406-7.027344 15.691406-15.691406v-28.59375c0-8.667969-7.023437-15.695313-15.691406-15.695313-8.664063 0-15.691406 7.027344-15.691406 15.695313v28.59375c0 8.664062 7.023437 15.691406 15.691406 15.691406zm0 0" fill="#dfb297"/><path d="m355.878906 451.324219c5.816406 0 11.371094 1.109375 16.476563 3.128906 22.402343 8.859375 33.886719 35.082031 25.304687 57.546875h-83.5625c-1.894531-4.957031-2.941406-10.335938-2.941406-15.953125 0-24.699219 20.023438-44.722656 44.722656-44.722656zm0 0" fill="#fbc4ac"/></svg>