<?xml version="1.0" encoding="iso-8859-1"?>
<!-- Generator: Adobe Illustrator 19.0.0, SVG Export Plug-In . SVG Version: 6.00 Build 0)  -->
<svg version="1.1" id="Layer_1" xmlns="http://www.w3.org/2000/svg" xmlns:xlink="http://www.w3.org/1999/xlink" x="0px" y="0px"
	 viewBox="0 0 511.999 511.999" style="enable-background:new 0 0 511.999 511.999;" xml:space="preserve">
<path style="fill:#CC7400;" d="M397.321,106.666c-13.595-12.312-27.183-20.695-35.494-25.265l41.407-70.058
	c1.373-2.324,1.395-5.207,0.058-7.551C401.953,1.448,399.46,0,396.76,0H259.088c-2.64,0-5.088,1.385-6.447,3.651l-15.7,26.167
	c-0.181,0.302-0.34,0.615-0.477,0.939l-5.488,12.971l-9.055-15.847c-0.324-0.566-0.719-1.088-1.177-1.552L196.961,2.236
	C195.548,0.806,193.621,0,191.611,0h-76.372c-2.7,0-5.193,1.448-6.53,3.792c-1.338,2.345-1.316,5.228,0.058,7.551l41.406,70.058
	c-8.311,4.57-21.9,12.953-35.495,25.265c-28.762,26.047-43.629,57.293-42.994,90.361c0.613,31.87,13.019,93.728,36.874,183.853
	c17.691,66.836,35.438,125.209,35.615,125.79c0.964,3.166,3.883,5.328,7.193,5.328h209.267c3.309,0,6.228-2.162,7.193-5.328
	c0.177-0.581,17.924-58.955,35.614-125.79c23.856-90.126,36.263-151.983,36.875-183.853
	C440.95,163.961,426.083,132.714,397.321,106.666z"/>
<path style="fill:#BA6500;" d="M397.321,106.666c-13.595-12.312-27.183-20.695-35.494-25.265l41.407-70.058
	c1.373-2.324,1.395-5.207,0.058-7.551C401.953,1.448,399.46,0,396.76,0h-38.817c2.7,0,5.193,1.448,6.531,3.792
	c1.337,2.345,1.316,5.228-0.058,7.551l-41.407,70.058c8.311,4.57,21.9,12.953,35.494,25.265
	c28.762,26.047,43.63,57.293,42.995,90.361c-0.612,31.87-13.019,93.728-36.875,183.853c-17.69,66.836-35.438,125.209-35.614,125.79
	c-0.964,3.166-3.884,5.328-7.193,5.328h38.817c3.309,0,6.228-2.162,7.193-5.328c0.177-0.581,17.924-58.955,35.614-125.79
	c23.856-90.126,36.263-151.983,36.875-183.853C440.95,163.961,426.083,132.714,397.321,106.666z"/>
<path style="fill:#A05700;" d="M362.048,81.526c-0.072-0.04-0.15-0.084-0.222-0.123l41.407-70.058
	c1.373-2.324,1.395-5.207,0.058-7.551C401.953,1.448,399.46,0,396.76,0H259.088c-2.64,0-5.088,1.385-6.447,3.651l-15.7,26.167
	c-0.181,0.302-0.34,0.615-0.477,0.939l-5.488,12.971l-9.055-15.847c-0.324-0.566-0.719-1.088-1.177-1.552L196.961,2.236
	C195.548,0.806,193.621,0,191.611,0h-76.372c-2.7,0-5.193,1.448-6.53,3.792c-1.338,2.345-1.316,5.228,0.058,7.551l41.406,70.058
	c-0.071,0.039-0.15,0.084-0.223,0.123L362.048,81.526L362.048,81.526z"/>
<g>
	<path style="fill:#874600;" d="M364.474,3.792c1.337,2.345,1.316,5.228-0.058,7.551l-41.407,70.058
		c0.071,0.039,0.15,0.084,0.222,0.123h38.817c-0.072-0.04-0.15-0.084-0.222-0.123l41.407-70.058
		c1.373-2.324,1.395-5.207,0.058-7.551C401.953,1.448,399.46,0,396.76,0h-38.817C360.643,0,363.136,1.448,364.474,3.792z"/>
	<path style="fill:#874600;" d="M167.417,171.121l0.639,23.616c0.056,2.097,0.986,4.074,2.564,5.455l26.4,23.1
		c1.426,1.248,3.191,1.86,4.948,1.86c2.092,0,4.175-0.869,5.661-2.568c2.735-3.125,2.418-7.874-0.708-10.609l-23.924-20.933
		l-0.736-27.236c-0.105-3.908-3.186-7.081-7.086-7.304l-22.683-1.295l-3.294-24.378c-0.262-1.939-1.268-3.698-2.806-4.906
		l-28.314-22.247c-1.132,0.972-2.265,1.963-3.399,2.99c-2.684,2.43-5.246,4.906-7.686,7.424l27.712,21.773l3.717,27.502
		c0.482,3.57,3.426,6.294,7.022,6.499L167.417,171.121z"/>
</g>
<path style="fill:#A05700;" d="M76.995,243.47c5.813,34.03,16.359,79.969,31.563,137.411c4.125,15.584,8.253,30.707,12.161,44.746
	H391.28c3.908-14.038,8.036-29.161,12.16-44.746c15.205-57.442,25.75-103.38,31.564-137.411H76.995z"/>
<path style="fill:#894700;" d="M396.187,243.47c-5.813,34.03-16.359,79.969-31.564,137.411c-4.125,15.584-8.252,30.707-12.16,44.746
	h38.817c3.908-14.038,8.036-29.161,12.16-44.746c15.205-57.442,25.75-103.38,31.564-137.411H396.187z"/>
<path style="fill:#6B563E;" d="M82.753,273.713c6.107,29.503,14.717,65.278,25.805,107.167c1.293,4.887,2.586,9.726,3.873,14.503
	h287.133c1.287-4.777,2.58-9.616,3.874-14.503c11.088-41.891,19.699-77.664,25.806-107.167H82.753z"/>
<path style="fill:#544332;" d="M390.429,273.713c-6.107,29.503-14.718,65.278-25.806,107.167c-1.293,4.887-2.587,9.726-3.874,14.503
	h38.817c1.287-4.777,2.58-9.616,3.874-14.503c11.088-41.891,19.699-77.664,25.806-107.167H390.429z"/>
<path style="fill:#FFA304;" d="M407.569,365.12c1.325-5.114,2.608-10.121,3.854-15.037h-39.639v-9.286h13.757
	c4.153,0,7.518-3.365,7.518-7.518v-26.55c0-4.153-3.365-7.518-7.518-7.518h-45.589c-4.153,0-7.518,3.365-7.518,7.518v43.354H301.51
	v-9.286h13.757c4.153,0,7.518-3.365,7.518-7.518v-26.55c0-4.153-3.365-7.518-7.518-7.518h-45.589c-4.153,0-7.518,3.365-7.518,7.518
	v43.354h-31.161v-9.286h13.756c4.152,0,7.518-3.365,7.518-7.518v-26.55c0-4.153-3.366-7.518-7.518-7.518h-45.589
	c-4.152,0-7.518,3.365-7.518,7.518v43.354h-29.864v-9.286h13.756c4.152,0,7.518-3.365,7.518-7.518v-26.55
	c0-4.153-3.366-7.518-7.518-7.518H129.95c-4.152,0-7.518,3.365-7.518,7.518v43.354h-21.859c1.246,4.916,2.529,9.923,3.854,15.037
	h25.523c4.152,0,7.518-3.365,7.518-7.518v-43.354h30.552v11.513h-13.756c-4.152,0-7.518,3.365-7.518,7.518v24.323
	c0,4.153,3.366,7.518,7.518,7.518h44.901c4.152,0,7.518-3.365,7.518-7.518v-43.354h30.552v11.513H223.48
	c-4.152,0-7.518,3.365-7.518,7.518v24.323c0,4.153,3.366,7.518,7.518,7.518h46.198c4.152,0,7.518-3.365,7.518-7.518v-43.354h30.552
	v11.513h-13.757c-4.153,0-7.518,3.365-7.518,7.518v24.323c0,4.153,3.365,7.518,7.518,7.518h45.961c4.153,0,7.518-3.365,7.518-7.518
	v-43.354h30.552v11.513h-13.757c-4.153,0-7.518,3.365-7.518,7.518v24.323c0,4.153,3.365,7.518,7.518,7.518H407.569z"/>
<g>
	<path style="fill:#E58905;" d="M385.541,340.798c4.153,0,7.518-3.365,7.518-7.518v-26.55c0-4.153-3.365-7.518-7.518-7.518h-0.661
		c-2.929,12.907-6.242,26.773-9.938,41.587H385.541z"/>
	<path style="fill:#E58905;" d="M411.423,350.083h-38.816c-1.245,4.914-2.53,9.925-3.855,15.037h38.817
		C408.894,360.007,410.177,354.998,411.423,350.083z"/>
</g>
<g>
</g>
<g>
</g>
<g>
</g>
<g>
</g>
<g>
</g>
<g>
</g>
<g>
</g>
<g>
</g>
<g>
</g>
<g>
</g>
<g>
</g>
<g>
</g>
<g>
</g>
<g>
</g>
<g>
</g>
</svg>
