<?xml version="1.0" encoding="iso-8859-1"?>
<!-- Generator: Adobe Illustrator 19.0.0, SVG Export Plug-In . SVG Version: 6.00 Build 0)  -->
<svg version="1.1" id="Layer_1" xmlns="http://www.w3.org/2000/svg" xmlns:xlink="http://www.w3.org/1999/xlink" x="0px" y="0px"
	 viewBox="0 0 512 512" style="enable-background:new 0 0 512 512;" xml:space="preserve">
<polygon style="fill:#E6E2E0;" points="305.39,372.506 206.61,372.506 206.61,462.61 256,479.632 305.39,462.61 "/>
<g>
	<path style="fill:#CCC4C1;" d="M305.39,437.995h-98.78c-6.697,0-12.126-5.429-12.126-12.126c0-6.697,5.429-12.126,12.126-12.126
		h98.78c6.697,0,12.126,5.429,12.126,12.126C317.516,432.566,312.087,437.995,305.39,437.995z"/>
	<path style="fill:#CCC4C1;" d="M206.61,462.61c0,27.277,22.113,49.39,49.39,49.39s49.39-22.113,49.39-49.39H206.61z"/>
</g>
<path style="fill:#FFB14D;" d="M424.19,168.19C424.19,75.302,348.889,0,256,0S87.81,75.302,87.81,168.19
	c0,62.813,34.438,117.574,85.456,146.457c0,0,0,0,6.557,48.392c1.838,13.572,13.09,24.831,26.787,24.831h13.01l12.126-12.126
	l12.126,12.126h24.253l12.126-12.126l12.126,12.126h13.009c13.696,0,24.948-11.258,26.787-24.831
	c6.557-48.392,6.557-48.392,6.557-48.392C389.752,285.763,424.19,231.001,424.19,168.19z"/>
<path style="fill:#FFFFFF;" d="M327.662,177.485c-4.369-3.036-10.206-2.87-14.395,0.406l-24.899,19.485l-24.899-19.485
	c-4.39-3.435-10.557-3.435-14.947,0l-24.893,19.484l-24.896-19.484c-4.188-3.278-10.026-3.444-14.395-0.407
	s-6.248,8.565-4.634,13.635l39.917,125.41v71.339h24.253v-61.097h24.253v61.097h24.253v-71.339l39.915-125.41
	C333.909,186.05,332.03,180.521,327.662,177.485z M271.387,302.519h-30.774l-25.879-81.308l1.42,1.112
	c4.39,3.435,10.557,3.435,14.948,0l24.893-19.484l24.899,19.485c4.39,3.435,10.556,3.434,14.947,0l1.425-1.116L271.387,302.519z"/>
<g>
</g>
<g>
</g>
<g>
</g>
<g>
</g>
<g>
</g>
<g>
</g>
<g>
</g>
<g>
</g>
<g>
</g>
<g>
</g>
<g>
</g>
<g>
</g>
<g>
</g>
<g>
</g>
<g>
</g>
</svg>
