<?xml version="1.0" encoding="iso-8859-1"?>
<!-- Generator: Adobe Illustrator 19.0.0, SVG Export Plug-In . SVG Version: 6.00 Build 0)  -->
<svg version="1.1" id="Layer_1" xmlns="http://www.w3.org/2000/svg" xmlns:xlink="http://www.w3.org/1999/xlink" x="0px" y="0px"
	 viewBox="0 0 512 512" style="enable-background:new 0 0 512 512;" xml:space="preserve">
<rect y="167.65" style="fill:#E6E2E0;" width="512" height="300.139"/>
<rect y="85.463" style="fill:#EE3840;" width="512" height="82.187"/>
<g>
	<path style="fill:#ADA7A4;" d="M104.93,260.763H65.485c-6.701,0-12.133-5.432-12.133-12.133s5.432-12.133,12.133-12.133h39.445
		c6.701,0,12.133,5.432,12.133,12.133S111.631,260.763,104.93,260.763z"/>
	<path style="fill:#ADA7A4;" d="M218.767,260.763h-39.445c-6.701,0-12.133-5.432-12.133-12.133s5.432-12.133,12.133-12.133h39.445
		c6.701,0,12.133,5.432,12.133,12.133S225.468,260.763,218.767,260.763z"/>
	<path style="fill:#ADA7A4;" d="M332.606,260.763h-39.445c-6.701,0-12.133-5.432-12.133-12.133s5.432-12.133,12.133-12.133h39.445
		c6.701,0,12.133,5.432,12.133,12.133S339.307,260.763,332.606,260.763z"/>
</g>
<path style="fill:#EE3840;" d="M446.443,260.763h-39.445c-6.701,0-12.133-5.432-12.133-12.133s5.432-12.133,12.133-12.133h39.445
	c6.701,0,12.133,5.432,12.133,12.133S453.144,260.763,446.443,260.763z"/>
<g>
	<path style="fill:#ADA7A4;" d="M104.93,329.251H65.485c-6.701,0-12.133-5.432-12.133-12.133s5.432-12.133,12.133-12.133h39.445
		c6.701,0,12.133,5.432,12.133,12.133S111.631,329.251,104.93,329.251z"/>
	<path style="fill:#ADA7A4;" d="M218.767,329.251h-39.445c-6.701,0-12.133-5.432-12.133-12.133s5.432-12.133,12.133-12.133h39.445
		c6.701,0,12.133,5.432,12.133,12.133S225.468,329.251,218.767,329.251z"/>
	<path style="fill:#ADA7A4;" d="M332.606,329.251h-39.445c-6.701,0-12.133-5.432-12.133-12.133s5.432-12.133,12.133-12.133h39.445
		c6.701,0,12.133,5.432,12.133,12.133S339.307,329.251,332.606,329.251z"/>
</g>
<path style="fill:#EE3840;" d="M446.443,329.251h-39.445c-6.701,0-12.133-5.432-12.133-12.133s5.432-12.133,12.133-12.133h39.445
	c6.701,0,12.133,5.432,12.133,12.133S453.144,329.251,446.443,329.251z"/>
<g>
	<path style="fill:#ADA7A4;" d="M104.93,397.738H65.485c-6.701,0-12.133-5.432-12.133-12.133s5.432-12.133,12.133-12.133h39.445
		c6.701,0,12.133,5.432,12.133,12.133S111.631,397.738,104.93,397.738z"/>
	<path style="fill:#ADA7A4;" d="M218.767,397.738h-39.445c-6.701,0-12.133-5.432-12.133-12.133s5.432-12.133,12.133-12.133h39.445
		c6.701,0,12.133,5.432,12.133,12.133S225.468,397.738,218.767,397.738z"/>
	<path style="fill:#ADA7A4;" d="M332.606,397.738h-39.445c-6.701,0-12.133-5.432-12.133-12.133s5.432-12.133,12.133-12.133h39.445
		c6.701,0,12.133,5.432,12.133,12.133S339.307,397.738,332.606,397.738z"/>
</g>
<path style="fill:#EE3840;" d="M446.443,397.738h-39.445c-6.701,0-12.133-5.432-12.133-12.133s5.432-12.133,12.133-12.133h39.445
	c6.701,0,12.133,5.432,12.133,12.133S453.144,397.738,446.443,397.738z"/>
<g>
	<path style="fill:#181818;" d="M111.73,103.385c0,12.881-10.443,23.324-23.324,23.324s-23.324-10.443-23.324-23.324v-35.85
		c0-12.881,10.443-23.324,23.324-23.324s23.324,10.443,23.324,23.324V103.385z"/>
	<path style="fill:#181818;" d="M223.459,103.385c0,12.881-10.443,23.324-23.324,23.324c-12.881,0-23.324-10.443-23.324-23.324
		v-35.85c0-12.881,10.443-23.324,23.324-23.324c12.881,0,23.324,10.443,23.324,23.324V103.385z"/>
	<path style="fill:#181818;" d="M446.918,103.385c0,12.881-10.443,23.324-23.324,23.324s-23.324-10.443-23.324-23.324v-35.85
		c0-12.881,10.443-23.324,23.324-23.324s23.324,10.443,23.324,23.324V103.385z"/>
	<path style="fill:#181818;" d="M335.189,103.385c0,12.881-10.443,23.324-23.324,23.324s-23.324-10.443-23.324-23.324v-35.85
		c0-12.881,10.443-23.324,23.324-23.324s23.324,10.443,23.324,23.324V103.385z"/>
</g>
<g>
</g>
<g>
</g>
<g>
</g>
<g>
</g>
<g>
</g>
<g>
</g>
<g>
</g>
<g>
</g>
<g>
</g>
<g>
</g>
<g>
</g>
<g>
</g>
<g>
</g>
<g>
</g>
<g>
</g>
</svg>
