<svg height="511pt" viewBox="1 -33 511.99998 511" width="511pt" xmlns="http://www.w3.org/2000/svg"><path d="m112.117188 298.078125-65.910157 133.71875c-2.992187 6.515625 1.769531 13.941406 8.941407 13.941406h29.992187c5.378906 0 10.261719-3.128906 12.507813-8.015625l59.199218-119.109375zm0 0" fill="#465059"/><path d="m278.796875 298.078125 65.910156 133.71875c2.996094 6.515625-1.769531 13.941406-8.941406 13.941406h-29.992187c-5.375 0-10.261719-3.128906-12.503907-8.015625l-59.203125-119.109375zm0 0" fill="#465059"/><path d="m497.914062 181.191406 14.085938-28.300781h-62.511719l-18.949219 28.300781 33.71875 14.765625zm0 0" fill="#dfb297"/><path d="m497.914062 210.726562 14.085938 28.300782h-62.511719l-18.949219-28.300782 33.71875-14.769531zm0 0" fill="#dfb297"/><path d="m278.796875 298.078125-44.730469 20.535156 43.824219 88.167969c15.316406-6.007812 29.820313-13.644531 43.304687-22.683594zm0 0" fill="#3c474d"/><path d="m69.71875 384.09375c13.488281 9.042969 27.992188 16.679688 43.308594 22.6875l43.824218-88.167969-44.734374-20.535156zm0 0" fill="#3c474d"/><path d="m195.457031 391.417969c-107.773437 0-195.457031-87.683594-195.457031-195.460938 0-107.773437 87.683594-195.457031 195.457031-195.457031 107.777344 0 195.460938 87.683594 195.460938 195.457031 0 107.777344-87.683594 195.460938-195.460938 195.460938zm0 0" fill="#465059"/><path d="m195.457031 338.988281c-78.867187 0-143.03125-64.164062-143.03125-143.03125 0-78.867187 64.164063-143.03125 143.03125-143.03125 78.867188 0 143.03125 64.164063 143.03125 143.03125 0 78.867188-64.164062 143.03125-143.03125 143.03125zm0 0" fill="#49c3e0"/><path d="m195.457031 286.5625c-49.957031 0-90.605469-40.644531-90.605469-90.605469 0-49.957031 40.648438-90.605469 90.605469-90.605469 49.960938 0 90.605469 40.648438 90.605469 90.605469 0 49.960938-40.644531 90.605469-90.605469 90.605469zm0 0" fill="#da5b65"/><path d="m233.636719 195.957031c0 21.085938-17.09375 38.179688-38.179688 38.179688-21.085937 0-38.175781-17.09375-38.175781-38.179688 0-21.085937 17.089844-38.175781 38.175781-38.175781 21.085938 0 38.179688 17.089844 38.179688 38.175781zm0 0" fill="#ffcd38"/><path d="m497.914062 181.191406h-292.613281c-8.390625 0-15.148437 7-14.746093 15.480469.371093 7.941406 7.214843 14.054687 15.164062 14.054687h292.195312c3.429688 0 6.210938-2.78125 6.210938-6.214843v-17.109375c0-3.429688-2.78125-6.210938-6.210938-6.210938zm0 0" fill="#ad4f3d"/></svg>