<?xml version="1.0" encoding="iso-8859-1"?>
<!-- Generator: Adobe Illustrator 19.0.0, SVG Export Plug-In . SVG Version: 6.00 Build 0)  -->
<svg version="1.1" id="Layer_1" xmlns="http://www.w3.org/2000/svg" xmlns:xlink="http://www.w3.org/1999/xlink" x="0px" y="0px"
	 viewBox="0 0 512 512" style="enable-background:new 0 0 512 512;" xml:space="preserve">
<rect style="fill:#3D3D3B;" width="512" height="512"/>
<rect x="60.664" y="60.664" style="fill:#7A7674;" width="390.673" height="390.673"/>
<g>
	<path style="fill:#ADA7A4;" d="M304.507,171.981L256,316.664l-48.507-144.682c14.268-8.262,30.841-12.982,48.507-12.982
		S290.238,163.719,304.507,171.981z"/>
	<path style="fill:#ADA7A4;" d="M207.469,231.735L353.001,256c0,35.913-19.497,67.252-48.494,84.019L207.469,231.735z"/>
	<path style="fill:#ADA7A4;" d="M292.398,231.735l-84.905,108.284c-28.997-16.767-48.494-48.106-48.494-84.019L292.398,231.735z"/>
</g>
<g>
	<path style="fill:#CCC4C1;" d="M353.001,256H256l48.507-84.019C333.504,188.748,353.001,220.087,353.001,256z"/>
	<path style="fill:#CCC4C1;" d="M256,256l48.507,84.019c-14.268,8.262-30.841,12.982-48.507,12.982s-34.238-4.72-48.507-12.982
		L256,256z"/>
	<path style="fill:#CCC4C1;" d="M207.493,171.981L256,256h-97.001C158.999,220.087,178.496,188.748,207.493,171.981z"/>
</g>
<circle style="fill:#E6E2E0;" cx="256" cy="256" r="48.531"/>
<g>
	<path style="fill:#CCC4C1;" d="M60.664,208.682c-10.722,0-19.412-8.691-19.412-19.412v-60.663c0-10.722,8.691-19.412,19.412-19.412
		s19.412,8.691,19.412,19.412v60.663C80.076,199.992,71.385,208.682,60.664,208.682z"/>
	<path style="fill:#CCC4C1;" d="M60.664,402.806c-10.722,0-19.412-8.691-19.412-19.412V322.73c0-10.722,8.691-19.412,19.412-19.412
		s19.412,8.691,19.412,19.412v60.664C80.076,394.115,71.385,402.806,60.664,402.806z"/>
</g>
<g>
</g>
<g>
</g>
<g>
</g>
<g>
</g>
<g>
</g>
<g>
</g>
<g>
</g>
<g>
</g>
<g>
</g>
<g>
</g>
<g>
</g>
<g>
</g>
<g>
</g>
<g>
</g>
<g>
</g>
</svg>
