<?xml version="1.0" encoding="iso-8859-1"?>
<!-- Generator: Adobe Illustrator 19.0.0, SVG Export Plug-In . SVG Version: 6.00 Build 0)  -->
<svg version="1.1" id="Layer_1" xmlns="http://www.w3.org/2000/svg" xmlns:xlink="http://www.w3.org/1999/xlink" x="0px" y="0px"
	 viewBox="0 0 512.001 512.001" style="enable-background:new 0 0 512.001 512.001;" xml:space="preserve">
<path style="fill:#181818;" d="M0,226.838v220.317c0,8.973,7.274,16.247,16.247,16.247h479.507c8.973,0,16.247-7.274,16.247-16.247
	V226.838H0z"/>
<path style="fill:#FFB14D;" d="M327.926,48.599H184.074c-6.701,0-12.133,5.432-12.133,12.133v71.736h24.265V72.865h119.587v59.603
	h24.265V60.732C340.059,54.031,334.627,48.599,327.926,48.599z"/>
<path style="fill:#4C5870;" d="M495.753,120.335H16.247C7.274,120.335,0,127.609,0,136.582v90.256
	C0,255.15,22.951,278.1,51.262,278.1h409.475c28.312,0,51.262-22.951,51.262-51.262v-90.256
	C512,127.609,504.726,120.335,495.753,120.335z"/>
<path style="fill:#FF8C00;" d="M229.569,278.1v26.022c0,14.598,11.834,26.431,26.431,26.431c14.598,0,26.431-11.833,26.431-26.431
	V278.1L256,265.968L229.569,278.1z"/>
<rect x="229.575" y="225.645" style="fill:#FFB14D;" width="52.862" height="52.45"/>
<g>
</g>
<g>
</g>
<g>
</g>
<g>
</g>
<g>
</g>
<g>
</g>
<g>
</g>
<g>
</g>
<g>
</g>
<g>
</g>
<g>
</g>
<g>
</g>
<g>
</g>
<g>
</g>
<g>
</g>
</svg>
