<?xml version="1.0" encoding="iso-8859-1"?>
<!-- Generator: Adobe Illustrator 19.0.0, SVG Export Plug-In . SVG Version: 6.00 Build 0)  -->
<svg version="1.1" id="Layer_1" xmlns="http://www.w3.org/2000/svg" xmlns:xlink="http://www.w3.org/1999/xlink" x="0px" y="0px"
	 viewBox="0 0 494.6 494.6" style="enable-background:new 0 0 494.6 494.6;" xml:space="preserve">
<path style="fill:#239B02;" d="M267.3,245c24.8-24.8,65.6-43.2,89.6-36l0,0l0,0l0,0l0,0c7.2,24-10.4,64.8-36,89.6
	c-24.8,24.8-49.6,27.2-74.4,20l0,0l0,0l0,0l0,0C240.1,295.4,242.5,270.6,267.3,245z"/>
<path style="fill:#34B515;" d="M247.3,319.4L247.3,319.4L247.3,319.4L247.3,319.4L247.3,319.4c-7.2-24.8-4.8-49.6,20-74.4
	s65.6-43.2,89.6-36l0,0l0,0l0,0l0,0"/>
<path style="fill:#239B02;" d="M227.3,245c-24.8-24.8-65.6-43.2-89.6-36l0,0l0,0l0,0l0,0c-7.2,24,10.4,64.8,36,89.6
	c24.8,24.8,49.6,27.2,74.4,20l0,0l0,0l0,0l0,0C254.5,295.4,252.1,270.6,227.3,245z"/>
<path style="fill:#34B515;" d="M247.3,319.4L247.3,319.4L247.3,319.4L247.3,319.4L247.3,319.4c7.2-24.8,4.8-49.6-20-74.4
	s-65.6-43.2-89.6-36l0,0l0,0l0,0l0,0"/>
<rect x="239.3" y="198.6" style="fill:#683100;" width="16" height="144"/>
<path style="fill:#894400;" d="M136.1,334.6c-0.8,0-0.8,10.4-0.8,16c0,73.6,50.4,132,112,132s112-58.4,112-132
	c0-6.4-0.8-16.8-0.8-16.8H136.1V334.6z"/>
<path style="fill:#683100;" d="M247.3,484.2c61.6,0,112-59.2,112-132c0-6.4-0.8-16.8-1.6-16.8H223.3"/>
<rect x="127.3" y="310.6" style="fill:#C67812;" width="240" height="32"/>
<rect x="175.3" y="462.6" style="fill:#683100;" width="144" height="32"/>
<circle style="fill:#04AF76;" cx="247.3" cy="105" r="104.8"/>
<path style="fill:#008C61;" d="M172.9,30.6c40.8-40.8,107.2-40.8,148.8,0c40.8,40.8,40.8,107.2,0,148.8"/>
<path style="fill:#FFF6E1;" d="M239.3,190.6v-22.4c-16-0.8-28-4-36-8.8l5.6-23.2c8.8,4.8,20,8.8,32.8,8.8c11.2,0,19.2-4.8,19.2-12.8
	s-6.4-12.8-21.6-17.6c-21.6-7.2-35.2-17.6-35.2-36.8c0-17.6,11.2-32,35.2-36V22.6h16v17.6c16,0.8,24,3.2,30.4,6.4L280.1,69
	c-5.6-2.4-14.4-7.2-28.8-7.2c-12.8,0-17.6,5.6-17.6,11.2c0,6.4,7.2,11.2,24,17.6c24,8.8,32.8,19.2,32.8,37.6c0,17.6-12,33.6-36,37.6
	v24h-15.2V190.6z"/>
<g>
	<path style="fill:#FFEEBD;" d="M247.3,22.6v40.8c0,0,2.4,0,4,0c14.4,0,24,4.8,28.8,7.2l4.8-22.4c-6.4-4-13.6-7.2-29.6-8V22.6H247.3
		z"/>
	<path style="fill:#FFEEBD;" d="M258.5,91.4c-4-1.6-8.8-3.2-11.2-4.8V117c8,4,14.4,8.8,14.4,14.4c0,6.4-5.6,11.2-14.4,12v47.2h8v-24
		c24-4,36-19.2,36-37.6C291.3,111.4,282.5,100.2,258.5,91.4z"/>
</g>
<g>
</g>
<g>
</g>
<g>
</g>
<g>
</g>
<g>
</g>
<g>
</g>
<g>
</g>
<g>
</g>
<g>
</g>
<g>
</g>
<g>
</g>
<g>
</g>
<g>
</g>
<g>
</g>
<g>
</g>
</svg>
