<?xml version="1.0" encoding="iso-8859-1"?>
<!-- Generator: Adobe Illustrator 19.0.0, SVG Export Plug-In . SVG Version: 6.00 Build 0)  -->
<svg version="1.1" id="Layer_1" xmlns="http://www.w3.org/2000/svg" xmlns:xlink="http://www.w3.org/1999/xlink" x="0px" y="0px"
	 viewBox="0 0 491.2 491.2" style="enable-background:new 0 0 491.2 491.2;" xml:space="preserve">
<path style="fill:#80C612;" d="M491.2,198C448,110,354.4,42,245.6,42S43.2,110,0,198H491.2z"/>
<path style="fill:#71AA0C;" d="M5.6,198h485.6C448,110,352.8,42,244.8,42"/>
<path style="fill:#04AF76;" d="M382.4,198c-24-88-76-156-136.8-156s-112.8,68-136.8,156H382.4z"/>
<path style="fill:#008C61;" d="M109.6,198h272.8c-24-88-76-156-136-156"/>
<path style="fill:#80C612;" d="M281.6,198c-6.4-88-20-156-36-156s-29.6,68-36,156H281.6z"/>
<path style="fill:#71AA0C;" d="M213.6,198h68c-6.4-88-18.4-156-33.6-156"/>
<g>
	<path style="fill:#00233F;" d="M261.6,214h-24v188.8c0,24.8,18.4,46.4,43.2,46.4S324,430,324,406h-24c0,8-7.2,19.2-19.2,19.2
		s-19.2-10.4-19.2-22.4V214z"/>
	<circle style="fill:#00233F;" cx="312" cy="386.8" r="24"/>
</g>
<g>
</g>
<g>
</g>
<g>
</g>
<g>
</g>
<g>
</g>
<g>
</g>
<g>
</g>
<g>
</g>
<g>
</g>
<g>
</g>
<g>
</g>
<g>
</g>
<g>
</g>
<g>
</g>
<g>
</g>
</svg>
