<?xml version="1.0" encoding="iso-8859-1"?>
<!-- Generator: Adobe Illustrator 19.0.0, SVG Export Plug-In . SVG Version: 6.00 Build 0)  -->
<svg version="1.1" id="Layer_1" xmlns="http://www.w3.org/2000/svg" xmlns:xlink="http://www.w3.org/1999/xlink" x="0px" y="0px"
	 viewBox="0 0 512.001 512.001" style="enable-background:new 0 0 512.001 512.001;" xml:space="preserve">
<path style="fill:#3E3D42;" d="M157.788,73.754C144.81,40.108,123.332,0,94.705,0C66.078,0,44.6,40.108,31.623,73.754
	C17.871,109.409,7.89,153.36,7.89,178.258c0,37.239,23.698,70.283,58.968,82.225c2.292,0.775,4.814,0.4,6.778-1.009
	c1.965-1.409,3.13-3.679,3.13-6.097v-87.831c0-9.892,8.047-17.939,17.939-17.939c9.893,0,17.94,8.047,17.94,17.939v87.832
	c0,2.418,1.165,4.687,3.13,6.097c1.291,0.926,2.824,1.405,4.373,1.405c0.808,0,1.619-0.131,2.405-0.396
	c35.271-11.941,58.968-44.986,58.968-82.225C181.522,153.36,171.54,109.409,157.788,73.754z"/>
<path style="fill:#2D2D30;" d="M157.788,73.754C144.81,40.108,123.332,0,94.705,0c-6.792,0-13.18,2.261-19.149,6.154
	c19.19,12.516,34.035,41.937,43.934,67.601c13.752,35.655,23.734,79.605,23.734,104.504c0,26.017-11.578,49.977-30.578,66.133v8.986
	c0,2.418,1.165,4.687,3.13,6.097c1.291,0.926,2.824,1.405,4.373,1.405c0.808,0,1.619-0.131,2.405-0.396
	c35.271-11.941,58.968-44.986,58.968-82.225C181.522,153.36,171.54,109.409,157.788,73.754z"/>
<path style="fill:#957856;" d="M304.094,0.717c-18.164,0-32.943,14.778-32.943,32.943v444.864c0,18.164,14.778,32.943,32.943,32.943
	c18.164,0,32.943-14.778,32.943-32.943V33.659C337.036,15.495,322.258,0.717,304.094,0.717z"/>
<path style="fill:#806749;" d="M304.094,0.717c-6.841,0-13.2,2.098-18.472,5.681c8.726,5.932,14.471,15.938,14.471,27.262v444.864
	c0,11.323-5.745,21.33-14.471,27.262c5.271,3.583,11.631,5.681,18.472,5.681c18.164,0,32.943-14.778,32.943-32.943V33.659
	C337.036,15.495,322.258,0.717,304.094,0.717z"/>
<path style="fill:#3E3D42;" d="M497.848,6.734c-8.728-6.149-19.939-7.672-29.988-4.076L257.794,77.781
	c-13.24,4.735-21.795,16.881-21.795,30.943s8.555,26.206,21.795,30.943l210.066,75.122c3.592,1.284,7.33,1.916,11.052,1.916
	c6.693,0,13.329-2.042,18.937-5.992c8.727-6.147,13.938-16.191,13.938-26.864V33.599C511.785,22.924,506.575,12.882,497.848,6.734z"
	/>
<path style="fill:#2D2D30;" d="M497.848,6.734c-8.728-6.149-19.939-7.672-29.988-4.076l-8.266,2.956
	c0.577,0.355,1.145,0.727,1.702,1.12c8.727,6.148,13.938,16.19,13.938,26.865v150.246c0,10.675-5.21,20.718-13.938,26.864
	c-0.561,0.395-1.139,0.757-1.72,1.114l8.283,2.963c3.592,1.284,7.33,1.916,11.052,1.916c6.693,0,13.329-2.042,18.937-5.992
	c8.727-6.147,13.938-16.191,13.938-26.864V33.599C511.785,22.924,506.575,12.882,497.848,6.734z"/>
<path style="fill:#FFA304;" d="M349.994,32.401c-3.39-2.386-8.068-1.569-10.453,1.818l-45.019,63.975L268.193,63.24
	c-2.491-3.308-7.194-3.972-10.506-1.477c-3.31,2.493-3.971,7.196-1.478,10.506l29.24,38.819l-25.211,35.826
	c-2.385,3.389-1.57,8.068,1.817,10.453c1.313,0.924,2.819,1.367,4.311,1.367c2.359,0,4.682-1.109,6.143-3.186l22.425-31.868
	l41.969,55.716c1.474,1.958,3.722,2.988,5.998,2.988c1.57,0,3.156-0.491,4.508-1.51c3.31-2.493,3.971-7.196,1.478-10.506
	l-44.879-59.581l47.805-67.933C354.196,39.465,353.383,34.785,349.994,32.401z"/>
<path style="fill:#957856;" d="M94.705,132.603c-18.164,0-32.943,14.777-32.943,32.943v313.512
	c0,18.164,14.778,32.943,32.943,32.943s32.944-14.778,32.944-32.943V165.546C127.649,147.381,112.871,132.603,94.705,132.603z"/>
<path style="fill:#806749;" d="M94.705,132.603c-6.947,0-13.395,2.168-18.714,5.854c8.588,5.952,14.229,15.871,14.229,27.09v313.512
	c0,11.217-5.64,21.138-14.229,27.09c5.319,3.686,11.767,5.854,18.714,5.854c18.165,0,32.944-14.778,32.944-32.943V165.546
	C127.649,147.381,112.871,132.603,94.705,132.603z"/>
<path style="fill:#FFA304;" d="M186.006,149.381c-2.298-3.447-6.956-4.378-10.403-2.081L93.74,201.876l-81.863-54.575
	c-3.446-2.299-8.105-1.366-10.403,2.081c-2.299,3.447-1.366,8.104,2.081,10.403l76.661,51.107l-48.653,32.435
	c-3.447,2.299-4.379,6.956-2.081,10.403c1.445,2.169,3.824,3.342,6.249,3.342c1.43,0,2.876-0.408,4.154-1.261l53.855-35.903
	l53.855,35.903c1.278,0.853,2.725,1.261,4.154,1.261c2.425,0,4.803-1.173,6.249-3.342c2.299-3.447,1.366-8.105-2.081-10.403
	l-48.653-32.435l76.661-51.107C187.372,157.486,188.304,152.828,186.006,149.381z"/>
<g>
</g>
<g>
</g>
<g>
</g>
<g>
</g>
<g>
</g>
<g>
</g>
<g>
</g>
<g>
</g>
<g>
</g>
<g>
</g>
<g>
</g>
<g>
</g>
<g>
</g>
<g>
</g>
<g>
</g>
</svg>
