<?xml version="1.0" encoding="iso-8859-1"?>
<!-- Generator: Adobe Illustrator 19.0.0, SVG Export Plug-In . SVG Version: 6.00 Build 0)  -->
<svg version="1.1" id="Layer_1" xmlns="http://www.w3.org/2000/svg" xmlns:xlink="http://www.w3.org/1999/xlink" x="0px" y="0px"
	 viewBox="0 0 496 496" style="enable-background:new 0 0 496 496;" xml:space="preserve">
<path style="fill:#719FA3;" d="M496,428c0,6.4-5.6,12-12,12H12c-6.4,0-12-5.6-12-12l0,0c0-6.4,5.6-12,12-12h472
	C490.4,416,496,421.6,496,428L496,428z"/>
<rect x="24" y="56" style="fill:#1589AD;" width="88" height="344"/>
<polyline style="fill:#04567F;" points="24,56 112,56 112,400 "/>
<rect x="144" y="128" style="fill:#24966A;" width="88" height="272"/>
<polyline style="fill:#007763;" points="144,128 232,128 232,400 "/>
<rect x="264" y="208" style="fill:#E8961F;" width="88" height="192"/>
<polyline style="fill:#E57520;" points="264,208 352,208 352,400 "/>
<rect x="384" y="272" style="fill:#D32A0F;" width="88" height="128"/>
<polyline style="fill:#AF1909;" points="384,272 472,272 472,400 "/>
<g>
</g>
<g>
</g>
<g>
</g>
<g>
</g>
<g>
</g>
<g>
</g>
<g>
</g>
<g>
</g>
<g>
</g>
<g>
</g>
<g>
</g>
<g>
</g>
<g>
</g>
<g>
</g>
<g>
</g>
</svg>
