<?xml version="1.0" encoding="iso-8859-1"?>
<!-- Generator: Adobe Illustrator 19.0.0, SVG Export Plug-In . SVG Version: 6.00 Build 0)  -->
<svg version="1.1" id="Capa_1" xmlns="http://www.w3.org/2000/svg" xmlns:xlink="http://www.w3.org/1999/xlink" x="0px" y="0px"
	 viewBox="0 0 497.693 497.693" style="enable-background:new 0 0 497.693 497.693;" xml:space="preserve">
<path style="fill:#ED6C0C;" d="M232.047,194.493l-11.2,46.4c14.4,3.2,58.4,17.6,64.8-8.8
	C292.047,204.893,246.447,198.493,232.047,194.493z"/>
<path style="fill:#E05A00;" d="M285.647,232.893c7.2-27.2-39.2-34.4-53.6-37.6l-11.2,45.6"/>
<path style="fill:#ED6C0C;" d="M248.047,131.293l-10.4,42.4c12,3.2,48.8,15.2,54.4-8.8
	C297.647,140.093,260.047,134.493,248.047,131.293z"/>
<path style="fill:#E05A00;" d="M292.047,164.893c6.4-24.8-32-30.4-44-33.6l-10.4,42.4"/>
<path style="fill:#FFB600;" d="M295.247,5.693c-103.2-25.6-207.2,37.6-232.8,140c-25.6,103.2,36.8,207.2,140,232.8
	s207.2-36.8,232.8-140C460.847,136.093,398.447,32.093,295.247,5.693z M333.647,164.893c-2.4,18.4-12.8,28-27.2,31.2
	c19.2,9.6,28.8,24.8,19.2,51.2c-11.2,32.8-38.4,35.2-74.4,28.8l-8.8,35.2l-20.8-6.4l8.8-34.4c-5.6-1.6-11.2-3.2-16.8-4l-8.8,34.4
	l-20.8-5.6l8.8-35.2c-4.8-1.6-9.6-2.4-15.2-4l-27.2-7.2l10.4-24l15.2,4c5.6,1.6,8.8-2.4,9.6-4.8l13.6-55.2c0.8,0,1.6,0,2.4,0.8
	c-0.8,0-1.6-0.8-2.4-0.8l9.6-39.2c0-4.8-1.6-10.4-9.6-12l-15.2-4l5.6-22.4l28.8,7.2l0,0c4,0.8,8.8,2.4,13.6,3.2l8.8-34.4l20.8,5.6
	l-8.8,33.6c5.6,1.6,11.2,2.4,16.8,4l8-33.6l20.8,5.6l-8.8,34.4C317.647,125.693,337.647,139.293,333.647,164.893z"/>
<path style="fill:#F6921E;" d="M62.447,145.693c-25.6,103.2,36.8,207.2,140,232.8s207.2-36.8,232.8-140
	c25.6-103.2-36.8-207.2-140-232.8 M333.647,164.893c-2.4,18.4-12.8,28-27.2,31.2c19.2,9.6,28.8,24.8,19.2,51.2
	c-11.2,32.8-38.4,35.2-74.4,28.8l-8.8,35.2l-20.8-6.4l8.8-34.4c-5.6-1.6-11.2-3.2-16.8-4l-8.8,34.4l-20.8-5.6l8.8-35.2
	c-4.8-1.6-9.6-2.4-15.2-4l-27.2-7.2l10.4-24l15.2,4c5.6,1.6,8.8-2.4,9.6-4.8l13.6-55.2c0.8,0,1.6,0,2.4,0.8c-0.8,0-1.6-0.8-2.4-0.8
	l9.6-39.2c0-4.8-1.6-10.4-9.6-12l-15.2-4l5.6-22.4l28.8,7.2l0,0c4,0.8,8.8,2.4,13.6,3.2l8.8-34.4l20.8,5.6l-8.8,33.6
	c5.6,1.6,11.2,2.4,16.8,4l8-33.6l20.8,5.6l-8.8,34.4C317.647,125.693,337.647,139.293,333.647,164.893z"/>
<path style="fill:#D85107;" d="M433.647,245.693l-104-104c4,6.4,6.4,14.4,4.8,24c-2.4,18.4-12.8,28-27.2,31.2
	c19.2,9.6,28.8,24.8,19.2,51.2c-11.2,32.8-38.4,35.2-74.4,28.8l-8.8,35.2l-21.6-7.2l8.8-34.4c-5.6-1.6-11.2-3.2-16.8-4l-8.8,34.4
	l-4.8-1.6l81.6,81.6C352.047,368.893,412.847,317.693,433.647,245.693z"/>
<g>
	<path style="fill:#4D4E4E;" d="M104.047,427.293c4,0,7.2,0.8,10.4,2.4c3.2,1.6,5.6,3.2,7.2,5.6s3.2,5.6,4,8.8
		c0.8,3.2,1.6,7.2,1.6,10.4c0,5.6-0.8,11.2-3.2,16.8c-2.4,5.6-4.8,9.6-8.8,13.6s-8,7.2-13.6,8.8c-4.8,2.4-10.4,3.2-16.8,3.2
		c-0.8,0-2.4,0-4,0s-4,0-6.4-0.8c-2.4,0-4.8-0.8-8-1.6c-2.4-0.8-5.6-1.6-8-2.4l21.6-92l20-3.2l-8,32.8c1.6-0.8,3.2-1.6,4.8-1.6
		C100.047,428.093,102.447,427.293,104.047,427.293 M88.047,481.693c3.2,0,5.6-0.8,8-2.4s4.8-3.2,6.4-5.6s3.2-4.8,4.8-8
		c0.8-3.2,1.6-6.4,1.6-9.6c0-4-0.8-7.2-2.4-9.6s-4-3.2-7.2-3.2c-0.8,0-2.4,0-4.8,0.8c-1.6,0.8-4,1.6-4.8,2.4l-8,34.4
		c0.8,0,0.8,0,1.6,0h0.8c0.8,0,0.8,0,1.6,0C85.647,481.693,86.447,481.693,88.047,481.693L88.047,481.693z"/>
	<path style="fill:#4D4E4E;" d="M148.047,495.293h-19.2l16-66.4h19.2L148.047,495.293 M157.647,420.893c-2.4,0-4.8-0.8-7.2-2.4
		s-3.2-4-3.2-7.2c0-1.6,0-3.2,0.8-4.8c0.8-1.6,1.6-3.2,3.2-4c0.8-0.8,2.4-2.4,4-2.4c1.6-0.8,3.2-0.8,4.8-0.8c2.4,0,4.8,0.8,7.2,2.4
		s3.2,4,3.2,7.2c0,1.6,0,3.2-0.8,4.8c-0.8,1.6-1.6,3.2-3.2,4c-0.8,0.8-2.4,2.4-4,2.4S159.247,420.893,157.647,420.893z"/>
	<path style="fill:#4D4E4E;" d="M180.847,412.093l20-3.2l-4.8,20h20.8l-4,15.2h-20.8l-5.6,23.2c-0.8,1.6-0.8,4-0.8,5.6s0,3.2,0.8,4
		c0.8,1.6,1.6,2.4,2.4,3.2c1.6,0.8,3.2,0.8,5.6,0.8c2.4,0,4,0,5.6-0.8c1.6,0,4-0.8,5.6-1.6l1.6,14.4c-2.4,0.8-5.6,1.6-8,2.4
		c-3.2,1.6-6.4,1.6-10.4,1.6c-5.6,0-10.4-0.8-13.6-2.4c-3.2-1.6-5.6-4-7.2-7.2c-1.6-3.2-1.6-6.4-1.6-10.4s0.8-8,1.6-12
		L180.847,412.093"/>
	<path style="fill:#4D4E4E;" d="M216.047,468.893c0-5.6,0.8-11.2,3.2-16c1.6-4.8,4.8-9.6,8-13.6s8-6.4,12.8-8.8s10.4-3.2,16.8-3.2
		c4,0,7.2,0,10.4,0.8s5.6,1.6,8,3.2l-6.4,14.4c-1.6-0.8-3.2-1.6-5.6-1.6c-1.6-0.8-4-0.8-6.4-0.8c-6.4,0-11.2,2.4-15.2,6.4
		s-5.6,10.4-5.6,17.6c0,4,0.8,8,3.2,10.4c1.6,2.4,5.6,4,10.4,4c2.4,0,4.8,0,7.2-0.8c2.4-0.8,4-0.8,6.4-1.6l1.6,15.2
		c-2.4,0.8-4.8,1.6-8,2.4s-6.4,0.8-10.4,0.8c-5.6,0-9.6-0.8-13.6-2.4s-6.4-3.2-8.8-6.4c-2.4-2.4-4-5.6-4.8-8.8
		C216.047,476.093,216.047,472.893,216.047,468.893"/>
	<path style="fill:#4D4E4E;" d="M299.247,497.693c-4.8,0-8-0.8-12-2.4c-3.2-1.6-6.4-3.2-8-5.6c-2.4-2.4-4-5.6-4.8-8.8
		c-0.8-3.2-1.6-7.2-1.6-11.2c0-4.8,0.8-10.4,2.4-15.2c1.6-4.8,4-9.6,7.2-13.6s7.2-7.2,12-9.6s9.6-4,16-4c4.8,0,8,0.8,12,2.4
		c3.2,1.6,6.4,3.2,8,5.6c2.4,2.4,4,5.6,4.8,8.8c0.8,3.2,1.6,7.2,1.6,11.2c0,4.8-0.8,10.4-2.4,15.2c-1.6,4.8-4,9.6-7.2,13.6
		s-7.2,7.2-12,9.6S305.647,497.693,299.247,497.693L299.247,497.693 M308.847,443.293c-2.4,0-5.6,0.8-7.2,2.4c-2.4,1.6-4,4-5.6,6.4
		s-2.4,4.8-3.2,8c-0.8,3.2-0.8,5.6-0.8,8c0,4,0.8,7.2,2.4,9.6s4,3.2,7.2,3.2s5.6-0.8,7.2-2.4c2.4-1.6,4-4,5.6-6.4s2.4-4.8,3.2-8
		c0.8-3.2,0.8-5.6,0.8-8c0-4-0.8-7.2-2.4-9.6S312.047,443.293,308.847,443.293z"/>
	<path style="fill:#4D4E4E;" d="M357.647,495.293h-19.2l16-66.4h19.2L357.647,495.293 M366.447,420.893c-2.4,0-4.8-0.8-7.2-2.4
		c-2.4-1.6-3.2-4-3.2-7.2c0-1.6,0-3.2,0.8-4.8c0.8-1.6,1.6-3.2,3.2-4c0.8-0.8,2.4-2.4,4-2.4c1.6-0.8,3.2-0.8,4.8-0.8
		c2.4,0,4.8,0.8,7.2,2.4c2.4,1.6,3.2,4,3.2,7.2c0,1.6,0,3.2-0.8,4.8c-0.8,1.6-1.6,3.2-3.2,4c-0.8,0.8-2.4,2.4-4,2.4
		S368.047,420.893,366.447,420.893z"/>
	<path style="fill:#4D4E4E;" d="M387.247,432.093c1.6-0.8,3.2-0.8,4.8-1.6c1.6-0.8,4-0.8,5.6-1.6c2.4-0.8,4.8-0.8,7.2-0.8
		c2.4,0,5.6-0.8,8.8-0.8c9.6,0,16.8,3.2,20.8,8.8c4,5.6,4.8,13.6,1.6,24l-8.8,36h-18.4l8-35.2c0.8-2.4,0.8-4,1.6-6.4
		c0-2.4,0-4,0-5.6s-0.8-3.2-2.4-4s-3.2-1.6-5.6-1.6s-4.8,0-7.2,0.8l-12,52h-19.2L387.247,432.093"/>
</g>
<g>
	<path style="fill:#E26600;" d="M150.447,249.693L150.447,249.693l36,36l6.4-25.6c-4.8-1.6-9.6-2.4-15.2-4L150.447,249.693z"/>
	<path style="fill:#E26600;" d="M294.447,106.493L294.447,106.493l-3.2,10.4c9.6,3.2,18.4,7.2,25.6,12L294.447,106.493z"/>
</g>
<g>
	<path style="fill:#ED6C0C;" d="M262.447,72.893L262.447,72.893l-8.8,33.6c5.6,1.6,11.2,2.4,16.8,4l5.6-24L262.447,72.893z"/>
	<path style="fill:#ED6C0C;" d="M300.047,81.693L300.047,81.693l-8.8,34.4l0.8,0.8c24,8,42.4,20.8,42.4,42.4l96,96
		c1.6-5.6,3.2-11.2,4.8-16c1.6-6.4,2.4-12,3.2-18.4L300.047,81.693z"/>
	<path style="fill:#ED6C0C;" d="M318.447,371.293l-72.8-72.8l-3.2,12l-20.8-5.6l6.4-24.8l-14.4-14.4l0,0l-8.8,34.4l-20.8-5.6v-0.8
		l-0.8,0.8l87.2,87.2C287.247,380.893,303.247,376.893,318.447,371.293z"/>
</g>
<path style="fill:#E05A00;" d="M338.447,361.693l-86.4-86.4c0,0,0,0-0.8,0l-8.8,35.2l-20-4.8l72.8,72.8
	C310.447,374.493,324.847,368.893,338.447,361.693z"/>
<g>
</g>
<g>
</g>
<g>
</g>
<g>
</g>
<g>
</g>
<g>
</g>
<g>
</g>
<g>
</g>
<g>
</g>
<g>
</g>
<g>
</g>
<g>
</g>
<g>
</g>
<g>
</g>
<g>
</g>
</svg>
