<?xml version="1.0" encoding="iso-8859-1"?>
<!-- Generator: Adobe Illustrator 19.0.0, SVG Export Plug-In . SVG Version: 6.00 Build 0)  -->
<svg version="1.1" id="Layer_1" xmlns="http://www.w3.org/2000/svg" xmlns:xlink="http://www.w3.org/1999/xlink" x="0px" y="0px"
	 viewBox="0 0 512 512" style="enable-background:new 0 0 512 512;" xml:space="preserve">
<path style="fill:#FFF5CF;" d="M297.908,328.883H62.972c-4.132,0-7.483,3.35-7.483,7.483v168.152c0,4.132,3.35,7.483,7.483,7.483
	h234.936c4.133,0,7.483-3.35,7.483-7.483V336.366C305.391,332.233,302.042,328.883,297.908,328.883z"/>
<path style="fill:#EFDFAC;" d="M297.908,328.883h-29.93V512h29.93c4.133,0,7.483-3.35,7.483-7.483V336.366
	C305.391,332.233,302.042,328.883,297.908,328.883z"/>
<path style="fill:#F83C2B;" d="M261.606,203.712L261.606,203.712c-10.003,0-19.288-4.011-26.144-11.295
	c-6.856-7.283-10.3-16.794-9.696-26.778l6.603-109.193c0.974-14.33-4.093-28.568-13.898-39.063
	C208.664,6.888,194.803,0.869,180.44,0.869c-14.363,0-28.224,6.019-38.031,16.514c-9.806,10.496-14.871,24.734-13.902,39.007
	l6.606,109.249c0.604,9.985-2.84,19.495-9.696,26.778c-6.857,7.283-16.142,11.295-26.144,11.295
	c-30.117,0-54.619,24.502-54.619,54.619v13.866c0,4.132,3.35,7.483,7.483,7.483h256.605c4.133,0,7.483-3.35,7.483-7.483v-13.866
	C316.226,228.214,291.723,203.712,261.606,203.712z M162.591,58.162c0-9.858,7.991-17.849,17.849-17.849s17.849,7.991,17.849,17.849
	S190.297,76.01,180.44,76.01S162.591,68.019,162.591,58.162z"/>
<path style="fill:#DB3028;" d="M261.606,203.712L261.606,203.712c-10.003,0-19.288-4.011-26.144-11.295
	c-6.856-7.283-10.3-16.794-9.696-26.778l6.603-109.193c0.974-14.33-4.093-28.568-13.898-39.063
	C208.664,6.888,194.803,0.869,180.44,0.869c-6.423,0-12.741,1.211-18.646,3.481c7.3,2.805,13.964,7.231,19.384,13.033
	c7.813,8.363,12.604,19.103,13.741,30.369c2.112,2.932,3.369,6.52,3.369,10.409c0,4.265-1.501,8.177-3.997,11.248l-5.818,96.231
	c-0.604,9.985,2.84,19.495,9.696,26.778c6.857,7.283,16.142,11.295,26.144,11.295h0.001c30.116,0,54.618,24.502,54.618,54.619
	v13.866c0,4.132-3.349,7.483-7.483,7.483h37.292c4.133,0,7.483-3.35,7.483-7.483v-13.866
	C316.226,228.214,291.723,203.712,261.606,203.712z"/>
<path style="fill:#FFCA10;" d="M308.743,264.715H52.138c-4.132,0-7.483,3.35-7.483,7.483v64.169c0,4.132,3.35,7.483,7.483,7.483
	h256.605c4.133,0,7.483-3.35,7.483-7.483v-64.169C316.226,268.065,312.875,264.715,308.743,264.715z"/>
<g>
	<path style="fill:#FFA304;" d="M308.743,264.715h-29.931v79.134h29.931c4.133,0,7.483-3.35,7.483-7.483v-64.169
		C316.226,268.065,312.875,264.715,308.743,264.715z"/>
	<path style="fill:#FFA304;" d="M105.625,396.59c-4.095,0.123-7.252,3.695-7.252,7.793V512h14.965V404.07
		C113.338,399.86,109.863,396.463,105.625,396.59z"/>
	<path style="fill:#FFA304;" d="M143.148,396.587c-4.132,0-7.483,3.35-7.483,7.483V512h14.965V404.07
		C150.63,399.937,147.28,396.587,143.148,396.587z"/>
	<path style="fill:#FFA304;" d="M180.441,396.587c-4.132,0-7.483,3.35-7.483,7.483V512h14.965V404.07
		C187.924,399.937,184.573,396.587,180.441,396.587z"/>
	<path style="fill:#FFA304;" d="M217.732,396.587c-4.132,0-7.483,3.35-7.483,7.483V512h14.965V404.07
		C225.215,399.937,221.866,396.587,217.732,396.587z"/>
	<path style="fill:#FFA304;" d="M255.026,396.587c-4.132,0-7.483,3.35-7.483,7.483V512h14.965V404.07
		C262.508,399.937,259.158,396.587,255.026,396.587z"/>
</g>
<path style="fill:#F83C2B;" d="M408.708,0c-18.117,0-32.858,14.74-32.858,32.858v253.449c0,4.132,3.35,7.483,7.483,7.483h50.749
	c4.133,0,7.483-3.35,7.483-7.483V32.858C441.564,14.74,426.825,0,408.708,0z"/>
<path style="fill:#DB3028;" d="M408.708,0c-6.953,0-13.404,2.177-18.72,5.876c8.536,5.94,14.138,15.816,14.138,26.981v253.449
	c0,4.132-3.349,7.483-7.483,7.483h37.439c4.133,0,7.483-3.35,7.483-7.483V32.858C441.564,14.74,426.825,0,408.708,0z"/>
<path style="fill:#FFF5CF;" d="M467.321,502.847l-9.977-119.695c-0.009-0.108-0.028-0.212-0.042-0.317
	c0.037,0.313,0.057,0.627,0.057,0.939h-97.303c0-0.301,0.019-0.603,0.053-0.904c-0.011,0.095-0.029,0.187-0.037,0.282
	l-9.977,119.695c-0.175,2.085,0.533,4.148,1.949,5.688c1.418,1.539,3.414,2.416,5.507,2.416h102.313c2.093,0,4.09-0.876,5.507-2.416
	C466.788,506.996,467.495,504.932,467.321,502.847z"/>
<path style="fill:#EFDFAC;" d="M465.371,508.535c1.417-1.539,2.124-3.603,1.949-5.688l-9.925-119.073h-37.439l10.406,127.178h29.501
	C461.957,510.951,463.953,510.075,465.371,508.535z"/>
<path style="fill:#FFCA10;" d="M441.624,286.307h-65.768l-15.714,96.261c-0.066,0.402-0.087,0.804-0.087,1.205h97.303
	c0-0.399-0.021-0.8-0.086-1.2L441.624,286.307z"/>
<path style="fill:#FFA304;" d="M441.637,286.39h-37.511l15.83,97.384h37.402c0-0.399-0.021-0.8-0.086-1.2L441.637,286.39z"/>
<g>
</g>
<g>
</g>
<g>
</g>
<g>
</g>
<g>
</g>
<g>
</g>
<g>
</g>
<g>
</g>
<g>
</g>
<g>
</g>
<g>
</g>
<g>
</g>
<g>
</g>
<g>
</g>
<g>
</g>
</svg>
