<?xml version="1.0" encoding="iso-8859-1"?>
<!-- Generator: Adobe Illustrator 19.0.0, SVG Export Plug-In . SVG Version: 6.00 Build 0)  -->
<svg version="1.1" id="Layer_1" xmlns="http://www.w3.org/2000/svg" xmlns:xlink="http://www.w3.org/1999/xlink" x="0px" y="0px"
	 viewBox="0 0 512 512" style="enable-background:new 0 0 512 512;" xml:space="preserve">
<g>
	<rect x="43.678" y="308.171" style="fill:#FFB14D;" width="424.645" height="24.265"/>
	<rect x="43.678" y="177.137" style="fill:#FFB14D;" width="424.645" height="24.265"/>
	<rect x="43.678" y="19.412" style="fill:#FFB14D;" width="424.645" height="38.825"/>
</g>
<g>
	<path style="fill:#FF9E24;" d="M43.678,0C32.956,0,24.265,8.692,24.265,19.412s0,456.19,0,456.19H63.09c0,0,0-445.469,0-456.19
		S54.399,0,43.678,0z"/>
	<path style="fill:#FF9E24;" d="M468.322,0c-10.722,0-19.412,8.692-19.412,19.412s0,456.19,0,456.19h38.825c0,0,0-445.469,0-456.19
		S479.044,0,468.322,0z"/>
</g>
<rect y="451.337" style="fill:#FFB14D;" width="512" height="60.664"/>
<path style="fill:#EE3840;" d="M330.407,279.055c-12.881,0-23.324,10.443-23.324,23.324v35.85c0,12.881,10.443,23.324,23.324,23.324
	s23.324-10.443,23.324-23.324v-35.85C353.731,289.497,343.289,279.055,330.407,279.055z"/>
<g>
	<path style="fill:#C21B23;" d="M377.055,279.055c-12.881,0-23.324,10.443-23.324,23.324v35.85
		c0,12.881,10.443,23.324,23.324,23.324c12.881,0,23.324-10.443,23.324-23.324v-35.85
		C400.379,289.497,389.937,279.055,377.055,279.055z"/>
	<path style="fill:#C21B23;" d="M181.593,279.055c-12.881,0-23.324,10.443-23.324,23.324v35.85
		c0,12.881,10.443,23.324,23.324,23.324c12.881,0,23.324-10.443,23.324-23.324v-35.85
		C204.916,289.497,194.474,279.055,181.593,279.055z"/>
</g>
<path style="fill:#EE3840;" d="M158.269,207.195c0,12.881-10.443,23.324-23.324,23.324s-23.324-10.443-23.324-23.324v-35.85
	c0-12.881,10.443-23.324,23.324-23.324s23.324,10.443,23.324,23.324V207.195z"/>
<path style="fill:#C21B23;" d="M283.76,148.021c-12.881,0-23.324,10.443-23.324,23.324v35.85c0,12.881,10.443,23.324,23.324,23.324
	s23.324-10.443,23.324-23.324v-35.85C307.084,158.464,296.641,148.021,283.76,148.021z"/>
<path style="fill:#EE3840;" d="M330.407,148.021c-12.881,0-23.324,10.443-23.324,23.324v35.85c0,12.881,10.443,23.324,23.324,23.324
	s23.324-10.443,23.324-23.324v-35.85C353.731,158.464,343.289,148.021,330.407,148.021z"/>
<path style="fill:#C21B23;" d="M377.055,148.021c-12.881,0-23.324,10.443-23.324,23.324v35.85c0,12.881,10.443,23.324,23.324,23.324
	c12.881,0,23.324-10.443,23.324-23.324v-35.85C400.379,158.464,389.937,148.021,377.055,148.021z"/>
<path style="fill:#EE3840;" d="M134.945,279.055c-12.881,0-23.324,10.443-23.324,23.324v35.85c0,12.881,10.443,23.324,23.324,23.324
	s23.324-10.443,23.324-23.324v-35.85C158.269,289.497,147.826,279.055,134.945,279.055z"/>
<g>
</g>
<g>
</g>
<g>
</g>
<g>
</g>
<g>
</g>
<g>
</g>
<g>
</g>
<g>
</g>
<g>
</g>
<g>
</g>
<g>
</g>
<g>
</g>
<g>
</g>
<g>
</g>
<g>
</g>
</svg>
