<?xml version="1.0" encoding="iso-8859-1"?>
<!-- Generator: Adobe Illustrator 19.0.0, SVG Export Plug-In . SVG Version: 6.00 Build 0)  -->
<svg version="1.1" id="Layer_1" xmlns="http://www.w3.org/2000/svg" xmlns:xlink="http://www.w3.org/1999/xlink" x="0px" y="0px"
	 viewBox="0 0 512 512" style="enable-background:new 0 0 512 512;" xml:space="preserve">
<path style="fill:#BA8B6A;" d="M483.933,290.468l-120.753-9.85l4.043-50.467c0.167-2.082-0.544-4.137-1.96-5.672
	c-1.416-1.534-3.409-2.407-5.497-2.407H28.675c-4.132,0-7.481,3.35-7.481,7.481v92.376c0,4.132,3.349,7.481,7.481,7.481h454.651
	c4.132,0,7.481-3.349,7.481-7.481v-24.006C490.806,294.028,487.816,290.785,483.933,290.468z"/>
<g>
	<path style="fill:#A0785D;" d="M367.223,230.152c0.167-2.082-0.544-4.137-1.96-5.672c-1.416-1.534-3.409-2.407-5.497-2.407h-29.325
		l-5.239,65.394l37.984-6.915L367.223,230.152z"/>
	<path style="fill:#A0785D;" d="M483.933,290.468l-30.48-2.487l-0.031,41.43h29.903c4.132,0,7.481-3.349,7.481-7.481v-24.006
		C490.806,294.028,487.816,290.785,483.933,290.468z"/>
</g>
<g>
	<path style="fill:#3E3D42;" d="M79.728,255.374h-0.121c-14.926,0-27.069,12.143-27.069,27.068v39.489
		c0,4.132,3.349,7.481,7.481,7.481h39.296c4.132,0,7.481-3.349,7.481-7.481v-39.489C106.796,267.517,94.653,255.374,79.728,255.374z
		"/>
	<path style="fill:#3E3D42;" d="M150.26,255.374h-0.122c-14.925,0-27.068,12.143-27.068,27.068v39.489
		c0,4.132,3.349,7.481,7.481,7.481h39.296c4.132,0,7.481-3.349,7.481-7.481v-39.489C177.329,267.517,165.186,255.374,150.26,255.374
		z"/>
	<path style="fill:#3E3D42;" d="M220.793,255.374h-0.122c-14.925,0-27.068,12.143-27.068,27.068v39.489
		c0,4.132,3.349,7.481,7.481,7.481h39.296c4.132,0,7.481-3.349,7.481-7.481v-39.489
		C247.863,267.517,235.719,255.374,220.793,255.374z"/>
	<path style="fill:#3E3D42;" d="M291.327,255.374h-0.122c-14.925,0-27.068,12.143-27.068,27.068v39.489
		c0,4.132,3.349,7.481,7.481,7.481h39.296c4.132,0,7.481-3.349,7.481-7.481v-39.489
		C318.396,267.517,306.252,255.374,291.327,255.374z"/>
</g>
<path style="fill:#BA8B6A;" d="M368.464,186.672l-47.088-92.376c-1.278-2.506-3.852-4.084-6.665-4.084H28.675
	c-4.132,0-7.481,3.349-7.481,7.481v92.376c0,4.132,3.349,7.481,7.481,7.481H361.8c2.603,0,5.019-1.353,6.379-3.573
	C369.539,191.758,369.646,188.991,368.464,186.672z"/>
<path style="fill:#A0785D;" d="M340.562,197.55h21.237c2.603,0,5.019-1.353,6.379-3.573c1.36-2.219,1.468-4.986,0.286-7.305
	l-47.088-92.376c-1.278-2.506-3.852-4.084-6.665-4.084h-34.102L340.562,197.55z"/>
<g>
	<path style="fill:#3E3D42;" d="M79.728,123.512h-0.121c-14.926,0-27.069,12.143-27.069,27.068v39.489
		c0,4.132,3.349,7.481,7.481,7.481h39.296c4.132,0,7.481-3.35,7.481-7.481v-39.489C106.796,135.656,94.653,123.512,79.728,123.512z"
		/>
	<path style="fill:#3E3D42;" d="M150.26,123.512h-0.121c-14.926,0-27.069,12.143-27.069,27.068v39.489
		c0,4.132,3.349,7.481,7.481,7.481h39.296c4.132,0,7.481-3.35,7.481-7.481v-39.489C177.329,135.656,165.186,123.512,150.26,123.512z
		"/>
	<path style="fill:#3E3D42;" d="M220.793,123.512h-0.122c-14.925,0-27.068,12.143-27.068,27.068v39.489
		c0,4.132,3.349,7.481,7.481,7.481h39.296c4.132,0,7.481-3.35,7.481-7.481v-39.489C247.863,135.656,235.719,123.512,220.793,123.512
		z"/>
	<path style="fill:#3E3D42;" d="M291.326,123.512h-0.121c-14.925,0-27.068,12.143-27.068,27.068v39.489
		c0,4.132,3.349,7.481,7.481,7.481h39.296c4.132,0,7.481-3.35,7.481-7.481v-39.489C318.396,135.656,306.252,123.512,291.326,123.512
		z"/>
</g>
<path style="fill:#904F15;" d="M367.224,184.917c-1.412-1.487-3.373-2.329-5.424-2.329H7.481c-4.132,0-7.481,3.35-7.481,7.481
	v39.485c0,4.132,3.349,7.481,7.481,7.481h352.285c3.982,0,7.267-3.119,7.471-7.096l2.034-39.485
	C369.376,188.407,368.636,186.405,367.224,184.917z"/>
<path style="fill:#7C4213;" d="M329.457,237.035h30.309c3.982,0,7.267-3.119,7.471-7.096l2.034-39.485
	c0.105-2.048-0.634-4.05-2.047-5.537c-1.412-1.487-3.373-2.329-5.424-2.329H332.26L329.457,237.035z"/>
<path style="fill:#BA8B6A;" d="M483.325,353.934H28.675c-4.132,0-7.481,3.349-7.481,7.481v92.376c0,4.132,3.349,7.481,7.481,7.481
	h454.651c4.132,0,7.481-3.349,7.481-7.481v-92.376C490.806,357.284,487.456,353.934,483.325,353.934z"/>
<path style="fill:#A0785D;" d="M483.325,353.934h-29.924v107.338h29.924c4.132,0,7.481-3.349,7.481-7.481v-92.376
	C490.806,357.284,487.456,353.934,483.325,353.934z"/>
<g>
	<path style="fill:#3E3D42;" d="M79.728,387.235h-0.121c-14.95,0-27.069,12.119-27.069,27.069v46.969h54.258v-46.97
		C106.796,399.354,94.677,387.235,79.728,387.235z"/>
	<path style="fill:#3E3D42;" d="M150.26,387.235h-0.122c-14.949,0-27.068,12.119-27.068,27.068v46.97h54.258v-46.97
		C177.329,399.354,165.211,387.235,150.26,387.235z"/>
	<path style="fill:#3E3D42;" d="M220.793,387.235h-0.122c-14.949,0-27.068,12.119-27.068,27.068v46.97h54.258v-46.97
		C247.863,399.354,235.743,387.235,220.793,387.235z"/>
	<path style="fill:#3E3D42;" d="M291.326,387.235h-0.121c-14.949,0-27.068,12.119-27.068,27.068v46.97h54.258v-46.969
		C318.396,399.354,306.276,387.235,291.326,387.235z"/>
	<path style="fill:#3E3D42;" d="M361.86,387.235h-0.122c-14.949,0-27.068,12.119-27.068,27.068v46.97h54.258v-46.97
		C388.929,399.354,376.81,387.235,361.86,387.235z"/>
	<path style="fill:#3E3D42;" d="M432.393,387.235h-0.121c-14.949,0-27.068,12.119-27.068,27.068v46.97h54.258v-46.969
		C459.461,399.354,447.342,387.235,432.393,387.235z"/>
</g>
<path style="fill:#904F15;" d="M320.44,92.883l-33.148-39.485c-1.421-1.693-3.519-2.671-5.729-2.671H7.481
	C3.349,50.727,0,54.077,0,58.208v39.486c0,4.132,3.349,7.481,7.481,7.481h307.23c2.908,0,5.552-1.685,6.781-4.32
	C322.721,98.219,322.311,95.11,320.44,92.883z"/>
<path style="fill:#7C4213;" d="M321.492,100.854c1.228-2.635,0.819-5.744-1.051-7.971l-33.148-39.485
	c-1.421-1.693-3.519-2.671-5.729-2.671h-35.87l43.272,54.448h25.746C317.619,105.174,320.263,103.489,321.492,100.854z"/>
<path style="fill:#904F15;" d="M504.519,314.45H7.481c-4.132,0-7.481,3.349-7.481,7.481v39.485c0,4.132,3.349,7.481,7.481,7.481
	h497.038c4.132,0,7.481-3.349,7.481-7.481v-39.485C512,317.799,508.651,314.45,504.519,314.45z"/>
<path style="fill:#7C4213;" d="M504.519,314.45h-29.924v54.447h29.924c4.132,0,7.481-3.349,7.481-7.481v-39.485
	C512,317.799,508.651,314.45,504.519,314.45z"/>
<g>
</g>
<g>
</g>
<g>
</g>
<g>
</g>
<g>
</g>
<g>
</g>
<g>
</g>
<g>
</g>
<g>
</g>
<g>
</g>
<g>
</g>
<g>
</g>
<g>
</g>
<g>
</g>
<g>
</g>
</svg>
