<?xml version="1.0" encoding="iso-8859-1"?>
<!-- Generator: Adobe Illustrator 19.0.0, SVG Export Plug-In . SVG Version: 6.00 Build 0)  -->
<svg version="1.1" id="Layer_1" xmlns="http://www.w3.org/2000/svg" xmlns:xlink="http://www.w3.org/1999/xlink" x="0px" y="0px"
	 viewBox="0 0 496.2 496.2" style="enable-background:new 0 0 496.2 496.2;" xml:space="preserve">
<path style="fill:#D92949;" d="M0,248.1C0,111.1,111.1,0,248.1,0s248.1,111.1,248.1,248.1S385.1,496.2,248.1,496.2S0,385.1,0,248.1z
	"/>
<g style="opacity:0.12;">
	<path d="M378,106.5c7.3,0,13.3,6,13.3,13.3v195.7c0,7.3-5.9,13.3-13.3,13.3h-65.9H187.3h-69.1c-7.3,0-13.3-6-13.3-13.3V119.8
		c0-7.3,5.9-13.3,13.3-13.3C118.2,106.5,378,106.5,378,106.5z"/>
	<path d="M337.3,383.1v14.4H158.9v-11.8c0.3-2.6,6.7-9.4,32.7-9.4c9,0,14.9-2.7,17.4-7.9c4.9-10.1-5.2-26.5-10.8-34.4H302
		c-5.5,8.4-16.1,26.7-11.2,36.3c2,4,6.1,6,12.2,6C323.6,376.3,334.2,381.3,337.3,383.1z"/>
</g>
<g>
	<path style="fill:#4A072D;" d="M378,98.7c7.3,0,13.3,6,13.3,13.3v195.7c0,7.3-5.9,13.3-13.3,13.3h-65.9H187.3h-69.1
		c-7.3,0-13.3-6-13.3-13.3V111.9c0-7.3,5.9-13.3,13.3-13.3H378V98.7z"/>
	<path style="fill:#4A072D;" d="M337.3,375.2v14.4H158.9v-11.8c0.3-2.6,6.7-9.4,32.7-9.4c9,0,14.9-2.7,17.4-7.9
		c4.9-10.1-5.2-26.5-10.8-34.4H302c-5.5,8.4-16.1,26.7-11.2,36.3c2,4,6.1,6,12.2,6C323.6,368.4,334.2,373.4,337.3,375.2z"/>
</g>
<g style="opacity:0.12;">
	<rect x="111.6" y="108.7" width="265.1" height="174.3"/>
</g>
<rect x="115.5" y="112.7" style="fill:#FFFFFF;" width="265.1" height="174.3"/>
<g>
	<path style="fill:#F2E8DC;" d="M249.4,302.5c2.3,0,4.2,1.9,4.2,4.2c0,2.3-1.9,4.2-4.2,4.2c-2.3,0-4.2-1.9-4.2-4.2
		C245.2,304.4,247.1,302.5,249.4,302.5z"/>
	<path style="fill:#F2E8DC;" d="M234.6,302.5c2.3,0,4.2,1.9,4.2,4.2c0,2.3-1.9,4.2-4.2,4.2s-4.2-1.9-4.2-4.2
		C230.3,304.4,232.3,302.5,234.6,302.5z"/>
	<path style="fill:#F2E8DC;" d="M264.2,302.5c2.3,0,4.2,1.9,4.2,4.2c0,2.3-1.9,4.2-4.2,4.2c-2.3,0-4.2-1.9-4.2-4.2
		S261.9,302.5,264.2,302.5z"/>
</g>
<path style="fill:#891C56;" d="M257.3,174.6c-3.2,0-5.8,2.2-6.6,5.2H240l14.7-19.5c0.8,0.3,1.7,0.5,2.6,0.5c3.8,0,6.9-3.1,6.9-6.9
	c0-3.8-3.1-6.9-6.9-6.9s-6.9,3.1-6.9,6.9c0,1.6,0.6,3.1,1.6,4.2l-16.3,21.7h-13.3c-0.8-3-3.4-5.2-6.6-5.2c-3.8,0-6.9,3.1-6.9,6.9
	c0,1.7,0.7,3.2,1.7,4.4l-12.8,17.9l-9.7-1.9c-0.2-3.6-3.2-6.5-6.8-6.5c-3.8,0-6.9,3.1-6.9,6.9c0,3.8,3.1,6.9,6.9,6.9
	c2.7,0,5-1.6,6.2-3.9l8.2,1.6l-11.9,16.6c-0.8-0.3-1.6-0.5-2.5-0.5c-3.8,0-6.9,3.1-6.9,6.9s3.1,6.9,6.9,6.9s6.9-3.1,6.9-6.9
	c0-1.7-0.7-3.2-1.7-4.4l12.8-17.9l9.7,1.9c0.2,3.6,3.2,6.5,6.8,6.5c3.8,0,6.9-3.1,6.9-6.9c0-1.6-0.6-3.1-1.6-4.2l16.3-21.7h13.3
	c0.8,3,3.4,5.2,6.6,5.2c3.8,0,6.9-3.1,6.9-6.9C264.2,177.7,261.1,174.6,257.3,174.6z"/>
<path style="fill:#FFFFFF;" d="M218.4,202.8c-0.8-0.3-1.7-0.5-2.6-0.5c-2.7,0-5,1.6-6.2,3.9l-8.2-1.6l11.9-16.6
	c0.8,0.3,1.6,0.5,2.5,0.5c3.2,0,5.8-2.2,6.6-5.2h10.7L218.4,202.8z"/>
<polygon style="fill:#891C56;" points="264.2,250.7 264.2,257.6 153.6,257.6 153.6,146.9 160.5,146.9 160.5,250.7 "/>
<path style="fill:#F2295F;" d="M311.1,245.8l-7.7,13.3c-8.2-5.4-13.6-14.7-13.6-25.3c0-16.1,12.6-29.3,28.5-30.3v15.3
	c-7.5,0.9-13.3,7.3-13.3,15C305,238.7,307.4,243.1,311.1,245.8z"/>
<path style="fill:#891C56;" d="M332.3,224.6l13.3-7.7c-5.1-7.7-13.6-12.9-23.4-13.5v15.3C326.3,219.3,329.9,221.5,332.3,224.6z"/>
<path style="fill:#E02658;" d="M347.4,220.3l-13.2,7.6c0.8,1.8,1.2,3.8,1.2,5.9c0,8.4-6.8,15.2-15.2,15.2c-2.1,0-4.1-0.4-5.9-1.2
	l-7.6,13.2c4.1,2,8.6,3.2,13.5,3.2c16.8,0,30.4-13.6,30.4-30.4C350.6,228.9,349.5,224.3,347.4,220.3z"/>
<path style="fill:#F2295F;" d="M320.4,165.1h29.3c0-16.2-13.1-29.3-29.3-29.3V165.1z"/>
<path style="fill:#891C56;" d="M316.7,168.7V136c-14.4,1.8-25.6,14.1-25.6,29c0,16.2,13.1,29.3,29.3,29.3c14.9,0,27.2-11.2,29-25.6
	H316.7z"/>
<g>
</g>
<g>
</g>
<g>
</g>
<g>
</g>
<g>
</g>
<g>
</g>
<g>
</g>
<g>
</g>
<g>
</g>
<g>
</g>
<g>
</g>
<g>
</g>
<g>
</g>
<g>
</g>
<g>
</g>
</svg>
