<?xml version="1.0" encoding="iso-8859-1"?>
<!-- Generator: Adobe Illustrator 19.0.0, SVG Export Plug-In . SVG Version: 6.00 Build 0)  -->
<svg version="1.1" id="Layer_1" xmlns="http://www.w3.org/2000/svg" xmlns:xlink="http://www.w3.org/1999/xlink" x="0px" y="0px"
	 viewBox="0 0 496.247 496.247" style="enable-background:new 0 0 496.247 496.247;" xml:space="preserve">
<g>
	<g>
		<path d="M458.946,310.606c0.4-2.6,0.7-5.1,1-7.7c0.1-0.5,0.1-1,0.1-1.5c0.1-1.2,0.2-2.4,0.3-3.6c0.1-0.6,0.1-1.2,0.1-1.9
			c0.1-1.1,0.2-2.2,0.2-3.3c0-0.6,0.1-1.3,0.1-1.9c0.1-1.2,0.1-2.3,0.1-3.5c0-0.6,0-1.1,0.1-1.7c0-1.7,0.1-3.4,0.1-5.1
			c0-65.5-29.5-126.5-81-167.1c-7.8-6.2-19.1-4.8-25.3,3c-6.2,7.8-4.8,19.1,3,25.3c42.8,33.8,67.3,84.4,67.3,138.9
			c0,1.4,0,2.8-0.1,4.3c0,0.5,0,0.9,0,1.4c0,1-0.1,1.9-0.1,2.9c0,0.5-0.1,1.1-0.1,1.6c-0.1,0.9-0.1,1.8-0.2,2.8c0,0.5-0.1,1-0.1,1.5
			c-0.1,1-0.2,2-0.3,3c0,0.3-0.1,0.6-0.1,1c-2.4-0.2-4.7-0.3-7.2-0.3c-43.8,0-79.4,35.6-79.4,79.4c0,9.9,8.1,18,18,18
			c9.9,0,18-8.1,18-18c0-23.9,19.5-43.4,43.4-43.4c23.9,0,43.4,19.5,43.4,43.4c0,23.9-19.5,43.4-43.4,43.4c-9.9,0-18,8.1-18,18
			c0,9.9,8.1,18,18,18c43.8,0,79.4-35.6,79.4-79.4C496.346,349.506,481.446,324.606,458.946,310.606z"/>
	</g>
</g>
<g>
	<g>
		<path d="M313.246,42.806c-11-18.2-28.3-31-48.9-36c-20.6-5.1-41.9-1.9-60.1,9.1s-31,28.3-36,48.9c-1.5,5.9-2.2,11.9-2.3,17.9
			c-9.2,3.9-18.2,8.5-26.8,13.7c-56.1,33.9-93,90.6-101.2,155.7c-1.1,9.8,5.9,18.8,15.7,20.1c0.8,0.1,1.5,0.1,2.3,0.1
			c8.9,0,16.7-6.7,17.8-15.7c6.8-54.1,37.5-101.3,84.1-129.4c5.3-3.2,10.7-6.1,16.2-8.7c1,2.1,2.2,4.2,3.4,6.3
			c14.9,24.7,41.2,38.4,68.1,38.4c14,0,28.1-3.7,40.9-11.4c8.5-5.1,11.2-16.2,6.1-24.7c-5.1-8.5-16.2-11.2-24.7-6.1
			c-20.5,12.4-47.2,5.8-59.6-14.7c-12.4-20.5-5.8-47.2,14.7-59.6c9.9-6,21.6-7.8,32.8-5c11.2,2.8,20.7,9.8,26.7,19.7
			c5.1,8.5,16.2,11.2,24.7,6.1C315.646,62.406,318.346,51.306,313.246,42.806z"/>
	</g>
</g>
<g>
	<g>
		<path d="M338.046,452.006c-3.8-9.2-14.3-13.6-23.5-9.8c-50.4,20.8-106.6,17.5-154.1-9.1c-0.1,0-0.1-0.1-0.2-0.1
			c-1.2-0.7-2.4-1.3-3.5-2c-0.4-0.2-0.8-0.5-1.2-0.7c-0.8-0.5-1.6-1-2.5-1.5c-0.5-0.3-0.9-0.6-1.3-0.9c-0.8-0.5-1.5-1-2.3-1.5
			c-0.4-0.3-0.9-0.6-1.3-0.9c-0.8-0.5-1.6-1.1-2.4-1.7c-0.3-0.2-0.5-0.4-0.8-0.6c1.3-2,2.6-4,3.8-6.1c21.4-38.2,7.7-86.7-30.5-108
			c-8.7-4.9-19.6-1.8-24.5,6.9c-4.9,8.7-1.8,19.6,6.9,24.5c20.9,11.7,28.3,38.2,16.7,59c-7.9,14.2-22.7,22.2-37.9,22.2
			c-7.2,0-14.4-1.8-21.1-5.5c-20.9-11.7-28.3-38.2-16.7-59c4.9-8.7,1.8-19.6-6.9-24.5c-8.7-4.9-19.6-1.8-24.5,6.9
			c-21.6,38.4-7.9,86.9,30.3,108.3c12.2,6.9,25.5,10.1,38.6,10.1c13.4,0,26.6-3.4,38.4-9.8c0.7,0.5,1.3,1,2,1.5
			c0.1,0.1,0.2,0.1,0.3,0.2c1.3,0.9,2.6,1.9,3.9,2.8c0.4,0.3,0.9,0.6,1.3,0.9c1,0.7,1.9,1.3,2.9,2c0.5,0.3,1,0.7,1.6,1
			c0.9,0.6,1.9,1.2,2.8,1.8c0.5,0.3,1.1,0.7,1.6,1c1,0.6,2,1.2,3,1.8c0.5,0.3,0.9,0.6,1.4,0.8c1.5,0.9,3,1.7,4.5,2.6
			c32.3,18.1,68,27.2,103.8,27.2c27.6,0,55.2-5.4,81.6-16.3C337.446,471.706,341.846,461.206,338.046,452.006z"/>
	</g>
</g>
<g>
</g>
<g>
</g>
<g>
</g>
<g>
</g>
<g>
</g>
<g>
</g>
<g>
</g>
<g>
</g>
<g>
</g>
<g>
</g>
<g>
</g>
<g>
</g>
<g>
</g>
<g>
</g>
<g>
</g>
</svg>
