<svg height="512.00003pt" viewBox="0 0 512.00003 512.00003" width="512.00003pt" xmlns="http://www.w3.org/2000/svg"><path d="m397.242188 0h-388.414063c-4.875 0-8.828125 3.953125-8.828125 8.828125v176.550781c0 4.875 3.953125 8.828125 8.828125 8.828125h388.414063c4.875 0 8.828124-3.953125 8.828124-8.828125v-176.550781c0-4.875-3.953124-8.828125-8.828124-8.828125zm-194.207032 167.722656c-39.003906 0-70.621094-31.617187-70.621094-70.621094 0-39 31.617188-70.617187 70.621094-70.617187s70.621094 31.617187 70.621094 70.621094c0 39-31.617188 70.617187-70.621094 70.617187zm0 0" fill="#00ccb3"/><path d="m273.65625 97.105469c0 39-31.617188 70.621093-70.621094 70.621093s-70.621094-31.621093-70.621094-70.621093c0-39.003907 31.617188-70.621094 70.621094-70.621094s70.621094 31.617187 70.621094 70.621094zm0 0" fill="#ffd422"/><path d="m503.171875 317.792969h-388.414063c-4.875 0-8.828124 3.953125-8.828124 8.828125v176.550781c0 4.875 3.953124 8.828125 8.828124 8.828125h388.414063c4.875 0 8.828125-3.953125 8.828125-8.828125v-176.550781c0-4.875-3.953125-8.828125-8.828125-8.828125zm-194.207031 167.722656c-39 0-70.621094-31.617187-70.621094-70.621094 0-39 31.621094-70.617187 70.621094-70.617187 39.003906 0 70.621094 31.617187 70.621094 70.621094 0 39-31.617188 70.617187-70.621094 70.617187zm0 0" fill="#00ccb3"/><path d="m379.585938 414.898438c0 39-31.617188 70.621093-70.621094 70.621093-39 0-70.621094-31.621093-70.621094-70.621093 0-39.003907 31.621094-70.621094 70.621094-70.621094 39.003906 0 70.621094 31.617187 70.621094 70.621094zm0 0" fill="#ffd422"/><path d="m203.035156 70.621094c4.875 0 8.828125 3.953125 8.828125 8.828125h17.652344c-.042969-11.183594-7.109375-21.132813-17.652344-24.859375v-10.453125h-17.65625v10.453125c-13.761719 4.847656-20.992187 19.933594-16.144531 33.699218 3.730469 10.585938 13.746094 17.664063 24.972656 17.640626 4.875 0 8.828125 3.953124 8.828125 8.828124s-3.953125 8.828126-8.828125 8.828126-8.828125-3.953126-8.828125-8.828126h-17.65625c.046875 11.183594 7.113281 21.132813 17.65625 24.859376v10.453124h17.65625v-10.453124c13.761719-4.847657 20.988281-19.933594 16.140625-33.699219-3.730468-10.589844-13.742187-17.664063-24.96875-17.640625-4.875 0-8.828125-3.953125-8.828125-8.828125s3.953125-8.828125 8.828125-8.828125zm0 0" fill="#ff6243"/><path d="m238.34375 88.277344h17.65625v17.652344h-17.65625zm0 0" fill="#ff6243"/><path d="m150.070312 88.277344h17.65625v17.652344h-17.65625zm0 0" fill="#ff6243"/><g fill="#00eed1"><path d="m44.136719 70.621094h-17.652344v-35.3125c0-4.875 3.949219-8.824219 8.824219-8.824219h35.3125v17.652344h-26.484375zm0 0"/><path d="m70.621094 167.722656h-35.3125c-4.875 0-8.824219-3.949218-8.824219-8.824218v-35.3125h17.652344v26.484374h26.484375zm0 0"/><path d="m379.585938 70.621094h-17.65625v-26.484375h-26.480469v-17.652344h35.308593c4.875 0 8.828126 3.949219 8.828126 8.824219zm0 0"/><path d="m370.757812 167.722656h-35.308593v-17.652344h26.480469v-26.484374h17.65625v35.3125c0 4.875-3.953126 8.824218-8.828126 8.824218zm0 0"/></g><path d="m308.964844 388.414062c4.875 0 8.828125 3.953126 8.828125 8.828126h17.65625c-.046875-11.183594-7.113281-21.132813-17.65625-24.859376v-10.453124h-17.65625v10.453124c-13.761719 4.847657-20.988281 19.933594-16.140625 33.699219 3.730468 10.589844 13.742187 17.664063 24.96875 17.640625 4.875 0 8.828125 3.953125 8.828125 8.828125s-3.953125 8.828125-8.828125 8.828125-8.828125-3.953125-8.828125-8.828125h-17.652344c.042969 11.183594 7.109375 21.132813 17.652344 24.859375v10.453125h17.65625v-10.453125c13.761719-4.847656 20.992187-19.933594 16.144531-33.699218-3.730469-10.585938-13.746094-17.664063-24.972656-17.640626-4.875 0-8.828125-3.953124-8.828125-8.828124s3.953125-8.828126 8.828125-8.828126zm0 0" fill="#ff6243"/><path d="m344.277344 406.070312h17.652344v17.652344h-17.652344zm0 0" fill="#ff6243"/><path d="m256 406.070312h17.65625v17.652344h-17.65625zm0 0" fill="#ff6243"/><path d="m150.070312 388.414062h-17.65625v-35.308593c0-4.875 3.953126-8.828125 8.828126-8.828125h35.308593v17.65625h-26.480469zm0 0" fill="#00eed1"/><path d="m176.550781 485.515625h-35.308593c-4.875 0-8.828126-3.949219-8.828126-8.824219v-35.3125h17.65625v26.484375h26.480469zm0 0" fill="#00eed1"/><path d="m485.515625 388.414062h-17.652344v-26.484374h-26.484375v-17.652344h35.3125c4.875 0 8.824219 3.949218 8.824219 8.824218zm0 0" fill="#00eed1"/><path d="m476.691406 485.515625h-35.3125v-17.652344h26.484375v-26.484375h17.65625v35.3125c-.003906 4.875-3.953125 8.824219-8.828125 8.824219zm0 0" fill="#00eed1"/><path d="m499.066406 212.304688-22.375 22.386718v-137.585937c0-4.878907-3.953125-8.828125-8.828125-8.828125h-35.3125v17.652344h26.484375v128.761718l-22.378906-22.386718-12.480469 12.480468 37.445313 37.457032c3.449218 3.445312 9.035156 3.445312 12.484375 0l37.445312-37.457032zm0 0" fill="#ff6243"/><path d="m52.964844 277.308594 22.378906 22.386718 12.480469-12.480468-37.445313-37.457032c-3.5-3.308593-8.980468-3.308593-12.480468 0l-37.449219 37.457032 12.484375 12.480468 22.375-22.386718v137.589844c0 4.875 3.953125 8.824218 8.828125 8.824218h35.3125v-17.652344h-26.484375zm0 0" fill="#ff6243"/></svg>