<?xml version="1.0" encoding="iso-8859-1"?>
<!-- Generator: Adobe Illustrator 19.0.0, SVG Export Plug-In . SVG Version: 6.00 Build 0)  -->
<svg version="1.1" id="Layer_1" xmlns="http://www.w3.org/2000/svg" xmlns:xlink="http://www.w3.org/1999/xlink" x="0px" y="0px"
	 viewBox="0 0 509.287 509.287" style="enable-background:new 0 0 509.287 509.287;" xml:space="preserve">
<circle style="fill:#F1F3F7;" cx="254.644" cy="254.644" r="254.644"/>
<circle style="fill:#4F5565;" cx="254.644" cy="254.644" r="254.644"/>
<polygon style="fill:#F0582F;" points="352.636,195.306 268.546,195.306 297.028,87.481 323.815,87.481 "/>
<rect x="259.73" y="195.306" style="fill:#D54232;" width="101.383" height="79.004"/>
<path style="fill:#F0582F;" d="M259.73,508.948c36.281-0.678,70.527-8.816,101.383-23.396V274.31H259.73V508.948z"/>
<g>
	<rect x="259.73" y="327.205" style="fill:#F1F3F7;" width="101.383" height="23.735"/>
	<rect x="259.73" y="364.842" style="fill:#F1F3F7;" width="101.383" height="14.919"/>
</g>
<polygon style="fill:#FBD303;" points="240.742,195.306 156.652,195.306 185.473,87.481 211.921,87.481 "/>
<rect x="147.836" y="195.306" style="fill:#F8B517;" width="101.383" height="79.004"/>
<path style="fill:#FBD303;" d="M147.836,485.891c30.856,14.241,65.102,22.718,101.383,23.396V274.31H147.836V485.891z"/>
<g>
	<rect x="147.836" y="327.205" style="fill:#F1F3F7;" width="101.383" height="23.735"/>
	<rect x="147.836" y="364.842" style="fill:#F1F3F7;" width="101.383" height="14.919"/>
</g>
<polygon style="fill:#6EB1E1;" points="463.513,195.306 379.423,195.306 408.244,87.481 434.691,87.481 "/>
<rect x="370.946" y="195.306" style="fill:#0090FF;" width="101.383" height="79.004"/>
<path style="fill:#6EB1E1;" d="M370.946,481.144c42.045-21.362,76.97-54.252,101.383-94.262V274.31H370.946L370.946,481.144
	L370.946,481.144z"/>
<g>
	<rect x="370.946" y="327.205" style="fill:#F1F3F7;" width="101.383" height="23.735"/>
	<rect x="370.946" y="364.842" style="fill:#F1F3F7;" width="101.383" height="14.919"/>
</g>
<polygon style="fill:#73D658;" points="129.865,195.306 45.775,195.306 74.596,87.481 101.044,87.481 "/>
<rect x="36.959" y="195.306" style="fill:#61BC42;" width="101.383" height="79.004"/>
<path style="fill:#73D658;" d="M36.959,386.882c24.413,40.011,59.677,72.901,101.383,94.262V274.31H36.959V386.882z"/>
<g>
	<rect x="36.959" y="327.205" style="fill:#F1F3F7;" width="101.383" height="23.735"/>
	<rect x="36.959" y="364.842" style="fill:#F1F3F7;" width="101.383" height="14.919"/>
</g>
<g>
</g>
<g>
</g>
<g>
</g>
<g>
</g>
<g>
</g>
<g>
</g>
<g>
</g>
<g>
</g>
<g>
</g>
<g>
</g>
<g>
</g>
<g>
</g>
<g>
</g>
<g>
</g>
<g>
</g>
</svg>
