<svg height="512pt" viewBox="0 0 512 512" width="512pt" xmlns="http://www.w3.org/2000/svg"><path d="m504.394531 256c0 137.183594-111.210937 248.394531-248.394531 248.394531s-248.394531-111.210937-248.394531-248.394531 111.210937-248.394531 248.394531-248.394531 248.394531 111.210937 248.394531 248.394531zm0 0" fill="#e8e7e6"/><path d="m422.269531 256c0 91.828125-74.441406 166.269531-166.269531 166.269531s-166.269531-74.441406-166.269531-166.269531 74.441406-166.269531 166.269531-166.269531 166.269531 74.441406 166.269531 166.269531zm0 0" fill="#d1d1d1"/><path d="m261.390625 115.941406v52.195313c0 30.65625-24.847656 55.507812-55.507813 55.507812-15.320312 0-29.199218-6.214843-39.246093-16.261719-10.039063-10.039062-16.253907-23.917968-16.253907-39.246093v-52.195313c0 15.320313 6.214844 29.199219 16.253907 39.246094 10.046875 10.039062 23.925781 16.253906 39.246093 16.253906 30.660157 0 55.507813-24.851562 55.507813-55.5zm0 0" fill="#fff"/><path d="m205.882812 465.4375c-11.128906 0-20.148437-9.019531-20.148437-20.148438v-113.292968c0-11.128906 9.019531-20.148438 20.148437-20.148438 11.128907 0 20.148438 9.019532 20.148438 20.148438v113.292968c0 11.128907-9.019531 20.148438-20.148438 20.148438zm0 0" fill="#ff4440"/><path d="m300.167969 331.996094v-269.546875l22.15625 22.160156c29.875 29.871094 46.65625 70.386719 46.65625 112.628906 0 43.121094-17.484375 84.402344-48.457031 114.40625l-.207032.199219" fill="#fff"/><path d="m320.316406 465.4375c-11.128906 0-20.148437-9.019531-20.148437-20.148438v-113.292968c0-11.128906 9.019531-20.148438 20.148437-20.148438s20.148438 9.019532 20.148438 20.148438v113.292968c0 11.128907-9.019532 20.148438-20.148438 20.148438zm0 0" fill="#ff4440"/><path d="m437.019531 74.980469c-48.351562-48.351563-112.640625-74.980469-181.019531-74.980469s-132.667969 26.628906-181.019531 74.980469c-48.351563 48.351562-74.980469 112.640625-74.980469 181.019531 0 51.144531 15.035156 100.515625 43.480469 142.773438 2.347656 3.484374 7.070312 4.40625 10.554687 2.0625s4.40625-7.070313 2.0625-10.554688c-26.75-39.738281-40.890625-86.171875-40.890625-134.28125 0-64.316406 25.046875-124.785156 70.527344-170.265625s105.949219-70.527344 170.265625-70.527344 124.785156 25.046875 170.265625 70.527344 70.527344 105.949219 70.527344 170.265625-25.046875 124.785156-70.527344 170.265625-105.949219 70.527344-170.265625 70.527344c-69.046875 0-134.871094-29.714844-180.601562-81.527344-2.777344-3.148437-7.585938-3.449219-10.730469-.667969-3.148438 2.777344-3.449219 7.582032-.671875 10.730469 48.613281 55.082031 118.597656 86.671875 192.003906 86.671875 68.378906 0 132.667969-26.628906 181.019531-74.980469 48.351563-48.351562 74.980469-112.640625 74.980469-181.019531s-26.628906-132.667969-74.980469-181.019531zm0 0"/><path d="m359.089844 376.617188c-3.1875 2.730468-3.5625 7.527343-.832032 10.71875 1.503907 1.757812 3.636719 2.664062 5.78125 2.664062 1.75 0 3.507813-.601562 4.941407-1.828125 38.699219-33.109375 60.894531-81.285156 60.894531-132.171875 0-40.929688-14.5-80.683594-40.828125-111.945312-2.703125-3.210938-7.503906-3.621094-10.714844-.917969-3.210937 2.707031-3.621093 7.503906-.917969 10.714843 24.023438 28.523438 37.253907 64.800782 37.253907 102.148438 0 46.4375-20.257813 90.398438-55.578125 120.617188zm0 0"/><path d="m133.703125 143.09375c-3.210937-2.703125-8.003906-2.296875-10.710937.917969-26.355469 31.265625-40.867188 71.035156-40.867188 111.988281 0 57.851562 28.65625 111.746094 76.65625 144.175781 1.304688.882813 2.785156 1.304688 4.246094 1.304688 2.441406 0 4.839844-1.175781 6.308594-3.347657 2.351562-3.480468 1.4375-8.207031-2.042969-10.558593-43.808594-29.59375-69.960938-78.78125-69.960938-131.574219 0-37.367188 13.242188-73.660156 37.285157-102.1875 2.707031-3.214844 2.296874-8.011719-.914063-10.71875zm0 0"/><path d="m150.375 54.84375c-4.199219 0-7.601562 3.40625-7.601562 7.605469v105.691406c0 32.222656 24.28125 58.863281 55.503906 62.632813v74.535156c-11.617188 3.316406-20.148438 14.019531-20.148438 26.6875v113.292968c0 15.304688 12.449219 27.753907 27.753906 27.753907 15.304688 0 27.753907-12.449219 27.753907-27.753907v-113.292968c0-12.667969-8.53125-23.371094-20.148438-26.6875v-74.535156c31.222657-3.769532 55.503907-30.410157 55.503907-62.632813v-105.691406c0-4.199219-3.402344-7.605469-7.601563-7.605469-4.203125 0-7.605469 3.40625-7.605469 7.605469v53.492187c0 17.21875-9.136718 32.335938-22.808594 40.78125v-94.273437c0-4.199219-3.40625-7.605469-7.605468-7.605469-4.199219 0-7.605469 3.40625-7.605469 7.605469v100.363281c-3.1875.671875-6.496094 1.03125-9.882813 1.03125-3.386718 0-6.695312-.359375-9.882812-1.03125v-100.363281c0-4.199219-3.40625-7.605469-7.605469-7.605469s-7.605469 3.40625-7.605469 7.605469v94.273437c-13.671874-8.445312-22.808593-23.5625-22.808593-40.78125v-53.492187c0-4.199219-3.402344-7.605469-7.605469-7.605469zm68.054688 277.152344v113.292968c0 6.917969-5.628907 12.546876-12.546876 12.546876-6.917968 0-12.546874-5.628907-12.546874-12.546876v-113.292968c0-6.917969 5.628906-12.546875 12.546874-12.546875 6.917969 0 12.546876 5.628906 12.546876 12.546875zm-12.546876-152.945313c19.148438 0 36.320313-8.582031 47.902344-22.089843v11.179687c0 26.410156-21.488281 47.898437-47.902344 47.898437-26.414062 0-47.902343-21.488281-47.902343-47.898437v-11.179687c11.582031 13.507812 28.753906 22.089843 47.902343 22.089843zm0 0"/><path d="m300.167969 196.269531c-4.203125 0-7.605469 3.40625-7.605469 7.605469v241.414062c0 15.304688 12.449219 27.753907 27.753906 27.753907 15.304688 0 27.753906-12.449219 27.753906-27.753907v-113.292968c0-10.15625-5.488281-19.050782-13.648437-23.886719 26.925781-30.363281 42.160156-70.109375 42.160156-110.867187 0-44.578126-17.359375-86.488282-48.878906-118.011719l-22.160156-22.15625c-2.175781-2.175781-5.445313-2.828125-8.285157-1.648438-2.84375 1.175781-4.695312 3.949219-4.695312 7.023438v111.007812c0 4.199219 3.402344 7.605469 7.605469 7.605469 4.199219 0 7.601562-3.40625 7.601562-7.605469v-92.648437l9.179688 9.175781c28.648437 28.648437 44.425781 66.738281 44.425781 107.253906 0 40.007813-16.15625 78.929688-44.398438 107.210938-3.277343.398437-6.378906 1.363281-9.207031 2.800781v-103.375c0-4.199219-3.402343-7.605469-7.601562-7.605469zm20.148437 123.179688c6.917969 0 12.546875 5.628906 12.546875 12.546875v113.292968c0 6.917969-5.628906 12.546876-12.546875 12.546876-6.917968 0-12.542968-5.628907-12.542968-12.546876v-113.292968c-.003907-6.917969 5.625-12.546875 12.542968-12.546875zm0 0"/></svg>