<?xml version="1.0" encoding="iso-8859-1"?>
<!-- Generator: Adobe Illustrator 19.0.0, SVG Export Plug-In . SVG Version: 6.00 Build 0)  -->
<svg version="1.1" id="Capa_1" xmlns="http://www.w3.org/2000/svg" xmlns:xlink="http://www.w3.org/1999/xlink" x="0px" y="0px"
	 viewBox="0 0 468.261 468.261" style="enable-background:new 0 0 468.261 468.261;" xml:space="preserve">
<circle style="fill:#FCD462;" cx="234.131" cy="108.113" r="108.113"/>
<path style="fill:#F6C358;" d="M234.131,192.909c-46.757,0-84.796-38.038-84.796-84.794c0-46.757,38.039-84.796,84.796-84.796
	c46.756,0,84.794,38.038,84.794,84.796C318.925,154.87,280.887,192.909,234.131,192.909z"/>
<path style="fill:#DC8744;" d="M230.709,172.6v-11.357c-14.212-1.45-26.968-7.103-38.275-16.953l11.357-13.535
	c8.717,7.571,17.688,12.079,26.918,13.535v-30.184c-11.724-2.798-20.302-6.482-25.746-11.047
	c-5.444-4.564-8.173-11.332-8.173-20.302c0-8.97,3.14-16.308,9.414-22.018c6.274-5.704,14.446-8.812,24.506-9.331v-7.78h9.958v7.932
	c11.408,0.836,22.195,4.723,32.362,11.674l-10.116,14.313c-6.843-4.875-14.263-7.882-22.246-9.027v29.247h0.468
	c11.927,2.804,20.688,6.59,26.291,11.357c5.603,4.773,8.401,11.699,8.401,20.771c0,9.078-3.216,16.472-9.648,22.17
	c-6.432,5.71-14.934,8.818-25.512,9.338V172.6H230.709z M219.738,72.178c-2.64,2.33-3.963,5.235-3.963,8.711
	c0,3.475,1.032,6.223,3.108,8.242c2.076,2.026,6.014,3.969,11.825,5.837V68.051C226.043,68.469,222.384,69.842,219.738,72.178z
	 M252.492,140.396c2.899-2.38,4.355-5.387,4.355-9.021c0-3.627-1.146-6.508-3.425-8.635c-2.279-2.127-6.533-4.121-12.756-5.989v28
	C245.643,144.239,249.586,142.783,252.492,140.396z"/>
<circle style="fill:#FCD462;" cx="234.131" cy="360.148" r="108.113"/>
<path style="fill:#F6C358;" d="M234.131,444.973c-46.757,0-84.796-38.038-84.796-84.794c0-46.757,38.039-84.796,84.796-84.796
	c46.756,0,84.794,38.038,84.794,84.796C318.925,406.935,280.887,444.973,234.131,444.973z"/>
<path style="fill:#DC8744;" d="M230.709,424.665v-11.357c-14.212-1.45-26.968-7.103-38.275-16.953l11.357-13.535
	c8.717,7.571,17.688,12.079,26.918,13.535V366.17c-11.724-2.798-20.302-6.482-25.746-11.047c-5.444-4.564-8.173-11.332-8.173-20.302
	c0-8.97,3.14-16.307,9.414-22.018c6.274-5.704,14.446-8.812,24.506-9.331v-7.78h9.958v7.932
	c11.408,0.836,22.195,4.723,32.362,11.674l-10.116,14.313c-6.843-4.875-14.263-7.882-22.246-9.027v29.247h0.468
	c11.927,2.804,20.688,6.59,26.291,11.357c5.603,4.773,8.401,11.699,8.401,20.771c0,9.078-3.216,16.472-9.648,22.17
	c-6.432,5.71-14.934,8.818-25.512,9.338v11.199H230.709z M219.738,324.243c-2.64,2.33-3.963,5.235-3.963,8.711
	c0,3.475,1.032,6.223,3.108,8.242c2.076,2.026,6.014,3.969,11.825,5.837v-26.918C226.043,320.534,222.384,321.907,219.738,324.243z
	 M252.492,392.461c2.899-2.38,4.355-5.387,4.355-9.021c0-3.627-1.146-6.508-3.425-8.635c-2.279-2.127-6.533-4.121-12.756-5.989v28
	C245.643,396.304,249.586,394.848,252.492,392.461z"/>
<g>
	<path style="fill:#3A556A;" d="M406.87,325.809l-21.513,0c-0.573,0-1.146-0.059-1.71-0.171c-0.259-0.051-0.499-0.147-0.749-0.222
		c-0.293-0.086-0.59-0.154-0.875-0.271c-0.29-0.121-0.554-0.286-0.828-0.436c-0.223-0.121-0.455-0.22-0.669-0.363
		c-0.953-0.637-1.773-1.456-2.409-2.409c-0.144-0.214-0.242-0.448-0.364-0.671c-0.149-0.273-0.314-0.536-0.434-0.825
		c-0.119-0.286-0.186-0.584-0.273-0.879c-0.074-0.248-0.17-0.487-0.22-0.744c-0.112-0.564-0.172-1.137-0.171-1.71l0-21.513
		c-0.001-4.802,3.893-8.696,8.695-8.695c3.922-0.002,7.202,2.615,8.284,6.185c27.181-42.067,22.382-98.943-14.434-135.758
		c-3.396-3.396-3.396-8.902,0-12.298c3.396-3.396,8.902-3.396,12.298,0c44.456,44.456,48.687,114.128,12.709,163.391l2.665,0
		c2.4-0.002,4.576,0.973,6.149,2.546c1.573,1.573,2.547,3.748,2.546,6.149C415.566,321.917,411.672,325.811,406.87,325.809z"/>
	<path style="fill:#3A556A;" d="M76.764,323.262c-44.455-44.455-48.686-114.126-12.706-163.391l-2.665,0
		c-4.801,0.003-8.698-3.894-8.695-8.695c-0.001-4.802,3.893-8.696,8.695-8.695l21.513,0c0.573,0,1.146,0.059,1.711,0.171
		c0.254,0.05,0.489,0.146,0.734,0.217c0.298,0.088,0.6,0.157,0.889,0.276c0.286,0.119,0.546,0.282,0.816,0.43
		c0.227,0.123,0.463,0.224,0.68,0.369c0.477,0.318,0.922,0.679,1.326,1.083c0.404,0.404,0.764,0.849,1.083,1.326
		c0.145,0.217,0.246,0.453,0.369,0.68c0.148,0.27,0.311,0.53,0.43,0.816c0.12,0.289,0.188,0.591,0.276,0.889
		c0.072,0.246,0.167,0.481,0.217,0.734c0.112,0.565,0.172,1.138,0.171,1.711l0,21.513c0.002,4.802-3.893,8.696-8.695,8.695
		c-3.922,0.002-7.202-2.616-8.284-6.186c-27.182,42.067-22.385,98.943,14.432,135.759c3.396,3.396,3.396,8.902,0,12.298
		C85.666,326.658,80.16,326.658,76.764,323.262z"/>
</g>
<g>
</g>
<g>
</g>
<g>
</g>
<g>
</g>
<g>
</g>
<g>
</g>
<g>
</g>
<g>
</g>
<g>
</g>
<g>
</g>
<g>
</g>
<g>
</g>
<g>
</g>
<g>
</g>
<g>
</g>
</svg>
