<svg height="511pt" viewBox="-47 1 511 511.9998" width="511pt" xmlns="http://www.w3.org/2000/svg"><path d="m359.242188 67.242188-58.988282 28.316406v207.570312c0 50.421875-41.265625 91.382813-91.792968 90.898438-50.03125-.484375-89.988282-42.007813-89.988282-92.054688v-206.414062l-58.988281-28.316406-58.984375 28.316406v205.554687c0 115.445313 92.820312 210.566407 208.269531 210.886719 115.433594.316406 209.457031-93.503906 209.457031-208.871094v-207.570312zm0 0" fill="#d4d2d3"/><path d="m239.367188 394.027344c50.527343.484375 91.792968-40.476563 91.792968-90.898438v-207.570312l43.535156-20.898438-15.453124-7.417968-58.988282 28.316406v207.570312c0 44.839844-32.636718 82.195313-75.398437 89.578125 4.71875.816407 9.566406 1.273438 14.511719 1.320313zm0 0" fill="#bab8b9"/><path d="m31.40625 301.113281v-205.554687l43.53125-20.898438-15.453125-7.417968-58.984375 28.316406v205.554687c0 115.445313 92.820312 210.566407 208.269531 210.886719 5.429688.015625 10.816407-.179688 16.144531-.574219-108.496093-7.976562-193.507812-99.832031-193.507812-210.3125zm0 0" fill="#bab8b9"/><path d="m118.472656 18.945312v76.613282h-117.972656v-76.613282c0-10.460937 8.480469-18.945312 18.945312-18.945312h80.078126c10.464843 0 18.949218 8.484375 18.949218 18.945312zm0 0" fill="#da5b65"/><path d="m50.351562 0h-30.90625c-10.464843 0-18.945312 8.484375-18.945312 18.945312v76.613282h30.90625v-76.613282c0-10.460937 8.480469-18.945312 18.945312-18.945312zm0 0" fill="#c0344a"/><path d="m418.226562 18.945312v76.613282h-117.972656v-76.613282c0-10.460937 8.484375-18.945312 18.949219-18.945312h80.078125c10.464844 0 18.945312 8.484375 18.945312 18.945312zm0 0" fill="#49c3e0"/><path d="m350.105469 0h-30.902344c-10.464844 0-18.949219 8.480469-18.949219 18.945312v76.613282h30.90625v-76.613282c0-10.460937 8.484375-18.945312 18.945313-18.945312zm0 0" fill="#00a5c6"/><g fill="#3a484a"><path d="m123.410156 446.671875c-4.265625 0-7.726562-3.460937-7.726562-7.726563v-15.558593c0-4.265625 3.460937-7.726563 7.726562-7.726563 4.269532 0 7.726563 3.460938 7.726563 7.726563v15.558593c0 4.265626-3.457031 7.726563-7.726563 7.726563zm0 0"/><path d="m295.316406 446.671875c-4.265625 0-7.726562-3.460937-7.726562-7.726563v-15.558593c0-4.265625 3.460937-7.726563 7.726562-7.726563 4.269532 0 7.726563 3.460938 7.726563 7.726563v15.558593c0 4.265626-3.457031 7.726563-7.726563 7.726563zm0 0"/><path d="m209.363281 454.972656c-10.496093 0-20.347656-4.382812-27.03125-12.027344-2.808593-3.210937-2.480469-8.09375.734375-10.902343 3.210938-2.808594 8.089844-2.480469 10.902344.734375 3.746094 4.285156 9.355469 6.742187 15.394531 6.742187 6.039063 0 11.652344-2.457031 15.398438-6.742187 2.808593-3.214844 7.691406-3.542969 10.902343-.734375 3.210938 2.808593 3.539063 7.691406.730469 10.902343-6.679687 7.644532-16.53125 12.027344-27.03125 12.027344zm0 0"/></g></svg>