<svg xmlns="http://www.w3.org/2000/svg" height="612pt" version="1.1" viewBox="-10 0 612 612" width="612pt">
<g id="surface1">
<path d="M 326.398438 214.199219 L 530.398438 214.199219 L 530.398438 601.800781 L 326.398438 601.800781 Z M 326.398438 214.199219 " style=" stroke:none;fill-rule:nonzero;fill:rgb(38.431373%,54.117647%,15.294118%);fill-opacity:1;" />
<path d="M 326.398438 173.398438 L 530.398438 173.398438 L 530.398438 561 L 326.398438 561 Z M 326.398438 173.398438 " style=" stroke:none;fill-rule:nonzero;fill:rgb(41.960784%,58.823529%,16.470588%);fill-opacity:1;" />
<path d="M 326.398438 132.601562 L 530.398438 132.601562 L 530.398438 520.199219 L 326.398438 520.199219 Z M 326.398438 132.601562 " style=" stroke:none;fill-rule:nonzero;fill:rgb(53.333333%,70.196078%,21.568627%);fill-opacity:1;" />
<path d="M 326.398438 438.601562 L 326.398438 520.199219 L 530.398438 520.199219 L 530.398438 234.601562 Z M 326.398438 438.601562 " style=" stroke:none;fill-rule:nonzero;fill:rgb(50.196078%,65.882353%,20.392157%);fill-opacity:1;" />
<path d="M 469.199219 479.398438 L 387.601562 479.398438 C 387.601562 468.128906 378.472656 459 367.199219 459 L 367.199219 193.800781 C 378.472656 193.800781 387.601562 184.671875 387.601562 173.398438 L 469.199219 173.398438 C 469.199219 184.671875 478.328125 193.800781 489.601562 193.800781 L 489.601562 459 C 478.328125 459 469.199219 468.128906 469.199219 479.398438 Z M 469.199219 479.398438 " style=" stroke:none;fill-rule:nonzero;fill:rgb(41.960784%,58.823529%,16.470588%);fill-opacity:1;" />
<path d="M 489.601562 326.398438 C 489.601562 298.234375 462.199219 275.398438 428.398438 275.398438 C 394.601562 275.398438 367.199219 298.234375 367.199219 326.398438 C 367.199219 354.566406 394.601562 377.398438 428.398438 377.398438 C 462.199219 377.398438 489.601562 354.566406 489.601562 326.398438 Z M 489.601562 326.398438 " style=" stroke:none;fill-rule:nonzero;fill:rgb(53.333333%,70.196078%,21.568627%);fill-opacity:1;" />
<path d="M 418.199219 214.199219 L 438.601562 214.199219 L 438.601562 234.601562 L 418.199219 234.601562 Z M 418.199219 214.199219 " style=" stroke:none;fill-rule:nonzero;fill:rgb(53.333333%,70.196078%,21.568627%);fill-opacity:1;" />
<path d="M 61.199219 132.601562 L 265.199219 132.601562 L 265.199219 520.199219 L 61.199219 520.199219 Z M 61.199219 132.601562 " style=" stroke:none;fill-rule:nonzero;fill:rgb(38.431373%,54.117647%,15.294118%);fill-opacity:1;" />
<path d="M 61.199219 91.800781 L 265.199219 91.800781 L 265.199219 479.398438 L 61.199219 479.398438 Z M 61.199219 91.800781 " style=" stroke:none;fill-rule:nonzero;fill:rgb(41.960784%,58.823529%,16.470588%);fill-opacity:1;" />
<path d="M 61.199219 51 L 265.199219 51 L 265.199219 438.601562 L 61.199219 438.601562 Z M 61.199219 51 " style=" stroke:none;fill-rule:nonzero;fill:rgb(53.333333%,70.196078%,21.568627%);fill-opacity:1;" />
<path d="M 61.199219 357 L 61.199219 438.601562 L 265.199219 438.601562 L 265.199219 153 Z M 61.199219 357 " style=" stroke:none;fill-rule:nonzero;fill:rgb(50.196078%,65.882353%,20.392157%);fill-opacity:1;" />
<path d="M 122.398438 91.800781 L 204 91.800781 C 204 103.070312 213.128906 112.199219 224.398438 112.199219 L 224.398438 377.398438 C 213.128906 377.398438 204 386.527344 204 397.800781 L 122.398438 397.800781 C 122.398438 386.527344 113.269531 377.398438 102 377.398438 L 102 112.199219 C 113.269531 112.199219 122.398438 103.070312 122.398438 91.800781 Z M 122.398438 91.800781 " style=" stroke:none;fill-rule:nonzero;fill:rgb(41.960784%,58.823529%,16.470588%);fill-opacity:1;" />
<path d="M 224.398438 244.800781 C 224.398438 216.632812 197 193.800781 163.199219 193.800781 C 129.398438 193.800781 102 216.632812 102 244.800781 C 102 272.964844 129.398438 295.800781 163.199219 295.800781 C 197 295.800781 224.398438 272.964844 224.398438 244.800781 Z M 224.398438 244.800781 " style=" stroke:none;fill-rule:nonzero;fill:rgb(53.333333%,70.196078%,21.568627%);fill-opacity:1;" />
<path d="M 153 336.601562 L 173.398438 336.601562 L 173.398438 357 L 153 357 Z M 153 336.601562 " style=" stroke:none;fill-rule:nonzero;fill:rgb(53.333333%,70.196078%,21.568627%);fill-opacity:1;" />
<path d="M 153 132.601562 L 173.398438 132.601562 L 173.398438 153 L 153 153 Z M 153 132.601562 " style=" stroke:none;fill-rule:nonzero;fill:rgb(53.333333%,70.196078%,21.568627%);fill-opacity:1;" />
<path d="M 153 153 L 81.601562 81.601562 C 101.195312 62.007812 112.199219 35.433594 112.199219 7.722656 L 112.199219 0 L 0 0 L 0 129.398438 C 0 151.039062 8.597656 171.796875 23.898438 187.097656 L 61.199219 224.398438 L 61.199219 142.800781 L 112.199219 193.800781 C 123.472656 205.070312 141.730469 205.070312 153 193.800781 C 164.269531 182.527344 164.269531 164.269531 153 153 Z M 153 153 " style=" stroke:none;fill-rule:nonzero;fill:rgb(100%,71.764706%,50.980392%);fill-opacity:1;" />
<path d="M 61.199219 153 C 58.496094 153 55.894531 151.929688 53.988281 150.011719 L 33.589844 129.609375 C 29.671875 125.5625 29.785156 119.105469 33.84375 115.1875 C 37.800781 111.371094 44.0625 111.371094 48.011719 115.1875 L 68.410156 135.589844 C 72.390625 139.574219 72.390625 146.03125 68.410156 150.011719 C 66.492188 151.929688 63.902344 153 61.199219 153 Z M 61.199219 153 " style=" stroke:none;fill-rule:nonzero;fill:rgb(94.901961%,64.313725%,43.529412%);fill-opacity:1;" />
<path d="M 438.601562 459 L 510 530.398438 C 490.40625 549.992188 479.398438 576.566406 479.398438 604.277344 L 479.398438 612 L 591.601562 612 L 591.601562 482.601562 C 591.601562 460.960938 583 440.203125 567.699219 424.902344 L 530.398438 387.601562 L 530.398438 469.199219 L 479.398438 418.199219 C 468.128906 406.929688 449.871094 406.929688 438.601562 418.199219 C 427.328125 429.472656 427.328125 447.730469 438.601562 459 Z M 438.601562 459 " style=" stroke:none;fill-rule:nonzero;fill:rgb(100%,71.764706%,50.980392%);fill-opacity:1;" />
<path d="M 550.800781 499.800781 C 548.097656 499.800781 545.496094 498.730469 543.589844 496.8125 L 523.1875 476.410156 C 519.273438 472.363281 519.382812 465.90625 523.433594 461.988281 C 527.390625 458.171875 533.652344 458.171875 537.613281 461.988281 L 558.011719 482.386719 C 561.988281 486.375 561.988281 492.832031 558.011719 496.8125 C 556.09375 498.730469 553.503906 499.800781 550.800781 499.800781 Z M 550.800781 499.800781 " style=" stroke:none;fill-rule:nonzero;fill:rgb(94.901961%,64.313725%,43.529412%);fill-opacity:1;" />
</g>
</svg>