<?xml version="1.0" encoding="iso-8859-1"?>
<!-- Generator: Adobe Illustrator 19.0.0, SVG Export Plug-In . SVG Version: 6.00 Build 0)  -->
<svg version="1.1" id="Layer_1" xmlns="http://www.w3.org/2000/svg" xmlns:xlink="http://www.w3.org/1999/xlink" x="0px" y="0px"
	 viewBox="0 0 509.287 509.287" style="enable-background:new 0 0 509.287 509.287;" xml:space="preserve">
<circle style="fill:#F1F3F7;" cx="254.644" cy="254.644" r="254.644"/>
<rect x="45.097" y="287.195" style="fill:#73D658;" width="120.032" height="120.032"/>
<rect x="194.628" y="182.76" style="fill:#0090FF;" width="120.032" height="224.466"/>
<rect x="343.82" y="102.061" style="fill:#F0582F;" width="120.032" height="305.505"/>
<g>
	<path style="fill:#FFFFFF;" d="M411.295,214.972c-3.73,0-6.442-3.052-6.442-6.442v-68.832h-8.477c-3.73,0-6.442-3.052-6.442-6.442
		s3.052-6.442,6.442-6.442h14.919c3.73,0,6.442,3.052,6.442,6.442v75.274C418.077,211.921,415.025,214.972,411.295,214.972z"/>
	<path style="fill:#FFFFFF;" d="M123.762,347.211c4.747-4.747,7.799-11.528,7.799-18.649c0-14.58-11.868-26.448-26.448-26.448
		s-26.448,11.868-26.448,26.448c0,4.069,3.391,7.46,7.46,7.46c4.069,0,7.46-3.391,7.46-7.46c0-6.103,5.086-11.189,11.189-11.189
		s11.189,5.086,11.189,11.189c0,6.103-5.086,11.189-11.189,11.189c-4.069,0-7.46,3.391-7.46,7.46c0,4.069,3.391,7.46,7.46,7.46
		c6.103,0,11.189,5.086,11.189,11.189c0,6.103-5.086,11.189-11.189,11.189s-11.189-5.086-11.189-11.189
		c0-4.069-3.391-7.46-7.46-7.46c-4.069,0-7.46,3.391-7.46,7.46c0,14.58,11.868,26.448,26.448,26.448s26.448-11.868,26.448-26.448
		C131.56,358.739,128.848,351.958,123.762,347.211z"/>
	<path style="fill:#FFFFFF;" d="M280.752,292.281h-52.217c-2.713,0-5.086-1.695-6.103-4.069s-0.339-5.086,1.356-7.121l39.332-39.332
		c2.034-2.713,3.052-5.764,3.052-9.155c0-8.477-6.781-15.258-15.258-15.258c-8.477,0-15.258,6.781-15.258,15.258
		c0,3.73-3.052,6.442-6.442,6.442c-3.73,0-6.442-3.052-6.442-6.442c0-15.597,12.885-28.482,28.482-28.482
		s28.482,12.885,28.482,28.482c0,6.442-2.034,12.207-5.764,17.293c0,0.339-0.339,0.339-0.678,0.678l-28.482,28.821h36.281
		c3.73,0,6.442,3.052,6.442,6.442C287.195,289.568,284.143,292.281,280.752,292.281z"/>
</g>
<g>
</g>
<g>
</g>
<g>
</g>
<g>
</g>
<g>
</g>
<g>
</g>
<g>
</g>
<g>
</g>
<g>
</g>
<g>
</g>
<g>
</g>
<g>
</g>
<g>
</g>
<g>
</g>
<g>
</g>
</svg>
