<?xml version="1.0" encoding="iso-8859-1"?>
<!-- Generator: Adobe Illustrator 19.0.0, SVG Export Plug-In . SVG Version: 6.00 Build 0)  -->
<svg version="1.1" id="Layer_1" xmlns="http://www.w3.org/2000/svg" xmlns:xlink="http://www.w3.org/1999/xlink" x="0px" y="0px"
	 viewBox="0 0 509.287 509.287" style="enable-background:new 0 0 509.287 509.287;" xml:space="preserve">
<circle style="fill:#4B5AA7;" cx="254.644" cy="254.644" r="254.644"/>
<g>
	<rect x="140.037" y="415.025" style="fill:#F0BA7A;" width="51.878" height="57.303"/>
	<rect x="317.711" y="415.025" style="fill:#F0BA7A;" width="51.878" height="57.303"/>
</g>
<path style="fill:#F7CFA2;" d="M461.817,278.379h-24.413c-13.902-72.562-90.532-128.17-182.76-128.17
	c-26.448,0-51.539,4.408-74.257,12.546c-35.264-23.396-87.481-26.448-87.481-26.448l21.022,67.136
	c-21.701,20.683-36.62,46.453-42.045,74.596H61.372c-7.799,0-14.241,6.442-14.241,14.241v28.143c0,7.799,6.442,14.241,14.241,14.241
	h12.546c17.971,68.154,92.228,119.354,180.726,119.354c102.061,0,185.134-68.154,185.134-151.905c0-1.695,0-3.73,0-5.425h22.379
	v-18.31H461.817z"/>
<g>
	<circle style="fill:#414753;" cx="136.307" cy="253.287" r="15.936"/>
	<path style="fill:#414753;" d="M333.987,185.134H218.024c-3.391,0-6.103,2.713-6.103,6.103s2.713,6.103,6.103,6.103h115.963
		c3.391,0,6.103-2.713,6.103-6.103S337.377,185.134,333.987,185.134z"/>
</g>
<path style="fill:#FBD303;" d="M224.127,189.881h103.417c24.074-16.615,39.672-44.079,39.672-75.274
	c0-50.522-41.028-91.211-91.211-91.211c-50.522,0-91.211,41.028-91.211,91.211C184.795,145.801,200.392,173.266,224.127,189.881z"/>
<path style="fill:#F8B517;" d="M257.356,189.881h37.637c33.907-8.477,58.66-38.993,58.66-75.274
	c0-42.723-34.924-77.648-77.648-77.648s-77.648,34.925-77.648,77.648C198.358,150.887,223.449,181.404,257.356,189.881z"/>
<circle style="fill:#FBD303;" cx="276.005" cy="114.607" r="61.711"/>
<path style="fill:#FCFCFD;" d="M298.045,130.543c0-12.207-9.833-22.04-22.04-22.04c-5.086,0-9.494-4.069-9.494-9.494
	c0-5.086,4.069-9.494,9.494-9.494c2.713,0,5.086,1.017,6.781,3.052c2.373,2.374,6.442,2.713,8.816,0.339
	c2.373-2.374,2.713-6.442,0.339-8.816c-2.713-2.713-6.103-4.747-9.833-6.103v-4.408c0-3.391-2.713-6.442-6.442-6.442
	c-3.391,0-6.442,2.713-6.442,6.442v4.408c-9.155,2.713-15.597,11.189-15.597,21.023c0,12.207,9.833,22.04,22.04,22.04
	c5.086,0,9.494,4.069,9.494,9.494c0,5.086-4.069,9.494-9.494,9.494c-2.713,0-5.086-1.017-6.781-3.052
	c-2.374-2.374-6.442-2.713-8.816-0.339c-2.374,2.374-2.713,6.442-0.339,8.816c2.713,2.713,6.103,4.747,9.833,6.103v4.408
	c0,3.391,2.713,6.442,6.442,6.442c3.391,0,6.442-2.713,6.442-6.442v-4.408C291.264,148.853,298.045,140.376,298.045,130.543z"/>
<g>
</g>
<g>
</g>
<g>
</g>
<g>
</g>
<g>
</g>
<g>
</g>
<g>
</g>
<g>
</g>
<g>
</g>
<g>
</g>
<g>
</g>
<g>
</g>
<g>
</g>
<g>
</g>
<g>
</g>
</svg>
