<?xml version="1.0" encoding="iso-8859-1"?>
<!-- Generator: Adobe Illustrator 19.1.0, SVG Export Plug-In . SVG Version: 6.00 Build 0)  -->
<svg version="1.1" id="Capa_1" xmlns="http://www.w3.org/2000/svg" xmlns:xlink="http://www.w3.org/1999/xlink" x="0px" y="0px"
	 viewBox="0 0 490.3 490.3" style="enable-background:new 0 0 490.3 490.3;" xml:space="preserve">
<g>
	<g>
		<path d="M244.9,467.758c-5.7,0-10.3,4.6-10.3,10.3c0,5.6,4.5,10.2,10.1,10.3c0.1,0,0.1,0,0.2,0c5.7,0,10.3-4.6,10.3-10.3
			C255.2,472.358,250.6,467.758,244.9,467.758z"/>
		<path d="M359.5,158.158c3.3-4.6,2.4-11-2.2-14.4c-4.6-3.3-11-2.3-14.4,2.2c-3.3,4.6-2.3,11,2.2,14.4c1.8,1.3,3.8,1.9,5.9,2
			C354.2,162.458,357.4,160.958,359.5,158.158z"/>
		<path d="M64.7,289.158c0.3,0,0.6,0.1,0.9,0.1c5.3,0.1,9.8-3.9,10.4-9.2v-0.1c0-0.1,0-0.1,0-0.2c0.6-5.7-3.5-10.7-9.1-11.3
			c-5.7-0.6-10.7,3.5-11.3,9.1c0,0.1,0,0.1,0,0.2v0.1C54.9,283.458,59,288.558,64.7,289.158z"/>
		<path d="M314,453.158L314,453.158c-5.2,2.3-7.5,8.4-5.2,13.6c1.7,3.8,5.3,6,9.2,6.1c1.5,0,2.9-0.3,4.4-0.9
			c5.2-2.3,7.5-8.4,5.2-13.6C325.3,453.158,319.2,450.858,314,453.158z"/>
		<path d="M175.8,453.058c-5.2-2.3-11.3,0-13.6,5.2s0,11.3,5.2,13.6c1.3,0.6,2.7,0.9,4,0.9c4,0.1,7.8-2.2,9.6-6.1
			C183.3,461.458,180.9,455.358,175.8,453.058z"/>
		<path d="M147.7,145.758c-3.3-4.6-9.8-5.6-14.4-2.3c-4.6,3.3-5.6,9.8-2.3,14.4c2,2.7,5,4.2,8.2,4.3c2.1,0,4.3-0.6,6.2-1.9
			C150,156.758,151,150.358,147.7,145.758z"/>
		<path d="M401.1,218.158c1.8,0,3.6-0.4,5.3-1.4c4.9-2.8,6.6-9.1,3.8-14s-9.1-6.6-14-3.8s-6.6,9.1-3.8,14
			C394.2,216.258,397.6,218.058,401.1,218.158z"/>
		<path d="M83.9,216.258c1.6,0.9,3.3,1.4,5,1.4c3.6,0.1,7.1-1.8,9.1-5.1c2.8-4.9,1.2-11.2-3.7-14c-4.9-2.9-11.2-1.2-14,3.7
			C77.3,207.058,79,213.358,83.9,216.258z"/>
		<path d="M424.1,289.458c0.4,0,0.8,0,1.3-0.1c5.6-0.6,9.7-5.6,9.2-11.3c-0.6-5.7-5.6-9.8-11.3-9.2c-5.7,0.6-9.8,5.6-9.2,11.3
			C414.6,285.458,419,289.358,424.1,289.458z"/>
		<path d="M334.9,288.058H322c-2.1-10.3-6.2-19.8-11.8-28.2l9.1-9.2c3.2-3.3,3.2-8.6,0-11.8l-10-9.9c-3.3-3.2-8.6-3.2-11.8,0
			l-9.1,9.2c-8.4-5.6-18-9.6-28.3-11.6v-12.9c0-4.6-3.8-8.3-8.4-8.3l-14,0.1c-4.6,0-8.3,3.8-8.3,8.4v12.9
			c-10.3,2.1-19.8,6.2-28.2,11.8l-9.2-9.1c-3.3-3.2-8.6-3.2-11.8,0l-9.9,10c-3.2,3.3-3.2,8.6,0,11.8l9.2,9.1
			c-5.6,8.4-9.6,18-11.6,28.3H155c-4.6,0-8.3,3.8-8.3,8.4l0.1,14c0,4.6,3.8,8.3,8.4,8.3h12.9c2.1,10.3,6.2,19.8,11.8,28.2l-9.1,9.2
			c-3.2,3.3-3.2,8.6,0,11.8l10,9.9c3.3,3.2,8.6,3.2,11.8,0l9.1-9.2c8.4,5.6,18,9.6,28.3,11.6v12.9c0,4.6,3.8,8.3,8.4,8.3l14-0.1
			c4.6,0,8.3-3.8,8.3-8.4v-12.9c10.3-2.1,19.8-6.2,28.2-11.8l9.2,9.1c3.3,3.2,8.6,3.2,11.8,0l9.9-10c3.2-3.3,3.2-8.6,0-11.8
			l-9.2-9.1c5.6-8.4,9.6-18,11.6-28.3h12.9c4.6,0,8.3-3.8,8.3-8.4l-0.1-14C343.3,291.858,339.5,288.058,334.9,288.058z
			 M245.2,341.158c-20.7,0.1-37.5-16.6-37.5-37.3c-0.1-20.7,16.6-37.5,37.3-37.5c20.7-0.1,37.5,16.6,37.5,37.3
			C282.5,324.358,265.8,341.158,245.2,341.158z"/>
		<path d="M115.9,416.058c-16.3-6.2-26.1-12.6-26.1-12.6l-12.5,39.7l-1.7,5.4l-5.6-15.9c12.9-18-1-18.9-3.4-18.9l0,0l0,0l0,0l0,0
			l0,0l0,0c-2.4,0-16.3,0.9-3.4,18.9l-5.6,15.9l-1.7-5.4l-12.6-39.7c0,0-9.8,6.4-26.1,12.6c-18,6.5-16.8,21.3-17.2,49h66.5h0.2h66.5
			C132.7,437.358,133.8,422.558,115.9,416.058z"/>
		<path d="M38.2,378.258c1.4,9.3,8.6,21.2,20.5,25.4c4.8,1.7,10.2,1.7,15,0c11.6-4.2,19.1-16,20.5-25.3c1.6-0.1,3.6-2.3,5.8-10.2
			c3-10.7-0.2-12.3-2.9-12.1c0.5-1.5,0.9-3,1.2-4.4c4.6-27.8-9.1-28.8-9.1-28.8s-2.2-4.4-8.2-7.7c-4-2.4-9.6-4.2-16.9-3.6
			c-2.4,0.1-4.6,0.6-6.7,1.3l0,0c-2.7,0.9-5.2,2.2-7.4,3.8c-2.8,1.7-5.3,3.9-7.6,6.3c-3.6,3.7-6.9,8.5-8.3,14.5
			c-1.2,4.5-0.9,9.1,0.1,14.1l0,0c0.3,1.5,0.7,2.9,1.2,4.4c-2.7-0.3-6,1.3-2.9,12.1C34.6,375.958,36.7,378.158,38.2,378.258z"/>
		<path d="M473,416.058c-16.3-6.2-26.1-12.6-26.1-12.6l-12.5,39.7l-1.7,5.4l-5.6-15.9c12.9-18-1-18.9-3.4-18.9l0,0l0,0l0,0l0,0l0,0
			l0,0c-2.4,0-16.3,0.9-3.4,18.9l-5.6,15.9l-1.7-5.4l-12.6-39.7c0,0-9.8,6.4-26.1,12.6c-18,6.5-16.8,21.3-17.2,49h66.5h0.2h66.5
			C489.8,437.358,490.9,422.558,473,416.058z"/>
		<path d="M395.3,378.258c1.4,9.3,8.6,21.2,20.5,25.4c4.8,1.7,10.2,1.7,15,0c11.6-4.2,19.1-16,20.5-25.3c1.6-0.1,3.6-2.3,5.8-10.2
			c3-10.7-0.2-12.3-2.9-12.1c0.5-1.5,0.9-3,1.2-4.4c4.6-27.8-9.1-28.8-9.1-28.8s-2.3-4.4-8.2-7.7c-4-2.4-9.6-4.2-16.9-3.6
			c-2.4,0.1-4.6,0.6-6.7,1.3l0,0c-2.7,0.9-5.2,2.2-7.4,3.8c-2.8,1.7-5.3,3.9-7.6,6.3c-3.6,3.7-6.9,8.5-8.3,14.5
			c-1.2,4.5-0.9,9.1,0.1,14.1l0,0c0.3,1.5,0.7,2.9,1.2,4.4c-2.7-0.3-6,1.3-2.9,12.1C391.7,375.958,393.7,378.158,395.3,378.258z"/>
		<path d="M245.1,155.558h66.5c-0.4-27.7,0.8-42.5-17.2-49c-16.3-6.2-26.1-12.6-26.1-12.6l-12.6,39.7l-1.7,5.4l-5.6-15.9
			c12.9-18-1-18.9-3.4-18.9l0,0l0,0l0,0l0,0l0,0l0,0c-2.4,0-16.3,0.9-3.4,18.9l-5.6,15.9l-1.7-5.4l-12.6-39.7c0,0-9.8,6.4-26.1,12.6
			c-18,6.5-16.8,21.3-17.2,49H245H245.1z"/>
		<path d="M216.8,68.758c1.4,9.3,8.6,21.2,20.5,25.4c4.8,1.7,10.2,1.7,15,0c11.6-4.2,19.1-16,20.5-25.3c1.6-0.1,3.6-2.3,5.8-10.2
			c3-10.7-0.2-12.3-2.9-12.1c0.5-1.5,0.9-3,1.2-4.4c4.6-27.8-9.1-28.8-9.1-28.8s-2.3-4.4-8.2-7.7c-4-2.4-9.6-4.2-16.9-3.6
			c-2.4,0.1-4.6,0.6-6.7,1.3l0,0c-2.7,0.9-5.2,2.2-7.4,3.8c-2.8,1.7-5.3,3.9-7.6,6.3c-3.6,3.7-6.9,8.5-8.3,14.5
			c-1.2,4.5-0.9,9.1,0.1,14.1l0,0c0.3,1.5,0.7,2.9,1.2,4.4c-2.7-0.3-6,1.3-2.9,12.1C213.2,66.458,215.2,68.658,216.8,68.758z"/>
	</g>
</g>
<g>
</g>
<g>
</g>
<g>
</g>
<g>
</g>
<g>
</g>
<g>
</g>
<g>
</g>
<g>
</g>
<g>
</g>
<g>
</g>
<g>
</g>
<g>
</g>
<g>
</g>
<g>
</g>
<g>
</g>
</svg>
