<svg height="512pt" viewBox="0 0 512 512" width="512pt" xmlns="http://www.w3.org/2000/svg"><path d="m489.5 504.5h-467c-8.285156 0-15-6.714844-15-15s6.714844-15 15-15h467c8.285156 0 15 6.714844 15 15s-6.714844 15-15 15zm0 0" fill="#50536e"/><path d="m489.5 474.5h-30c8.285156 0 15 6.714844 15 15s-6.714844 15-15 15h30c8.285156 0 15-6.714844 15-15s-6.714844-15-15-15zm0 0" fill="#484b63"/><path d="m226 252.5h60v222h-60zm0 0" fill="#ffd659"/><path d="m256 252.5h30v222h-30zm0 0" fill="#ffbd54"/><path d="m99 312.5h60v162h-60zm0 0" fill="#ff2c5c"/><path d="m353 187.527344h60v286.972656h-60zm0 0" fill="#4fc6f5"/><path d="m129 312.5h30v162h-30zm0 0" fill="#e62753"/><path d="m383 187.527344h30v286.972656h-30zm0 0" fill="#3bb3e3"/><path d="m255.625 7.5h-135.25c-24.230469 0-43.875 19.628906-43.875 43.839844v105.574218c0 24.214844 19.644531 43.839844 43.875 43.839844h135.25c24.230469 0 43.875-19.625 43.875-43.839844v-105.574218c0-24.210938-19.644531-43.839844-43.875-43.839844zm0 0" fill="#b5fcff"/><path d="m255.625 7.5h-30c24.230469 0 43.875 19.628906 43.875 43.839844v105.574218c0 24.210938-19.644531 43.839844-43.875 43.839844h30c24.230469 0 43.875-19.625 43.875-43.839844v-105.574218c0-24.210938-19.644531-43.839844-43.875-43.839844zm0 0" fill="#71f6fc"/><path d="m183.730469 38.769531-35.949219 35.925781c-3.804688 3.804688-1.109375 10.304688 4.269531 10.304688h71.898438c5.378906 0 8.074219-6.5 4.269531-10.304688l-35.949219-35.925781c-2.359375-2.359375-6.179687-2.359375-8.539062 0zm0 0" fill="#ff2c5c"/><path d="m489.5 467h-69v-211c0-4.144531-3.359375-7.5-7.5-7.5s-7.5 3.355469-7.5 7.5v211h-45v-271.972656h45v28.972656c0 4.144531 3.359375 7.5 7.5 7.5s7.5-3.355469 7.5-7.5v-36.472656c0-4.144532-3.359375-7.5-7.5-7.5h-60c-4.140625 0-7.5 3.355468-7.5 7.5v279.472656h-52v-214.5c0-4.144531-3.359375-7.5-7.5-7.5h-60c-4.140625 0-7.5 3.355469-7.5 7.5v214.5h-52v-154.5c0-4.144531-3.359375-7.5-7.5-7.5h-60c-4.140625 0-7.5 3.355469-7.5 7.5v103.5c0 4.144531 3.359375 7.5 7.5 7.5s7.5-3.355469 7.5-7.5v-96h45v147h-45v-18.832031c0-4.144531-3.359375-7.5-7.5-7.5s-7.5 3.355469-7.5 7.5v18.832031h-69c-12.40625 0-22.5 10.09375-22.5 22.5s10.09375 22.5 22.5 22.5h467c12.40625 0 22.5-10.09375 22.5-22.5s-10.09375-22.5-22.5-22.5zm-256-207h45v207h-45zm256 237h-467c-4.136719 0-7.5-3.363281-7.5-7.5s3.363281-7.5 7.5-7.5h467c4.136719 0 7.5 3.363281 7.5 7.5s-3.363281 7.5-7.5 7.5zm0 0"/><path d="m236.457031 84.140625c2.101563-5.074219.949219-10.863281-2.9375-14.746094l-35.949219-35.933593c-5.277343-5.273438-13.863281-5.273438-19.144531 0v.003906l-35.949219 35.929687c-3.882812 3.882813-5.039062 9.671875-2.9375 14.746094 2.101563 5.078125 7.011719 8.359375 12.511719 8.359375h71.894531c5.5 0 10.410157-3.28125 12.511719-8.359375zm-80.871093-6.640625 32.414062-32.394531 32.414062 32.394531zm0 0"/><path d="m173.136719 116.773438c0 4.144531-3.359375 7.5-7.5 7.5s-7.5-3.355469-7.5-7.5c0-4.140626 3.359375-7.5 7.5-7.5s7.5 3.359374 7.5 7.5zm0 0"/><path d="m217.863281 161.5c0 4.140625-3.359375 7.5-7.5 7.5s-7.5-3.359375-7.5-7.5 3.359375-7.5 7.5-7.5 7.5 3.359375 7.5 7.5zm0 0"/><path d="m165.289062 169.347656c1.917969 0 3.839844-.730468 5.304688-2.195312l45.421875-45.421875c2.925781-2.929688 2.925781-7.679688 0-10.609375-2.929687-2.925782-7.679687-2.925782-10.609375 0l-45.421875 45.425781c-2.925781 2.929687-2.925781 7.675781 0 10.605469 1.464844 1.464844 3.386719 2.195312 5.304687 2.195312zm0 0"/><path d="m120.375 208.253906h71.625c4.140625 0 7.5-3.355468 7.5-7.5 0-4.144531-3.359375-7.5-7.5-7.5h-71.625c-20.058594 0-36.375-16.300781-36.375-36.339844v-105.574218c0-20.039063 16.316406-36.339844 36.375-36.339844h135.25c20.058594 0 36.375 16.300781 36.375 36.339844v105.574218c0 20.039063-16.316406 36.339844-36.375 36.339844h-31.5c-4.140625 0-7.5 3.355469-7.5 7.5 0 4.144532 3.359375 7.5 7.5 7.5h31.5c28.328125 0 51.375-23.03125 51.375-51.339844v-105.574218c0-28.308594-23.046875-51.339844-51.375-51.339844h-135.25c-28.328125 0-51.375 23.03125-51.375 51.339844v105.574218c0 28.308594 23.046875 51.339844 51.375 51.339844zm0 0"/></svg>