<svg height="511pt" viewBox="1 -68 511.99998 511" width="511pt" xmlns="http://www.w3.org/2000/svg"><path d="m213.847656 375.070312h271.140625c14.917969 0 27.011719-12.09375 27.011719-27.011718v-320.546875c0-14.917969-12.09375-27.011719-27.011719-27.011719h-41.871093l-106.925782 62.371094-124.914062 124.914062-104.351563 124.914063zm0 0" fill="#b9a8ff"/><path d="m443.117188.5h-193.53125c-11.222657 0-20.320313 9.097656-20.320313 20.316406v104.425782l42.152344 35.296874 46.785156-35.125-.207031-.171874h125.121094zm0 0" fill="#efedee"/><g fill="#3a484a"><path d="m269.25 77.667969c-4.265625 0-7.726562-3.460938-7.726562-7.726563v-12.117187c0-4.265625 3.460937-7.726563 7.726562-7.726563 4.269531 0 7.726562 3.460938 7.726562 7.726563v12.117187c0 4.265625-3.457031 7.726563-7.726562 7.726563zm0 0"/><path d="m403.128906 77.667969c-4.265625 0-7.726562-3.460938-7.726562-7.726563v-12.117187c0-4.265625 3.460937-7.726563 7.726562-7.726563 4.269532 0 7.726563 3.460938 7.726563 7.726563v12.117187c0 4.265625-3.457031 7.726563-7.726563 7.726563zm0 0"/><path d="m336.191406 84.132812c-8.671875 0-16.8125-3.625-22.339844-9.953124-2.808593-3.210938-2.480468-8.09375.730469-10.902344 3.210938-2.804688 8.09375-2.480469 10.902344.734375 2.59375 2.96875 6.496094 4.667969 10.707031 4.667969 4.207032 0 8.109375-1.699219 10.703125-4.667969 2.808594-3.214844 7.691407-3.539063 10.902344-.734375 3.214844 2.808594 3.542969 7.691406.734375 10.902344-5.53125 6.328124-13.671875 9.953124-22.339844 9.953124zm0 0"/></g><path d="m160.382812 218.113281-56.03125 32.042969.292969.171875h-84.328125c-11.21875 0-20.316406 9.097656-20.316406 20.320313v80.410156c0 13.261718 10.75 24.011718 24.011719 24.011718h189.835937v-124.742187zm0 0" fill="#efedee"/><path d="m124.667969 125.414062c-11.21875 0-20.316407 9.097657-20.316407 20.320313v104.421875h213.847657v-124.742188zm0 0" fill="#d4d2d3"/></svg>