<?xml version="1.0" encoding="iso-8859-1"?>
<!-- Generator: Adobe Illustrator 19.0.0, SVG Export Plug-In . SVG Version: 6.00 Build 0)  -->
<svg version="1.1" id="Capa_1" xmlns="http://www.w3.org/2000/svg" xmlns:xlink="http://www.w3.org/1999/xlink" x="0px" y="0px"
	 viewBox="0 0 472 472" style="enable-background:new 0 0 472 472;" xml:space="preserve">
<polygon style="fill:#FFB398;" points="104,352 144,352 144,464 0,464 0,360 40,320 104,320 "/>
<polygon style="fill:#FE946F;" points="144,384 144,368 112,368 112,344 96,344 96,400 80,400 80,384 80,368 64,368 64,384 64,416 
	64,464 80,464 80,448 144,448 144,432 80,432 80,416 112,416 144,416 144,400 112,400 112,384 "/>
<g>
	<path style="fill:#FFB398;" d="M296,304h-24v-16c0-4.418-3.582-8-8-8h-56l-80,80l72,72h96c8.836,0,16-7.164,16-16v-96
		C312,311.163,304.836,304,296,304z"/>
	<path style="fill:#FFB398;" d="M344,368c0-8.837,7.163-16,16-16h24v-16c0-4.418,3.582-8,8-8h40l40,40v104H344V368z"/>
</g>
<rect x="232" y="192" style="fill:#F40E34;" width="16" height="88"/>
<circle style="fill:#FFD422;" cx="240" cy="96" r="96"/>
<g>
	<polygon style="fill:#FE946F;" points="312,344 312,328 280,328 280,304 264,304 264,360 248,360 248,344 248,328 232,328 232,344 
		232,376 232,432 248,432 248,408 312,408 312,392 248,392 248,376 280,376 312,376 312,360 280,360 280,344 	"/>
	<rect x="344" y="376" style="fill:#FE946F;" width="40" height="16"/>
	<polygon style="fill:#FE946F;" points="424,392 376,392 376,344 392,344 392,376 408,376 408,360 424,360 	"/>
</g>
<polygon style="fill:#F40E34;" points="208,139.313 170.344,101.656 181.656,90.344 208,116.688 282.344,42.344 293.656,53.656 "/>
<circle style="fill:#69C229;" cx="400" cy="224" r="72"/>
<g>
	<polygon style="fill:#F40E34;" points="376,259.313 346.344,229.656 357.656,218.344 376,236.688 430.344,182.344 441.656,193.656 
			"/>
	<rect x="392" y="296" style="fill:#F40E34;" width="16" height="32"/>
</g>
<circle style="fill:#5AAAE7;" cx="80" cy="216" r="72"/>
<g>
	<polygon style="fill:#F40E34;" points="56,251.313 26.344,221.656 37.656,210.344 56,228.688 110.344,174.344 121.656,185.656 	"/>
	<rect x="72" y="288" style="fill:#F40E34;" width="16" height="32"/>
</g>
<polygon style="fill:#1E81CE;" points="40,448 40,464 168,464 200,432 128,360 "/>
<g>
	<rect x="344" y="408" style="fill:#FE946F;" width="72" height="16"/>
	<rect x="344" y="440" style="fill:#FE946F;" width="72" height="16"/>
	<rect x="408" y="384" style="fill:#FE946F;" width="16" height="88"/>
</g>
<g>
</g>
<g>
</g>
<g>
</g>
<g>
</g>
<g>
</g>
<g>
</g>
<g>
</g>
<g>
</g>
<g>
</g>
<g>
</g>
<g>
</g>
<g>
</g>
<g>
</g>
<g>
</g>
<g>
</g>
</svg>
