<?xml version="1.0"?>
<svg xmlns="http://www.w3.org/2000/svg" viewBox="0 0 64 64" width="512" height="512"><path d="m50.40345 35h-23.40345l-3 6-3-6h-7.40345c-5.85231 0-11.59655-4.74424-11.59655-10.59655v-10.8069c0-5.85231 5.74424-11.59655 11.59655-11.59655h36.8069c5.85231 0 11.59655 5.74424 11.59655 11.59655v10.8069c0 5.85231-5.74424 10.59655-11.59655 10.59655z" fill="#a6ddff"/><path d="m9.34351 52.22852a4 4 0 1 0 -4.687 0 3.9147 3.9147 0 0 0 -2.65651 3.6986v6.07288h10v-6.07288a3.9147 3.9147 0 0 0 -2.65649-3.6986z" fill="#4ba678"/><path d="m43.34351 52.22852a4 4 0 1 0 -4.687 0 3.9147 3.9147 0 0 0 -2.65651 3.6986v6.07288h10v-6.07288a3.9147 3.9147 0 0 0 -2.65649-3.6986z" fill="#4ba678"/><path d="m59.34351 52.22852a4 4 0 1 0 -4.687 0 3.9147 3.9147 0 0 0 -2.65651 3.6986v6.07288h10v-6.07288a3.9147 3.9147 0 0 0 -2.65649-3.6986z" fill="#4ba678"/><path d="m50.40344 2h-36.80688a11.38915 11.38915 0 0 0 -7.38025 3.04071 10.25982 10.25982 0 0 1 4.38025-1.04071h36.80688c5.8523 0 11.59656 5.7442 11.59656 11.59656v10.80688a10.05689 10.05689 0 0 1 -3.51544 7.40747c3.69684-1.76324 6.51544-5.31036 6.51544-9.40747v-10.80688c0-5.85236-5.74426-11.59656-11.59656-11.59656z" fill="#8ab4ff"/><path d="m21.466 18.534-10.466 7.466 4 5 8.466-10.466z" fill="#f73445"/><g fill="#ffcc3b"><path d="m42 27h2a4 4 0 0 1 4 4 0 0 0 0 1 0 0h-10a0 0 0 0 1 0 0 4 4 0 0 1 4-4z"/><path d="m42 21h2v3h-2z"/><path d="m36.00011 23.00016h1.99979v2.99968h-1.99979z" transform="matrix(.70710678 -.70710678 .70710678 .70710678 -6.48707 33.33883)"/><path d="m47.50016 23.50011h2.99968v1.99979h-2.99968z" transform="matrix(.70710678 -.70710678 .70710678 .70710678 -2.97235 41.82412)"/></g><path d="m20 62h10v-6.07288a3.9147 3.9147 0 0 0 -2.65649-3.6986 4 4 0 1 0 -4.687 0 3.92191 3.92191 0 0 0 -1.95391 1.46429 2.995 2.995 0 0 1 -1.7026-2.69281v-8h-2v8a5.006 5.006 0 0 0 3.03351 4.59436" fill="#f59536"/><path d="m30 18-6-6-2-5-8 8 5 2 6 6 2 5 8-8z" fill="#f73445"/><path d="m20.96447 13.25736h7.07107v8.48528h-7.07107z" fill="#f59536" transform="matrix(.70710678 -.70710678 .70710678 .70710678 -5.19848 22.44975)"/></svg>
