<svg height="512pt" viewBox="0 -38 512 511" width="512pt" xmlns="http://www.w3.org/2000/svg"><path d="m367.027344 364.734375c-5.621094 0-11.460938-.191406-17.535156-.59375-4.339844-.285156-7.625-4.039063-7.339844-8.378906.289062-4.34375 4.050781-7.632813 8.382812-7.339844 62.949219 4.160156 98.40625-15.78125 117.0625-33.242187 21.125-19.773438 28.648438-43.214844 28.648438-58.558594 0-6.503906-1.679688-11.289063-5.132813-14.632813-9.597656-9.285156-32.710937-8.523437-53.101562-7.855469-5.515625.183594-10.730469.351563-15.800781.351563-4.351563 0-7.878907-3.523437-7.878907-7.875s3.527344-7.878906 7.878907-7.878906c4.8125 0 9.898437-.164063 15.285156-.34375 24.671875-.808594 50.179687-1.648438 64.570312 12.28125 6.589844 6.378906 9.933594 15.109375 9.933594 25.953125 0 18.648437-8.835938 46.847656-33.636719 70.058594-19.078125 17.859374-53.460937 38.050781-111.335937 38.054687zm0 0" fill="#9af4e7"/><path d="m434.832031 196.800781c0 73.75-38.324219 138.539063-96.152343 175.542969-32.359376 20.71875-70.828126 32.722656-112.105469 32.722656-41.273438 0-79.746094-12.003906-112.113281-32.722656-57.828126-37.003906-96.152344-101.792969-96.152344-175.542969zm0 0" fill="#9af4e7"/><path d="m226.558594 405.070312c-115.011719 0-208.253906-93.238281-208.253906-208.261718h115.890624c.003907 115.023437 41.355469 208.261718 92.363282 208.261718zm0 0" fill="#80e0d0"/><path d="m322.023438 196.808594v78.578125c0 12.613281-10.21875 22.84375-22.832032 22.84375h-.011718c-12.613282 0-22.832032-10.230469-22.832032-22.84375v-78.578125" fill="#ff903e"/><path d="m367.710938 196.808594v37.105468c0 12.613282-10.230469 22.839844-22.84375 22.839844-12.613282 0-22.84375-10.226562-22.84375-22.839844v-37.105468" fill="#ff903e"/><path d="m338.679688 372.34375c-32.359376 20.71875-70.828126 32.722656-112.105469 32.722656-41.273438 0-79.746094-12.003906-112.113281-32.722656zm0 0" fill="#80e0d0"/><path d="m230.660156 165.90625c-4.351562 0-7.878906-3.527344-7.878906-7.875 0-6.546875-23.460938-12.589844-38.988281-16.589844-16.941407-4.363281-34.464844-8.875-47.777344-16.640625-17.21875-10.039062-24-23.816406-20.164063-40.953125 6.808594-30.425781 56.460938-34.542968 109.027344-38.90625 26.996094-2.238281 54.90625-4.554687 75.304688-10.476562 26.636718-7.734375 29.71875-18.59375 29.71875-26.089844 0-4.347656 3.527344-7.875 7.878906-7.875 4.347656 0 7.875 3.527344 7.875 7.875 0 19.4375-13.820312 33.304688-41.082031 41.21875-21.910157 6.363281-50.625 8.746094-78.394531 11.050781-42.5 3.523438-90.675782 7.519531-94.957032 26.644531-2.285156 10.21875 1.519532 17.367188 12.726563 23.902344 11.425781 6.664063 27.871093 10.898438 43.773437 14.996094 12.1875 3.136719 23.699219 6.101562 32.578125 10.089844 4.511719 2.023437 18.234375 8.183594 18.234375 21.753906 0 4.347656-3.527344 7.875-7.875 7.875zm0 0" fill="#e8e7e6"/><path d="m453.140625 391.25h-453.140625l57.855469 43.378906h337.429687zm0 0" fill="#9af4e7"/><path d="m145.210938 434.632812h-87.355469l-57.855469-43.386718h117.308594zm0 0" fill="#80e0d0"/></svg>