<?xml version="1.0" encoding="iso-8859-1"?>
<!-- Generator: Adobe Illustrator 19.0.0, SVG Export Plug-In . SVG Version: 6.00 Build 0)  -->
<svg version="1.1" id="Capa_1" xmlns="http://www.w3.org/2000/svg" xmlns:xlink="http://www.w3.org/1999/xlink" x="0px" y="0px"
	 viewBox="0 0 53.593 53.593" style="enable-background:new 0 0 53.593 53.593;" xml:space="preserve">
<g id="XMLID_12_">
	<path id="XMLID_113_" style="fill:#4C4031;" d="M24.765,16.762c-1.281,0-2.561-0.488-3.536-1.462c-0.39-0.391-0.39-1.024,0-1.414
		c0.391-0.391,1.024-0.391,1.414,0c1.169,1.169,3.072,1.169,4.243,0c0.391-0.391,1.024-0.391,1.414,0
		c0.391,0.39,0.391,1.023,0,1.414C27.326,16.274,26.045,16.762,24.765,16.762"/>
	<path id="XMLID_112_" style="fill:#C7B6A1;" d="M30.141,41.739l-7.297-21.476c-0.603-1.774-1.009-3.61-1.209-5.474l-0.518-4.812
		c-0.046-0.425-0.046-0.855,0.005-1.279c0.064-0.54,0.135-1.312,0.165-1.401c0.356-1.03,1.029-2.462,2.225-3.474
		c1.162-0.984,0.863-2.833-0.582-3.311c-2.081-0.689-4.629-0.904-6.756,0.796c-0.73,0.583-1.745,0.583-2.475,0
		c-2.127-1.7-4.674-1.485-6.756-0.796C5.498,0.99,5.198,2.839,6.361,3.823C7.556,4.835,8.23,6.266,8.585,7.297
		c0.067,0.194,0.135,1.265,0.24,1.852c0.067,0.372,0.111,0.746,0.111,1.125v3.488c0,2.54-0.379,5.065-1.126,7.493L1.556,41.593
		c-2.879,6.575,1.463,11.49,8.625,11.975c0.25,0.017,0.502,0.025,0.755,0.025h9.647c0.254,0,0.506-0.008,0.756-0.025
		C28.438,53.088,32.82,48.329,30.141,41.739"/>
	<path id="XMLID_111_" style="fill:#FCC62D;" d="M52.936,46.689c0,1.051-4.029,1.904-9,1.904c-4.971,0-9-0.853-9-1.904
		c0-1.052,4.029-3.096,9-3.096C48.907,43.593,52.936,45.637,52.936,46.689"/>
	<path id="XMLID_110_" style="fill:#E4AF18;" d="M43.936,48.593c-4.971,0-9-0.852-9-1.904v4.001c0.003,1.051,4.031,1.903,9,1.903
		c4.969,0,8.997-0.852,9-1.903v-4.001C52.936,47.741,48.907,48.593,43.936,48.593"/>
	<path id="XMLID_109_" style="fill:#E4AF18;" d="M34.936,46.687L34.936,46.687L34.936,46.687z"/>
	<path id="XMLID_108_" style="fill:#6B5B46;" d="M21.936,15.593h-13c-0.552,0-1-0.448-1-1s0.448-1,1-1h13c0.552,0,1,0.448,1,1
		S22.488,15.593,21.936,15.593"/>
	<path id="XMLID_107_" style="fill:#6B5B46;" d="M21.936,12.593h-13c-0.552,0-1-0.448-1-1s0.448-1,1-1h13c0.552,0,1,0.448,1,1
		S22.488,12.593,21.936,12.593"/>
	<path id="XMLID_106_" style="fill:#6B5B46;" d="M21.936,9.593h-13c-0.552,0-1-0.448-1-1s0.448-1,1-1h13c0.552,0,1,0.448,1,1
		S22.488,9.593,21.936,9.593"/>
	<path id="XMLID_105_" style="fill:#DBCCBA;" d="M8.936,49.593c-2.757,0-5-2.691-5-6c0-0.552,0.448-1,1-1c0.552,0,1,0.448,1,1
		c0,2.206,1.346,4,3,4c0.552,0,1,0.448,1,1S9.488,49.593,8.936,49.593"/>
</g>
<g>
</g>
<g>
</g>
<g>
</g>
<g>
</g>
<g>
</g>
<g>
</g>
<g>
</g>
<g>
</g>
<g>
</g>
<g>
</g>
<g>
</g>
<g>
</g>
<g>
</g>
<g>
</g>
<g>
</g>
</svg>
