<svg height="512pt" viewBox="0 0 512 512.00094" width="512pt" xmlns="http://www.w3.org/2000/svg"><path d="m416 256c0 88.367188-71.632812 160-160 160-88.363281 0-160-71.632812-160-160 0-88.363281 71.636719-160 160-160 88.367188 0 160 71.636719 160 160zm0 0" fill="#ffcb5a"/><path d="m256 208h48v-32h-32v-32h-32v34.945312c-18.574219 6.625-32 24.222657-32 45.054688 0 26.464844 21.535156 48 48 48 8.832031 0 16 7.183594 16 16s-7.167969 16-16 16h-48v32h32v32h32v-34.941406c18.578125-6.625 32-24.226563 32-45.058594 0-26.464844-21.535156-48-48-48-8.832031 0-16-7.183594-16-16s7.167969-16 16-16zm0 0" fill="#fff"/><g fill="#40a2e7"><path d="m212.960938 36.160156-6.160157-31.40625c-119.824219 23.4375-206.800781 129.101563-206.800781 251.246094 0 65.617188 25.824219 128.847656 70.527344 176h-38.527344v32h96v-96h-32v43.9375c-40.382812-41.472656-64-97.535156-64-155.9375 0-106.878906 76.097656-199.328125 180.960938-219.839844zm0 0"/><path d="m308.480469 5.425781-6.558594 31.3125c9.710937 2.046875 19.390625 4.75 28.75 8.046875l10.65625-30.175781c-10.6875-3.761719-21.726563-6.847656-32.847656-9.183594zm0 0"/><path d="m240.609375.464844 1.933594 31.9375c9.875-.578125 19.984375-.511719 29.839843.207031l2.320313-31.921875c-11.246094-.816406-22.863281-.925781-34.09375-.222656zm0 0"/></g><path d="m170.640625 497.375c10.71875 3.808594 21.777344 6.914062 32.878906 9.21875l6.527344-31.328125c-9.679687-2.015625-19.34375-4.71875-28.6875-8.046875zm0 0" fill="#e76e54"/><path d="m441.472656 80h38.527344v-32h-96v96h32v-43.933594c40.382812 41.46875 64 97.535156 64 155.933594 0 106.898438-76.09375 199.34375-180.945312 219.839844l6.128906 31.410156c119.839844-23.425781 206.816406-129.089844 206.816406-251.25 0-65.613281-25.824219-128.847656-70.527344-176zm0 0" fill="#e76e54"/><path d="m239.617188 479.410156-2.320313 31.917969c6.175781.449219 12.414063.671875 18.703125.671875 5.167969 0 10.320312-.144531 15.390625-.464844l-1.933594-31.933594c-9.871093.589844-19.96875.542969-29.839843-.191406zm0 0" fill="#e76e54"/></svg>