<svg height="512pt" viewBox="0 0 512 512" width="512pt" xmlns="http://www.w3.org/2000/svg"><path d="m508.367188 208h-99.296876l-3.980468-10.160156c-16.273438-41.535156-49.410156-74.671875-90.945313-90.945313l-10.144531-3.984375v-99.277344l20.257812 5.597657c86.285157 23.824219 154.6875 92.242187 178.527344 178.53125zm0 0" fill="#dd4343"/><path d="m256 512c-141.152344 0-256-114.847656-256-256s114.847656-256 256-256h16v96h-16c-88.222656 0-160 71.777344-160 160s71.777344 160 160 160 160-71.777344 160-160v-16h96v16c0 141.152344-114.847656 256-256 256zm0 0" fill="#ffcb5a"/><g fill="#40a2e7"><path d="m164.683594 324.683594 160-159.996094 22.625 22.628906-159.996094 159.996094zm0 0"/><path d="m176 176h32v32h-32zm0 0"/><path d="m304 304h32v32h-32zm0 0"/></g></svg>