<svg height="512pt" viewBox="0 0 512 512" width="512pt" xmlns="http://www.w3.org/2000/svg"><path d="m448 0v48h-384v-48h-32v432h32v-96h384v96h32v-432zm-384 80h384v96h-384zm0 224v-96h384v96zm0 0" fill="#c59969"/><path d="m144 128c-26.464844 0-48-21.535156-48-48v-32c0-26.464844 21.535156-48 48-48s48 21.535156 48 48v32c0 26.464844-21.535156 48-48 48zm0 0" fill="#dd4343"/><path d="m144 96c-26.464844 0-48-21.535156-48-48v32c0 26.464844 21.535156 48 48 48s48-21.535156 48-48v-32c0 26.464844-21.535156 48-48 48zm0 0" fill="#c62e2e"/><path d="m32 384h32v48h-32zm0 0" fill="#ba8a5a"/><path d="m448 384h32v48h-32zm0 0" fill="#ba8a5a"/><path d="m0 416h512v96h-512zm0 0" fill="#77959e"/><path d="m240 128c-26.464844 0-48-21.535156-48-48v-32c0-26.464844 21.535156-48 48-48s48 21.535156 48 48v32c0 26.464844-21.535156 48-48 48zm0 0" fill="#40a2e7"/><path d="m288 256c-26.464844 0-48-21.535156-48-48v-32c0-26.464844 21.535156-48 48-48s48 21.535156 48 48v32c0 26.464844-21.535156 48-48 48zm0 0" fill="#0ac1a7"/><path d="m144 384c-26.464844 0-48-21.535156-48-48v-32c0-26.464844 21.535156-48 48-48s48 21.535156 48 48v32c0 26.464844-21.535156 48-48 48zm0 0" fill="#ffcb5a"/><path d="m368 384c-26.464844 0-48-21.535156-48-48v-32c0-26.464844 21.535156-48 48-48s48 21.535156 48 48v32c0 26.464844-21.535156 48-48 48zm0 0" fill="#a477bd"/><path d="m240 96c-26.464844 0-48-21.535156-48-48v32c0 26.464844 21.535156 48 48 48s48-21.535156 48-48v-32c0 26.464844-21.535156 48-48 48zm0 0" fill="#168de2"/><path d="m336 176c0 26.507812-21.492188 48-48 48s-48-21.492188-48-48 21.492188-48 48-48 48 21.492188 48 48zm0 0" fill="#00ddc2"/><path d="m368 352c-26.464844 0-48-21.535156-48-48v32c0 26.464844 21.535156 48 48 48s48-21.535156 48-48v-32c0 26.464844-21.535156 48-48 48zm0 0" fill="#9562b7"/><path d="m144 352c-26.464844 0-48-21.535156-48-48v32c0 26.464844 21.535156 48 48 48s48-21.535156 48-48v-32c0 26.464844-21.535156 48-48 48zm0 0" fill="#fba61f"/><g fill="#fff"><path d="m32 448h32v32h-32zm0 0"/><path d="m96 448h32v32h-32zm0 0"/></g></svg>