<svg height="512pt" viewBox="-96 0 512 512" width="512pt" xmlns="http://www.w3.org/2000/svg"><path d="m274.753906 369.527344v91.445312h-228.847656v-91.445312c0-60.582032 47.070312-110.160156 106.632812-114.152344 2.570313-.179688 5.171876-.269531 7.792969-.269531 2.621094 0 5.21875.089843 7.789063.269531 59.566406 3.992188 106.632812 53.570312 106.632812 114.152344zm0 0" fill="#9bf8f8"/><path d="m274.761719 369.527344v91.441406h-30.109375v-91.441406c0-58.09375-43.296875-106.082032-99.375-113.445313 4.929687-.652343 9.957031-.984375 15.054687-.984375 63.1875 0 114.429688 51.226563 114.429688 114.429688zm0 0" fill="#1ee5ed"/><path d="m274.761719 423.226562v37.742188h-228.859375v-37.742188c23.765625-38.1875 66.128906-63.617187 114.429687-63.617187 31.914063 0 61.246094 11.101563 84.320313 29.65625 11.84375 9.519531 22.042968 21.011719 30.109375 33.960937zm0 0" fill="#f4bb91"/><path d="m274.761719 423.226562v37.742188h-30.109375v-71.703125c11.84375 9.519531 22.042968 21.011719 30.109375 33.960937zm0 0" fill="#eea97b"/><path d="m300.171875 480.046875h-279.679687v-18.34375c0-6.371094 5.164062-11.539063 11.539062-11.539063h256.597656c6.375 0 11.542969 5.167969 11.542969 11.539063zm0 0" fill="#fff0cf"/><path d="m310.636719 512h-300.613281c-5.535157 0-10.023438-4.488281-10.023438-10.023438v-16.328124c0-5.535157 4.488281-10.023438 10.023438-10.023438h300.613281c5.535156 0 10.023437 4.488281 10.023437 10.023438v16.328124c0 5.535157-4.484375 10.023438-10.023437 10.023438zm0 0" fill="#d6bcab"/><path d="m135.269531 319.09375c-4.300781 0-7.785156-3.488281-7.785156-7.789062v-26.0625c0-4.300782 3.484375-7.789063 7.785156-7.789063s7.789063 3.488281 7.789063 7.789063v26.0625c0 4.300781-3.488282 7.789062-7.789063 7.789062zm0 0" fill="#f4bb91"/><path d="m185.390625 344.152344c-4.300781 0-7.785156-3.484375-7.785156-7.785156v-53.128907c0-4.300781 3.484375-7.789062 7.785156-7.789062s7.789063 3.488281 7.789063 7.789062v53.128907c0 4.300781-3.488282 7.785156-7.789063 7.785156zm0 0" fill="#f4bb91"/><g fill="#fff0cf"><path d="m192.515625 405.824219h-.113281c-4.300782 0-7.785156-3.484375-7.785156-7.785157 0-4.300781 3.484374-7.789062 7.785156-7.789062h.113281c4.300781 0 7.789063 3.488281 7.789063 7.789062 0 4.300782-3.488282 7.785157-7.789063 7.785157zm0 0"/><path d="m86.355469 435c-.023438 0-.046875 0-.074219 0l-.113281-.003906c-4.300781-.035156-7.753907-3.554688-7.714844-7.855469.039063-4.277344 3.515625-7.714844 7.785156-7.714844h.070313.113281c4.300781.039063 7.757813 3.554688 7.71875 7.855469-.039063 4.277344-3.519531 7.71875-7.785156 7.71875zm0 0"/><path d="m210.078125 418.078125c-.023437 0-.046875 0-.070313 0h-.117187c-4.296875-.039063-7.753906-3.558594-7.714844-7.855469.039063-4.277344 3.515625-7.71875 7.785157-7.71875h.070312.113281c4.300781.039063 7.757813 3.554688 7.71875 7.855469-.039062 4.277344-3.515625 7.71875-7.785156 7.71875zm0 0"/></g><path d="m168.121094 255.375v45.847656c0 4.304688-3.484375 7.792969-7.789063 7.792969-4.304687 0-7.792969-3.488281-7.792969-7.792969v-45.847656c2.570313-.179688 5.171876-.269531 7.792969-.269531 2.621094 0 5.21875.089843 7.789063.269531zm0 0" fill="#eea97b"/><path d="m274.757812 53.253906v91.449219c0 20.28125-5.273437 39.316406-14.535156 55.835937-19.566406 34.957032-56.976562 58.59375-99.890625 58.59375-42.917969 0-80.324219-23.640624-99.894531-58.59375-9.261719-16.519531-14.535156-35.554687-14.535156-55.835937v-91.449219zm0 0" fill="#9bf8f8"/><path d="m274.761719 53.253906v91.453125c0 20.277344-5.273438 39.3125-14.535157 55.828125-19.574218 34.960938-56.984374 58.59375-99.894531 58.59375-5.097656 0-10.125-.332031-15.054687-.988281 36.503906-4.796875 67.589844-26.796875 84.835937-57.601563 9.265625-16.519531 14.539063-35.550781 14.539063-55.828124v-91.457032zm0 0" fill="#1ee5ed"/><path d="m260.226562 200.535156c-19.574218 34.960938-56.984374 58.59375-99.894531 58.59375-5.097656 0-10.125-.332031-15.054687-.988281-36.507813-4.796875-67.59375-26.796875-84.839844-57.601563 24.648438-27.234374 60.273438-44.347656 99.894531-44.347656 29.21875 0 56.253907 9.304688 78.328125 25.128906 7.859375 5.613282 15.085938 12.0625 21.566406 19.214844zm0 0" fill="#f4bb91"/><path d="m260.226562 200.535156c-19.574218 34.960938-56.984374 58.59375-99.894531 58.59375-5.097656 0-10.125-.332031-15.054687-.988281 36.503906-4.796875 67.589844-26.796875 84.835937-57.601563 3.417969-6.085937 6.285157-12.511718 8.546875-19.21875 7.859375 5.613282 15.085938 12.0625 21.566406 19.214844zm0 0" fill="#eea97b"/><path d="m20.492188 31.953125h279.679687v18.34375c0 6.371094-5.167969 11.539063-11.539063 11.539063h-256.601562c-6.375 0-11.539062-5.167969-11.539062-11.539063zm0 0" fill="#fff0cf"/><path d="m10.023438 0h300.613281c5.535156 0 10.023437 4.488281 10.023437 10.023438v16.328124c0 5.535157-4.488281 10.023438-10.023437 10.023438h-300.613281c-5.535157 0-10.023438-4.488281-10.023438-10.023438v-16.328124c0-5.535157 4.488281-10.023438 10.023438-10.023438zm0 0" fill="#d6bcab"/><path d="m110.492188 214.921875c-.019532 0-.046876 0-.070313 0h-.113281c-4.300782-.039063-7.753906-3.558594-7.714844-7.859375.039062-4.273438 3.515625-7.714844 7.785156-7.714844h.070313.113281c4.300781.039063 7.757812 3.554688 7.71875 7.855469-.039062 4.277344-3.519531 7.71875-7.789062 7.71875zm0 0" fill="#fff0cf"/><path d="m130.222656 228.011719c-.023437 0-.046875 0-.070312 0l-.117188-.003907c-4.296875-.039062-7.753906-3.554687-7.714844-7.855468.039063-4.277344 3.515626-7.71875 7.785157-7.71875h.070312l.113281.003906c4.300782.039062 7.757813 3.554688 7.71875 7.855469-.039062 4.277343-3.519531 7.71875-7.785156 7.71875zm0 0" fill="#fff0cf"/></svg>