<?xml version="1.0" encoding="iso-8859-1"?>
<!-- Generator: Adobe Illustrator 19.0.0, SVG Export Plug-In . SVG Version: 6.00 Build 0)  -->
<svg version="1.1" id="Layer_1" xmlns="http://www.w3.org/2000/svg" xmlns:xlink="http://www.w3.org/1999/xlink" x="0px" y="0px"
	 viewBox="0 0 512 512" style="enable-background:new 0 0 512 512;" xml:space="preserve">
<circle style="fill:#FF8E31;" cx="256" cy="256" r="256"/>
<g>
	<path style="fill:#ED7425;" d="M257.83,99.11l-0.845-0.842c-0.292-0.148-0.622-0.253-0.986-0.253c-1.208,0-2.156,0.983-2.156,2.156
		v31.119c0,0.443,0.148,0.842,0.366,1.208l0.584,0.589l11.651,11.643c-3.441-0.317-6.92-0.492-10.442-0.492
		c-15.296,0-29.875,3.077-43.156,8.632l-33.17-33.167l-0.33-0.33c-0.655-0.512-1.608-0.625-2.378-0.182
		c-1.024,0.617-1.352,1.897-0.765,2.957l15.393,26.668l1.134,1.132l8.579,8.576c-17.902,10.051-32.742,24.883-42.813,42.765
		l-8.663-8.658l-0.804-0.806l-26.954-15.542c-1.027-0.62-2.34-0.253-2.926,0.773c-0.369,0.653-0.369,1.426-0.074,2.043
		c0.036,0.036,0.036,0.077,0.036,0.077l0.806,0.801l0.069,0.044l32.835,32.827c-5.573,13.294-8.66,27.881-8.66,43.2
		c0,26.406,9.108,50.614,24.392,69.747l171.896,171.891c73.789-25.782,132.127-84.375,157.591-158.316L257.83,99.11z"/>
	<path style="fill:#ED7425;" d="M335.324,119.442c-0.11-0.105-0.223-0.182-0.333-0.253c-1.021-0.584-2.301-0.261-2.926,0.765
		l-15.539,26.99c-0.366,0.66-0.366,1.462-0.036,2.086v0.036l0.801,0.806h0.036l182.94,182.932
		c4.001-12.746,7.012-25.915,8.991-39.427L335.583,119.703L335.324,119.442z"/>
</g>
<path style="fill:#0684BA;" d="M367.831,256.049c0,61.775-50.066,111.844-111.831,111.844c-61.76,0-111.836-50.068-111.836-111.844
	c0-61.76,50.076-111.828,111.836-111.828C317.765,144.22,367.831,194.289,367.831,256.049z"/>
<g>
	<path id="SVGID_1_" style="fill:#FFFFFF;" d="M256,202.54c-45.737,0-85.686,21.527-107.046,53.509
		c21.361,32,61.309,53.525,107.046,53.525c45.729,0,85.676-21.524,107.046-53.525C341.676,224.067,301.729,202.54,256,202.54z"/>
</g>
<g>
	<g>
		<path style="fill:#C1D354;" d="M256,190.18c-29.553,0-53.53,23.956-53.53,53.509c0,29.565,23.977,53.524,53.53,53.524
			c29.56,0,53.53-23.956,53.53-53.525C309.53,214.134,285.56,190.18,256,190.18z"/>
		<path style="fill:#34495E;" d="M256,215.764c-15.401,0-27.924,12.516-27.924,27.924s12.524,27.94,27.924,27.94
			c15.414,0,27.924-12.531,27.924-27.94S271.414,215.764,256,215.764z"/>
		<path style="fill:#FFFFFF;" d="M254.525,228.611c3.123,3.118,2.606,8.701-1.18,12.444c-3.743,3.75-9.326,4.291-12.434,1.172
			c-3.123-3.126-2.604-8.701,1.17-12.48C245.837,226.012,251.389,225.477,254.525,228.611z"/>
	</g>
</g>
<g>
	<path style="fill:#0684BA;" d="M255.99,133.44c-1.183,0-2.145-0.963-2.145-2.143V100.17c0-1.18,0.963-2.15,2.145-2.15
		c1.19,0,2.14,0.97,2.14,2.15v31.127C258.132,132.477,257.18,133.44,255.99,133.44z"/>
	<path style="fill:#0684BA;" d="M194.688,149.873c-1.024,0.589-2.332,0.23-2.929-0.794l-15.567-26.947
		c-0.586-1.032-0.238-2.34,0.791-2.936c1.021-0.589,2.332-0.238,2.924,0.781l15.57,26.962
		C196.06,147.971,195.72,149.276,194.688,149.873z"/>
	<path style="fill:#0684BA;" d="M149.816,194.744c-0.596,1.032-1.907,1.385-2.929,0.794l-26.959-15.57
		c-1.027-0.589-1.375-1.897-0.781-2.921c0.594-1.019,1.9-1.385,2.921-0.786l26.954,15.562
		C150.057,192.42,150.41,193.725,149.816,194.744z"/>
	<path style="fill:#0684BA;" d="M317.297,149.86c-1.024-0.589-1.37-1.897-0.781-2.924l15.565-26.97
		c0.591-1.024,1.9-1.37,2.926-0.778c1.027,0.596,1.372,1.897,0.786,2.921l-15.565,26.962
		C319.636,150.106,318.331,150.456,317.297,149.86z"/>
	<path style="fill:#0684BA;" d="M362.186,194.737c-0.594-1.032-0.241-2.332,0.786-2.921l26.957-15.578
		c1.029-0.584,2.327-0.233,2.929,0.786c0.589,1.024,0.241,2.34-0.783,2.921l-26.959,15.578
		C364.091,196.106,362.78,195.771,362.186,194.737z"/>
</g>
<g>
</g>
<g>
</g>
<g>
</g>
<g>
</g>
<g>
</g>
<g>
</g>
<g>
</g>
<g>
</g>
<g>
</g>
<g>
</g>
<g>
</g>
<g>
</g>
<g>
</g>
<g>
</g>
<g>
</g>
</svg>
