<?xml version="1.0" encoding="iso-8859-1"?>
<!-- Generator: Adobe Illustrator 19.0.0, SVG Export Plug-In . SVG Version: 6.00 Build 0)  -->
<svg version="1.1" id="Layer_1" xmlns="http://www.w3.org/2000/svg" xmlns:xlink="http://www.w3.org/1999/xlink" x="0px" y="0px"
	 viewBox="0 0 512 512" style="enable-background:new 0 0 512 512;" xml:space="preserve">
<circle style="fill:#34495E;" cx="256" cy="256" r="256"/>
<path style="fill:#203549;" d="M501.289,329.324L347.364,175.416l-10.819-10.854c-24.771-22.231-57.331-35.976-92.992-36.503v34.007
	l-4.557-4.547c-28.403,0.566-54.226,11.599-73.784,29.409c-22.845,20.659-37.161,50.55-37.161,83.766
	c0,27.789,10.022,53.309,26.696,73.004l13.568,13.573l147.612,147.61C404.644,483.584,475.366,416.143,501.289,329.324z"/>
<path style="fill:#C1D354;" d="M243.556,268.452V128.059c76.882,1.198,139.192,63.503,140.393,140.393H243.556z"/>
<path style="fill:#0575A5;" d="M246.751,272.978h137.198c-0.576,36.449-14.789,70.725-40.228,96.965L246.751,272.978z"/>
<path style="fill:#FFFFFF;" d="M239.025,157.542c-61.489,1.211-110.973,51.395-110.973,113.17
	c0,62.546,50.693,113.231,113.234,113.231c30.454,0,58.081-12.04,78.428-31.596l-80.691-80.694V157.542H239.025z"/>
<g>
</g>
<g>
</g>
<g>
</g>
<g>
</g>
<g>
</g>
<g>
</g>
<g>
</g>
<g>
</g>
<g>
</g>
<g>
</g>
<g>
</g>
<g>
</g>
<g>
</g>
<g>
</g>
<g>
</g>
</svg>
