<?xml version="1.0" encoding="iso-8859-1"?>
<!-- Generator: Adobe Illustrator 19.0.0, SVG Export Plug-In . SVG Version: 6.00 Build 0)  -->
<svg version="1.1" id="Layer_1" xmlns="http://www.w3.org/2000/svg" xmlns:xlink="http://www.w3.org/1999/xlink" x="0px" y="0px"
	 viewBox="0 0 512 512" style="enable-background:new 0 0 512 512;" xml:space="preserve">
<path style="fill:#C1D354;" d="M512,256.004c0,141.384-114.614,255.995-256,255.995S0,397.387,0,256.004
	C0,114.615,114.614,0.001,256,0.001S512,114.615,512,256.004z"/>
<path style="fill:#9DB138;" d="M502.203,326.112L288.22,112.129l-1.388-1.347c-0.916-0.148-1.756,0.471-1.866,1.39
	c-1.208,7.677-4.754,14.623-10.022,19.968c-5.409-3.625-11.922-5.709-18.941-5.709c-4.262,0-8.289,0.85-12.045,2.26l-17.108-17.108
	c-0.138-0.23-0.33-0.407-0.548-0.548L226.266,111c-0.077-0.044-0.164-0.064-0.246-0.1c-0.084-0.036-0.159-0.077-0.246-0.097
	c-0.189-0.044-0.394-0.064-0.604-0.02c-0.914,0.148-1.539,0.983-1.39,1.902c1.28,8.225,5.046,15.683,10.606,21.463
	c-3.215,2.563-5.96,5.745-8.084,9.362h0.077c-1.428,0.694-2.78,1.503-4.132,2.381l-0.038-0.044c-1.027,0.66-2.043,1.321-2.998,1.979
	c0,0-0.003,0-0.008,0c-0.983,0.689-1.946,1.405-2.88,2.156c-0.991,0.765-1.902,1.539-2.816,2.34c-0.366,0.294-0.73,0.625-1.06,0.955
	c-0.66,0.62-1.321,1.244-1.938,1.861c-0.22,0.218-0.479,0.443-0.694,0.696c-0.768,0.806-1.498,1.608-2.235,2.45
	c-1.021,1.172-2.01,2.34-2.921,3.581c-0.369,0.443-0.66,0.878-0.991,1.354c-0.108,0.113-0.182,0.218-0.253,0.366h0.01
	c-0.228,0.33-0.481,0.653-0.707,0.991l0.036,0.036c-0.952,1.39-1.828,2.78-2.668,4.242c-28.961,8.049-54.566,27.791-69.233,56.719
	c-21.647,42.68-13.012,92.782,17.887,125.839l5.338,5.345l150.584,150.561C399.739,489.018,476.04,418.141,502.203,326.112z"/>
<g>
	<path style="fill:#5D6D7E;" d="M250.476,144.293c-0.189,0-0.374-0.036-0.553-0.092c-13.896-4.915-23.916-16.996-26.156-31.526
		c-0.136-0.906,0.484-1.756,1.39-1.897c0.906-0.148,1.759,0.484,1.9,1.39c2.051,13.317,11.238,24.392,23.974,28.895
		c0.863,0.302,1.321,1.257,1.011,2.122C251.804,143.866,251.156,144.293,250.476,144.293z"/>
	<path style="fill:#5D6D7E;" d="M261.532,144.293c-0.686,0-1.329-0.428-1.569-1.108c-0.307-0.863,0.151-1.82,1.014-2.122
		c12.736-4.503,21.919-15.578,23.969-28.895c0.141-0.906,0.983-1.539,1.894-1.39c0.911,0.141,1.533,0.991,1.39,1.897
		c-2.232,14.531-12.255,26.611-26.148,31.526C261.903,144.26,261.714,144.293,261.532,144.293z"/>
</g>
<path style="fill:#283A4D;" d="M311.931,168.854c-26.235,0-78.664,0-111.852,0c-13.548,19.244-21.709,43.994-21.709,71.012
	c0,54.83,33.549,100.355,77.635,109.309c44.083-8.955,77.635-54.477,77.635-109.309
	C333.637,212.847,325.478,188.097,311.931,168.854z"/>
<path style="fill:#5D6D7E;" d="M256.003,136.26c-23.977,0-44.872,13.125-55.939,32.581c11.067,19.441,31.962,32.573,55.939,32.573
	c23.974,0,44.872-13.133,55.939-32.573C300.874,149.388,279.977,136.26,256.003,136.26z"/>
<path style="fill:#283A4D;" d="M226.309,143.523h59.387c-5.944-10.225-17.014-17.101-29.691-17.101
	C243.323,126.419,232.259,133.295,226.309,143.523z"/>
<path style="fill:#FF8E31;" d="M200.072,168.841c-28.964,8.061-54.569,27.796-69.225,56.727
	c-24.773,48.916-9.859,107.505,32.732,139.108l71.672-141.501C213.865,212.34,201.152,191.195,200.072,168.841z"/>
<g>
	<path style="fill:#34495E;" d="M227.907,225.819c-5.309,0-9.61,4.306-9.61,9.615c0,4.101,2.573,7.598,6.195,8.968l8.632-17.032
		C231.624,226.395,229.832,225.819,227.907,225.819z"/>
	<circle style="fill:#34495E;" cx="175.411" cy="272.385" r="9.61"/>
	<circle style="fill:#34495E;" cx="149.683" cy="233.857" r="9.61"/>
	<path style="fill:#34495E;" d="M149.673,298.909c0,5.325-4.306,9.615-9.615,9.615c-5.309,0-9.61-4.291-9.61-9.615
		c0-5.309,4.301-9.6,9.61-9.6C145.367,289.309,149.673,293.6,149.673,298.909z"/>
</g>
<path style="fill:#FF8E31;" d="M311.931,168.841c28.961,8.061,54.564,27.796,69.22,56.727
	c24.776,48.916,9.859,107.505-32.727,139.108l-71.672-141.501C298.135,212.34,310.845,191.195,311.931,168.841z"/>
<g>
	<path style="fill:#34495E;" d="M284.093,225.819c5.307,0,9.613,4.306,9.613,9.615c0,4.101-2.578,7.598-6.203,8.968l-8.63-17.032
		C280.374,226.395,282.166,225.819,284.093,225.819z"/>
	<circle style="fill:#34495E;" cx="336.589" cy="272.385" r="9.613"/>
	<circle style="fill:#34495E;" cx="362.317" cy="233.857" r="9.613"/>
	<path style="fill:#34495E;" d="M362.327,298.909c0,5.325,4.306,9.615,9.615,9.615c5.304,0,9.608-4.291,9.608-9.615
		c0-5.309-4.303-9.6-9.608-9.6C366.633,289.309,362.327,293.6,362.327,298.909z"/>
</g>
<g>
	<path style="fill:#FFFFFF;" d="M289.789,145.855c-1.782,2.304-2.854,5.181-2.854,8.323c0,7.501,6.077,13.583,13.583,13.583
		c3.336,0,6.387-1.208,8.75-3.203C304.172,157.034,297.526,150.65,289.789,145.855z"/>
	<path style="fill:#FFFFFF;" d="M222.198,145.855c1.787,2.304,2.854,5.181,2.854,8.323c0,7.501-6.08,13.583-13.583,13.583
		c-3.336,0-6.387-1.208-8.75-3.203C207.818,157.034,214.461,150.65,222.198,145.855z"/>
</g>
<g>
</g>
<g>
</g>
<g>
</g>
<g>
</g>
<g>
</g>
<g>
</g>
<g>
</g>
<g>
</g>
<g>
</g>
<g>
</g>
<g>
</g>
<g>
</g>
<g>
</g>
<g>
</g>
<g>
</g>
</svg>
