<?xml version="1.0" encoding="iso-8859-1"?>
<!-- Generator: Adobe Illustrator 19.0.0, SVG Export Plug-In . SVG Version: 6.00 Build 0)  -->
<svg version="1.1" id="Layer_1" xmlns="http://www.w3.org/2000/svg" xmlns:xlink="http://www.w3.org/1999/xlink" x="0px" y="0px"
	 viewBox="0 0 446.041 446.041" style="enable-background:new 0 0 446.041 446.041;" xml:space="preserve">
<circle style="fill:#3E4959;" cx="208.399" cy="223.02" r="178.462"/>
<g>
	
		<rect x="263.66" y="101.097" transform="matrix(-0.7071 0.7071 -0.7071 -0.7071 574.2604 -33.7148)" style="fill:#242D3C;" width="60.905" height="1.957"/>
	<rect x="314.959" y="79.852" style="fill:#242D3C;" width="88.411" height="1.918"/>
	<path style="fill:#242D3C;" d="M410.151,80.815c0,3.766-3.042,6.809-6.774,6.809c-3.766,0-6.806-3.04-6.806-6.809
		c0-3.769,3.038-6.811,6.806-6.811C407.109,74.004,410.151,77.044,410.151,80.815z"/>
	<polygon style="fill:#242D3C;" points="350.855,330.56 288.798,268.453 290.183,267.116 352.241,329.164 	"/>
	<rect x="350.848" y="328.596" style="fill:#242D3C;" width="88.382" height="1.972"/>
	<path style="fill:#242D3C;" d="M446.041,329.598c0,3.722-3.038,6.764-6.804,6.764c-3.739,0-6.779-3.042-6.779-6.764
		c0-3.769,3.04-6.818,6.779-6.818C443.001,322.779,446.041,325.829,446.041,329.598z"/>
	<polygon style="fill:#242D3C;" points="115.628,375.486 177.534,313.612 176.153,312.227 114.289,374.092 	"/>
	<rect x="27.291" y="373.568" style="fill:#242D3C;" width="88.337" height="1.922"/>
	<path style="fill:#242D3C;" d="M20.448,374.526c0,3.727,3.072,6.809,6.843,6.809c3.729,0,6.767-3.082,6.767-6.809
		c0-3.766-3.038-6.816-6.767-6.816C23.52,367.71,20.448,370.759,20.448,374.526z"/>
	<rect x="6.799" y="204.436" style="fill:#242D3C;" width="112.751" height="1.922"/>
	<path style="fill:#242D3C;" d="M0,205.406c0,3.771,3.079,6.809,6.809,6.809c3.771,0,6.809-3.035,6.809-6.809
		c0-3.764-3.035-6.804-6.809-6.804C3.079,198.602,0,201.639,0,205.406z"/>
</g>
<path style="fill:#FF6D3B;" d="M208.406,101.607L208.406,101.607V223.02l108.226-55.106
	C296.512,128.529,255.631,101.607,208.406,101.607z"/>
<path style="fill:#FFFFFF;" d="M145.255,223.06c0-34.88,28.266-63.148,63.148-63.148v-34.031c-30.151,0-56.534,12.571-75.493,36.034
	c-33.765,41.686-27.343,102.833,14.346,136.64l21.383-26.422C154.37,260.559,145.255,242.868,145.255,223.06z"/>
<path style="fill:#242D3C;" d="M168.64,272.13l-21.383,26.422c15.65,12.647,32.65,19.495,52.684,21.265l2.964-33.881
	C189.984,284.822,178.176,279.825,168.64,272.13z"/>
<path style="fill:#21D8DE;" d="M294.934,178.949l-30.267,15.424c4.386,8.613,6.887,18.346,6.887,28.687
	c0,34.885-28.268,63.148-63.148,63.148c-1.846,0-3.692-0.076-5.497-0.268l-2.964,33.881c18.924,1.652,35.648-1.605,52.571-10.235
	C300.32,285.246,319.316,226.754,294.934,178.949z"/>
<g>
</g>
<g>
</g>
<g>
</g>
<g>
</g>
<g>
</g>
<g>
</g>
<g>
</g>
<g>
</g>
<g>
</g>
<g>
</g>
<g>
</g>
<g>
</g>
<g>
</g>
<g>
</g>
<g>
</g>
</svg>
