<?xml version="1.0" encoding="iso-8859-1"?>
<!-- Generator: Adobe Illustrator 19.0.0, SVG Export Plug-In . SVG Version: 6.00 Build 0)  -->
<svg version="1.1" id="Layer_1" xmlns="http://www.w3.org/2000/svg" xmlns:xlink="http://www.w3.org/1999/xlink" x="0px" y="0px"
	 viewBox="0 0 399.882 399.882" style="enable-background:new 0 0 399.882 399.882;" xml:space="preserve">
<circle style="fill:#16C6CC;" cx="199.941" cy="199.941" r="178.462"/>
<path style="fill:#06B2B8;" d="M42.732,284.446c30.129,55.934,89.223,93.957,157.209,93.957s127.079-38.023,157.209-93.957H42.732z"
	/>
<g>
	<g>
		<path style="fill:#FFFFFF;" d="M239.929,89.59c35.835,0,35.316,194.855,79.978,194.855c-17.381,0-142.575,0-159.956,0
			C204.613,284.446,204.096,89.59,239.929,89.59z"/>
		<path style="fill:#FF6D3B;" d="M79.973,46.447c35.838,0,35.318,238.001,79.978,238.001c-17.381,0-142.57,0-159.951,0
			C44.657,284.446,44.143,46.447,79.973,46.447z"/>
		<path style="fill:#FFB733;" d="M319.906,206.772c35.835,0,35.313,77.674,79.975,77.674c-17.381,0-142.572,0-159.953,0
			C284.596,284.446,284.074,206.772,319.906,206.772z"/>
		<path style="fill:#FFD55C;" d="M287.963,236.359c7.756,27.641,17.479,48.086,31.946,48.086c-8.692,0-44.335,0-79.978,0
			C265.839,284.446,276.546,258.311,287.963,236.359z"/>
		<path style="fill:#3E4959;" d="M159.951,137.735c35.838,0,35.318,146.713,79.978,146.713c-17.383,0-142.575,0-159.956,0
			C124.635,284.446,124.116,137.735,159.951,137.735z"/>
		<g>
			<path style="fill:#242D3C;" d="M124.187,207.705c8.386,42.501,18.828,76.741,35.764,76.741c-8.692,0-44.332,0-79.978,0
				C102.993,284.446,114.009,245.479,124.187,207.705z"/>
			<path style="fill:#242D3C;" d="M197.465,214.161c9.723,35.626,20.758,70.284,42.464,70.284c-35.641,0-71.289,0-79.978,0
				C178.085,284.446,188.773,252.32,197.465,214.161z"/>
		</g>
	</g>
</g>
<g>
</g>
<g>
</g>
<g>
</g>
<g>
</g>
<g>
</g>
<g>
</g>
<g>
</g>
<g>
</g>
<g>
</g>
<g>
</g>
<g>
</g>
<g>
</g>
<g>
</g>
<g>
</g>
<g>
</g>
</svg>
