<?xml version="1.0" encoding="iso-8859-1"?>
<!-- Generator: Adobe Illustrator 19.0.0, SVG Export Plug-In . SVG Version: 6.00 Build 0)  -->
<svg version="1.1" id="Layer_1" xmlns="http://www.w3.org/2000/svg" xmlns:xlink="http://www.w3.org/1999/xlink" x="0px" y="0px"
	 viewBox="0 0 511.999 511.999" style="enable-background:new 0 0 511.999 511.999;" xml:space="preserve">
<circle style="fill:#242D3C;" cx="256.001" cy="256.001" r="218.726"/>
<path style="fill:#3E4959;" d="M427.099,119.749c-0.242-0.303-0.488-0.606-0.731-0.908h-24.096V93.389
	c-0.299-0.27-0.604-0.535-0.905-0.803v26.255h-72.002V92.41h71.804c-0.341-0.302-0.681-0.608-1.023-0.908h-70.78V65.068h33.39
	c-0.541-0.303-1.08-0.61-1.624-0.908h-31.766V49.897c-0.303-0.108-0.608-0.214-0.911-0.321v14.584h-71.999V37.728h13.497
	c-4.616-0.29-9.264-0.456-13.953-0.456s-9.338,0.165-13.953,0.456h13.5v26.431h-71.999V49.575c-0.303,0.106-0.608,0.213-0.911,0.321
	V64.16h-31.769c-0.544,0.298-1.083,0.605-1.624,0.908h33.393v26.434h-70.783c-0.342,0.3-0.683,0.606-1.023,0.908h71.807v26.431
	h-71.999V92.58c-0.302,0.269-0.608,0.535-0.908,0.806v25.455H85.63c-0.244,0.302-0.489,0.604-0.731,0.908h24.831v26.434H66.807
	c-0.177,0.304-0.361,0.603-0.537,0.908h43.458v26.431H53.372c-0.123,0.302-0.249,0.605-0.371,0.908h56.728v26.434H44.285
	c-0.079,0.302-0.157,0.605-0.234,0.908h65.678v26.431H39.021c-0.038,0.301-0.067,0.606-0.104,0.908h70.811v26.434H37.277
	c0,0.151-0.006,0.301-0.006,0.453c0,0.152,0.005,0.303,0.006,0.456h72.452v26.431H38.917c0.037,0.302,0.065,0.607,0.104,0.908
	h70.707v26.434H44.052c0.077,0.303,0.155,0.606,0.234,0.908h65.443v26.431H53.001c0.122,0.303,0.247,0.606,0.371,0.908h56.356
	v26.434H66.273c0.175,0.305,0.359,0.604,0.537,0.908h42.919v26.431h-24.83c0.242,0.303,0.488,0.606,0.731,0.908h24.099v25.455
	c0.3,0.27,0.606,0.537,0.908,0.806v-26.261h71.999v26.434h-71.803c0.341,0.302,0.681,0.608,1.023,0.908h70.78v26.431h-33.393
	c0.541,0.303,1.08,0.61,1.624,0.908h31.769v14.263c0.303,0.108,0.608,0.214,0.911,0.321v-14.585h71.999v26.881
	c0.151,0,0.301,0.006,0.453,0.006c0.152,0,0.303-0.005,0.456-0.006v-26.881h71.999v14.584c0.303-0.106,0.608-0.213,0.911-0.321
	v-14.262h31.766c0.544-0.298,1.083-0.605,1.624-0.908h-33.39v-26.429h70.777c0.342-0.3,0.683-0.606,1.023-0.908h-71.8v-26.434
	h72.002v26.255c0.301-0.268,0.606-0.534,0.905-0.803v-25.452h24.096c0.244-0.302,0.489-0.604,0.731-0.908h-24.827v-26.431h42.916
	c0.177-0.304,0.361-0.603,0.537-0.908h-43.453v-26.434h56.353c0.123-0.302,0.249-0.605,0.371-0.908h-56.724v-26.431h65.44
	c0.078-0.302,0.157-0.605,0.234-0.908h-65.674v-26.435h70.704c0.038-0.301,0.067-0.606,0.104-0.908h-70.808v-26.431h72.449
	c0-0.152,0.006-0.303,0.006-0.456c0-0.151-0.005-0.301-0.006-0.453h-72.449v-26.434h70.808c-0.037-0.302-0.065-0.607-0.104-0.908
	h-70.704v-26.431h65.675c-0.077-0.303-0.155-0.606-0.234-0.908h-65.44v-26.434h56.724c-0.122-0.303-0.247-0.606-0.371-0.908h-56.353
	v-26.431h43.455c-0.175-0.305-0.36-0.604-0.537-0.908h-42.918V119.75h24.825V119.749z M328.453,118.841h-71.999V92.41h71.999
	L328.453,118.841L328.453,118.841z M255.545,147.092v26.431h-71.999v-26.431H255.545z M183.547,146.184v-26.434h71.999v26.434
	H183.547z M255.545,174.431v26.434h-71.999v-26.434H255.545z M255.545,201.774v26.431h-71.999v-26.431H255.545z M255.545,229.113
	v26.434h-71.999v-26.434L255.545,229.113L255.545,229.113z M255.545,256.456v26.431h-71.999v-26.431H255.545z M255.545,283.795
	v26.434h-71.999v-26.434H255.545z M255.545,311.137v26.431h-71.999v-26.431H255.545z M255.545,338.476v26.434h-71.999v-26.434
	H255.545z M255.545,365.819v26.431h-71.999v-26.431H255.545z M256.454,365.819h71.999v26.431h-71.999L256.454,365.819
	L256.454,365.819z M256.454,364.911v-26.434h71.999v26.434H256.454z M256.454,337.568v-26.431h71.999v26.431H256.454z
	 M256.454,310.229v-26.434h71.999v26.434L256.454,310.229L256.454,310.229z M256.454,282.887v-26.431h71.999v26.431H256.454z
	 M256.454,255.547v-26.434h71.999v26.434H256.454z M256.454,228.205v-26.431h71.999v26.431H256.454z M256.454,200.866v-26.434
	h71.999v26.434L256.454,200.866L256.454,200.866z M256.454,173.523v-26.431h71.999v26.431H256.454z M256.454,146.184v-26.434h71.999
	v26.434H256.454z M328.453,65.068v26.434h-71.999V65.068H328.453z M183.547,65.068h71.999v26.434h-71.999V65.068z M183.547,92.41
	h71.999v26.431h-71.999V92.41z M110.636,119.749h71.999v26.434h-71.999V119.749z M110.636,147.092h71.999v26.431h-71.999V147.092z
	 M110.636,174.431h71.999v26.434h-71.999V174.431z M110.636,201.774h71.999v26.431h-71.999V201.774z M110.636,229.113h71.999v26.434
	h-71.999V229.113z M110.636,256.456h71.999v26.431h-71.999V256.456z M110.636,283.795h71.999v26.434h-71.999V283.795z
	 M110.636,311.137h71.999v26.431h-71.999V311.137z M110.636,338.476h71.999v26.434h-71.999V338.476z M110.636,392.25v-26.431h71.999
	v26.431H110.636z M183.547,393.159h71.999v26.434h-71.999V393.159z M183.547,446.932v-26.431h71.999v26.431L183.547,446.932
	L183.547,446.932z M328.453,446.932h-71.999v-26.431h71.999L328.453,446.932L328.453,446.932z M328.453,419.593h-71.999v-26.434
	h71.999L328.453,419.593L328.453,419.593z M401.366,392.25h-72.002v-26.431h72.002V392.25z M401.366,364.911h-72.002v-26.434h72.002
	V364.911z M401.366,337.568h-72.002v-26.431h72.002V337.568z M401.366,310.229h-72.002v-26.434h72.002V310.229z M401.366,282.887
	h-72.002v-26.431h72.002V282.887z M401.366,255.547h-72.002v-26.434h72.002V255.547z M401.366,228.205h-72.002v-26.431h72.002
	V228.205z M401.366,200.866h-72.002v-26.434h72.002V200.866z M401.366,173.523h-72.002v-26.431h72.002V173.523z M401.366,146.184
	h-72.002v-26.434h72.002V146.184z"/>
<g>
	<rect y="267.325" style="fill:#21D8DE;" width="18.88" height="21.076"/>
	<rect x="8.492" y="255.37" style="fill:#21D8DE;" width="1.885" height="33.032"/>
	<rect x="25.955" y="249.713" style="fill:#21D8DE;" width="18.871" height="17.456"/>
	<rect x="34.447" y="246.409" style="fill:#21D8DE;" width="1.885" height="29.409"/>
</g>
<g>
	<rect x="51.909" y="273.302" style="fill:#FF6D3B;" width="18.877" height="11.332"/>
	<rect x="60.403" y="261.347" style="fill:#FF6D3B;" width="1.888" height="44.674"/>
	<rect x="77.865" y="279.279" style="fill:#FF6D3B;" width="18.877" height="23.278"/>
	<rect x="86.355" y="275.815" style="fill:#FF6D3B;" width="1.888" height="31.736"/>
	<rect x="103.816" y="281.482" style="fill:#FF6D3B;" width="18.877" height="3.457"/>
	<rect x="112.306" y="279.279" style="fill:#FF6D3B;" width="1.894" height="9.286"/>
	<rect x="129.768" y="285.257" style="fill:#FF6D3B;" width="18.874" height="52.694"/>
	<rect x="138.258" y="281.482" style="fill:#FF6D3B;" width="1.891" height="88.558"/>
	<rect x="155.719" y="334.967" style="fill:#FF6D3B;" width="18.877" height="8.02"/>
	<rect x="164.209" y="332.754" style="fill:#FF6D3B;" width="1.894" height="31.614"/>
</g>
<g>
	<rect x="181.671" y="325.135" style="fill:#21D8DE;" width="18.877" height="22.416"/>
	<rect x="190.171" y="313.18" style="fill:#21D8DE;" width="1.888" height="41.61"/>
	<rect x="207.632" y="237.759" style="fill:#21D8DE;" width="18.877" height="101.293"/>
	<rect x="216.123" y="211.407" style="fill:#21D8DE;" width="1.888" height="128.236"/>
	<rect x="233.584" y="224.543" style="fill:#21D8DE;" width="18.874" height="50.968"/>
	<rect x="242.084" y="218.726" style="fill:#21D8DE;" width="1.885" height="65.439"/>
</g>
<g>
	<rect x="259.545" y="230.67" style="fill:#FF6D3B;" width="18.874" height="25.794"/>
	<rect x="268.026" y="230.67" style="fill:#FF6D3B;" width="1.885" height="47.197"/>
	<rect x="285.487" y="237.749" style="fill:#FF6D3B;" width="18.877" height="33.038"/>
	<rect x="293.987" y="234.615" style="fill:#FF6D3B;" width="1.891" height="40.913"/>
</g>
<g>
	<rect x="311.448" y="200.003" style="fill:#21D8DE;" width="18.877" height="57.885"/>
	<rect x="319.939" y="188.048" style="fill:#21D8DE;" width="1.888" height="78.021"/>
	<rect x="337.4" y="186.477" style="fill:#21D8DE;" width="18.877" height="21.553"/>
	<rect x="345.89" y="174.522" style="fill:#21D8DE;" width="1.894" height="54.896"/>
	<rect x="363.351" y="183.483" style="fill:#21D8DE;" width="18.874" height="11.796"/>
	<rect x="371.842" y="178.297" style="fill:#21D8DE;" width="1.894" height="20.609"/>
	<rect x="389.303" y="160.675" style="fill:#21D8DE;" width="18.877" height="42.472"/>
	<rect x="397.803" y="141.962" style="fill:#21D8DE;" width="1.894" height="67.482"/>
</g>
<g>
	<rect x="415.264" y="172.95" style="fill:#FF6D3B;" width="18.874" height="16.358"/>
	<rect x="423.755" y="165.401" style="fill:#FF6D3B;" width="1.888" height="45.305"/>
	<rect x="441.216" y="207.082" style="fill:#FF6D3B;" width="18.874" height="8.02"/>
	<rect x="449.706" y="204.088" style="fill:#FF6D3B;" width="1.888" height="17.776"/>
</g>
<g>
	<rect x="467.168" y="198.581" style="fill:#21D8DE;" width="18.871" height="42.472"/>
	<rect x="475.668" y="195.277" style="fill:#21D8DE;" width="1.885" height="52.384"/>
	<rect x="493.119" y="166.973" style="fill:#21D8DE;" width="18.88" height="40.577"/>
	<rect x="501.619" y="158.633" style="fill:#21D8DE;" width="1.885" height="70.305"/>
</g>
<path style="fill:#FFFFFF;" d="M167.591,340.745c-0.567-0.127-1.128-0.277-1.689-0.45c-2.863-0.905-5.389-2.206-7.729-3.985
	l0.827-1.083c2.203,1.686,4.595,2.918,7.307,3.772c0.525,0.163,1.056,0.301,1.581,0.423L167.591,340.745z M178.017,340.622
	l-0.286-1.328c3.105-0.661,6.33-1.879,9.334-3.536l0.658,1.2C184.603,338.663,181.251,339.934,178.017,340.622z M195.943,330.642
	l-0.974-0.944c2.326-2.396,4.266-5.017,5.934-8.031l1.188,0.661C200.369,325.449,198.357,328.165,195.943,330.642z M151.045,328.81
	c-0.89-1.167-1.771-2.374-2.661-3.608c-1.089-1.5-2.206-3.044-3.409-4.589l1.074-0.836c1.212,1.563,2.338,3.114,3.439,4.628
	c0.881,1.224,1.756,2.423,2.637,3.584L151.045,328.81z M138.187,313.164c-2.525-2.287-5.168-4.233-8.095-5.949l0.694-1.176
	c3.002,1.768,5.72,3.769,8.309,6.115L138.187,313.164z M206.128,312.836l-1.289-0.429c0.866-2.591,1.614-5.21,2.411-7.983
	l0.504-1.771l1.316,0.374l-0.51,1.771C207.757,307.587,207.006,310.22,206.128,312.836z M120.979,302.946
	c-3.216-1.209-6.535-2.209-9.654-3.126l0.377-1.304c3.147,0.923,6.493,1.924,9.754,3.15L120.979,302.946z M101.54,296.816
	c-3.611-1.224-6.637-2.459-9.522-3.889l0.607-1.221c2.829,1.403,5.802,2.619,9.355,3.826L101.54,296.816z M212.16,293.361
	l-1.277-0.471c1.271-3.433,2.652-6.502,4.23-9.379l1.188,0.655C214.763,286.984,213.402,289.994,212.16,293.361z M83.159,287.689
	c-2.658-1.81-5.327-3.847-8.161-6.227l0.872-1.044c2.802,2.35,5.434,4.359,8.055,6.148L83.159,287.689z M9.066,278.229l-1.152-0.721
	c0.096-0.163,2.453-3.916,6.387-8.158l0.995,0.926C11.461,274.421,9.093,278.186,9.066,278.229z M221.834,275.719l-1.083-0.824
	c2.042-2.673,4.32-5.279,6.776-7.741l0.962,0.959C226.074,270.536,223.835,273.091,221.834,275.719z M67.32,274.702
	c-2.591-2.335-5.132-4.592-7.708-6.61l0.839-1.068c2.609,2.042,5.168,4.32,7.777,6.673L67.32,274.702z M22.829,263.614l-0.778-1.113
	c3.195-2.215,6.378-3.674,9.474-4.329l0.286,1.328C28.89,260.127,25.867,261.509,22.829,263.614z M51.164,262.664
	c-3.059-1.5-6.16-2.498-9.474-3.047l0.214-1.343c3.454,0.57,6.679,1.608,9.856,3.171L51.164,262.664z M236.051,261.37l-0.845-1.068
	c2.631-2.082,5.452-4.085,8.381-5.937l0.73,1.152C241.426,257.346,238.639,259.315,236.051,261.37z M253.148,250.53l-0.61-1.212
	c3.117-1.563,6.282-2.951,9.409-4.13l0.483,1.277C259.341,247.628,256.215,248.994,253.148,250.53z M272.094,243.429l-0.337-1.319
	c3.225-0.842,6.315-1.548,9.962-2.338l0.286,1.325C278.375,241.89,275.3,242.596,272.094,243.429z M291.973,238.888l-0.313-1.322
	c3.698-0.878,6.809-1.72,9.802-2.655l0.411,1.295C298.842,237.156,295.701,238.004,291.973,238.888z M311.509,232.719l-0.519-1.259
	c3.029-1.262,6.118-2.706,9.183-4.299l0.625,1.206C317.707,229.982,314.581,231.445,311.509,232.719z M329.593,223.031l-0.778-1.116
	c2.386-1.674,4.869-3.581,8.04-6.185l0.866,1.05C334.517,219.405,332.01,221.336,329.593,223.031z M474.258,215.887
	c-2.45,0-4.767-0.322-7.084-0.986l0.377-1.313c2.897,0.833,5.792,1.11,8.994,0.836c0.277-0.024,0.543-0.057,0.812-0.09l0.202,1.34
	c-0.298,0.048-0.598,0.078-0.899,0.105C475.845,215.853,475.045,215.887,474.258,215.887z M487.017,211.271l-0.842-1.065
	c2.326-1.846,4.64-4.299,6.872-7.283l1.089,0.818C491.834,206.815,489.44,209.349,487.017,211.271z M457.882,210.299
	c-2.399-1.671-4.833-3.708-7.893-6.613l0.938-0.992c3.011,2.857,5.395,4.857,7.732,6.49L457.882,210.299z M345.544,210.212
	l-0.881-1.041c2.414-2.027,5.041-4.218,7.902-6.49l0.848,1.065C350.561,206.006,347.946,208.188,345.544,210.212z M361.524,197.61
	l-0.797-1.101c2.787-1.994,5.639-3.925,8.492-5.72l0.73,1.146C367.118,193.721,364.285,195.635,361.524,197.61z M442.695,196.527
	c-2.13-2.076-4.689-4.507-7.5-6.833l0.863-1.053c2.854,2.356,5.437,4.815,7.584,6.905L442.695,196.527z M499.639,195.016
	l-1.194-0.646c2.227-4.142,3.466-7.325,3.481-7.355l1.268,0.489C503.148,187.636,501.917,190.795,499.639,195.016z M378.739,186.87
	l-0.622-1.215c3.126-1.578,6.3-2.951,9.446-4.085l0.459,1.286C384.927,183.961,381.801,185.313,378.739,186.87z M426.938,183.889
	c-0.827-0.477-1.674-0.938-2.546-1.367c-2.052-1.025-4.302-1.834-6.682-2.411l0.313-1.322c2.486,0.598,4.833,1.445,6.975,2.513
	c0.893,0.444,1.768,0.92,2.619,1.412L426.938,183.889z M397.743,180.136l-0.268-1.334c3.505-0.694,6.957-1.071,10.263-1.11
	l0.009,1.361C404.533,179.09,401.164,179.454,397.743,180.136z"/>
<g>
</g>
<g>
</g>
<g>
</g>
<g>
</g>
<g>
</g>
<g>
</g>
<g>
</g>
<g>
</g>
<g>
</g>
<g>
</g>
<g>
</g>
<g>
</g>
<g>
</g>
<g>
</g>
<g>
</g>
</svg>
