<?xml version="1.0" encoding="iso-8859-1"?>
<!-- Generator: Adobe Illustrator 19.0.0, SVG Export Plug-In . SVG Version: 6.00 Build 0)  -->
<svg version="1.1" id="Layer_1" xmlns="http://www.w3.org/2000/svg" xmlns:xlink="http://www.w3.org/1999/xlink" x="0px" y="0px"
	 viewBox="0 0 356.923 356.923" style="enable-background:new 0 0 356.923 356.923;" xml:space="preserve">
<circle style="fill:#F2F2F2;" cx="178.462" cy="178.462" r="178.462"/>
<path style="fill:#D9D8D7;" d="M138.818,118.993L111.17,80.928c18.425-12.756,40.618-20.409,64.542-20.958v47.057
	C162.102,107.547,149.457,111.874,138.818,118.993z M63.941,161.095c-0.854,5.669-1.305,11.463-1.305,17.369
	c0,9.386,1.15,18.506,3.269,27.249l42.836-11.476c-1.15-5.078-1.777-10.353-1.777-15.776c0-3.274,0.244-6.496,0.67-9.654
	L63.941,161.095z M134.265,122.321l-28.699-39.483c-22.796,17.42-39.21,42.786-45.056,71.936l48.098,8.482
	C112.19,146.784,121.465,132.421,134.265,122.321z M178.459,249.962c-4.965,0-9.809-0.51-14.494-1.479l-10.255,41.093
	c7.973,1.775,16.249,2.74,24.748,2.74c1.74,0,3.466-0.054,5.189-0.135l-2.954-42.279
	C179.951,249.927,179.212,249.962,178.459,249.962z M181.342,43.116l-0.002,63.919c38.095,1.519,68.62,32.965,68.62,71.426
	c0,3.257-0.239,6.457-0.662,9.6l62.993,11.109c1.041-6.752,1.583-13.669,1.583-20.706
	C313.873,104.756,254.683,44.662,181.342,43.116z M110.176,199.668l-51.564,13.814c12.135,41.46,45.218,74.036,86.976,85.445
	l12.918-51.823C135.52,240.414,117.275,222.481,110.176,199.668z M186.314,249.521l3.978,56.906
	c56.967-5.226,103.281-47.764,114.225-102.905l-56.19-9.908C241.898,223.289,217.004,246.151,186.314,249.521z"/>
<path style="fill:#FF6D3B;" d="M175.71,78.065v49.799c-8.805,0.47-17.253,3.212-24.65,7.99l-29.285-40.303
	C137.74,84.606,156.305,78.59,175.71,78.065z"/>
<path style="fill:#FFFFFF;" d="M146.498,139.158c-8.721,7.106-14.821,16.83-17.374,27.719l-50.905-8.975
	c4.913-24.101,18.287-45.487,37.893-60.561L146.498,139.158z"/>
<path style="fill:#3E4959;" d="M128.852,188.842l-45.381,12.162c-1.595-6.73-2.469-13.63-2.614-20.564v-0.037
	c-0.01-0.65-0.017-1.297-0.017-1.947c0-4.736,0.35-9.504,1.034-14.188l46.265,8.158c-0.246,2.004-0.367,4.025-0.367,6.028
	c0,0.625,0.012,1.236,0.039,1.854C127.914,183.173,128.258,186.026,128.852,188.842z"/>
<path style="fill:#FF6D3B;" d="M163.545,226.89l-0.753,3.02l-12.889,51.697c-35.478-9.797-63.611-37.423-74.058-72.736
	l51.983-13.927l2.486-0.667c0.593,1.785,1.28,3.525,2.055,5.211c5.076,11.067,14.036,20.02,25.081,25.073
	c0.827,0.379,1.662,0.741,2.508,1.068C161.13,226.097,162.334,226.516,163.545,226.89z"/>
<path style="fill:#3E4959;" d="M178.521,274.191c-6.873,0-13.73-0.738-20.426-2.191l10.912-43.749
	c3.131,0.596,6.306,0.898,9.452,0.898c0.263,0,0.524,0,0.785-0.01l3.146,44.972C181.078,274.164,179.786,274.191,178.521,274.191z"
	/>
<path style="fill:#FFFFFF;" d="M287.04,200.443c-0.207,1.031-0.433,2.055-0.674,3.079c-5.068,21.804-16.852,41.9-33.548,57.031
	c-17.6,15.946-40.175,25.903-63.761,28.167l-4.194-59.99c0.65-0.084,1.292-0.177,1.932-0.278c0.074-0.02,0.15-0.03,0.214-0.039
	c19.911-3.417,36.177-18.629,40.805-38.417l54.666,9.642L287.04,200.443z"/>
<path style="fill:#16C6CC;" d="M295.786,178.457c0,0.736-0.01,1.47-0.02,2.208c0,0,0,0.007,0,0.017
	c-0.103,5.127-0.534,10.282-1.285,15.348l-65.684-11.584c0.017-0.14,0.03-0.281,0.049-0.421c0.128-1.191,0.217-2.402,0.263-3.606
	c0.025-0.657,0.037-1.302,0.037-1.964c0-26.754-21.28-49.078-47.806-50.58V61.169c28.485,0.687,54.516,11.648,74.526,29.295
	c3.732,3.276,7.234,6.786,10.513,10.511C284.667,121.694,295.786,148.849,295.786,178.457z"/>
<path style="fill:#3E4959;" d="M223.513,178.457c0,24.879-20.167,45.054-45.058,45.054c-24.879,0-45.044-20.172-45.044-45.054
	c0-24.884,20.162-45.051,45.044-45.051C203.343,133.406,223.513,153.573,223.513,178.457z"/>
<path style="fill:#FFFFFF;" d="M167.911,216.121c0.187,0.034,0.667-0.135,0.807-0.17c-0.332-0.271-1.058-0.3-1.482-0.559
	c0.034,0.012-1.361-0.83-1.058-0.133c0.071,0.162,0.337,0.015,0.453,0.096c-0.162,0.256-0.236,0.172-0.052,0.286
	c0-0.005-1.548-0.839,0.005-0.891c-1.078-0.962,0.066-0.665-0.268-1.273c-0.236-0.416,0.908-0.815,0.288-1.172
	c-0.283-0.167-0.61-0.14-0.908-0.352c-0.428-0.303-0.025-0.847,0.374-0.793c0.034,0,0.246-0.972,0.318-1.125
	c-0.116-0.052-0.908-1.034-0.716-1.246c0.231-0.246,1.27,0.64,1.529-0.015c0.096-0.236-0.364-0.871-0.327-1.135
	c0.47-0.047,3.542,0.071,3.02-1.342c-0.182-0.485-1.477-1.221-1.337-1.622c0.448,0.064,1.186,0.719,1.674,0.46
	c0.394-0.204,0.706,0.226,1.12-0.236c0.071-0.084,0.761-0.812,0.564-0.953c-0.212-0.005-0.322,0.116-0.342,0.359
	c-0.246-0.332,0.177-0.564,0.399-0.802c0.052,0.071,0.101,0.145,0.158,0.212c0.251-0.384,1.679-2.24,1.721-2.279
	c0.726-0.847,0.13-1.982,0.847-2.658c0.66-0.618,1.376-1.024,2.193-1.351c0.256-0.101,1.159-0.581,1.346-0.524
	c1.509,0.463,1.327-1.339,2.289-2.154c0.972-0.815,0.256-4.985,1.049-5.297c0.438-0.167,1.716-1.748,2.38-2.471
	c0.65-0.689,0.731-1.588,0.48-2.466c-0.384-1.351-0.77-0.586-1.74-1.169c-0.783-0.465-1.381-1.398-2.351-1.529
	c-0.566-0.081-1.159,0.091-1.721-0.076c-0.241-0.071-0.884-0.463-1.13-0.135c0.044-0.052-0.524,0.212-0.485,0.224
	c-0.062-0.037-0.01-0.736-0.192-0.911c-0.288-0.278-1.302-0.564-1.664-0.657c-0.842-0.214-1.044,0.778-1.265-0.406
	c-0.692-0.19-1.381-0.994-1.26-1.194c0.066-0.084-1.078-2.491-1.236-2.267c-0.01-0.807-2.518-1.812-3.153-1.428
	c-0.576,0.414-1.625-0.374-1.982-0.753c-0.399-0.428-0.384-0.886-1.049-1.164c-0.288-0.121-0.77-0.059-0.667-0.549
	c0.121-0.517-1.226-0.618-1.356-1.122c0.192,0.037,0.352-0.059,0.529-0.111c-0.524,0.182-1.159-0.197-1.679,0.226
	c-0.751,0.625-1.201-0.295-2.023-0.133c-1.044,0.199-0.342-0.182-0.999-0.583c0.273,0.167-1.216-0.682-0.871-0.655
	c-0.313-0.037,0.039,0.514-0.303,0.638c-0.549,0.202-1.014,0.325-0.665,0.98c0.601,1.191-1.25,0.633-0.379-0.18
	c0.158-0.143,0.202-1.696,0.374-1.639c-0.222-0.074-1.908,1.024-2.102,1.253c-0.544-0.869-1.457,2.151-1.765,2.174
	c-0.158-0.743-0.866-1.041-1.472-1.268c-0.534-0.202-1.063,1.054-1.74,0.364c-1.221-1.233-0.687-3.222-0.066-4.628
	c0.263-0.652-2.245-0.852-2.553-0.586c-0.615,0.502,0.091-1.029,0.086-0.987c0.076-0.62,0.212-1.029,0.485-1.019
	c0.158-0.364,1.09-2.038,0.999-2.238c-0.374-0.876-1.962,0.679-2.11,1.068c-0.158,0.382-0.463,0.593-0.61,0.94
	s-0.438-0.076-0.697,0.062c-0.677,0.386-1.654,0.187-1.504-0.802c0.155-1.199-0.303-3.557,1.044-4.374
	c0.409-0.256,0.47-1.445,0.943-1.866c0.062-0.052,1.418-0.837,1.282-0.994c0.202,0.212,1.265-0.214,1.403,0.064
	c0.101,0.226,0.726,0.468,0.953,0.34c-0.015,0.027,0.106-0.529,0.106-0.534c-0.025-0.007-0.438-0.062-0.414-0.197
	c0.039-0.182,1.312-0.057,1.356-0.054c0.596,0.042,1.049,0.544,1.494,0.244c0.692-0.473,0.268,2.624,0.544,2.905
	c0.155,0.167,0.044,0.544,0.337,0.514c0.399-0.047,0.519-4.02,1.548-4.847c0.746-0.603,1.558-1.147,2.385-1.595
	c0.268-0.135,0.958-0.465,1.095-0.724c-0.03-0.126-0.158-0.281-0.298-0.148c-0.044-0.241,0.369-0.094,0.443-0.347
	c0.076-0.258-0.212-0.342-0.177-0.433c-0.01,0.025,0.256-0.519,0.167-0.448c0.01,0.015,0.01,0.042,0.015,0.057
	c0.418,0.066-0.091-0.389-0.111-0.455c0.544,0.281,0.318-0.593,0.847-0.638c-0.379,0.158-0.308,0.581-0.256,0.842
	c0.106,0.564,0.61-0.788,0.549-0.731c0.505-0.212,1.292-0.635,1.831-1.014c-0.121-0.052-0.258,0.049-0.409-0.062
	c0.554-0.202,1.174-0.135,1.711-0.409c-0.03-0.564,0.308-1.15,0.933-1.255c0.962-0.155,2.092-0.743,3.047-1.073
	c-0.145,0.335,0.086,0.081,0.347,0.204c-0.313-0.815-2.018,1.509-1.206,1.034c0.682-0.396,2.996-0.756,3.313-1.42
	c-0.01-0.039-0.158-0.48-0.155-0.48c-0.566,0-0.615,0.704-1.317,0.699c-1.275-0.012-0.505-0.795-0.773-1.152
	c-0.222,0.057-0.414-0.01-0.571-0.182c0.13-0.027,1.706-0.389,0.874-0.578c-1.356-0.286-2.25,1.214-3.36,1.177
	c0.827-0.502,1.957-1.583,2.961-1.716c1.073-0.148,2.558,0.377,3.505-0.283c0.832-0.586,1.408-0.155,1.886-1.103
	c0.15-0.256-0.61-0.578-0.807-0.628c0.086-0.094,0.256,0,0.313-0.158c-1.26-0.564-1.524-1.125-1.674-2.582
	c-0.645,0.47-2.804,1.472-1.649-0.158c-0.414-0.177-1.726-1.27-2.225-0.514c-0.236,0.337-0.601,0.903-0.98,1.078
	c-0.862,0.389-0.101,0.318-0.384,0.889c-0.49,0.948-1.654,0.815-2.21,1.642c-0.347,0.522-0.458,0.886-0.999,1.13
	c-0.475,0.212-0.655-0.352-0.423-0.793c0.167,0.185,0.322,0.214,0.463,0.076c0.039-0.204-0.256-0.103-0.347-0.185
	c0.167-0.293,0.374-0.564,0.61-0.807c-0.076-0.044-1.287-0.236-1.246-0.556c0.076-0.657-0.751-0.295-0.898-0.492
	c0.65-0.817,0.655-1.196,1.918-1.831c0.438-0.219,2.865-1.462,3.318-1.152c-0.057,0.278-0.359,0.224-0.519,0.364
	c0.352,0.089,1.366,0.199,1.716-0.042c-0.081-0.064-0.49-0.746-0.278-0.903c-0.034,0.032,0.697,0.015,0.756,0
	c0.389-0.096,0.822-0.145,1.044-0.542c0.192-0.352,1.482-0.805,1.785-0.633c1.679,0.953-2.279,1.962-2.316,1.856
	c0.081,0.273,1.15-0.192,1.413,0.539c0.066,0.177,1.282,0.571,1.403,0.401c0.066-0.084-0.347-0.529-0.364-0.638
	c1.275,0.618,1.201,0.298,0.99-0.556c-0.197-0.815,0.746,0.052,0.802,0.079c0.207,0.108,1.078-0.384,1.201-0.564
	c-0.313-0.244-0.852-0.236-1.12-0.529c-0.258-0.251,0.667-0.31,0.347-0.576c-0.384-0.322-0.999-0.239-0.788-0.859
	c-0.217-0.062-0.433-0.037-0.625,0.079c0.052,0.116,0.182,0.03,0.231,0.091c-0.207,0.13-0.448,0.15-0.687,0.145
	c0.076-0.111,0.288-0.111,0.293-0.318c-0.66-0.079-1.009,0.318-1.583,0.49c0.162-0.236,0.438-0.308,0.64-0.485
	c-0.63,0.081-1.231,0.313-1.721,0.724c0.071,0.074,0.145,0.145,0.192,0.234c-0.475,0.426-1.125,0.554-1.684,0.815
	c0.091-0.377,0.5-0.286,0.635-0.569c-0.207,0.002-0.409,0.049-0.591,0.14c0.236-0.032,0.948-0.741,1.11-0.923
	c-1.029-0.116-1.457,1.209-2.422,1.019c0.202-0.234,0.606-0.116,0.746-0.48c-0.357,0.044-1.711,0.965-1.937,0.48
	c-0.01-0.03,2.481-1.019,2.745-1.378c-0.167-0.017-0.357,0.155-0.51-0.047c0.121-0.14,0.322-0.145,0.463-0.298
	c-0.812-0.007-3.249,0.98-3.062,1.553c-0.313,0.256-0.655,0.325-1.039,0.162c0.15-0.236,0.682-0.241,0.251-0.581
	c-0.783,0.29-1.548,0.61-2.311,0.943c-1.75,0.78-3.471,1.696-5.1,2.708c-2.703,1.669-4.928,3.641-7.153,5.871
	c-1.182,1.196-5.684,6.452-5.669,7.552c0.015,0.807-0.463,1.524-0.766,2.252c-0.246,0.596-0.268,1.43-0.571,1.979
	c-0.65,1.169-0.352,2.513-0.65,3.852c0.369-0.276,1.135-6.41,1.797-6.181c0.13,0.044-0.409,2.545-0.544,2.855
	c-0.559,1.287,0.172,2.86-0.192,4.207c-0.039,0.128-0.226,0.812-0.231,0.948c-0.62,0.473,0.162,1.184,0.158,1.706
	c0,0.313,1.583,1.696,1.886,1.878c0.667,0.399,0.798-0.31,1.398-0.18c0.549,0.116,0.702,1.1,0.99,1.519
	c0.394,0.583,1.871,0.522,2.114,0.793c0.172,0.209,0.039,1.337,0.706,1.494c-0.01-0.074-0.015-0.48,0.071-0.534
	c0.212-0.126,0.64,0.625,0.495,0.766c-0.212,0.049-0.404-0.03-0.566-0.231c0,0.103-0.106,1.578,0.322,1.287
	c0.015-0.086,0.034-0.182,0.049-0.271c0.559,0.244,0.519,1.073,0.918,1.184c0.549,0.15,0.967,0.847,1.381,1.044
	c0.369,0.187,0.263-1.297,0.975-1.371c0.566-0.052,0.884,1.433,1.081,1.79c0.293,0.519-0.399,1.775-0.015,2.178
	c0.389,0.414-0.98,1.403-1.044,1.822c-0.044,0.318-0.741,0.615-0.716,0.736c0.052,0.354-0.155,0.822-0.278,1.152
	c-0.347,0.926-0.172,1.007,0.423,1.435c0.02,0.015-1.11,2.255-0.463,2.826c1.029,0.844,2.38,2.924,2.708,4.231
	c0.672,1.794,1.696,2.9,3.409,3.788c1.393,0.731,2.375,1.979,2.375,3.653c0.052,0.982-0.091,2.215,0.322,3.148
	c0.293,0.645-0.263,1.701,0.155,2.289c0.268,0.359-0.081,0.564,0.081,0.908c0.158,0.359,0.539,0.967,0.534,1.388
	c-0.015,0.706-0.005,1.543,0.044,2.245c0.015,0.236-0.207,0.645-0.086,0.793c0.162,0.197,1.11,2.533,1.11,3.217
	c-0.005,0.165,0.731-0.044,0.066-0.709c0.783-0.441,0.625,1.406,0.682,1.42c-0.711-0.236-0.256-0.047-0.197,0.866
	c0.034,0.534-0.14,0.273,0.298,0.377c0.697,0.155,0,0.623,0.258,0.997c0.529,0.756,1.332,1.452,1.881,2.036
	C165.314,216.044,166.848,215.897,167.911,216.121C168.059,216.145,167.714,216.076,167.911,216.121z M170.848,142.688
	c-0.251,0.217-0.519,0.261-0.798,0.342C170.247,142.732,170.55,142.779,170.848,142.688z M168.507,142.486
	c0.177-0.03,0.327,0.025,0.418,0.155c0.01,0.069-0.962,0.113-1.1,0.359C167.946,142.577,168.3,142.646,168.507,142.486
	C168.603,142.609,168.3,142.646,168.507,142.486z M166.142,144.15C166.348,144.202,165.854,144.106,166.142,144.15
	C166.156,144.155,166.09,144.145,166.142,144.15z M164.844,141.684c0.091-0.098,0.162-0.084,0.212,0.049
	C164.965,141.831,164.891,141.817,164.844,141.684C164.854,141.627,164.839,141.745,164.844,141.684z M163.559,145.534
	C163.195,145.509,163.946,145.546,163.559,145.534C163.513,145.534,163.614,145.538,163.559,145.534z M163.946,144.039
	c-1.255,1.179-0.278,0.017-0.645,0.379c0.01,0.02,0,0.037-0.02,0.039C163.18,144.347,163.916,144.049,163.946,144.039
	C163.781,144.192,163.729,144.076,163.946,144.039z M163.478,142.651c-0.222,0.266-0.222,0.266-0.539,0.202
	C163.109,142.745,163.326,142.784,163.478,142.651z M169.078,138.23c-0.076,0.002-0.158,0.002-0.288,0.002
	C169.194,137.898,169.122,138.23,169.078,138.23C169.002,138.233,169.137,138.23,169.078,138.23z M169.989,137.63
	c-0.14,0.155-0.332,0.062-0.51,0.14C169.662,137.418,169.694,137.41,169.989,137.63z M164.911,138.038
	c0.106-0.096,0.231-0.143,0.369-0.13C165.406,138.085,164.517,138.186,164.911,138.038
	C164.965,137.947,164.859,138.058,164.911,138.038z M164.679,137.787c0.15,0.064,0.135,0.128-0.039,0.199
	C164.522,137.913,164.537,137.851,164.679,137.787C164.734,137.787,164.613,137.794,164.679,137.787z M158.117,148.992
	c0.005-0.007-1.972,0.788-1.817,0.295c-0.052,0.158,0.672-0.559,0.524-0.485c0.158-0.074,1.487-0.155,1.871-0.15
	C158.494,148.852,158.306,148.926,158.117,148.992C157.671,149.159,158.306,148.926,158.117,148.992z M159.695,148.017
	c1.63,0.155-0.972,0.65-1.25,0.362C158.816,148.057,159.242,147.966,159.695,148.017
	C159.825,148.03,159.242,147.966,159.695,148.017z M159.426,137.873c0.438-0.276,0.903-0.485,1.472-0.615
	c-0.414,0.345-0.975,0.487-1.487,0.628L159.426,137.873z M159.518,146.686c-0.076,0.074-0.145,0.069-0.212-0.002
	C159.407,146.649,159.498,146.617,159.518,146.686C159.545,146.754,159.498,146.617,159.518,146.686z M159.03,147.663
	C158.998,147.663,158.878,147.631,159.03,147.663C159.04,147.663,158.983,147.648,159.03,147.663z M158.555,146.831
	c0.591,0.278,0.256,1.194-0.258,0.48c-0.015,0.423-0.761,1.145-1.159,1.236c0.15-0.167,0.207-0.357,0.158-0.559
	c-0.13-0.101-0.374,0.182-0.51,0.182c0.057,0.254,1.068-1.733,0.217-1.159c-0.313,0.236-2.351,2.405-2.466,2.284
	c-0.192-0.192,0.903-1.787,0.98-1.846C156.214,146.875,157.671,146.417,158.555,146.831z M157.42,139.252
	c0.081-0.049,0.736-0.45,0.817-0.354c0.217,0.258-1.049,0.583-1.11,0.591C157.204,139.333,157.324,139.311,157.42,139.252
	C157.647,139.124,157.324,139.311,157.42,139.252z M157.561,144.569c-0.005,0.032-0.258,0.527-0.423,0.332
	C157.012,144.766,157.516,144.347,157.561,144.569C157.536,144.702,157.541,144.512,157.561,144.569z M156.123,140.465
	c0.081,0,1.14-0.66,1.174-0.391C157.31,140.155,156.007,140.485,156.123,140.465z M155.84,141.558
	c-0.071,0.121-0.135,0.182-0.278,0.177C155.618,141.61,155.705,141.595,155.84,141.558z M155.099,144.106
	c0.15-0.111,0.49-0.665,0.322-0.881c0.091,0.118-0.635-0.079-0.298-0.204c0.13-0.044,0.962-0.495,1.09-0.359
	c0.241,0.246-1.029,1.583-1.282,1.694C154.949,144.217,155.025,144.158,155.099,144.106
	C155.306,143.948,155.025,144.158,155.099,144.106z M155.82,145.79c0.913-0.293,1.246-0.807,1.794-0.111
	c0.207,0.258,0.167,0.93-0.318,0.773c0.13,0.044-1.482-0.111-1.182-0.283c-0.327,0.197-0.953,0.342-1.332,0.172
	C155.131,146.144,155.444,145.913,155.82,145.79C156.047,145.716,155.444,145.913,155.82,145.79z M154.55,144.094
	c0.081,0.214,0.025,0.325-0.226,0.362C154.42,144.308,154.489,144.199,154.55,144.094z M141.617,163.756
	C141.204,163.744,141.94,163.744,141.617,163.756C141.57,163.754,141.662,163.754,141.617,163.756z M146.833,167.505
	C146.718,167.542,147.161,167.429,146.833,167.505C146.816,167.513,146.892,167.495,146.833,167.505z M159.574,171.714
	C159.353,171.678,159.83,171.737,159.574,171.714C159.554,171.714,159.609,171.717,159.574,171.714z M161.662,209.049
	C161.3,208.99,161.854,208.77,161.662,209.049C161.575,209.039,161.671,209.039,161.662,209.049z M162.585,190.373
	C162.454,190.242,162.666,190.447,162.585,190.373C162.575,190.361,162.614,190.395,162.585,190.373z M162.732,202.009
	C162.508,202.087,162.983,201.918,162.732,202.009C162.671,202.028,162.767,201.996,162.732,202.009z M163.958,214.55
	c-0.162-0.096-0.162-0.155-0.005-0.182C164.133,214.437,164.138,214.503,163.958,214.55
	C163.887,214.543,164.022,214.562,163.958,214.55z M165.585,215.259c-0.167-0.037-0.15-0.101,0.052-0.197
	C165.777,215.124,165.758,215.188,165.585,215.259C165.511,215.259,165.632,215.242,165.585,215.259z M162.142,210.624
	c-0.02,0.015-0.039,0.017-0.057,0.02C162.137,210.607,162.156,210.597,162.142,210.624z M166.181,135.646c0,0-0.005,0-0.01,0
	c0.005-0.002,0.005-0.007,0.01-0.007V135.646z M150.878,142.9c0,0.005-0.01,0.005-0.01,0.005L150.878,142.9z M151.301,142.543
	h-0.005H151.301z M222.777,170.38v0.005c-0.874-3.244-1.538-6.454-2.88-9.6c-1.6-3.737-3.692-7.254-6.23-10.425
	c-2.39-2.996-5.164-5.684-8.236-7.978c-1.494-1.115-3.047-2.134-4.667-3.06c-0.773-0.448-1.563-0.869-2.366-1.268
	c-0.352-0.162-1.578-0.485-1.76-0.783c0.01,0.135,0.711,0.49,0.807,0.586c-0.475-0.126-1.735-0.66-1.755-0.741
	c0.025-0.054,0.13,0,0.121-0.096c-0.711-0.453-3.375-1.433-3.904-0.706c0.116-0.145,1.831,1.844,1.876,2.198
	c0.116,0.773,1.327,1.593,2.097,1.846c1.078,0.359,0.268-0.126,0.721-0.372c0.293-0.148,0.564,0.487,0.842,0.347
	c-0.01-0.007,0-0.017,0.005-0.022c-0.076-0.15-0.158-0.293-0.246-0.443c-0.076,0,1.942,2.087,2.198,1.634
	c-0.236-0.566-0.596-1.206-1.174-1.74c-0.51-0.475-1.307-0.519-1.861-0.994c-0.278-0.241-1.302-0.994-1.418-1.342
	c1.361,0.044,2.924,2.919,4.288,1.804c-0.192-0.128-0.374-0.271-0.554-0.421c0.256,0.074,1.388,0.438,1.004,0.916
	c-1.081-0.187,0.923,0.913,0.953,1.034c-0.197-0.012-0.332-0.17-0.514-0.185c0.081,0.379,1.15,0.768,1.226,1.408
	c-0.645,0.103-0.364-0.389-0.783,0.133c-0.14,0.17-0.716,0.118-1.029,0.143c-0.746,0.062-1.578-1.206-2.119-1.59
	c0.226,0.704,0.615,1.044,1.403,1.538c0.384,0.217-0.539,0.313-0.524,0.63c0.03,0,0.251,0.116,0.241,0.172
	c0,0.042-0.207-0.145-0.241-0.172c0.071-0.049-0.13,1.243-0.145,1.223c0.61,0.709-0.822,0.502-0.852,0.527
	c0.116,0.162,0.337,0.249,0.394,0.48c-0.418,0.03-0.756-0.037-1.159,0.111c0.586,0.172,3.813,1.669,3.106,2.791
	c-0.226,0.362-2.412-0.094-2.818-0.108c-0.847-0.057-0.057,0.807-0.034,0.908c0.135,0.642,0.63,0.926,0.586,1.679
	c-0.039,0.529,0.505,0.549,0.677,0.994c0.145,0.389,0.057,0.426,0.465,0.482c0.721,0.089,0.736-0.022,1.346,0.455
	c0.428,0.337,0.596-0.318,1.11-0.335c1.282-0.054,0.187-0.315,0.798-0.487c0.766-0.212-0.207-1.398-0.158-1.63
	c0.052-0.313-0.052-0.665,0.369-0.78c0.65-0.17-0.177-0.847-0.226-1.026c-0.121-0.534,1.794,0.458,1.563-0.896
	c1.1,0.347,2.235,1.344,3.259,1.915c0.596,0.359,1.191,0.706,1.634,1.278c0.519,0.674-0.751,0.399-0.832,0.598
	c-0.076,0.212,1.12,0.751,1.317,0.743c0.025-0.123-0.145-0.815-0.167-0.933c-0.057-0.475-0.746-0.95-0.702-1.332
	c0.222,0.022,0.418,0.108,0.591,0.246c-0.645-0.795-1.689-0.871-2.422-1.46c-0.448-0.364-0.999-0.657-1.438-1.029
	c0-0.005-0.778-0.994-0.236-0.807c0.862,0.298,1.797,1.169,2.673,1.63c0.697,0.364,0.871,0.586,1.381,1.182
	c0.207,0.236,1.28,1.482,1.514,1.519c-0.01-0.01,0.879,0.78,1.231,0.903c-0.158-0.359-0.298-0.817-0.475-1.103
	c-0.246-0.391-1.246-0.613-1.246-1.196c0.226,0.017,0.256-0.219,0.741-0.202c-0.258-0.01,0.318-0.382,0.283-0.33
	c-0.933-0.532-2.193-2.092-2.533-3.146c0.256,0.012,0.399,0.354,0.677,0.177c-0.091-0.177-0.116-0.367-0.091-0.561
	c0.076,0.081,0.958,0.842,0.778,0.987c-0.251-0.005-0.453-0.108-0.63-0.303c0.121,0.446,0.566,0.455,0.746,0.758
	c0.02-0.121-0.062-0.222,0.039-0.359c0.778,0.325,2.351,1.551,2.562,2.412c-0.342,0.032-0.99-0.684-1.211-0.51
	c-0.081,0.175-0.066,0.35,0.03,0.517c-0.101,0.007-0.187,0.025-0.278,0.076c0.121,0.098,0.192,0.226,0.212,0.382
	c-0.13,0.042-0.256,0.079-0.384,0.113c0.106,0.436,2.395,2.612,2.553,2.39c0.049-0.074-0.096-0.295-0.057-0.327
	c0.121-0.14,0.48,0.49,0.667,0.367c0.15-0.098-0.15-0.295,0.015-0.379c0.352-0.177,1.716,2.506,1.89,2.821
	c0.66,1.243,0.222,0.485-0.278,0.66c-0.081,0.128-0.13,0.258-0.145,0.411c-0.798-0.185-1.674-0.645-2.321-1.108
	c-1.029-0.746,0.332,2.026-0.263,1.679c-0.352-0.199-0.559-0.495-0.994-0.529c-0.625-0.062-0.798-0.736-1.381-0.928
	c-0.47-0.158-2.331-0.33-2.092-1.182c0.192-0.731-0.741-1.334-1.058-1.612c-0.158-0.148-2.225,0.123-2.558,0.226
	c-0.571,0.18-1.472,0.367-1.794,0.898c-0.549,0.987-1.807-0.315-2.316-0.108c-0.268,0.106-0.005,0.918-0.15,1.182
	c-0.202,0.386-0.711,0.414-0.837,0.871c-0.222,0.847,0.418,1.541,0.126,2.314c-0.236,0.62-1.428,0.884-1.438,1.393
	c-0.01,0.268-0.062,0.571-0.318,0.716c-0.544,0.313,0.015,1.024-0.327,1.381c-1.831,1.866,0.591,3.692,0.177,5.74
	c-0.236,1.159-0.374,1.398,0.126,2.395c0.121,0.251,0.03,2.053,0.948,1.327c0.111,1.049,1.467,1.265,1.701,2.265
	c0.288,1.182,1.452,1.703,2.351,2.41c0.364,0.281,0.672,0.652,1.09,0.864c0.741,0.379,1.241-0.204,1.947-0.404
	c0.645-0.182,1.307-0.118,1.913,0.167c0.347,0.162,2.927-1.669,3.636-1.317c0.51,0.256,0.534,0.879,0.77,1.327
	c0.342,0.635,1.054-0.197,1.529,0.017c0.847,0.382,1.1,3.476,0.384,4.047c-0.539,0.399,0.687,2.09,0.857,2.432
	c0.485,0.958,0.923,2.629,0.773,3.692c-0.121,0.864,0.111,2.223-0.379,2.981c-0.49,0.761-0.773,1.563-1.174,2.425
	c-1.019,2.208-0.039,4.711-0.918,7.008c-0.529,1.172-0.433,2.427-0.721,3.653c-0.187,0.793-1.15,1.932-0.773,2.759
	c0.576-0.519,1.433-0.453,2.082-0.778c1.332-0.66,1.967-2.196,2.932-3.222c0.519-0.544,0.847-1.226,1.15-1.895
	c0.293-0.635,0.879-1.046,1.154-1.671c0.677-1.573,1.297-3.141,1.982-4.714c1.423-3.394,1.659-6.654,2.159-10.294
	C223.488,177.886,223.493,174.225,222.777,170.38z M219.372,161.433c-0.177-0.453-2.582-3.973-2.299-4.162
	c0.318-0.204,5.452,8.879,4.894,10.284C221.179,165.484,220.249,163.471,219.372,161.433
	C219.362,161.413,219.55,161.851,219.372,161.433z M221.575,177.504c-0.101-0.254,0.034-0.47,0.106-0.766
	C221.792,177.054,221.617,177.268,221.575,177.504z M221.31,178.932c-0.015-0.155-0.025-0.278,0.081-0.389
	C221.465,178.693,221.396,178.804,221.31,178.932z M220.45,190.592c-0.086,0.034-0.182,0.064-0.273,0.096
	c-0.162,0,0.303-0.226,0.327-0.241C220.473,190.528,220.473,190.558,220.45,190.592C220.386,190.693,220.473,190.558,220.45,190.592
	z M220.578,185.854c-0.005-0.426,0.015-0.45,0.448-0.724C220.94,185.433,220.633,185.573,220.578,185.854z M221.071,183.648
	c-0.01-0.788-0.034-1.718,0.135-2.486c0.034,1.342,0.106,2.698,0.057,4.042C221.056,184.923,221.071,183.99,221.071,183.648
	C221.066,183.362,221.071,183.924,221.071,183.648z M221.772,186.174c-0.015,0.721-0.116,2.688-0.591,3.247
	c0.049-1.216,0.495-2.324,0.519-3.537C221.804,186.001,221.772,186.09,221.772,186.174
	C221.772,186.255,221.772,186.09,221.772,186.174z M222.334,178.814c-0.207,0.862-0.005,1.13-0.514,1.607
	c-0.005-0.642-0.241-1.868,0.418-2.247C222.319,178.385,222.402,178.553,222.334,178.814
	C222.252,179.163,222.402,178.553,222.334,178.814z M194.055,220.655c0.066,0.126-5.659,1.745-6.255,1.871
	c-2.38,0.5-4.798,0.812-7.234,0.933c-4.625,0.231-9.467-0.194-13.918-1.548c0.576,0.062,1.265,0.359,1.851,0.268
	c-0.559-0.345-1.241-0.226-1.74-0.665c1.856,0.308,3.631,0.162,5.332,0.384c-0.177-0.236-1.726-0.61-1.716-0.77
	c0.217-0.022,1.413-0.054,1.457-0.094c0.564-0.436-0.894-0.379-0.766-0.697c0.044-0.081,0.443,0.054,0.586-0.13
	c0.222-0.295,0-0.448,0.081-0.596c0.062-0.13,2.309-0.524,2.543-0.418c-0.263,0.158-0.566-0.025-0.458,0.411
	c-0.226-0.032-0.918-0.012-0.962,0.295c0.015-0.076,0.761,0.962,0.788,1.009c0.256,0.406,1.159,0.652,1.236,1.135
	c0.145,0.817,4.414,0.738,5.054,0.665c1.59-0.18,3.082-0.748,4.655-1.022c0.933-0.165,1.866-0.428,2.809-0.522
	c0.443-0.047,1.908-0.554,2.245-0.438C189.858,221.487,193.268,220.5,194.055,220.655
	C194.065,220.667,193.93,220.63,194.055,220.655z M220.007,195.783c0.177-0.463,0.327-0.938,0.554-1.388
	C220.416,194.878,220.214,195.328,220.007,195.783z M220.748,193.918c0.025-0.057,0.052-0.116,0.066-0.167
	C220.82,193.817,220.775,193.866,220.748,193.918z M171.478,134.937c-0.241-0.039-0.495-0.01-0.751-0.049
	c0.13-0.121,0.889-0.145,0.554-0.359c1.044-0.638,3.217-0.766,4.409-0.62c1.346,0.165,2.683-0.251,4.005-0.042
	c0.539,0.084,0.999,0.096,1.534,0.133c0.463,0.054-0.062,0.529,0.463,0.608c0.313,0.042,0.938,0.751,1.221,0.593
	c-0.015,0.492-0.231,0.153-0.076,0.61c0.034,0.103,0.591,0.414,0.564,0.455c-0.052,0.071-1.548-0.037-1.482-0.015
	c-0.116-0.022,0.025,0.234,0.121,0.192c0.298,0.076,0.948-0.02,1.275,0.007c-0.751,0.682-1.881,0.601-2.72,1.147
	c-0.514,0.337-1.287,0.308-1.851,0.51c0,0.576-0.438,1.28-0.817,1.873c-0.268,0.411-2.174-0.539-2.37-0.78
	c-0.414-0.497-1.366-1.809-0.332-2.22c1.246-0.49,0.005-0.084-0.364-0.357c0.303-0.418,0.63-0.276,1.105-0.207
	c-0.246-0.337-0.544-0.418-0.903-0.246c-0.121-0.359,0.514-0.682-0.044-1.066c-0.246-0.167-1.563,0.03-1.595-0.204
	c-0.086-0.571,1.6-0.268,1.898-0.738C174.055,133.898,172.704,135.129,171.478,134.937C171.237,134.9,171.7,134.971,171.478,134.937
	z M195.195,143.53c0.207-0.022-0.256-0.667-0.369-0.795c0.14,0.012,0.258,0.027,0.394-0.057c-0.101-0.295-1.423-1.054-1.509-0.994
	c-0.5,0.31-1.12-1.078-1.182-1.268c0.852-0.116,1.381,0.79,2.144,1.167c0.655,0.315,3.006,1.435,3.072,2.146
	c0.052,0.352-1.78,0.202-2.053,0.623c-0.207-0.517,0.463-0.512,0.443-0.674C196.108,143.552,195.291,143.52,195.195,143.53
	C195.146,143.54,195.478,143.488,195.195,143.53z M171.19,144.192c-0.126,0.091-1.721,1.6-1.679,1.745
	c0.034,0.135,1.654,0.042,1.932,0.197c-0.015,0.185-0.241,0.091-0.273,0.251c0.212,0,0.866-0.406,0.972-0.283
	c0.015,0.098-0.005,0.199-0.052,0.295c0.716,0.709,0.65-0.832,0.682-0.911c-0.495-0.069,0.116-0.778-0.741-0.475
	c0.057-0.022-0.913-0.293-0.866-0.231c-0.076-0.076,0.692-0.751,0.751-0.837C171.463,143.833,171.402,144.03,171.19,144.192
	C170.922,144.389,171.247,144.145,171.19,144.192z M172.763,145.861C172.83,145.92,172.652,145.92,172.763,145.861
	C172.77,145.873,172.748,145.871,172.763,145.861z M172.401,145.824c0.049-0.054,0.313-0.167,0.15-0.012
	C172.492,145.913,172.256,145.989,172.401,145.824C172.421,145.797,172.367,145.861,172.401,145.824z M171.271,143.985l0.01-0.005
	c0,0.005,0,0.01,0.005,0.02C171.281,143.99,171.281,143.99,171.271,143.985z M169.839,145.433c0.039,0,0.076,0,0.111,0.03
	C169.91,145.462,169.733,145.452,169.839,145.433C169.878,145.433,169.809,145.438,169.839,145.433z M154.206,164.222
	c-0.438,0.049,0.288-0.342,0.226-0.482c-0.298-0.684-2.346-0.839-2.528-1.383c0.091-0.037,0.15-0.098,0.177-0.187
	c-0.702-0.283-1.058,0.571-1.696,0.517c1.317-2.225,4.571,0.32,5.886,1.349C155.584,164.121,154.892,164.128,154.206,164.222
	C154.146,164.226,154.585,164.167,154.206,164.222z M155.906,165.408c-0.332-0.143,1.078-0.13,1.27-0.207
	c-0.273-0.428-0.03-0.665-0.566-0.827c0.49-0.601,2.134,0.101,2.649,0.327c-0.039,0.076-0.14,0.007-0.192,0.101
	c0.044,0.034,1.125,0.928,0.394,0.628c-0.793-0.34-1.236,0.135-1.797,0.45C157.218,165.25,156.492,165.689,155.906,165.408
	C155.84,165.383,156.042,165.472,155.906,165.408z M194.05,142.617c0.77,0.795-0.423,1.403-0.962,0.896
	c-0.258-0.273-0.101-0.911-0.711-1.098c0.158-0.052,0.327-0.103,0.485-0.16C192.45,141.28,193.854,142.415,194.05,142.617
	C194.218,142.804,193.999,142.558,194.05,142.617z M184.074,137.802c-0.044-0.158,1.1-0.086,1.292-0.123
	c0.303-0.052,2.592,0.175,1.79,0.546c-0.625,0.278-1.534,0.596-2.124,0.057C184.881,138.156,184.084,137.836,184.074,137.802
	C184.047,137.696,184.118,137.959,184.074,137.802z M204.93,149.125c0.268,0,0.918,1.029,0.812,1.191
	c-0.308,0.482-0.817-0.741-1.135-0.933C204.724,149.31,204.83,149.223,204.93,149.125z M169.282,135.252
	c0.783-0.588,0.962-0.254,1.932-0.155C170.902,135.377,170.161,135.436,169.282,135.252
	C169.497,135.089,170.161,135.436,169.282,135.252z M186.484,134.582c-0.576-0.158-1.182-0.182-1.735-0.406
	c0.665-0.074,1.477,0.182,1.942,0.315C186.838,134.54,186.439,134.567,186.484,134.582
	C185.905,134.422,186.53,134.592,186.484,134.582z M184.748,134.176c-0.062,0.01-0.126,0.012-0.187,0.022
	C184.623,134.134,184.684,134.129,184.748,134.176C184.684,134.186,184.724,134.169,184.748,134.176z M154.388,165.447
	c0.121,0.012,0.192,0.076,0.212,0.194c-0.076,0.325-1.09-0.138-1.196-0.276C153.753,165.159,154.075,165.28,154.388,165.447z
	 M161.637,165.42C161.103,166.732,159.751,164.505,161.637,165.42C161.556,165.61,161.319,165.268,161.637,165.42z M163.729,171.793
	L163.729,171.793c0.015-0.039,0.049-0.052,0.096-0.057C163.801,171.754,163.771,171.766,163.729,171.793z M163.916,171.754
	c-0.03-0.007,0.145-0.537,0.485-0.564C164.81,171.446,164.118,171.778,163.916,171.754
	C163.887,171.746,164.362,171.81,163.916,171.754z M168.18,134.971c-0.357,0.241-0.793,0.081-1.164,0.222
	C167.537,134.836,167.771,134.865,168.18,134.971C167.825,135.212,168.118,134.954,168.18,134.971z M154.641,161.386
	c-0.145-0.537-0.347-0.544,0.015-1.014C154.796,160.871,154.796,161.174,154.641,161.386
	C154.585,161.169,154.796,161.174,154.641,161.386z M144.876,180.017c-0.01,0.194-0.106,0.271-0.288,0.199
	c-0.066-0.052-0.101-0.704,0.02-0.842C144.699,179.586,144.79,179.796,144.876,180.017
	C144.906,180.106,144.79,179.796,144.876,180.017z M167.454,144.778c0.418-0.01,0.761,0.121,1.13,0.394
	C168.089,145.27,167.771,145.078,167.454,144.778z M204.763,148.943l0.01,0.005c-0.121-0.039-0.857-0.482-0.559-0.721
	C204.426,148.071,204.734,148.869,204.763,148.943z M212.325,152.704c-0.14-0.148-0.433-0.049-0.514-0.345
	c0.256,0.133,0.534,0.066,0.783,0.258C212.502,152.692,212.406,152.78,212.325,152.704
	C212.185,152.559,212.406,152.78,212.325,152.704z M168.815,135.222c-0.071-0.106-0.202-0.037-0.273-0.133
	c0.207-0.229,0.49-0.153,0.746-0.219C169.278,134.9,168.975,135.456,168.815,135.222
	C168.743,135.116,168.859,135.289,168.815,135.222z M167.554,135.5c-0.332,0.254-0.677,0.5-1.145,0.458
	C166.722,135.633,167.146,135.584,167.554,135.5z M167.436,146.654c0.091,0.02,0.187-0.005,0.337-0.02
	c-0.448,0.542-0.962-0.217-0.852-0.246C166.838,146.41,167.407,146.649,167.436,146.654
	C167.527,146.673,167.262,146.624,167.436,146.654z M167.623,135.717c0.313-0.251,0.677-0.293,1.058-0.258
	C168.354,135.643,168.012,135.749,167.623,135.717z M202.878,150.206c-0.357-0.049,0.665-0.372,0.293,0.096
	C203.065,150.294,202.969,150.265,202.878,150.206C202.821,150.198,202.988,150.213,202.878,150.206z M214.127,152.778
	c-0.217-0.106-0.298-0.246-0.236-0.497C214.07,152.414,214.146,152.554,214.127,152.778z M168.396,137.351
	c0.13-0.226,0.263-0.288,0.711-0.278C168.881,137.317,168.652,137.361,168.396,137.351z M165.142,138.863
	c-0.256,0.138-0.448,0.244-0.721,0.224C164.613,138.863,164.839,138.87,165.142,138.863z M192.185,140.721
	c-0.052,0.096-0.005,0.162,0.066,0.236c-0.076-0.039-0.394-0.433-0.155-0.49C192.209,140.514,192.244,140.596,192.185,140.721
	C192.133,140.817,192.224,140.665,192.185,140.721z M151.439,162.784c-0.015,0.158-0.091,0.231-0.231,0.229
	C151.136,162.88,151.367,162.508,151.439,162.784C151.458,162.875,151.422,162.727,151.439,162.784z M166.604,209.573
	c0.121,0.044,0.187,0.135,0.202,0.263C166.806,210.23,166.095,209.622,166.604,209.573
	C166.686,209.563,166.489,209.583,166.604,209.573z M165.585,139.097c-0.086,0.128-0.202,0.192-0.394,0.258
	C165.285,139.143,165.42,139.106,165.585,139.097z M145.204,179.948C145.172,180.399,145.076,179.513,145.204,179.948
	C145.204,180.005,145.189,179.899,145.204,179.948z M168.593,139.847c0.01-0.01,0.034,0.005,0.052,0.01
	C168.598,139.892,168.497,139.892,168.593,139.847z M166.58,135.547c-0.052,0.01-0.106,0.015-0.158,0.025
	C166.469,135.537,166.526,135.532,166.58,135.547z M166.402,135.582c-0.034,0,0.01-0.01,0.02-0.01
	C166.41,135.574,166.402,135.574,166.402,135.582z M166.181,135.641c0,0,0,0.005,0,0.007
	C166.176,135.641,166.181,135.641,166.181,135.641z M166.181,135.641c0.052-0.066,0.135-0.054,0.207-0.057
	C166.334,135.655,166.262,135.668,166.181,135.641z M167.618,135.717h0.005C167.623,135.722,167.618,135.727,167.618,135.717z
	 M167.618,135.722c-0.02,0.084-0.081,0.066-0.14,0.066C167.503,135.722,167.554,135.712,167.618,135.722z M151.04,181.873
	C150.939,181.797,151.104,181.93,151.04,181.873C150.998,181.844,151.089,181.918,151.04,181.873z M199.225,139.252
	C199.498,139.333,199.237,139.313,199.225,139.252C199.225,139.252,199.232,139.303,199.225,139.252z M192.256,140.962
	c0,0,0-0.005-0.005-0.005c0.03,0.005,0.034,0.025,0.03,0.057C192.276,140.999,192.266,140.98,192.256,140.962
	C192.256,140.962,192.266,140.98,192.256,140.962z M167.468,135.788c0.005,0,0.005,0,0.01,0c0,0.01-0.005,0.01-0.01,0.005
	C167.468,135.793,167.468,135.793,167.468,135.788z M167.382,135.813c0.025-0.01,0.057-0.01,0.086-0.02
	C167.431,135.855,167.397,135.857,167.382,135.813C167.407,135.803,167.387,135.818,167.382,135.813z M208.426,149.733
	L208.426,149.733l0.01,0.005L208.426,149.733z M172.67,178.784C172.532,178.671,172.768,178.698,172.67,178.784
	C172.652,178.774,172.704,178.754,172.67,178.784z M194.09,220.645c-0.015,0.005-0.025,0.005-0.034,0.005
	c0.005-0.02,0.01-0.034,0.034-0.025C194.09,220.625,194.09,220.64,194.09,220.645z M194.055,220.655c0-0.005-0.005-0.005,0-0.005
	V220.655z M158.065,146.885c0.025-0.005,0.443-0.049,0.293,0.113C158.201,147.079,158.107,147.038,158.065,146.885
	C158.117,146.88,158.07,146.978,158.065,146.885z M155.439,143.225c-0.121-0.079-0.096-0.16,0.071-0.249
	C155.655,143.025,155.633,143.111,155.439,143.225C155.382,143.217,155.532,143.193,155.439,143.225z"/>
<g>
</g>
<g>
</g>
<g>
</g>
<g>
</g>
<g>
</g>
<g>
</g>
<g>
</g>
<g>
</g>
<g>
</g>
<g>
</g>
<g>
</g>
<g>
</g>
<g>
</g>
<g>
</g>
<g>
</g>
</svg>
