<?xml version="1.0" encoding="iso-8859-1"?>
<!-- Generator: Adobe Illustrator 21.0.0, SVG Export Plug-In . SVG Version: 6.00 Build 0)  -->
<svg version="1.1" id="Capa_1" xmlns="http://www.w3.org/2000/svg" xmlns:xlink="http://www.w3.org/1999/xlink" x="0px" y="0px"
	 viewBox="0 0 512 512" style="enable-background:new 0 0 512 512;" xml:space="preserve">
<path style="fill:#FF5B47;" d="M512,256c0,18.578-1.975,36.697-5.747,54.157c-9.749,45.265-31.451,86.068-61.67,118.962
	c-5.966,6.499-12.267,12.696-18.871,18.547c-31.932,28.296-70.98,48.734-114.124,58.263c-1.797,0.408-3.615,0.784-5.434,1.149
	c-3.406,0.679-6.834,1.285-10.292,1.829c-8.683,1.358-17.502,2.288-26.446,2.748C264.976,511.885,260.504,512,256,512
	c-19.947,0-39.351-2.278-57.981-6.593c-9.164-2.111-18.129-4.723-26.885-7.805c-28.379-9.968-54.481-24.795-77.281-43.499
	c-11.964-9.791-23.019-20.658-33.019-32.434c-0.491-0.575-0.982-1.16-1.473-1.745c-3.333-3.981-6.541-8.077-9.624-12.267
	C18.474,365.213,0,312.759,0,256c0-33.761,6.531-65.996,18.411-95.504c2.894-7.199,6.102-14.232,9.624-21.086
	c7.805-15.245,17.105-29.602,27.69-42.872c2.456-3.093,4.995-6.123,7.596-9.091c11.473-13.103,24.263-25.036,38.16-35.568
	c2.215-1.682,4.462-3.323,6.729-4.932c13.26-9.394,27.46-17.554,42.412-24.325C182.763,8.088,218.436,0,256,0
	c41.305,0,80.321,9.78,114.866,27.146c12.476,6.28,24.367,13.552,35.579,21.703c3.971,2.894,7.868,5.893,11.661,9.017
	c13.312,10.898,25.506,23.113,36.373,36.446c31.932,39.131,52.496,87.886,56.717,141.239C511.728,242.301,512,249.114,512,256z"/>
<path style="fill:#DEAB85;" d="M198.019,362.715v142.691c-9.164-2.111-18.129-4.723-26.885-7.805
	c-28.379-9.968-54.481-24.795-77.281-43.499c-11.964-9.791-23.019-20.658-33.019-32.434v-58.953H198.019z"/>
<path style="fill:#BD8062;" d="M93.853,362.715v91.387c-11.964-9.791-23.019-20.658-33.019-32.434v-58.953H93.853z"/>
<path style="fill:#DEAB85;" d="M247.835,275.054c-6.1,11.001-6.11,35.694-6.11,35.835c0,0-0.45,95.171-69.189,95.171
	c-25.7,0-61.88,0-61.88,0c-50.729,0-79.386-51.921-79.386-96.594v-99.215c0-11.468,9.306-20.774,20.774-20.774
	c5.739,0,10.93,2.331,14.691,6.083c3.761,3.761,6.083,8.961,6.083,14.69v-42.068c0-11.477,9.306-20.774,20.774-20.774
	c5.739,0,10.93,2.322,14.69,6.082c3.761,3.762,6.083,8.953,6.083,14.691v-32.392c0-11.477,9.306-20.774,20.783-20.774
	c5.729,0,10.93,2.322,14.69,6.083c3.752,3.762,6.082,8.953,6.082,14.691v26.159c0-11.477,9.296-20.774,20.765-20.774
	c5.739,0,10.93,2.322,14.691,6.083c3.761,3.761,6.082,8.952,6.082,14.69v111.443c2.127-7.346,5.094-14.497,8.899-21.347
	c6.348-11.459,20.782-15.591,32.242-9.235C250.06,249.169,254.191,263.604,247.835,275.054z"/>
<g>
	<path style="fill:#BD8062;" d="M124.782,406.061c-8.449,0-14.126,0-14.126,0c-50.729,0-79.386-51.921-79.386-96.593v-99.215
		c0-11.468,9.306-20.774,20.774-20.774c2.481,0,4.856,0.433,7.062,1.236c-7.99,2.887-13.711,10.55-13.711,19.538v99.215
		C45.396,354.14,74.053,406.061,124.782,406.061z"/>
	<path style="fill:#BD8062;" d="M72.818,265.338v-96.67c0-11.35,8.899-20.971,20.245-21.251c2.673-0.066,5.229,0.369,7.592,1.23
		c-7.99,2.887-13.711,10.55-13.711,19.537v97.155c0,3.901-3.162,7.062-7.062,7.062l0,0C75.98,272.401,72.818,269.239,72.818,265.338
		z"/>
	<path style="fill:#BD8062;" d="M114.364,256.642v-120.85c0-11.35,8.899-20.971,20.245-21.251c2.673-0.066,5.229,0.369,7.592,1.23
		c-7.99,2.887-13.711,10.55-13.711,19.538v121.335c0,3.901-3.162,7.062-7.062,7.062l0,0
		C117.527,263.705,114.364,260.543,114.364,256.642z"/>
	<path style="fill:#BD8062;" d="M155.921,263.405V161.951c0-11.35,8.899-20.971,20.245-21.251c2.673-0.066,5.229,0.369,7.592,1.23
		c-7.99,2.887-13.711,10.55-13.711,19.538v101.939c0,3.901-3.162,7.062-7.062,7.062l0,0
		C159.083,270.469,155.921,267.307,155.921,263.405z"/>
	<path style="fill:#BD8062;" d="M242.662,245.655c-9.95-2.137-20.526,2.331-25.709,11.689c-8.749,15.759-13.093,33.142-12.88,50.693
		c-26.825,0-49.132,19.294-53.806,44.757c-0.493,2.689-2.808,4.656-5.541,4.656l0,0c-3.373,0-5.984-2.946-5.6-6.297
		c3.122-27.253,26.261-48.413,54.352-48.413c-0.212-17.551,4.132-34.935,12.88-50.693c6.348-11.459,20.782-15.591,32.242-9.235
		C240.075,243.633,241.434,244.587,242.662,245.655z"/>
</g>
<path style="fill:#FFCDA8;" d="M444.583,316.886v112.232c-5.966,6.499-12.267,12.696-18.871,18.547
	c-31.932,28.296-70.98,48.734-114.124,58.264c-1.797,0.408-3.615,0.784-5.434,1.149c-3.406,0.679-6.834,1.285-10.292,1.829
	c-8.683,1.358-17.502,2.288-26.446,2.748l0.01-194.769L444.583,316.886L444.583,316.886z"/>
<path style="fill:#EFB691;" d="M311.589,316.886v189.043c-1.797,0.408-3.615,0.784-5.434,1.149
	c-3.406,0.679-6.834,1.285-10.292,1.829c-8.683,1.358-17.502,2.288-26.446,2.748l0.01-194.769L311.589,316.886L311.589,316.886z"/>
<path style="fill:#FFCDA8;" d="M508.19,204.956c-7.789,14.046-7.801,45.574-7.801,45.755c0,0-0.575,121.517-88.343,121.517
	c-32.814,0-79.009,0-79.009,0c-64.772,0-101.362-66.294-101.362-123.332V122.214c0-14.643,11.882-26.524,26.525-26.524
	c7.327,0,13.956,2.976,18.758,7.767c4.802,4.801,7.767,11.442,7.767,18.757V68.501c0-14.655,11.882-26.524,26.525-26.524
	c7.327,0,13.956,2.964,18.757,7.767c4.802,4.802,7.767,11.43,7.767,18.758v-41.36c0-14.655,11.882-26.525,26.535-26.525
	c7.315,0,13.956,2.965,18.757,7.767c4.791,4.802,7.767,11.43,7.767,18.758v33.4c0-14.655,11.87-26.524,26.513-26.524
	c7.327,0,13.956,2.964,18.758,7.767c4.802,4.801,7.767,11.43,7.767,18.757v142.293c2.717-9.379,6.504-18.509,11.363-27.256
	c8.105-14.632,26.535-19.907,41.167-11.792C511.03,171.904,516.306,190.334,508.19,204.956z"/>
<g>
	<path style="fill:#EFB691;" d="M351.073,372.228c-10.788,0-18.036,0-18.036,0c-64.772,0-101.362-66.294-101.362-123.332V122.214
		c0-14.643,11.882-26.524,26.525-26.524c3.168,0,6.199,0.552,9.019,1.578c-10.201,3.686-17.506,13.471-17.506,24.946v126.68
		C249.711,305.934,286.302,372.228,351.073,372.228z"/>
	<path style="fill:#EFB691;" d="M284.724,192.55V69.12c0-14.491,11.362-26.777,25.849-27.134c3.413-0.085,6.676,0.471,9.694,1.569
		c-10.201,3.686-17.506,13.471-17.506,24.946V192.55c0,4.981-4.037,9.019-9.019,9.019l0,0
		C288.762,201.568,284.724,197.531,284.724,192.55z"/>
	<path style="fill:#EFB691;" d="M337.772,181.447V27.142c0-14.491,11.362-26.777,25.849-27.134c3.413-0.085,6.676,0.471,9.694,1.569
		c-10.201,3.686-17.506,13.471-17.506,24.946v154.923c0,4.981-4.038,9.019-9.019,9.019l0,0
		C341.809,190.464,337.772,186.427,337.772,181.447z"/>
	<path style="fill:#EFB691;" d="M390.832,190.083V60.542c0-14.491,11.362-26.777,25.849-27.134c3.413-0.085,6.676,0.471,9.694,1.569
		c-10.201,3.686-17.506,13.471-17.506,24.946v130.158c0,4.981-4.037,9.019-9.019,9.019l0,0
		C394.869,199.1,390.832,195.063,390.832,190.083z"/>
	<path style="fill:#EFB691;" d="M501.585,167.418c-12.704-2.728-26.208,2.976-32.826,14.925
		c-11.171,20.121-16.717,42.316-16.447,64.726c-34.25,0-62.733,24.634-68.7,57.148c-0.63,3.432-3.585,5.944-7.075,5.944l0,0
		c-4.307,0-7.64-3.762-7.15-8.04c3.986-34.797,33.532-61.815,69.398-61.815c-0.271-22.41,5.276-44.606,16.447-64.726
		c8.105-14.632,26.535-19.907,41.167-11.792C498.282,164.836,500.017,166.053,501.585,167.418z"/>
</g>
<g>
</g>
<g>
</g>
<g>
</g>
<g>
</g>
<g>
</g>
<g>
</g>
<g>
</g>
<g>
</g>
<g>
</g>
<g>
</g>
<g>
</g>
<g>
</g>
<g>
</g>
<g>
</g>
<g>
</g>
</svg>
