<?xml version="1.0" encoding="iso-8859-1"?>
<!-- Generator: Adobe Illustrator 19.0.0, SVG Export Plug-In . SVG Version: 6.00 Build 0)  -->
<svg version="1.1" id="Capa_1" xmlns="http://www.w3.org/2000/svg" xmlns:xlink="http://www.w3.org/1999/xlink" x="0px" y="0px"
	 viewBox="0 0 512 512" style="enable-background:new 0 0 512 512;" xml:space="preserve">
<circle style="fill:#00EFD1;" cx="256" cy="256" r="256"/>
<path style="fill:#00AD95;" d="M501.518,328.673L214.784,41.938l-90.157,90.157l64.989,64.988L67.365,319.335
	c-7.03,7.029-7.03,18.426,0,25.456l166.657,166.261C241.268,511.667,248.594,512,256,512
	C372.138,512,470.195,434.656,501.518,328.673z"/>
<rect x="229.32" y="331.51" style="fill:#A17852;" width="164.43" height="27.789"/>
<rect x="311.54" y="331.51" style="fill:#8A6746;" width="82.21" height="27.795"/>
<rect x="207.69" y="357.08" style="fill:#715539;" width="207.69" height="30.898"/>
<rect x="311.54" y="357.08" style="fill:#5A422D;" width="103.84" height="30.896"/>
<path style="fill:#715538;" d="M67.364,319.334L201.82,184.878l27.693,27.693L95.058,347.028c-7.029,7.029-18.426,7.029-25.456,0
	l-2.237-2.237C60.335,337.761,60.335,326.364,67.364,319.334z"/>
<path style="fill:#5A422D;" d="M229.518,212.573L96.183,345.908c-7.654,7.654-20.047,7.646-27.693,0l147.182-147.182
	L229.518,212.573z"/>
<polygon style="fill:#A17852;" points="254.964,262.433 282.297,289.765 372.454,199.608 345.121,172.276 335.534,181.863 
	232.529,78.858 242.116,69.271 214.784,41.938 124.627,132.095 151.959,159.428 161.546,149.841 264.551,252.846 "/>
<polygon style="fill:#715538;" points="372.453,199.611 282.296,289.767 254.965,262.436 264.55,252.851 213.048,201.349 
	284.035,130.362 335.537,181.864 345.122,172.279 "/>
<rect x="242.791" y="200.307" transform="matrix(0.7071 -0.7071 0.7071 0.7071 -62.8875 268.7661)" style="fill:#FFCF00;" width="100.389" height="19.976"/>
<rect x="153.905" y="111.427" transform="matrix(0.7071 -0.7071 0.7071 0.7071 -26.074 179.882)" style="fill:#FFE670;" width="100.389" height="19.976"/>
<g>
</g>
<g>
</g>
<g>
</g>
<g>
</g>
<g>
</g>
<g>
</g>
<g>
</g>
<g>
</g>
<g>
</g>
<g>
</g>
<g>
</g>
<g>
</g>
<g>
</g>
<g>
</g>
<g>
</g>
</svg>
