<?xml version="1.0" encoding="iso-8859-1"?>
<!-- Generator: Adobe Illustrator 19.0.0, SVG Export Plug-In . SVG Version: 6.00 Build 0)  -->
<svg version="1.1" id="Capa_1" xmlns="http://www.w3.org/2000/svg" xmlns:xlink="http://www.w3.org/1999/xlink" x="0px" y="0px"
	 viewBox="0 0 464 464" style="enable-background:new 0 0 464 464;" xml:space="preserve">
<circle style="fill:#FDBD40;" cx="352" cy="172" r="80"/>
<g>
	<path style="fill:#FFD782;" d="M72,420v-40h80l56-80l-32-24l-40,56H56l32-24l-24-32L0,332v88H72z"/>
	<path style="fill:#FFD782;" d="M392,420v-40h-80l-56-80l32-24l40,56h80l-32-24l24-32l64,56v88H392z"/>
</g>
<path style="fill:#F98C96;" d="M16,100h192v144H16V100z"/>
<g>
	<path style="fill:#DD3E46;" d="M159.992,108c-3.907-0.003-7.241-2.829-7.883-6.684C151.82,99.645,144.648,60,112,60
		s-39.82,39.645-40.109,41.332c-0.752,4.354-4.892,7.275-9.246,6.523c-4.325-0.747-7.241-4.839-6.535-9.171
		C59.258,79.77,75,44,112,44s52.742,35.77,55.891,54.684c0.724,4.361-2.224,8.484-6.585,9.208
		C160.871,107.964,160.432,108,159.992,108z"/>
	<path style="fill:#DD3E46;" d="M16,132h192v80H16V132z"/>
</g>
<path style="fill:#FFF69A;" d="M376,148v-16h-16v-16h-16v16h-16v48h32v16h-32v16h16v16h16v-16h16v-48h-32v-16H376z"/>
<g>
</g>
<g>
</g>
<g>
</g>
<g>
</g>
<g>
</g>
<g>
</g>
<g>
</g>
<g>
</g>
<g>
</g>
<g>
</g>
<g>
</g>
<g>
</g>
<g>
</g>
<g>
</g>
<g>
</g>
</svg>
