<svg height="480pt" viewBox="0 0 480 480" width="480pt" xmlns="http://www.w3.org/2000/svg"><path d="m240 0c-132.546875 0-240 107.453125-240 240s107.453125 240 240 240 240-107.453125 240-240c-.148438-132.484375-107.515625-239.851562-240-240zm-8 16.199219v195.90625l-103.800781-166.082031c31.625-18.320313 67.277343-28.5625 103.800781-29.824219zm-117.382812 38.273437 107.566406 172.121094-195.199219-55.777344c15.5-47.425781 46.328125-88.351562 87.632813-116.34375zm-98.617188 185.527344c0-18.132812 2.207031-36.199219 6.574219-53.800781l202.152343 57.761719-148.566406 148.566406c-38.6875-41.363282-60.191406-95.890625-60.160156-152.527344zm224 224c-56.636719.03125-111.164062-21.472656-152.527344-60.160156l158.183594-158.183594c.167969-.167969.246094-.410156.398438-.59375.320312-.386719.601562-.804688.839843-1.246094.179688-.246094.339844-.5.488281-.761718.089844-.214844.082032-.445313.152344-.671876.144532-.488281.242188-.988281.289063-1.496093.078125-.289063.136719-.585938.175781-.886719v-223.800781c121.515625 5.085937 216.773438 106.203125 214.597656 227.804687-2.171875 121.601563-100.980468 219.253906-222.597656 219.996094zm0 0"/></svg>