<svg height="464pt" viewBox="0 0 464 464" width="464pt" xmlns="http://www.w3.org/2000/svg"><path d="m456 464c4.417969 0 8-3.582031 8-8v-448c0-4.417969-3.582031-8-8-8h-448c-4.417969 0-8 3.582031-8 8v448c0 4.417969 3.582031 8 8 8zm-8-219.753906-35.105469-36.246094h35.105469zm-48-228.246094h48v48h-48zm0 64h48v48h-48zm0 64h48v48h-48zm-64-128h48v48h-48zm0 64h48v48h-48zm48 64v34.160156l-33.089844-34.160156zm-112-128h48v48h-48zm0 64h48v48h-48zm0 64h36.6875l-36.6875 36.6875zm-64-128h48v48h-48zm0 64h48v48h-48zm0 64h48v48h-48zm0 64h36.6875l-36.6875 36.6875zm-64-192h48v48h-48zm0 64h48v48h-48zm0 64h48v48h-48zm48 64v36.6875l-36.6875-36.6875zm-112-192h48v48h-48zm0 64h48v48h-48zm0 64h48v48h-48zm0 64h36.6875l-36.6875 36.6875zm-64-192h48v48h-48zm0 64h48v48h-48zm0 64h48v48h-48zm0 64h48v48h-48zm0 64h36.6875l-36.6875 36.6875zm0 59.3125 120-120 58.34375 58.34375c3.125 3.121094 8.1875 3.121094 11.3125 0l124.304688-124.296875 118.039062 121.878906v180.761719h-432zm0 0"/></svg>