<svg height="480pt" viewBox="0 -16 480 480" width="480pt" xmlns="http://www.w3.org/2000/svg"><path d="m8 448h464c4.417969 0 8-3.582031 8-8s-3.582031-8-8-8h-8v-408c0-4.417969-3.582031-8-8-8h-64c-4.417969 0-8 3.582031-8 8v408h-32v-328c0-4.417969-3.582031-8-8-8h-64c-4.417969 0-8 3.582031-8 8v328h-32v-280c0-4.417969-3.582031-8-8-8h-64c-4.417969 0-8 3.582031-8 8v280h-32v-248c0-4.417969-3.582031-8-8-8h-64c-4.417969 0-8 3.582031-8 8v248h-32v-424c0-4.417969-3.582031-8-8-8s-8 3.582031-8 8v432c0 4.417969 3.582031 8 8 8zm392-416h48v400h-48zm-112 80h48v320h-48zm-112 48h48v272h-48zm-112 32h48v240h-48zm0 0"/></svg>