<svg height="480pt" viewBox="0 0 480 480" width="480pt" xmlns="http://www.w3.org/2000/svg"><path d="m472 464h-8v-408c0-4.417969-3.582031-8-8-8h-64c-4.417969 0-8 3.582031-8 8v408h-32v-328c0-4.417969-3.582031-8-8-8h-64c-4.417969 0-8 3.582031-8 8v328h-32v-280c0-4.417969-3.582031-8-8-8h-64c-4.417969 0-8 3.582031-8 8v280h-32v-248c0-4.417969-3.582031-8-8-8h-64c-4.417969 0-8 3.582031-8 8v248h-32v-456c0-4.417969-3.582031-8-8-8s-8 3.582031-8 8v464c0 4.417969 3.582031 8 8 8h464c4.417969 0 8-3.582031 8-8s-3.582031-8-8-8zm-360 0h-48v-240h48zm112 0h-48v-272h48zm112 0h-48v-320h48zm112 0h-48v-400h48zm0 0"/><path d="m56 144h.527344c101.542968-6.6875 213.144531-53.769531 279.472656-116.542969v12.542969c0 4.417969 3.582031 8 8 8s8-3.582031 8-8v-32c.003906-.0625.003906-.121094 0-.183594-.046875-.597656-.164062-1.191406-.351562-1.761718-.070313-.433594-.171876-.859376-.304688-1.277344-.210938-.367188-.449219-.71875-.710938-1.050782-.304687-.535156-.671874-1.035156-1.089843-1.488281-.046875 0-.054688-.101562-.101563-.140625-.320312-.230468-.660156-.433594-1.007812-.609375-.46875-.359375-.976563-.664062-1.511719-.902343-.574219-.1875-1.164063-.308594-1.761719-.363282-.378906-.101562-.769531-.1796872-1.160156-.222656h-32c-4.417969 0-8 3.582031-8 8s3.582031 8 8 8h12.800781c-63.664062 60.320312-171.199219 105.601562-269.320312 112-4.417969.144531-7.882813 3.839844-7.742188 8.261719.144531 4.417969 3.84375 7.882812 8.261719 7.738281zm0 0"/></svg>