<svg height="480pt" viewBox="0 0 480 480" width="480pt" xmlns="http://www.w3.org/2000/svg"><path d="m472 232h-.558594c-1.757812-21.988281-4.695312-43.863281-8.800781-65.535156-10.394531-52.800782-25.640625-78.464844-46.640625-78.464844-25.695312 0-36.214844 37.601562-47.367188 77.441406-8.296874 29.65625-18.625 66.558594-32.632812 66.558594-18.710938 0-31.105469-63.3125-40.152344-109.535156-12.855468-65.710938-23.96875-122.464844-55.847656-122.464844-24.265625 0-35.199219 43.449219-51.039062 114.335938-10.464844 46.855468-26.28125 117.664062-44.960938 117.664062-10.078125 0-18.296875-29.007812-24.304688-50.175781-9.007812-31.792969-17.527343-61.824219-39.695312-61.824219-33.679688 0-61.550781 83.734375-70 112h-2c-4.417969 0-8 3.582031-8 8s3.582031 8 8 8h2c8.449219 28.265625 36.320312 112 70 112 22.167969 0 30.6875-30.03125 39.695312-61.824219 6.007813-21.167969 14.226563-50.175781 24.304688-50.175781 18.679688 0 34.496094 70.808594 44.960938 117.664062 15.839843 70.886719 26.773437 114.335938 51.039062 114.335938 31.878906 0 42.992188-56.753906 55.847656-122.464844 9.046875-46.222656 21.441406-109.535156 40.152344-109.535156 14.007812 0 24.335938 36.902344 32.632812 66.558594 11.152344 39.839844 21.671876 77.441406 47.367188 77.441406 21 0 36.246094-25.664062 46.625-78.464844 4.109375-21.671875 7.050781-43.546875 8.816406-65.535156h.558594c4.417969 0 8-3.582031 8-8s-3.582031-8-8-8zm-367.695312 61.824219c-6.007813 21.167969-14.226563 50.175781-24.304688 50.175781-15.105469 0-38.457031-48.054688-53.28125-96h94.203125c-7.320313 14.570312-12.898437 29.949219-16.617187 45.824219zm-77.585938-61.824219c14.816406-47.945312 38.167969-96 53.28125-96 10.078125 0 18.296875 29.007812 24.304688 50.175781 3.71875 15.875 9.296874 31.253907 16.617187 45.824219zm253.433594 122.464844c-9.046875 46.222656-21.441406 109.535156-40.152344 109.535156-12.679688 0-26.910156-63.742188-35.425781-101.824219-10.742188-48.113281-20.484375-91.703125-35.773438-114.175781h142.199219c-14.199219 21.390625-22.121094 61.832031-30.847656 106.464844zm-111.351563-122.464844c15.320313-22.472656 25.0625-66.0625 35.808594-114.175781 8.480469-38.082031 22.710937-101.824219 35.390625-101.824219 18.710938 0 31.105469 63.3125 40.152344 109.535156 8.726562 44.632813 16.648437 85.074219 30.847656 106.464844zm247.199219 144c-13.550781 0-23.761719-36.457031-31.953125-65.753906-6.757813-24.148438-13.328125-47.4375-23.125-62.246094h94.476563c-6.335938 87.199219-26.949219 128-39.398438 128zm-55.078125-144c9.796875-14.808594 16.367187-38.097656 23.125-62.246094 8.191406-29.296875 18.402344-65.753906 31.953125-65.753906 18.824219 0 34.640625 64.886719 39.40625 128zm0 0"/></svg>