<svg height="480pt" viewBox="0 0 480.29294 480" width="480pt" xmlns="http://www.w3.org/2000/svg"><path d="m432.632812 384.375c-13.621093-71.105469-45.28125-137.519531-91.945312-192.875 16.75-19.402344 15.273438-48.550781-3.355469-66.160156-18.628906-17.609375-47.8125-17.445313-66.246093.371094-51.609376-38.867188-111.417969-65.421876-174.863282-77.640626-.097656-25.015624-19.347656-45.78125-44.285156-47.769531-24.933594-1.992187-47.234375 15.460938-51.296875 40.140625-4.066406 24.683594 11.464844 48.363282 35.722656 54.472656 24.253907 6.109376 49.148438-7.390624 57.261719-31.050781 60.925781 11.785157 118.359375 37.324219 167.925781 74.664063-9.765625 18.960937-5.820312 42.097656 9.675781 56.75 15.5 14.65625 38.820313 17.300781 57.203126 6.488281 44.816406 53.152344 75.25 116.914063 88.394531 185.183594-23.589844 8.0625-37.070313 32.851562-31.015625 57.035156 6.058594 24.183594 29.632812 39.695313 54.238281 35.683594 24.605469-4.007813 42.035156-26.203125 40.101563-51.054688-1.933594-24.855469-22.585938-44.085937-47.515626-44.238281zm-384.410156-304c-17.671875 0-32-14.328125-32-32 0-17.675781 14.328125-32 32-32 17.675782 0 32 14.324219 32 32 0 17.671875-14.324218 32-32 32zm256 112c-17.671875 0-32-14.328125-32-32 0-17.675781 14.328125-32 32-32 17.675782 0 32 14.324219 32 32 0 17.671875-14.324218 32-32 32zm128 272c-17.671875 0-32-14.328125-32-32 0-17.675781 14.328125-32 32-32 17.675782 0 32 14.324219 32 32 0 17.671875-14.324218 32-32 32zm0 0"/><path d="m8.222656 160.375c-4.417968 0-8 3.582031-8 8v304c0 4.417969 3.582032 8 8 8h304c4.417969 0 8-3.582031 8-8-.191406-172.234375-139.765625-311.808594-312-312zm8 304v-287.890625c157.121094 4.449219 283.445313 130.769531 287.898438 287.890625zm0 0"/></svg>