<svg height="480pt" viewBox="0 0 480 480" width="480pt" xmlns="http://www.w3.org/2000/svg"><path d="m216 448c4.417969 0 8-3.582031 8-8v-304c0-4.417969-3.582031-8-8-8h-80c-4.417969 0-8 3.582031-8 8v304c0 4.417969 3.582031 8 8 8zm-72-304h64v288h-64zm0 0"/><path d="m8 448h80c4.417969 0 8-3.582031 8-8v-240c0-4.417969-3.582031-8-8-8h-80c-4.417969 0-8 3.582031-8 8v240c0 4.417969 3.582031 8 8 8zm8-240h64v224h-64zm0 0"/><path d="m344 448c4.417969 0 8-3.582031 8-8v-368c0-4.417969-3.582031-8-8-8h-80c-4.417969 0-8 3.582031-8 8v368c0 4.417969 3.582031 8 8 8zm-72-368h64v352h-64zm0 0"/><path d="m472 0h-80c-4.417969 0-8 3.582031-8 8v432c0 4.417969 3.582031 8 8 8h80c4.417969 0 8-3.582031 8-8v-432c0-4.417969-3.582031-8-8-8zm-8 432h-64v-416h64zm0 0"/><path d="m472 464h-464c-4.417969 0-8 3.582031-8 8s3.582031 8 8 8h464c4.417969 0 8-3.582031 8-8s-3.582031-8-8-8zm0 0"/></svg>