<svg height="480pt" viewBox="0 0 480 480" width="480pt" xmlns="http://www.w3.org/2000/svg"><path d="m472 464h-24v-248c0-4.417969-3.582031-8-8-8h-56v-120c0-4.417969-3.582031-8-8-8h-64c-4.417969 0-8 3.582031-8 8v56h-120c-4.417969 0-8 3.582031-8 8v56h-56c-4.417969 0-8 3.582031-8 8v56h-56c-4.417969 0-8 3.582031-8 8v184h-32v-456c0-4.417969-3.582031-8-8-8s-8 3.582031-8 8v464c0 4.417969 3.582031 8 8 8h464c4.417969 0 8-3.582031 8-8s-3.582031-8-8-8zm-360 0h-48v-48h48zm0-64h-48v-48h48zm0-64h-48v-48h48zm64 128h-48v-48h48zm0-64h-48v-48h48zm0-64h-48v-48h48zm0-64h-48v-48h48zm64 192h-48v-48h48zm0-64h-48v-48h48zm0-64h-48v-48h48zm0-64h-48v-48h48zm0-64h-48v-48h48zm64 256h-48v-48h48zm0-64h-48v-48h48zm0-64h-48v-48h48zm0-64h-48v-48h48zm0-64h-48v-48h48zm64 256h-48v-48h48zm0-64h-48v-48h48zm0-64h-48v-48h48zm0-64h-48v-48h48zm0-64h-48v-48h48zm0-64h-48v-48h48zm64 320h-48v-48h48zm0-64h-48v-48h48zm0-64h-48v-48h48zm0-64h-48v-48h48zm0 0"/></svg>