<svg height="496pt" viewBox="0 -24 496 496" width="496pt" xmlns="http://www.w3.org/2000/svg"><path d="m492.121094 177.144531-76.121094-45.671875v-73.183594c0-2.75-1.414062-5.3125-3.742188-6.773437l-80-50.289063c-2.605468-1.636718-5.910156-1.636718-8.515624 0l-75.742188 47.617188-75.742188-47.617188c-2.605468-1.636718-5.910156-1.636718-8.515624 0l-80 50.289063c-2.328126 1.460937-3.742188 4.023437-3.742188 6.773437v73.183594l-76.121094 45.671875c-2.40625 1.449219-3.878906 4.050781-3.878906 6.859375v80c0 2.804688 1.472656 5.40625 3.878906 6.855469l76.121094 45.671875v75.472656c0 2.804688 1.472656 5.40625 3.878906 6.855469l80 48c2.535156 1.523437 5.707032 1.523437 8.242188 0l75.878906-45.53125 75.878906 45.53125c2.535156 1.523437 5.707032 1.523437 8.242188 0l80-48c2.40625-1.449219 3.878906-4.050781 3.878906-6.855469v-75.472656l76.121094-45.671875c2.40625-1.449219 3.878906-4.050781 3.878906-6.855469v-80c0-2.808594-1.472656-5.410156-3.878906-6.859375zm-236.121094-114.429687 72-45.257813 72 45.257813v66.574218l-29.984375 18.847657-23.304687-37.292969c3.398437-4.203125 5.265624-9.4375 5.289062-14.839844.023438-11.675781-8.378906-21.667968-19.886719-23.644531-11.507812-1.980469-22.761719 4.628906-26.640625 15.644531h-49.472656zm133.289062 176.128906-23.914062 38.253906-29.375-17.625v-70.941406l29.375-17.601562 23.914062 38.257812c-7.054687 8.636719-7.054687 21.042969 0 29.679688zm-56.097656 89.757812c-11.816406-2.710937-23.777344 3.933594-27.71875 15.402344h-49.472656v-27.472656l72-43.203125 28.894531 17.339844zm2.808594 23.402344c0 4.417969-3.582031 8-8 8s-8-3.582031-8-8c0-4.421875 3.582031-8 8-8s8 3.578125 8 8zm0-256c0 4.417969-3.582031 8-8 8s-8-3.582031-8-8c0-4.421875 3.582031-8 8-8s8 3.578125 8 8zm-80 8h49.472656c3.941406 11.464844 15.902344 18.109375 27.71875 15.398438l23.28125 37.246094-28.472656 17.898437-72-45.257813zm-160-41.289062 72-45.257813 72 45.257813v25.289062h-49.472656c-3.117188-9.019531-11.296875-15.324218-20.808594-16.042968-9.515625-.71875-18.550781 4.28125-22.988281 12.730468-4.4375 8.445313-3.433594 18.722656 2.558593 26.152344l-23.304687 37.292969-29.984375-18.847657zm10.710938 146.445312 23.914062-38.253906 29.375 17.625v70.941406l-29.375 17.601563-23.914062-38.257813c7.054687-8.636718 7.054687-21.042968 0-29.679687zm32.800781-52.511718 23.28125-37.246094c11.824219 2.722656 23.792969-3.925782 27.734375-15.398438h49.472656v25.285156l-72 45.257813zm20.488281-60.644532c0-4.421875 3.582031-8 8-8s8 3.578125 8 8c0 4.417969-3.582031 8-8 8s-8-3.582031-8-8zm-144 163.46875v-70.941406l72-43.203125 28.894531 17.339844-23.703125 37.933593c-9.621094-2.191406-19.605468 1.726563-25.164062 9.882813s-5.558594 18.878906 0 27.035156 15.542968 12.074219 25.164062 9.882813l23.703125 37.9375-28.894531 17.335937zm80-35.46875c0 4.417969-3.582031 8-8 8s-8-3.582031-8-8c0-4.421875 3.582031-8 8-8s8 3.578125 8 8zm144 163.46875-72 43.203125-72-43.203125v-70.941406l29.375-17.601562 23.914062 38.257812c-3.394531 4.195312-5.261718 9.417969-5.289062 14.816406-.023438 11.671875 8.378906 21.664063 19.886719 23.640625 11.507812 1.980469 22.761719-4.628906 26.640625-15.640625h49.472656zm-80-35.46875c0-4.421875 3.582031-8 8-8s8 3.578125 8 8c0 4.417969-3.582031 8-8 8s-8-3.582031-8-8zm80-8h-49.472656c-3.941406-11.46875-15.902344-18.113281-27.71875-15.402344l-23.703125-37.933593 28.894531-17.339844 72 43.203125zm-64-84.53125v-71.046875l72-45.222656 72 45.261719v71.050781l-72 43.199219zm224 128-72 43.203125-72-43.203125v-27.46875h49.472656c3.117188 9.015625 11.296875 15.320313 20.808594 16.039063 9.515625.71875 18.550781-4.28125 22.988281-12.730469 4.4375-8.445312 3.433594-18.722656-2.558593-26.152344l23.914062-38.253906 29.375 17.625zm80-128-72 43.203125-28.894531-17.335937 23.703125-37.9375c9.621094 2.191406 19.605468-1.726563 25.164062-9.882813s5.558594-18.878906 0-27.035156-15.542968-12.074219-25.164062-9.882813l-23.703125-37.933593 28.894531-17.339844 72 43.203125zm-80-35.46875c0-4.421875 3.582031-8 8-8s8 3.578125 8 8c0 4.417969-3.582031 8-8 8s-8-3.582031-8-8zm0 0"/></svg>