<svg height="479pt" viewBox="0 0 479 479.98828" width="479pt" xmlns="http://www.w3.org/2000/svg"><path d="m75.3125 160.515625c-3.097656-1.171875-6.597656-.308594-8.800781 2.167969l-64 72c-2.691407 3.027344-2.691407 7.59375 0 10.621094l64 72c2.210937 2.46875 5.710937 3.320312 8.804687 2.140624 3.097656-1.175781 5.144532-4.140624 5.15625-7.453124v-32h64c10.613282 25.257812 30.722656 45.332031 56 55.898437v64.101563h-32c-3.320312.003906-6.292968 2.058593-7.472656 5.160156-1.179688 3.101562-.320312 6.609375 2.160156 8.816406l72 64c3.03125 2.691406 7.59375 2.691406 10.625 0l72-64c2.480469-2.207031 3.339844-5.714844 2.160156-8.816406-1.179687-3.101563-4.152343-5.15625-7.472656-5.160156h-32v-64c25.289063-10.59375 45.402344-30.707032 56-56h64v32c.003906 3.320312 2.054688 6.292968 5.15625 7.472656 3.105469 1.179687 6.613282.320312 8.820313-2.160156l64-72c2.691406-3.027344 2.691406-7.59375 0-10.621094l-64-72c-2.207031-2.480469-5.714844-3.339844-8.820313-2.160156-3.101562 1.179687-5.152344 4.152343-5.15625 7.46875v32h-64c-10.609375-25.265626-30.722656-45.355469-56-55.933594v-64.066406h32c3.320313 0 6.292969-2.054688 7.472656-5.15625 1.179688-3.101563.320313-6.609376-2.160156-8.816407l-72-64c-3.03125-2.691406-7.59375-2.691406-10.625 0l-72 64c-2.480468 2.207031-3.339844 5.714844-2.160156 8.816407 1.179688 3.101562 4.152344 5.15625 7.472656 5.15625h32v64c-25.292968 10.597656-45.40625 30.710937-56 56h-64v-32c0-3.320313-2.054687-6.296876-5.160156-7.476563zm268.617188 68.796875c-.515626-4.484375-1.316407-8.933594-2.402344-13.320312h66.945312c4.417969 0 8-3.578126 8-8v-18.957032l45.296875 50.957032-45.296875 50.960937v-18.960937c0-4.417969-3.582031-8-8-8h-66.921875c2.75-11.339844 3.550781-23.066407 2.378907-34.679688zm-52.496094 186.679688-50.960938 45.296874-50.960937-45.296874h18.960937c4.417969 0 8-3.578126 8-8v-66.910157c7.832032 1.902344 15.859375 2.878907 23.917969 2.910157 3.59375 0 7.1875-.183594 10.761719-.550782 4.488281-.507812 8.9375-1.308594 13.320312-2.398437v66.949219c0 4.421874 3.582032 8 8 8zm-101.921875-352 50.960937-45.292969 50.960938 45.292969h-18.960938c-4.417968 0-8 3.582031-8 8v66.953124c-15.753906-3.949218-32.238281-3.964843-48-.046874v-66.90625c0-4.417969-3.582031-8-8-8zm41.921875 88.472656c48.34375-4.996094 91.585937 30.148437 96.578125 78.492187 4.996093 48.34375-30.148438 91.585938-78.492188 96.578125-48.347656 4.992188-91.585937-30.15625-96.574219-78.5-2.519531-23.238281 4.359376-46.515625 19.101563-64.65625 14.742187-18.136718 36.125-29.628906 59.386719-31.914062zm-92.042969 63.527344c-3.925781 15.761718-3.925781 32.242187 0 48h-66.917969c-4.417968 0-8 3.582031-8 8v18.960937l-45.296875-50.960937 45.296875-50.957032v18.957032c0 4.421874 3.582032 8 8 8zm0 0"/></svg>