<svg height="480pt" viewBox="0 0 480 480" width="480pt" xmlns="http://www.w3.org/2000/svg"><path d="m144 440c0 4.417969 3.582031 8 8 8h64c4.417969 0 8-3.582031 8-8v-176c0-22.089844-17.910156-40-40-40s-40 17.910156-40 40zm16-176c0-13.253906 10.746094-24 24-24s24 10.746094 24 24v168h-48zm0 0"/><path d="m32 440c0 4.417969 3.582031 8 8 8h64c4.417969 0 8-3.582031 8-8v-144c0-22.089844-17.910156-40-40-40s-40 17.910156-40 40zm16-144c0-13.253906 10.746094-24 24-24s24 10.746094 24 24v136h-48zm0 0"/><path d="m256 440c0 4.417969 3.582031 8 8 8h64c4.417969 0 8-3.582031 8-8v-224c0-22.089844-17.910156-40-40-40s-40 17.910156-40 40zm16-224c0-13.253906 10.746094-24 24-24s24 10.746094 24 24v216h-48zm0 0"/><path d="m368 440c0 4.417969 3.582031 8 8 8h64c4.417969 0 8-3.582031 8-8v-304c0-22.089844-17.910156-40-40-40s-40 17.910156-40 40zm16-304c0-13.253906 10.746094-24 24-24s24 10.746094 24 24v296h-48zm0 0"/><path d="m472 464h-464c-4.417969 0-8 3.582031-8 8s3.582031 8 8 8h464c4.417969 0 8-3.582031 8-8s-3.582031-8-8-8zm0 0"/><path d="m408 80c22.089844 0 40-17.910156 40-40s-17.910156-40-40-40-40 17.910156-40 40c.027344 22.082031 17.917969 39.972656 40 40zm0-64c13.253906 0 24 10.746094 24 24s-10.746094 24-24 24-24-10.746094-24-24 10.746094-24 24-24zm0 0"/><path d="m296 160c22.089844 0 40-17.910156 40-40s-17.910156-40-40-40-40 17.910156-40 40c.027344 22.082031 17.917969 39.972656 40 40zm0-64c13.253906 0 24 10.746094 24 24s-10.746094 24-24 24-24-10.746094-24-24 10.746094-24 24-24zm0 0"/><path d="m184 208c22.089844 0 40-17.910156 40-40s-17.910156-40-40-40-40 17.910156-40 40c.027344 22.082031 17.917969 39.972656 40 40zm0-64c13.253906 0 24 10.746094 24 24s-10.746094 24-24 24-24-10.746094-24-24 10.746094-24 24-24zm0 0"/><path d="m72 240c22.089844 0 40-17.910156 40-40s-17.910156-40-40-40-40 17.910156-40 40c.027344 22.082031 17.917969 39.972656 40 40zm0-64c13.253906 0 24 10.746094 24 24s-10.746094 24-24 24-24-10.746094-24-24 10.746094-24 24-24zm0 0"/></svg>