<svg height="480pt" viewBox="0 0 480 480" width="480pt" xmlns="http://www.w3.org/2000/svg"><path d="m240 480c-132.484375-.148438-239.851562-107.515625-240-240 0-4.417969 3.582031-8 8-8s8 3.582031 8 8c0 123.710938 100.289062 224 224 224s224-100.289062 224-224-100.289062-224-224-224c-4.417969 0-8-3.582031-8-8s3.582031-8 8-8c132.546875 0 240 107.453125 240 240s-107.453125 240-240 240zm0 0"/><path d="m192 16h-96c-4.417969 0-8-3.582031-8-8s3.582031-8 8-8h96c4.417969 0 8 3.582031 8 8s-3.582031 8-8 8zm0 0"/><path d="m72 8c0 4.417969-3.582031 8-8 8s-8-3.582031-8-8 3.582031-8 8-8 8 3.582031 8 8zm0 0"/><path d="m192 64h-96c-4.417969 0-8-3.582031-8-8s3.582031-8 8-8h96c4.417969 0 8 3.582031 8 8s-3.582031 8-8 8zm0 0"/><path d="m72 56c0 4.417969-3.582031 8-8 8s-8-3.582031-8-8 3.582031-8 8-8 8 3.582031 8 8zm0 0"/><path d="m192 112h-96c-4.417969 0-8-3.582031-8-8s3.582031-8 8-8h96c4.417969 0 8 3.582031 8 8s-3.582031 8-8 8zm0 0"/><path d="m72 104c0 4.417969-3.582031 8-8 8s-8-3.582031-8-8 3.582031-8 8-8 8 3.582031 8 8zm0 0"/><path d="m240 336c-53.019531 0-96-42.980469-96-96s42.980469-96 96-96 96 42.980469 96 96c-.058594 52.996094-43.003906 95.941406-96 96zm0-176c-44.183594 0-80 35.816406-80 80s35.816406 80 80 80 80-35.816406 80-80c-.046875-44.164062-35.835938-79.953125-80-80zm0 0"/><path d="m240 432c-93.234375.191406-173.066406-66.769531-189.105469-158.617188-.761719-4.351562 2.144531-8.5 6.496094-9.261718 4.351563-.765625 8.5 2.144531 9.265625 6.496094 16.214844 91.792968 101.191406 155.027343 193.777344 144.191406 92.582031-10.839844 160.660156-91.984375 155.242187-185.042969-5.421875-93.058594-82.460937-165.75-175.675781-165.765625-4.417969 0-8-3.582031-8-8s3.582031-8 8-8c106.039062 0 192 85.960938 192 192s-85.960938 192-192 192zm0 0"/><path d="m240 384c-53.171875.042969-102.035156-29.25-127.054688-76.167969-1.394531-2.523437-1.324218-5.601562.1875-8.058593 1.507813-2.457032 4.222657-3.910157 7.105469-3.804688 2.878907.105469 5.480469 1.75 6.808594 4.3125 29.503906 55.265625 94.675781 81.054688 154.007813 60.945312 59.335937-20.113281 95.390624-80.214843 85.207031-142.03125-10.183594-61.816406-63.613281-107.179687-126.261719-107.195312-4.417969 0-8-3.582031-8-8s3.582031-8 8-8c79.527344 0 144 64.472656 144 144s-64.472656 144-144 144zm0 0"/></svg>