<svg height="480pt" viewBox="0 0 480 480" width="480pt" xmlns="http://www.w3.org/2000/svg"><path d="m472 232h-224v-224c0-4.417969-3.582031-8-8-8s-8 3.582031-8 8v154.113281c-9.070312-21.628906-23.488281-40.59375-41.902344-55.113281-.941406-1.164062-2.195312-2.03125-3.617187-2.496094-14.738281-10.542968-32.359375-16.300781-50.480469-16.503906-18.121094.203125-35.742188 5.960938-50.480469 16.503906-1.421875.464844-2.675781 1.332032-3.617187 2.496094-32.855469 24.710938-55.503906 71.199219-57.605469 125h-16.296875c-4.417969 0-8 3.582031-8 8s3.582031 8 8 8h224v224c0 4.417969 3.582031 8 8 8s8-3.582031 8-8v-154.113281c9.070312 21.628906 23.488281 40.59375 41.902344 55.113281.9375 1.164062 2.191406 2.027344 3.609375 2.496094 30.0625 22.003906 70.914062 22.003906 100.976562 0 1.417969-.46875 2.671875-1.332032 3.609375-2.496094 32.855469-24.710938 55.527344-71.199219 57.597656-125h16.304688c4.417969 0 8-3.582031 8-8s-3.582031-8-8-8zm-392 0h-39.710938c1.734376-42.0625 16.976563-78.992188 39.710938-102.238281zm48 0h-32v-115.472656c9.59375-6.414063 20.550781-10.507813 32-11.953125zm48 0h-32v-127.425781c11.449219 1.445312 22.40625 5.539062 32 11.953125zm16 0v-102.238281c22.734375 23.246093 37.976562 60.175781 39.710938 102.238281zm96 118.238281c-22.734375-23.246093-37.976562-60.175781-39.710938-102.238281h39.710938zm48 25.1875c-11.449219-1.445312-22.40625-5.539062-32-11.953125v-115.472656h32zm48-11.953125c-9.59375 6.414063-20.550781 10.507813-32 11.953125v-127.425781h32zm16-13.234375v-102.238281h39.710938c-1.734376 42.0625-16.976563 78.992188-39.710938 102.238281zm0 0"/></svg>