<svg height="480pt" viewBox="0 0 480 480" width="480pt" xmlns="http://www.w3.org/2000/svg"><path d="m240 0c-132.546875 0-240 107.453125-240 240s107.453125 240 240 240 240-107.453125 240-240c-.148438-132.484375-107.515625-239.851562-240-240zm0 464c-123.710938 0-224-100.289062-224-224s100.289062-224 224-224 224 100.289062 224 224c-.140625 123.652344-100.347656 223.859375-224 224zm0 0"/><path d="m385.878906 288.886719-78.542968-114.796875c5.328124-7.238282 6.148437-16.855469 2.121093-24.890625-4.027343-8.035157-12.21875-13.136719-21.207031-13.199219s-17.253906 4.917969-21.394531 12.894531l-123.335938-17.613281c-2.285156-11.703125-12.820312-19.953125-24.726562-19.371094-11.910157.585938-21.585938 9.824219-22.71875 21.695313-1.132813 11.867187 6.621093 22.769531 18.207031 25.59375l11.511719 115.199219c-8.210938 3.820312-13.566407 11.941406-13.839844 20.996093-.277344 9.050781 4.578125 17.480469 12.542969 21.789063s17.679687 3.757812 25.105468-1.421875l51.519532 37.460937c-.703125 2.191406-1.082032 4.476563-1.121094 6.777344-.074219 12.980469 10.210938 23.65625 23.1875 24.066406s23.914062-9.59375 24.660156-22.554687l124.65625-35.617188c7 10.125 20.492188 13.371094 31.328125 7.535157 10.839844-5.835938 15.554688-18.886719 10.953125-30.304688-4.601562-11.414062-17.050781-17.546875-28.90625-14.238281zm-97.878906-136.886719c4.417969 0 8 3.582031 8 8s-3.582031 8-8 8-8-3.582031-8-8 3.582031-8 8-8zm-168-8c-4.417969 0-8-3.582031-8-8s3.582031-8 8-8 8 3.582031 8 8-3.582031 8-8 8zm16 160c-4.417969 0-8-3.582031-8-8s3.582031-8 8-8 8 3.582031 8 8-3.582031 8-8 8zm88 64c-4.417969 0-8-3.582031-8-8s3.582031-8 8-8 8 3.582031 8 8-3.582031 8-8 8zm144.152344-57.511719-124.65625 35.617188c-7.546875-10.71875-22.328125-13.339844-33.097656-5.867188l-51.527344-37.460937c.707031-2.191406 1.085937-4.476563 1.128906-6.777344-.050781-11.011719-7.589844-20.578125-18.289062-23.199219l-11.511719-115.121093c4.695312-2.234376 8.535156-5.929688 10.945312-10.535157l123.335938 17.597657c2.257812 11.199218 12.097656 19.253906 23.519531 19.257812 2.070312-.027344 4.128906-.328125 6.121094-.886719l78.550781 114.789063c-2.683594 3.675781-4.25 8.042968-4.519531 12.585937zm31.847656 1.511719c0 4.417969-3.582031 8-8 8s-8-3.582031-8-8 3.582031-8 8-8 8 3.582031 8 8zm0 0"/></svg>