<svg height="480pt" viewBox="0 0 480.02787 480" width="480pt" xmlns="http://www.w3.org/2000/svg"><path d="m472 464.015625h-456v-456c0-4.421875-3.582031-8-8-8s-8 3.578125-8 8v464c0 4.417969 3.582031 8 8 8h464c4.417969 0 8-3.582031 8-8 0-4.421875-3.582031-8-8-8zm0 0"/><path d="m376.535156 85.367188c1-.003907 1.988282-.1875 2.921875-.546876l14.894531-5.832031c4.117188-1.609375 6.148438-6.25 4.535157-10.367187-1.609375-4.113282-6.25-6.144532-10.367188-4.535156l-14.894531 5.824218c-3.589844 1.394532-5.675781 5.152344-4.964844 8.9375.714844 3.785156 4.023438 6.523438 7.875 6.519532zm0 0"/><path d="m123.199219 277.613281c1.085937 2.707031 3.558593 4.609375 6.453125 4.964844 2.894531.355469 5.753906-.890625 7.460937-3.257813 1.707031-2.363281 1.992188-5.46875.742188-8.105468l-6.398438-14.65625c-1.851562-3.90625-6.472656-5.636719-10.433593-3.90625-3.960938 1.730468-5.832032 6.292968-4.222657 10.304687zm0 0"/><path d="m204 293.679688c3.066406 0 5.863281-1.753907 7.199219-4.515626l6.976562-14.398437c1.308594-2.582031 1.121094-5.667969-.488281-8.070313-1.613281-2.402343-4.394531-3.75-7.277344-3.519531-2.886718.226563-5.421875 1.996094-6.632812 4.621094l-6.96875 14.402344c-1.203125 2.476562-1.042969 5.402343.421875 7.734375 1.460937 2.335937 4.023437 3.753906 6.777343 3.753906zm0 0"/><path d="m421.238281 67.871094c1 0 1.992188-.183594 2.921875-.546875l14.894532-5.824219c4.121093-1.609375 6.152343-6.253906 4.542968-10.371094-1.613281-4.117187-6.253906-6.148437-10.375-4.539062l-14.894531 5.832031c-3.578125 1.402344-5.652344 5.152344-4.941406 8.929687.710937 3.777344 4.007812 6.515626 7.851562 6.519532zm0 0"/><path d="m43.945312 302.566406-10.128906 12.382813c-1.957031 2.195312-2.554687 5.28125-1.554687 8.046875 1 2.761718 3.433593 4.757812 6.339843 5.191406s5.816407-.757812 7.582032-3.109375l10.136718-12.382813c2.628907-3.429687 2.058594-8.324218-1.28125-11.058593-3.34375-2.738281-8.253906-2.324219-11.09375.929687zm0 0"/><path d="m74.328125 265.421875-10.128906 12.382813c-2.742188 3.425781-2.214844 8.421874 1.183593 11.199218 3.402344 2.773438 8.402344 2.292969 11.210938-1.078125l10.125-12.382812c2.742188-3.425781 2.214844-8.421875-1.183594-11.199219-3.398437-2.773438-8.398437-2.292969-11.207031 1.078125zm0 0"/><path d="m465.9375 50.414062c.996094-.003906 1.988281-.191406 2.917969-.550781l6.066406-2.402343c2.667969-1.035157 4.582031-3.421876 5.015625-6.253907.429688-2.832031-.683594-5.679687-2.925781-7.464843-2.242188-1.78125-5.269531-2.230469-7.933594-1.175782l-6.0625 2.398438c-3.578125 1.40625-5.65625 5.15625-4.941406 8.933594.714843 3.78125 4.015625 6.515624 7.863281 6.515624zm0 0"/><path d="m331.839844 102.855469c1 .003906 1.988281-.183594 2.921875-.546875l14.894531-5.824219c4.117188-1.605469 6.152344-6.25 4.542969-10.367187-1.609375-4.117188-6.25-6.152344-10.367188-4.542969l-14.902343 5.832031c-3.582032 1.402344-5.65625 5.152344-4.941407 8.929688.710938 3.777343 4.007813 6.515624 7.851563 6.519531zm0 0"/><path d="m142.472656 321.613281c1.082032 2.707031 3.554688 4.609375 6.453125 4.964844 2.894531.355469 5.753907-.890625 7.460938-3.257813 1.707031-2.363281 1.988281-5.46875.742187-8.105468l-6.402344-14.65625c-1.847656-3.90625-6.46875-5.636719-10.429687-3.90625-3.960937 1.730468-5.832031 6.292968-4.226563 10.304687zm0 0"/><path d="m179.574219 336.085938c3.980469 1.925781 8.765625.257812 10.691406-3.71875l6.964844-14.402344c1.308593-2.578125 1.121093-5.664063-.488281-8.070313-1.609376-2.402343-4.394532-3.75-7.277344-3.519531-2.882813.226562-5.421875 1.996094-6.632813 4.621094l-6.976562 14.402344c-1.925781 3.976562-.257813 8.765624 3.71875 10.6875zm0 0"/><path d="m266.464844 138.164062-6.96875 14.402344c-1.308594 2.582032-1.121094 5.667969.488281 8.070313 1.613281 2.402343 4.394531 3.75 7.277344 3.519531 2.886719-.226562 5.421875-1.996094 6.632812-4.621094l6.96875-14.402344c1.308594-2.578124 1.121094-5.664062-.488281-8.070312-1.613281-2.402344-4.394531-3.75-7.277344-3.519531-2.886718.226562-5.421875 1.996093-6.632812 4.621093zm0 0"/><path d="m116 227.148438c-3.417969-2.792969-8.449219-2.289063-11.246094 1.121093l-10.152344 12.382813c-2.792968 3.421875-2.289062 8.453125 1.125 11.25 3.417969 2.792968 8.449219 2.292968 11.25-1.121094l10.136719-12.367188c2.804688-3.417968 2.304688-8.460937-1.113281-11.265624zm0 0"/><path d="m160.472656 363.445312c1.273438 2.917969 4.152344 4.800782 7.335938 4.800782 1.101562.003906 2.191406-.226563 3.199218-.671875 4.046876-1.773438 5.890626-6.488281 4.121094-10.535157l-6.402344-14.65625c-1.082031-2.707031-3.554687-4.609374-6.449218-4.964843-2.894532-.355469-5.753906.890625-7.460938 3.257812-1.707031 2.363281-1.992187 5.46875-.746094 8.105469zm0 0"/><path d="m284.136719 120.054688c3.023437 1.449218 6.632812.859374 9.039062-1.480469l11.777344-4.601563c4.113281-1.605468 6.148437-6.246094 4.539063-10.363281-1.609376-4.113281-6.25-6.148437-10.363282-4.539063l-14.039062 5.488282c-1.890625.738281-3.425782 2.167968-4.296875 4l-.402344.800781c-.925781 1.914063-1.050781 4.117187-.347656 6.125.703125 2.003906 2.175781 3.648437 4.09375 4.570313zm0 0"/><path d="m231.847656 172.550781-106.191406-106.191406c-1.808594-1.832031-4.398438-2.667969-6.9375-2.242187-2.539062.410156-4.726562 2.019531-5.878906 4.320312l-80 160c-1.976563 3.953125-.371094 8.761719 3.585937 10.738281 3.953125 1.972657 8.757813.367188 10.734375-3.585937l75.03125-150.070313 98.34375 98.34375c-7.65625 12.671875-5.449218 28.964844 5.304688 39.144531-.464844.480469-.867188 1.015626-1.199219 1.597657l-6.96875 14.402343c-1.308594 2.578126-1.121094 5.664063.488281 8.066407 1.613282 2.40625 4.394532 3.753906 7.28125 3.523437 2.882813-.226562 5.417969-1.996094 6.628906-4.625l6.96875-14.398437c.09375-.289063.171876-.585938.226563-.886719 8.363281 2.589844 17.441406 1.421875 24.878906-3.203125l42.191407 42.195313c1.503906 1.496093 3.539062 2.339843 5.664062 2.335937.429688 0 .855469-.035156 1.28125-.105469 2.539062-.410156 4.726562-2.019531 5.878906-4.320312l68.550782-137.097656 80.976562 36.800781c3.996094 1.710937 8.628906-.082031 10.429688-4.039063 1.800781-3.960937.113281-8.632812-3.804688-10.519531l-88-40c-3.917969-1.8125-8.566406-.167969-10.472656 3.703125l-67.03125 134.074219-34.34375-34.347657c2.941406-4.875 4.507812-10.457031 4.535156-16.148437 0-17.675781-14.328125-32-32-32-5.695312.027344-11.277344 1.59375-16.152344 4.535156zm32.152344 27.464844c0 8.835937-7.164062 16-16 16s-16-7.164063-16-16c0-8.839844 7.164062-16 16-16s16 7.160156 16 16zm0 0"/></svg>