<svg height="480pt" viewBox="-8 0 480 480" width="480pt" xmlns="http://www.w3.org/2000/svg"><path d="m8 480h128c4.417969 0 8-3.582031 8-8v-128c0-4.417969-3.582031-8-8-8h-128c-4.417969 0-8 3.582031-8 8v128c0 4.417969 3.582031 8 8 8zm8-128h112v112h-112zm0 0"/><path d="m320 344v128c0 4.417969 3.582031 8 8 8h128c4.417969 0 8-3.582031 8-8v-128c0-4.417969-3.582031-8-8-8h-128c-4.417969 0-8 3.582031-8 8zm16 8h112v112h-112zm0 0"/><path d="m168 480h128c4.417969 0 8-3.582031 8-8v-128c0-4.417969-3.582031-8-8-8h-128c-4.417969 0-8 3.582031-8 8v128c0 4.417969 3.582031 8 8 8zm8-128h112v112h-112zm0 0"/><path d="m240 176v128c0 4.417969 3.582031 8 8 8h128c4.417969 0 8-3.582031 8-8v-128c0-4.417969-3.582031-8-8-8h-128c-4.417969 0-8 3.582031-8 8zm16 8h112v112h-112zm0 0"/><path d="m88 312h128c4.417969 0 8-3.582031 8-8v-128c0-4.417969-3.582031-8-8-8h-128c-4.417969 0-8 3.582031-8 8v128c0 4.417969 3.582031 8 8 8zm8-128h112v112h-112zm0 0"/><path d="m168 144h128c4.417969 0 8-3.582031 8-8v-128c0-4.417969-3.582031-8-8-8h-128c-4.417969 0-8 3.582031-8 8v128c0 4.417969 3.582031 8 8 8zm8-128h112v112h-112zm0 0"/></svg>