<svg height="480pt" viewBox="0 0 480 480.00289" width="480pt" xmlns="http://www.w3.org/2000/svg"><path d="m240 0c-82.671875-.0195312-159.527344 42.515625-203.410156 112.578125-43.878906 70.0625-48.601563 157.78125-12.496094 232.148437.117188 2.078126 1.109375 4.007813 2.730469 5.3125 41.125 79.8125 123.390625 129.964844 213.175781 129.964844s172.046875-50.152344 213.175781-129.964844c1.621094-1.304687 2.613281-3.234374 2.726563-5.3125 36.105468-74.367187 31.386718-162.085937-12.496094-232.148437-43.878906-70.0625-120.738281-112.5976562-203.40625-112.578125zm128 240c0 70.691406-57.308594 128-128 128s-128-57.308594-128-128 57.308594-128 128-128c70.65625.082031 127.914062 57.34375 128 128zm-352 0c.152344-120.527344 95.554688-219.371094 216-223.800781v80.207031c-45.792969 2.375-87.6875 26.5-112.726562 64.910156-25.039063 38.410156-30.207032 86.476563-13.898438 129.332032l-69.375 41.640624c-13.191406-28.980468-20.011719-60.449218-20-92.289062zm224 224c-82.183594-.054688-157.75-45.070312-196.929688-117.3125l68.800782-41.28125c24.515625 48.222656 74.03125 78.597656 128.128906 78.597656 54.09375 0 103.609375-30.375 128.128906-78.597656l68.796875 41.28125c-39.179687 72.242188-114.746093 117.257812-196.925781 117.3125zm204-131.710938-69.402344-41.601562c16.324219-42.855469 11.167969-90.929688-13.867187-129.351562-25.035157-38.417969-66.933594-62.550782-112.730469-64.929688v-80.207031c74.621094 2.609375 143.027344 42.265625 182.375 105.722656 39.351562 63.460937 44.460938 142.363281 13.625 210.367187zm0 0"/></svg>