<svg height="480pt" viewBox="0 0 480 480.06746" width="480pt" xmlns="http://www.w3.org/2000/svg"><path d="m8.035156 224h208c4.417969 0 8-3.582031 8-8v-208c0-4.417969-3.582031-8-8-8-119.238281.132812-215.871094 96.761719-215.9999998 216 0 4.417969 3.5820318 8 7.9999998 8zm200-207.839844v191.839844h-191.839844c4.292969-104.121094 87.71875-187.546875 191.839844-191.839844zm0 0"/><path d="m248.304688.207031c-2.171876-.089843-4.28125.726563-5.832032 2.25-1.542968 1.511719-2.40625 3.582031-2.398437 5.742188v231.800781h-231.839844c-2.171875 0-4.246094.878906-5.757813 2.4375-1.507812 1.5625-2.316406 3.667969-2.242187 5.835938 4.457031 130.339843 112.183594 233.261718 242.59375 231.777343 130.40625-1.484375 235.761719-106.835937 237.25-237.242187s-101.433594-238.136719-231.773437-242.601563zm-8.269532 463.792969c-117.679687.472656-215.46875-90.585938-223.378906-208h231.378906c4.417969 0 8-3.582031 8-8v-231.375c119.992188 8.964844 211.460938 111.132812 207.160156 231.382812-4.300781 120.25-102.835937 215.621094-223.160156 215.992188zm0 0"/></svg>