<svg height="480pt" viewBox="0 0 480 480" width="480pt" xmlns="http://www.w3.org/2000/svg"><path d="m472 0h-464c-4.417969 0-8 3.582031-8 8v464c0 4.417969 3.582031 8 8 8h464c4.417969 0 8-3.582031 8-8v-464c0-4.417969-3.582031-8-8-8zm-8 464h-448v-216h72c4.417969 0 8-3.582031 8-8v-72h64v72c0 4.417969 3.582031 8 8 8h144v72c0 4.417969 3.582031 8 8 8h80c4.417969 0 8-3.582031 8-8v-72h56zm0-232h-64c-4.417969 0-8 3.582031-8 8v72h-64v-72c0-4.417969-3.582031-8-8-8h-144v-72c0-4.417969-3.582031-8-8-8h-80c-4.417969 0-8 3.582031-8 8v72h-64v-216h448zm0 0"/></svg>