<svg height="480pt" viewBox="0 -40 480 480" width="480pt" xmlns="http://www.w3.org/2000/svg"><path d="m472 176h-33.472656c-3.339844-9.585938-12.378906-16.007812-22.527344-16.007812s-19.1875 6.421874-22.527344 16.007812h-66.945312c-3.339844-9.585938-12.378906-16.007812-22.527344-16.007812s-19.1875 6.421874-22.527344 16.007812h-66.945312c-3.339844-9.585938-12.378906-16.007812-22.527344-16.007812s-19.1875 6.421874-22.527344 16.007812h-65.472656c-.46875.046875-.933594.140625-1.382812.28125-3.242188-9.671875-12.273438-16.214844-22.472657-16.277344s-19.3125 6.367188-22.671875 15.996094h-49.472656c-4.417969 0-8 3.582031-8 8s3.582031 8 8 8h49.472656c3.359375 9.628906 12.472656 16.058594 22.671875 15.996094s19.230469-6.605469 22.472657-16.277344c.449218.140625.914062.234375 1.382812.28125h65.472656c3.339844 9.585938 12.378906 16.007812 22.527344 16.007812s19.1875-6.421874 22.527344-16.007812h66.945312c3.339844 9.585938 12.378906 16.007812 22.527344 16.007812s19.1875-6.421874 22.527344-16.007812h66.945312c3.339844 9.585938 12.378906 16.007812 22.527344 16.007812s19.1875-6.421874 22.527344-16.007812h33.472656c4.417969 0 8-3.582031 8-8s-3.582031-8-8-8zm-392 16c-4.417969 0-8-3.582031-8-8s3.582031-8 8-8 8 3.582031 8 8-3.582031 8-8 8zm112 0c-4.417969 0-8-3.582031-8-8s3.582031-8 8-8 8 3.582031 8 8-3.582031 8-8 8zm112 0c-4.417969 0-8-3.582031-8-8s3.582031-8 8-8 8 3.582031 8 8-3.582031 8-8 8zm112 0c-4.417969 0-8-3.582031-8-8s3.582031-8 8-8 8 3.582031 8 8-3.582031 8-8 8zm0 0"/><path d="m8 112h44l21.601562 28.800781c1.507813 2.011719 3.878907 3.199219 6.398438 3.199219s4.890625-1.1875 6.398438-3.199219l21.601562-28.800781h44c4.417969 0 8-3.582031 8-8v-96c0-4.417969-3.582031-8-8-8h-144c-4.417969 0-8 3.582031-8 8v96c0 4.417969 3.582031 8 8 8zm8-96h128v80h-40c-2.519531 0-4.890625 1.1875-6.398438 3.199219l-17.601562 23.464843-17.601562-23.464843c-1.507813-2.011719-3.878907-3.199219-6.398438-3.199219h-40zm0 0"/><path d="m276 112 21.601562 28.800781c1.507813 2.011719 3.878907 3.199219 6.398438 3.199219s4.890625-1.1875 6.398438-3.199219l21.601562-28.800781h44c4.417969 0 8-3.582031 8-8v-96c0-4.417969-3.582031-8-8-8h-144c-4.417969 0-8 3.582031-8 8v96c0 4.417969 3.582031 8 8 8zm-36-96h128v80h-40c-2.519531 0-4.890625 1.1875-6.398438 3.199219l-17.601562 23.464843-17.601562-23.464843c-1.507813-2.011719-3.878907-3.199219-6.398438-3.199219h-40zm0 0"/><path d="m56 296v96c0 4.417969 3.582031 8 8 8h32c4.417969 0 8-3.582031 8-8v-96c0-4.417969-3.582031-8-8-8h-32c-4.417969 0-8 3.582031-8 8zm16 8h16v80h-16zm0 0"/><path d="m168 296v96c0 4.417969 3.582031 8 8 8h32c4.417969 0 8-3.582031 8-8v-96c0-4.417969-3.582031-8-8-8h-32c-4.417969 0-8 3.582031-8 8zm16 8h16v80h-16zm0 0"/><path d="m280 296v96c0 4.417969 3.582031 8 8 8h32c4.417969 0 8-3.582031 8-8v-96c0-4.417969-3.582031-8-8-8h-32c-4.417969 0-8 3.582031-8 8zm16 8h16v80h-16zm0 0"/><path d="m392 296v96c0 4.417969 3.582031 8 8 8h32c4.417969 0 8-3.582031 8-8v-96c0-4.417969-3.582031-8-8-8h-32c-4.417969 0-8 3.582031-8 8zm16 8h16v80h-16zm0 0"/><path d="m72 224h16v16h-16zm0 0"/><path d="m72 256h16v16h-16zm0 0"/><path d="m184 224h16v16h-16zm0 0"/><path d="m184 256h16v16h-16zm0 0"/><path d="m296 224h16v16h-16zm0 0"/><path d="m296 256h16v16h-16zm0 0"/><path d="m408 224h16v16h-16zm0 0"/><path d="m408 256h16v16h-16zm0 0"/></svg>