<svg height="480pt" viewBox="0 0 480 480" width="480pt" xmlns="http://www.w3.org/2000/svg"><path d="m472 8h-160c-4.417969 0-8 3.582031-8 8v24h-41.472656c-2.417969-6.777344-7.75-12.109375-14.527344-14.527344v-17.472656c0-4.417969-3.582031-8-8-8s-8 3.582031-8 8v17.472656c-9.585938 3.339844-16.007812 12.378906-16.007812 22.527344s6.421874 19.1875 16.007812 22.527344v82.945312c-6.777344 2.417969-12.109375 7.75-14.527344 14.527344h-41.472656v-56c0-4.417969-3.582031-8-8-8h-160c-4.417969 0-8 3.582031-8 8v128c0 4.417969 3.582031 8 8 8h160c4.417969 0 8-3.582031 8-8v-56h41.472656c2.417969 6.777344 7.75 12.109375 14.527344 14.527344v82.945312c-9.585938 3.339844-16.007812 12.378906-16.007812 22.527344s6.421874 19.1875 16.007812 22.527344v82.945312c-6.777344 2.417969-12.109375 7.75-14.527344 14.527344h-41.472656v-88c0-4.417969-3.582031-8-8-8h-160c-4.417969 0-8 3.582031-8 8v128c0 4.417969 3.582031 8 8 8h160c4.417969 0 8-3.582031 8-8v-24h41.472656c2.417969 6.777344 7.75 12.109375 14.527344 14.527344v17.472656c0 4.417969 3.582031 8 8 8s8-3.582031 8-8v-17.472656c9.585938-3.339844 16.007812-12.378906 16.007812-22.527344s-6.421874-19.1875-16.007812-22.527344v-82.945312c6.777344-2.417969 12.109375-7.75 14.527344-14.527344h41.472656v56c0 4.417969 3.582031 8 8 8h160c4.417969 0 8-3.582031 8-8v-128c0-4.417969-3.582031-8-8-8h-160c-4.417969 0-8 3.582031-8 8v56h-41.472656c-2.417969-6.777344-7.75-12.109375-14.527344-14.527344v-82.945312c9.585938-3.339844 16.007812-12.378906 16.007812-22.527344s-6.421874-19.1875-16.007812-22.527344v-82.945312c6.777344-2.417969 12.109375-7.75 14.527344-14.527344h41.472656v88c0 4.417969 3.582031 8 8 8h160c4.417969 0 8-3.582031 8-8v-128c0-4.417969-3.582031-8-8-8zm-312 224h-144v-112h144zm0 224h-144v-112h144zm160-208h144v112h-144zm-80 192c-4.417969 0-8-3.582031-8-8s3.582031-8 8-8 8 3.582031 8 8-3.582031 8-8 8zm0-128c-4.417969 0-8-3.582031-8-8s3.582031-8 8-8 8 3.582031 8 8-3.582031 8-8 8zm0-128c-4.417969 0-8-3.582031-8-8s3.582031-8 8-8 8 3.582031 8 8-3.582031 8-8 8zm0-128c-4.417969 0-8-3.582031-8-8s3.582031-8 8-8 8 3.582031 8 8-3.582031 8-8 8zm224 80h-144v-112h144zm0 0"/></svg>