<svg height="480pt" viewBox="0 0 480.00756 480" width="480pt" xmlns="http://www.w3.org/2000/svg"><path d="m7.964844 479.648438h464c2.777344.015624 5.367187-1.414063 6.835937-3.777344 1.46875-2.359375 1.605469-5.3125.363281-7.800782l-232-464c-1.503906-2.523437-4.222656-4.06640575-7.160156-4.06640575s-5.65625 1.54296875-7.160156 4.06640575l-232 464c-1.238281 2.476563-1.105469 5.410157.34375 7.769532 1.449219 2.355468 4.011719 3.792968 6.777344 3.808594zm232-454.113282 51.054687 102.113282h-102.113281zm-59.058594 118.113282h118.113281l48 96h-214.113281zm-56 112h230.113281l48 96h-326.113281zm-56 112h342.113281l48 96h-438.113281zm0 0"/></svg>