<svg height="480pt" viewBox="0 0 480 480" width="480pt" xmlns="http://www.w3.org/2000/svg"><path d="m152 24h-112c-4.417969 0-8 3.582031-8 8v64c0 4.417969 3.582031 8 8 8h112c4.417969 0 8-3.582031 8-8v-64c0-4.417969-3.582031-8-8-8zm-8 64h-96v-48h96zm0 0"/><path d="m472 464h-456v-456c0-4.417969-3.582031-8-8-8s-8 3.582031-8 8v464c0 4.417969 3.582031 8 8 8h464c4.417969 0 8-3.582031 8-8s-3.582031-8-8-8zm0 0"/><path d="m248 136h-112c-4.417969 0-8 3.582031-8 8v64c0 4.417969 3.582031 8 8 8h112c4.417969 0 8-3.582031 8-8v-64c0-4.417969-3.582031-8-8-8zm-8 64h-96v-48h96zm0 0"/><path d="m376 248h-176c-4.417969 0-8 3.582031-8 8v64c0 4.417969 3.582031 8 8 8h176c4.417969 0 8-3.582031 8-8v-64c0-4.417969-3.582031-8-8-8zm-8 64h-160v-48h160zm0 0"/><path d="m288 360v64c0 4.417969 3.582031 8 8 8h160c4.417969 0 8-3.582031 8-8v-64c0-4.417969-3.582031-8-8-8h-160c-4.417969 0-8 3.582031-8 8zm16 8h144v48h-144zm0 0"/><path d="m32 168h16v16h-16zm0 0"/><path d="m64 168h16v16h-16zm0 0"/><path d="m96 168h16v16h-16zm0 0"/><path d="m32 272h16v16h-16zm0 0"/><path d="m64 272h16v16h-16zm0 0"/><path d="m96 272h16v16h-16zm0 0"/><path d="m128 272h16v16h-16zm0 0"/><path d="m160 272h16v16h-16zm0 0"/><path d="m32 384h16v16h-16zm0 0"/><path d="m64 384h16v16h-16zm0 0"/><path d="m96 384h16v16h-16zm0 0"/><path d="m128 384h16v16h-16zm0 0"/><path d="m160 384h16v16h-16zm0 0"/><path d="m192 384h16v16h-16zm0 0"/><path d="m224 384h16v16h-16zm0 0"/><path d="m256 384h16v16h-16zm0 0"/></svg>