<?xml version="1.0" encoding="iso-8859-1"?>
<!-- Generator: Adobe Illustrator 19.0.0, SVG Export Plug-In . SVG Version: 6.00 Build 0)  -->
<svg version="1.1" id="Capa_1" xmlns="http://www.w3.org/2000/svg" xmlns:xlink="http://www.w3.org/1999/xlink" x="0px" y="0px"
	 viewBox="0 0 480 480" style="enable-background:new 0 0 480 480;" xml:space="preserve">
<g>
	<g>
		<path d="M478.4,67.2l-24-32c-2.908-3.535-8.131-4.042-11.666-1.134c-0.414,0.34-0.794,0.72-1.134,1.134l-24,32
			c-1.039,1.385-1.6,3.069-1.6,4.8v376c0,17.673,14.327,32,32,32c17.673,0,32-14.327,32-32V72C480,70.269,479.439,68.585,478.4,67.2
			z M464,448c0,8.837-7.163,16-16,16s-16-7.163-16-16v-16h32V448z M464,416h-32v-16h32V416z M464,384h-32V96h32V384z M464,80h-32
			v-5.336l16-21.328l16,21.328V80z"/>
	</g>
</g>
<g>
	<g>
		<path d="M392.032,0c-0.011,0-0.021,0-0.032,0H40c-4.418,0-8,3.582-8,8v136.8C13.389,148.628,0.024,164.999,0,184v256
			c0.026,22.08,17.92,39.974,40,40h288c2.121-0.005,4.154-0.847,5.656-2.344l64-64c0.669-0.68,1.211-1.474,1.6-2.344
			c0.112-0.248,0.176-0.488,0.264-0.744c0.23-0.672,0.37-1.371,0.416-2.08c0-0.168,0.096-0.32,0.096-0.488V8
			C400.032,3.582,396.45,0,392.032,0z M240,440c0,13.255-10.745,24-24,24H40c-13.255,0-24-10.745-24-24V184
			c0-13.255,10.745-24,24-24h176c13.255,0,24,10.745,24,24V440z M136,96v48H80V96H136z M80,80V48h56v32H80z M208,96v48h-56V96H208z
			 M152,80V48h56v32H152z M224,144.8V96h56v112h-24v-24C255.976,164.999,242.611,148.628,224,144.8z M224,80V48h56v32H224z
			 M336,452.688V416h36.688L336,452.688z M384,400h-56c-4.418,0-8,3.582-8,8v56h-72.208c5.294-6.883,8.179-15.316,8.208-24V224h104
			c4.418,0,8-3.582,8-8V40c0-4.418-3.582-8-8-8H72c-4.418,0-8,3.582-8,8v104H48V16h336V400z M352,96v112h-56V96H352z M296,80V48h56
			v32H296z"/>
	</g>
</g>
<g>
	<g>
		<path d="M216,184H40c-4.418,0-8,3.582-8,8v48c0,4.418,3.582,8,8,8h176c4.418,0,8-3.582,8-8v-48C224,187.582,220.418,184,216,184z
			 M208,232H48v-32h160V232z"/>
	</g>
</g>
<g>
	<g>
		<path d="M224,328h-48c-4.418,0-8,3.582-8,8v96c0,4.418,3.582,8,8,8h48c4.418,0,8-3.582,8-8v-96C232,331.582,228.418,328,224,328z
			 M216,424h-32v-80h32V424z"/>
	</g>
</g>
<g>
	<g>
		<path d="M224,264h-48c-4.418,0-8,3.582-8,8v32c0,4.418,3.582,8,8,8h48c4.418,0,8-3.582,8-8v-32C232,267.582,228.418,264,224,264z
			 M216,296h-32v-16h32V296z"/>
	</g>
</g>
<g>
	<g>
		<path d="M152,328h-48c-4.418,0-8,3.582-8,8v32c0,4.418,3.582,8,8,8h48c4.418,0,8-3.582,8-8v-32C160,331.582,156.418,328,152,328z
			 M144,360h-32v-16h32V360z"/>
	</g>
</g>
<g>
	<g>
		<path d="M152,264h-48c-4.418,0-8,3.582-8,8v32c0,4.418,3.582,8,8,8h48c4.418,0,8-3.582,8-8v-32C160,267.582,156.418,264,152,264z
			 M144,296h-32v-16h32V296z"/>
	</g>
</g>
<g>
	<g>
		<path d="M80,328H32c-4.418,0-8,3.582-8,8v32c0,4.418,3.582,8,8,8h48c4.418,0,8-3.582,8-8v-32C88,331.582,84.418,328,80,328z
			 M72,360H40v-16h32V360z"/>
	</g>
</g>
<g>
	<g>
		<path d="M80,264H32c-4.418,0-8,3.582-8,8v32c0,4.418,3.582,8,8,8h48c4.418,0,8-3.582,8-8v-32C88,267.582,84.418,264,80,264z
			 M72,296H40v-16h32V296z"/>
	</g>
</g>
<g>
	<g>
		<path d="M152,392h-48c-4.418,0-8,3.582-8,8v32c0,4.418,3.582,8,8,8h48c4.418,0,8-3.582,8-8v-32C160,395.582,156.418,392,152,392z
			 M144,424h-32v-16h32V424z"/>
	</g>
</g>
<g>
	<g>
		<path d="M80,392H32c-4.418,0-8,3.582-8,8v32c0,4.418,3.582,8,8,8h48c4.418,0,8-3.582,8-8v-32C88,395.582,84.418,392,80,392z
			 M72,424H40v-16h32V424z"/>
	</g>
</g>
<g>
</g>
<g>
</g>
<g>
</g>
<g>
</g>
<g>
</g>
<g>
</g>
<g>
</g>
<g>
</g>
<g>
</g>
<g>
</g>
<g>
</g>
<g>
</g>
<g>
</g>
<g>
</g>
<g>
</g>
</svg>
