<svg height="480pt" viewBox="-31 0 479 480" width="480pt" xmlns="http://www.w3.org/2000/svg"><path d="m152.5 104c-4.417969 0-8 3.582031-8 8v40h-24c-4.417969 0-8 3.582031-8 8v208c0 4.417969 3.582031 8 8 8h24v32c0 4.417969 3.582031 8 8 8s8-3.582031 8-8v-32h24c4.417969 0 8-3.582031 8-8v-208c0-4.417969-3.582031-8-8-8h-24v-40c0-4.417969-3.582031-8-8-8zm24 64v192h-48v-192zm0 0"/><path d="m264.5 72c-4.417969 0-8 3.582031-8 8v40h-24c-4.417969 0-8 3.582031-8 8v208c0 4.417969 3.582031 8 8 8h24v32c0 4.417969 3.582031 8 8 8s8-3.582031 8-8v-32h24c4.417969 0 8-3.582031 8-8v-208c0-4.417969-3.582031-8-8-8h-24v-40c0-4.417969-3.582031-8-8-8zm24 64v192h-48v-192zm0 0"/><path d="m376.5 168c-4.417969 0-8 3.582031-8 8v40h-24c-4.417969 0-8 3.582031-8 8v208c0 4.417969 3.582031 8 8 8h24v32c0 4.417969 3.582031 8 8 8s8-3.582031 8-8v-32h24c4.417969 0 8-3.582031 8-8v-208c0-4.417969-3.582031-8-8-8h-24v-40c0-4.417969-3.582031-8-8-8zm24 64v192h-48v-192zm0 0"/><path d="m40.5 0c-4.417969 0-8 3.582031-8 8v40h-24c-4.417969 0-8 3.582031-8 8v208c0 4.417969 3.582031 8 8 8h24v32c0 4.417969 3.582031 8 8 8s8-3.582031 8-8v-32h24c4.417969 0 8-3.582031 8-8v-208c0-4.417969-3.582031-8-8-8h-24v-40c0-4.417969-3.582031-8-8-8zm24 64v192h-48v-192zm0 0"/></svg>